<svg width="42" height="44" viewBox="0 0 42 44" fill="none" xmlns="http://www.w3.org/2000/svg">
<path d="M27.8254 4.98462C26.7715 4.98462 25.9035 5.90382 25.9035 7.01974C25.9035 8.13567 26.7715 9.05487 27.8254 9.05487C28.8792 9.05487 29.7472 8.13567 29.7472 7.01974C29.7472 5.90382 28.8792 4.98462 27.8254 4.98462ZM16.2941 6.34137C15.2403 6.34137 14.3722 7.26057 14.3722 8.37649C14.3722 9.49242 15.2403 10.4116 16.2941 10.4116C17.3479 10.4116 18.216 9.49242 18.216 8.37649C18.216 7.26057 17.3479 6.34137 16.2941 6.34137ZM27.8254 6.34137C28.1868 6.34137 28.466 6.63714 28.466 7.01974C28.466 7.40248 28.1868 7.69812 27.8254 7.69812C27.464 7.69812 27.1847 7.40248 27.1847 7.01974C27.1847 6.63714 27.464 6.34137 27.8254 6.34137ZM16.2941 7.69812C16.6555 7.69812 16.9347 7.99389 16.9347 8.37649C16.9347 8.75923 16.6555 9.05487 16.2941 9.05487C15.9327 9.05487 15.6535 8.75923 15.6535 8.37649C15.6535 7.99389 15.9327 7.69812 16.2941 7.69812ZM22.7004 7.69812C21.6465 7.69812 20.7785 8.61732 20.7785 9.73324C20.7785 10.8492 21.6465 11.7684 22.7004 11.7684C23.7542 11.7684 24.6222 10.8492 24.6222 9.73324C24.6222 8.61732 23.7542 7.69812 22.7004 7.69812ZM22.7004 9.05487C23.0618 9.05487 23.341 9.35064 23.341 9.73324C23.341 10.116 23.0618 10.4116 22.7004 10.4116C22.339 10.4116 22.0597 10.116 22.0597 9.73324C22.0597 9.35064 22.339 9.05487 22.7004 9.05487ZM11.8097 13.8035C11.6846 13.8029 11.562 13.8412 11.4572 13.9135C11.3523 13.9859 11.2698 14.0892 11.2197 14.2107C11.1697 14.3322 11.1543 14.4665 11.1756 14.5971C11.1968 14.7277 11.2537 14.8489 11.3393 14.9456L19.4046 24.1381V32.5542C19.4047 32.6553 19.426 32.7551 19.4671 32.8464C19.5083 32.9376 19.5681 33.0179 19.6424 33.0815L22.29 35.3604C22.3831 35.4411 22.4959 35.4923 22.6153 35.5082C22.7347 35.5242 22.8559 35.5042 22.9651 35.4505C23.0743 35.3969 23.1669 35.3117 23.2325 35.2049C23.2981 35.098 23.334 34.9738 23.336 34.8464L23.5237 24.1408L31.5014 14.943C31.5863 14.8459 31.6425 14.7248 31.6632 14.5944C31.6839 14.464 31.6682 14.33 31.6179 14.2089C31.5677 14.0879 31.4851 13.985 31.3804 13.913C31.2757 13.8409 31.1534 13.8029 31.0285 13.8035H11.8097ZM13.2787 15.1602H29.5696L22.4176 23.412C22.3109 23.5342 22.2504 23.6936 22.2474 23.8599L22.0797 33.4313L20.6859 32.2336V23.8731C20.6867 23.7013 20.6259 23.5356 20.5157 23.4094L13.2787 15.1602ZM21.4191 36.8682C20.3653 36.8682 19.4972 37.7874 19.4972 38.9034C19.4972 40.0193 20.3653 40.9385 21.4191 40.9385C22.4729 40.9385 23.341 40.0193 23.341 38.9034C23.341 37.7874 22.4729 36.8682 21.4191 36.8682ZM21.4191 38.225C21.7805 38.225 22.0597 38.5208 22.0597 38.9034C22.0597 39.2861 21.7805 39.5817 21.4191 39.5817C21.0577 39.5817 20.7785 39.2861 20.7785 38.9034C20.7785 38.5208 21.0577 38.225 21.4191 38.225Z" fill="white"/>
</svg>
