<svg width="34" height="34" viewBox="0 0 34 34" fill="none" xmlns="http://www.w3.org/2000/svg">
<path d="M25.6468 2.52493C25.0155 2.52493 24.3824 2.76452 23.9066 3.24036L23.2942 3.85589C23.2693 3.87702 23.2456 3.89962 23.2233 3.92357L22.9172 4.22972C22.8604 4.28375 22.8115 4.3456 22.7722 4.41341L21.4058 5.9055C21.3969 5.91602 21.3883 5.92677 21.38 5.93773L16.9037 10.414L9.56251 3.07278C9.25167 2.76194 8.82736 2.60872 8.40235 2.60872C7.97734 2.60872 7.55304 2.76194 7.2422 3.07278L3.28155 7.03343C2.65987 7.65511 2.65987 8.73528 3.28155 9.35696L3.28478 9.36019L10.6969 16.6176L6.14005 21.1744C6.00506 21.2082 5.88079 21.2755 5.77881 21.3702C5.67682 21.4648 5.60044 21.5837 5.55675 21.7159L3.08175 29.3052C3.03428 29.4501 3.02791 29.6054 3.06333 29.7537C3.09875 29.902 3.17459 30.0376 3.28242 30.1455C3.39025 30.2533 3.52586 30.3291 3.67418 30.3645C3.82251 30.4 3.97775 30.3936 4.12267 30.3461L11.712 27.8711C11.8823 27.8142 12.0294 27.7034 12.131 27.5553L16.8844 22.8019L24.0677 30.1431L24.0709 30.1463C24.6926 30.768 25.7728 30.768 26.3944 30.1463L30.3551 26.1857C30.9768 25.564 30.9768 24.487 30.3551 23.8654L23.088 16.5983L27.8092 11.8771C27.8912 11.7947 27.9549 11.6958 27.9961 11.587L29.0145 10.6525C29.0155 10.6514 29.0166 10.6503 29.0177 10.6493C29.084 10.6116 29.1447 10.565 29.1982 10.5107L29.5043 10.2045C29.5318 10.1805 29.5576 10.1546 29.5816 10.1272L30.1875 9.52132C31.1392 8.56964 31.1392 6.99576 30.1875 6.04407L27.3838 3.24036C26.908 2.76452 26.278 2.52493 25.6468 2.52493ZM25.6436 4.12982C25.8375 4.12982 26.033 4.2228 26.2172 4.40696L29.0209 7.21068C29.3892 7.57899 29.3892 7.9864 29.0209 8.35472L28.3989 8.97991C28.3957 8.98311 28.3925 8.98633 28.3893 8.98958L28.3506 9.02503L27.1872 10.0885L23.3394 6.24066L24.4383 5.0386L25.0732 4.40696C25.2573 4.2228 25.4496 4.12982 25.6436 4.12982ZM8.40235 4.24583L15.7371 11.5806L11.8667 15.451L10.6582 14.2651L13.4813 11.442L11.8474 9.80814L9.00499 12.6505L7.30665 10.9844L8.45069 9.84036L6.81681 8.2097L5.65665 9.36985L4.4546 8.19359L8.40235 4.24583ZM22.0181 7.63284L23.0493 8.66409L8.65694 23.0565L7.62569 22.0252L22.0181 7.63284ZM24.6832 10.298L25.8691 11.4839L11.4768 25.8763L10.2908 24.6904L24.6832 10.298ZM21.9214 17.7649L29.182 25.0255L25.2343 28.9733L24.1934 27.913L26.9777 25.1286L25.3439 23.4948L22.5788 26.263L20.7999 24.4454L21.9504 23.295L20.3165 21.6611L19.1854 22.7922L18.051 21.6353L21.9214 17.7649ZM6.70724 23.5076L9.92022 26.7206L5.69855 28.0967L5.33116 27.7293L6.70724 23.5076Z" fill="white"/>
</svg>
