<svg width="30" height="29" viewBox="0 0 30 29" fill="none" xmlns="http://www.w3.org/2000/svg">
<path fill-rule="evenodd" clip-rule="evenodd" d="M1.66387 1.09526C0.49323 2.2659 0.493228 4.16388 1.66387 5.33452L10.7608 14.4314L1.66387 23.5283C0.493229 24.6989 0.493229 26.5969 1.66387 27.7676C2.83451 28.9382 4.73249 28.9382 5.90312 27.7676L15 18.6707L24.0969 27.7676C25.2675 28.9382 27.1655 28.9382 28.3362 27.7676C29.5068 26.5969 29.5068 24.6989 28.3362 23.5283L19.2393 14.4314L28.3362 5.33453C29.5068 4.16389 29.5068 2.26591 28.3362 1.09527C27.1655 -0.0753734 25.2675 -0.0753759 24.0969 1.09526L15 10.1921L5.90313 1.09526C4.73249 -0.0753745 2.83451 -0.0753749 1.66387 1.09526Z" fill="white"/>
</svg>
