<svg width="38" height="38" viewBox="0 0 38 38" fill="none" xmlns="http://www.w3.org/2000/svg">
<path d="M17.7245 4.35219C18.2701 4.25847 18.8227 4.21127 19.3762 4.21113C20.6496 4.2077 21.911 4.45687 23.0875 4.94421C24.2639 5.43156 25.332 6.1474 26.2299 7.0503C26.2836 7.10402 26.3473 7.14663 26.4175 7.17572C26.4876 7.2048 26.5628 7.21978 26.6387 7.21981C26.7147 7.21984 26.7899 7.20491 26.86 7.17587C26.9302 7.14684 26.994 7.10427 27.0477 7.05059C27.1014 6.99691 27.144 6.93319 27.1731 6.86304C27.2022 6.79289 27.2171 6.71771 27.2172 6.64177C27.2172 6.56584 27.2023 6.49064 27.1732 6.42047C27.1442 6.35031 27.1016 6.28655 27.048 6.23283C26.0429 5.22215 24.8473 4.42087 23.5304 3.87537C22.2136 3.32987 20.8016 3.05099 19.3762 3.05488C18.7562 3.0549 18.1373 3.10789 17.5262 3.21329C17.4496 3.22418 17.376 3.25034 17.3097 3.29021C17.2434 3.33007 17.1858 3.38284 17.1403 3.44538C17.0948 3.50792 17.0622 3.57897 17.0447 3.6543C17.0271 3.72964 17.0248 3.80774 17.038 3.88397C17.0511 3.9602 17.0794 4.03302 17.1213 4.09811C17.1631 4.1632 17.2175 4.21923 17.2814 4.26289C17.3452 4.30655 17.4172 4.33696 17.493 4.35229C17.5689 4.36763 17.647 4.3676 17.7228 4.35219H17.7245Z" fill="white"/>
<path d="M35.7701 21.3398C35.3743 19.8697 34.6737 18.4992 33.7139 17.3174C32.754 16.1355 31.5564 15.1688 30.1987 14.4798C30.2085 14.2885 30.2253 14.0977 30.2259 13.9017C30.2281 11.7907 29.6117 9.7253 28.4528 7.96088C28.3684 7.83269 28.2366 7.74326 28.0864 7.71225C27.9361 7.68125 27.7797 7.7112 27.6515 7.79553C27.5233 7.87986 27.4339 8.01166 27.4029 8.16193C27.3719 8.3122 27.4018 8.46863 27.4861 8.59681C28.5208 10.1738 29.0705 12.0196 29.0673 13.9057C29.0673 13.9318 29.0638 13.9572 29.0633 13.9838C27.8581 13.5315 26.5817 13.2989 25.2945 13.297C23.1935 13.2979 21.1378 13.9078 19.3762 15.0527C19.0476 14.8378 18.7076 14.641 18.3575 14.463C18.2205 14.3941 18.0617 14.3823 17.9161 14.4304C17.7704 14.4785 17.6498 14.5824 17.5808 14.7194C17.5118 14.8564 17.5001 15.0152 17.5482 15.1609C17.5963 15.3066 17.7002 15.4272 17.8372 15.4962C18.0199 15.5879 18.1989 15.6858 18.3743 15.7898C16.3785 17.4533 15.0386 19.7716 14.5934 22.3313C13.8358 21.9031 13.1391 21.3752 12.522 20.7617C11.0168 19.2604 10.0517 17.3025 9.77759 15.1944C11.743 14.3891 13.9175 14.2471 15.971 14.7897C16.1192 14.8294 16.277 14.8086 16.4098 14.732C16.5426 14.6553 16.6395 14.5291 16.6792 14.381C16.719 14.2328 16.6982 14.075 16.6216 13.9422C16.5449 13.8094 16.4186 13.7125 16.2705 13.6728C14.0953 13.0994 11.7961 13.212 9.68741 13.9953C9.68741 13.9664 9.68278 13.9375 9.68278 13.9098C9.68288 12.0906 10.1942 10.308 11.1584 8.76529C12.1227 7.22261 13.501 5.98193 15.1362 5.18472C15.2742 5.11764 15.3799 4.99849 15.4301 4.85348C15.4802 4.70847 15.4707 4.54947 15.4036 4.41148C15.3704 4.34315 15.3241 4.28203 15.2672 4.23162C15.2104 4.1812 15.1442 4.14247 15.0724 4.11764C14.9274 4.0675 14.7684 4.07701 14.6304 4.1441C12.8007 5.0359 11.2583 6.4238 10.1792 8.14961C9.09996 9.87542 8.52733 11.8697 8.52653 13.9052C8.52653 14.0988 8.54503 14.2896 8.55486 14.4833C7.82696 14.8478 7.14288 15.2939 6.51581 15.813C6.3979 15.911 6.32377 16.0519 6.30973 16.2046C6.29569 16.3573 6.34289 16.5093 6.44094 16.6273C6.539 16.7452 6.67987 16.8193 6.83258 16.8333C6.98529 16.8474 7.13732 16.8002 7.25523 16.7021C7.70176 16.3315 8.18129 16.0025 8.68783 15.7193C9.05632 17.9391 10.1111 19.9875 11.7039 21.5769C12.5107 22.3816 13.4389 23.0547 14.4546 23.5714C14.4442 23.761 14.4379 23.9512 14.4379 24.142C14.4379 24.3438 14.4436 24.5467 14.4546 24.7485C14.4652 24.9008 14.5348 25.0429 14.6486 25.1446C14.7624 25.2463 14.9115 25.2996 15.064 25.2931C15.217 25.2844 15.3603 25.2154 15.4624 25.1011C15.5645 24.9869 15.6171 24.8367 15.6086 24.6837C15.5989 24.5026 15.5941 24.322 15.5941 24.142C15.5941 24.1177 15.5982 24.0935 15.5982 24.0692C18.0342 24.9842 20.7194 24.9842 23.1554 24.0692C23.1554 24.094 23.1583 24.1189 23.1583 24.1438C23.1574 25.6282 22.816 27.0927 22.1603 28.4245C21.5047 29.7563 20.5522 30.92 19.3762 31.8259C17.6916 30.5276 16.4796 28.7123 15.9265 26.6586C15.9085 26.5835 15.8757 26.5127 15.8299 26.4505C15.7841 26.3883 15.7263 26.3359 15.66 26.2964C15.5936 26.257 15.52 26.2312 15.4435 26.2206C15.367 26.21 15.2891 26.2149 15.2145 26.2349C15.1399 26.2549 15.0701 26.2896 15.0091 26.3371C14.9482 26.3845 14.8974 26.4437 14.8597 26.5111C14.822 26.5785 14.7982 26.6528 14.7897 26.7296C14.7812 26.8063 14.7882 26.884 14.8102 26.9581C15.3951 29.1286 16.6392 31.0642 18.3708 32.4977C16.4753 33.6109 14.2576 34.0467 12.0818 33.7336C9.9059 33.4205 7.90112 32.3769 6.39645 30.7743C4.89177 29.1717 3.97659 27.1052 3.8011 24.9139C3.62561 22.7227 4.20024 20.5368 5.43067 18.7152C5.47468 18.6523 5.50574 18.5814 5.52206 18.5064C5.53837 18.4315 5.53962 18.3541 5.52571 18.2786C5.5118 18.2032 5.48303 18.1313 5.44106 18.0671C5.39909 18.0029 5.34476 17.9477 5.28125 17.9047C5.21773 17.8617 5.1463 17.8318 5.0711 17.8167C4.99591 17.8016 4.91846 17.8016 4.84326 17.8167C4.76807 17.8318 4.69663 17.8617 4.63311 17.9047C4.5696 17.9477 4.51527 18.0029 4.4733 18.0671C3.06934 20.141 2.42617 22.6367 2.65291 25.1309C2.87965 27.625 3.96234 29.9638 5.71726 31.7506C7.47218 33.5373 9.79123 34.6618 12.2809 34.9333C14.7705 35.2047 17.2774 34.6065 19.3762 33.24C20.0548 33.6836 20.7811 34.0497 21.5413 34.3315C21.6134 34.3629 21.6911 34.3794 21.7698 34.3798C21.8484 34.3801 21.9263 34.3645 21.9987 34.3337C22.0711 34.3029 22.1364 34.2577 22.1907 34.2008C22.2451 34.144 22.2872 34.0766 22.3146 34.0029C22.3419 33.9291 22.354 33.8506 22.35 33.772C22.3459 33.6935 22.3259 33.6166 22.2911 33.546C22.2564 33.4755 22.2076 33.4128 22.1477 33.3617C22.0879 33.3107 22.0182 33.2724 21.9431 33.2492C21.3976 33.0464 20.8715 32.7948 20.3712 32.4977C21.6041 31.4816 22.597 30.2054 23.2787 28.7605C23.9605 27.3157 24.3142 25.7379 24.3145 24.1403C24.3145 23.9512 24.3036 23.761 24.2937 23.5708C25.3109 23.0539 26.2405 22.3803 27.0485 21.5746C28.0989 20.5287 28.9218 19.2771 29.4656 17.8983C29.7411 17.1949 29.9421 16.4646 30.0652 15.7193C31.9778 16.804 33.4648 18.5068 34.282 20.5481C35.0992 22.5894 35.1981 24.8479 34.5624 26.9528C33.9267 29.0578 32.5943 30.884 30.7837 32.1317C28.9732 33.3795 26.7923 33.9745 24.599 33.8193C24.446 33.8084 24.295 33.8587 24.1792 33.9591C24.0633 34.0596 23.9921 34.2019 23.9813 34.3549C23.9704 34.5078 24.0207 34.6588 24.1211 34.7747C24.2216 34.8905 24.3639 34.9617 24.5169 34.9726C24.7709 34.9907 25.0262 34.9998 25.2829 34.9998C26.9485 35.0026 28.5923 34.6216 30.0869 33.8864C31.5814 33.1512 32.8865 32.0815 33.9008 30.7604C34.9151 29.4392 35.6113 27.9021 35.9355 26.2684C36.2597 24.6346 36.2031 22.9482 35.7701 21.3398ZM19.3762 23.5986C18.1116 23.6004 16.8589 23.3543 15.6889 22.8742C16.026 20.3824 17.3096 18.116 19.2733 16.5455C19.308 16.5183 19.345 16.4963 19.3797 16.4697C21.3694 18.0044 22.6869 20.2504 23.0554 22.736C23.0623 22.7805 23.0646 22.8262 23.0704 22.8713C21.8985 23.3531 20.6433 23.6002 19.3762 23.5986ZM28.3909 17.4751C27.905 18.7078 27.1695 19.8268 26.2305 20.7617C25.6128 21.3764 24.9153 21.9053 24.1567 22.3342C23.7206 19.7763 22.3833 17.4589 20.3868 15.8014C21.6716 15.0384 23.1168 14.5857 24.6073 14.4791C26.0979 14.3725 27.5927 14.615 28.9731 15.1874C28.8735 15.971 28.6779 16.7393 28.3909 17.4751Z" fill="white"/>
</svg>
