<svg width="28" height="23" viewBox="0 0 28 23" fill="none" xmlns="http://www.w3.org/2000/svg">
<path fill-rule="evenodd" clip-rule="evenodd" d="M18.8624 4.43844C18.3216 5.00284 18.3216 5.91792 18.8624 6.48233L23.6999 11.5312L18.8624 16.5801C18.3216 17.1445 18.3216 18.0596 18.8624 18.624C19.4031 19.1884 20.2799 19.1884 20.8207 18.624L26.6373 12.5532C27.1781 11.9888 27.1781 11.0737 26.6373 10.5093L20.8207 4.43844C20.2799 3.87404 19.4031 3.87404 18.8624 4.43844Z" fill="white"/>
<path fill-rule="evenodd" clip-rule="evenodd" d="M15.7445 0.404609C16.5001 0.523074 17.0165 1.23159 16.8981 1.98713L13.8379 21.5044C13.7194 22.2599 13.0109 22.7764 12.2553 22.6579C11.4998 22.5394 10.9833 21.8309 11.1018 21.0754L14.162 1.55813C14.2805 0.802594 14.989 0.286145 15.7445 0.404609Z" fill="white"/>
<path fill-rule="evenodd" clip-rule="evenodd" d="M8.65027 18.6241C9.19104 18.0597 9.19104 17.1446 8.65027 16.5802L3.81277 11.5313L8.65027 6.48237C9.19104 5.91797 9.19104 5.00289 8.65027 4.43849C8.1095 3.87408 7.23273 3.87408 6.69196 4.43849L0.875306 10.5093C0.334533 11.0737 0.334533 11.9888 0.875306 12.5532L6.69196 18.6241C7.23273 19.1885 8.1095 19.1885 8.65027 18.6241Z" fill="white"/>
</svg>
