<svg width="32" height="28" viewBox="0 0 32 28" fill="none" xmlns="http://www.w3.org/2000/svg">
<path d="M27.8124 20.5938C27.2709 20.595 26.7378 20.7266 26.2578 20.9773C25.7779 21.2279 25.3654 21.5904 25.055 22.034L21.9061 20.8528V18.0625H23.5936C24.265 18.0625 24.9088 17.7958 25.3835 17.3211C25.8582 16.8464 26.1249 16.2026 26.1249 15.5312V12.1562C26.1249 11.4849 25.8582 10.8411 25.3835 10.3664C24.9088 9.89168 24.265 9.625 23.5936 9.625V8.78125C24.265 8.78125 24.9088 8.51457 25.3835 8.03986C25.8582 7.56516 26.1249 6.92133 26.1249 6.25V2.875C26.1249 2.20367 25.8582 1.55984 25.3835 1.08514C24.9088 0.610434 24.265 0.34375 23.5936 0.34375H8.40613C7.7348 0.34375 7.09096 0.610434 6.61626 1.08514C6.14156 1.55984 5.87488 2.20367 5.87488 2.875V6.25C5.87488 6.92133 6.14156 7.56516 6.61626 8.03986C7.09096 8.51457 7.7348 8.78125 8.40613 8.78125V9.625C7.7348 9.625 7.09096 9.89168 6.61626 10.3664C6.14156 10.8411 5.87488 11.4849 5.87488 12.1562V15.5312C5.87488 16.2026 6.14156 16.8464 6.61626 17.3211C7.09096 17.7958 7.7348 18.0625 8.40613 18.0625H10.0936V20.8528L6.94475 22.034C6.4807 21.3777 5.79712 20.909 5.0176 20.7128C4.23808 20.5166 3.41408 20.6058 2.69459 20.9642C1.9751 21.3227 1.40762 21.9267 1.09474 22.6672C0.781869 23.4076 0.74426 24.2356 0.988716 25.0013C1.23317 25.7671 1.74356 26.4201 2.42759 26.8423C3.11162 27.2645 3.92414 27.428 4.71823 27.3033C5.51233 27.1786 6.23559 26.7738 6.75723 26.1622C7.27888 25.5506 7.56447 24.7726 7.56238 23.9688C7.55696 23.8512 7.54513 23.734 7.52694 23.6178L11.2335 22.2281C11.3945 22.1678 11.5331 22.0597 11.631 21.9185C11.7289 21.7772 11.7812 21.6094 11.7811 21.4375V18.0625H15.1561V20.7136C14.3608 20.9189 13.6676 21.4073 13.2066 22.0872C12.7455 22.7671 12.5483 23.5918 12.6518 24.4067C12.7553 25.2216 13.1524 25.9707 13.7688 26.5138C14.3852 27.0568 15.1784 27.3564 15.9999 27.3564C16.8213 27.3564 17.6146 27.0568 18.2309 26.5138C18.8473 25.9707 19.2445 25.2216 19.348 24.4067C19.4515 23.5918 19.2542 22.7671 18.7932 22.0872C18.3322 21.4073 17.639 20.9189 16.8436 20.7136V18.0625H20.2186V21.4375C20.2185 21.6094 20.2709 21.7772 20.3688 21.9185C20.4666 22.0597 20.6053 22.1678 20.7662 22.2281L24.4728 23.6178C24.4546 23.734 24.4428 23.8512 24.4374 23.9688C24.4374 24.6363 24.6353 25.2888 25.0062 25.8438C25.377 26.3988 25.9041 26.8314 26.5208 27.0868C27.1375 27.3423 27.8161 27.4091 28.4708 27.2789C29.1255 27.1487 29.7269 26.8272 30.1989 26.3552C30.6709 25.8832 30.9923 25.2819 31.1225 24.6272C31.2528 23.9725 31.1859 23.2939 30.9305 22.6772C30.675 22.0605 30.2424 21.5334 29.6874 21.1625C29.1324 20.7917 28.4799 20.5938 27.8124 20.5938ZM4.18738 25.6562C3.85362 25.6562 3.52736 25.5573 3.24985 25.3719C2.97234 25.1864 2.75605 24.9229 2.62833 24.6145C2.50061 24.3062 2.46719 23.9669 2.5323 23.6395C2.59741 23.3122 2.75813 23.0115 2.99413 22.7755C3.23013 22.5395 3.53082 22.3788 3.85816 22.3137C4.1855 22.2486 4.5248 22.282 4.83316 22.4097C5.14151 22.5374 5.40506 22.7537 5.59048 23.0312C5.77591 23.3087 5.87488 23.635 5.87488 23.9688C5.87488 24.4163 5.69709 24.8455 5.38062 25.162C5.06415 25.4785 4.63493 25.6562 4.18738 25.6562ZM17.6874 23.9688C17.6874 24.3025 17.5884 24.6288 17.403 24.9063C17.2176 25.1838 16.954 25.4001 16.6457 25.5278C16.3373 25.6555 15.998 25.6889 15.6707 25.6238C15.3433 25.5587 15.0426 25.398 14.8066 25.162C14.5706 24.926 14.4099 24.6253 14.3448 24.298C14.2797 23.9706 14.3131 23.6313 14.4408 23.323C14.5686 23.0146 14.7848 22.7511 15.0624 22.5656C15.3399 22.3802 15.6661 22.2812 15.9999 22.2812C16.4474 22.2812 16.8767 22.459 17.1931 22.7755C17.5096 23.092 17.6874 23.5212 17.6874 23.9688ZM7.56238 6.25V2.875C7.56238 2.65122 7.65127 2.43661 7.8095 2.27838C7.96774 2.12014 8.18235 2.03125 8.40613 2.03125H23.5936C23.8174 2.03125 24.032 2.12014 24.1902 2.27838C24.3485 2.43661 24.4374 2.65122 24.4374 2.875V6.25C24.4374 6.47378 24.3485 6.68839 24.1902 6.84662C24.032 7.00486 23.8174 7.09375 23.5936 7.09375H8.40613C8.18235 7.09375 7.96774 7.00486 7.8095 6.84662C7.65127 6.68839 7.56238 6.47378 7.56238 6.25ZM10.0936 8.78125H21.9061V9.625H10.0936V8.78125ZM7.56238 15.5312V12.1562C7.56238 11.9325 7.65127 11.7179 7.8095 11.5596C7.96774 11.4014 8.18235 11.3125 8.40613 11.3125H23.5936C23.8174 11.3125 24.032 11.4014 24.1902 11.5596C24.3485 11.7179 24.4374 11.9325 24.4374 12.1562V15.5312C24.4374 15.755 24.3485 15.9696 24.1902 16.1279C24.032 16.2861 23.8174 16.375 23.5936 16.375H8.40613C8.18235 16.375 7.96774 16.2861 7.8095 16.1279C7.65127 15.9696 7.56238 15.755 7.56238 15.5312ZM27.8124 25.6562C27.4786 25.6562 27.1524 25.5573 26.8749 25.3719C26.5973 25.1864 26.3811 24.9229 26.2533 24.6145C26.1256 24.3062 26.0922 23.9669 26.1573 23.6395C26.2224 23.3122 26.3831 23.0115 26.6191 22.7755C26.8551 22.5395 27.1558 22.3788 27.4832 22.3137C27.8105 22.2486 28.1498 22.282 28.4582 22.4097C28.7665 22.5374 29.0301 22.7537 29.2155 23.0312C29.4009 23.3087 29.4999 23.635 29.4999 23.9688C29.4999 24.4163 29.3221 24.8455 29.0056 25.162C28.6892 25.4785 28.2599 25.6562 27.8124 25.6562Z" fill="white"/>
</svg>
