<svg width="36" height="37" viewBox="0 0 36 37" fill="none" xmlns="http://www.w3.org/2000/svg">
<g clip-path="url(#clip0)">
<path fill-rule="evenodd" clip-rule="evenodd" d="M29.4912 6.88345L30.1524 6.58958C30.3728 6.44264 30.5932 6.51611 30.7402 6.73652C31.181 7.17733 31.6218 7.83856 31.8422 8.49978C31.8662 8.57158 31.8745 8.65118 31.8672 8.73096H31.8878C31.8878 8.76388 31.8731 8.79679 31.8502 8.82971C31.8168 8.95983 31.7407 9.08178 31.6218 9.16101L31.1531 9.51252V9.68606L31.8144 9.90647C32.0348 9.97994 32.1817 10.2003 32.1817 10.4208C32.1817 10.7146 32.1082 11.082 32.0348 11.4493C31.9613 11.8167 31.8144 12.184 31.6674 12.4779C31.5205 12.6983 31.3001 12.8452 31.0797 12.7718L30.345 12.6983C30.3082 12.735 30.2899 12.7718 30.2715 12.8085C30.2531 12.8452 30.2348 12.882 30.198 12.9187L30.4919 13.5799C30.5654 13.8004 30.4919 14.0942 30.345 14.2412C30.1246 14.4616 29.8307 14.682 29.4633 14.9024C29.096 15.1228 28.8021 15.2697 28.5082 15.3432C28.2144 15.4167 27.9939 15.3432 27.847 15.1228L27.4062 14.535C27.2593 14.6085 27.1858 14.6085 27.1123 14.6085L26.8919 15.2697C26.8184 15.4901 26.598 15.6371 26.3776 15.6371C26.0639 15.6371 25.8037 15.5835 25.5056 15.5221C25.4547 15.5116 25.4026 15.5009 25.349 15.4901C24.9817 15.4167 24.6144 15.2697 24.3205 15.1228C24.1001 14.9759 24.0266 14.7555 24.0266 14.535L24.1735 13.8004C24.1368 13.7636 24.1001 13.7452 24.0633 13.7269C24.0266 13.7085 23.9899 13.6901 23.9531 13.6534L23.2919 13.9473C23.0715 14.0942 22.8511 14.0208 22.7041 13.8004C22.2633 13.3595 21.8225 12.6983 21.6021 12.0371C21.5782 11.9653 21.5698 11.8857 21.5771 11.8059H21.5565C21.5565 11.773 21.5713 11.7401 21.5941 11.7072C21.6275 11.577 21.7037 11.4551 21.8225 11.3759L22.2912 11.0243V10.8508L21.63 10.6304C21.4096 10.5569 21.2626 10.3365 21.2626 10.1161C21.2626 9.82223 21.3361 9.45488 21.4096 9.08754C21.483 8.72019 21.63 8.35284 21.7769 8.05896C21.9239 7.83856 22.1443 7.69162 22.3647 7.76509L23.0994 7.83856C23.1361 7.80182 23.1545 7.76509 23.1728 7.72835C23.1912 7.69162 23.2096 7.65488 23.2463 7.61815L22.9524 6.95692C22.879 6.73652 22.9524 6.44264 23.0994 6.2957C23.3198 6.07529 23.6137 5.85488 23.981 5.63447C24.3483 5.41407 24.6422 5.26713 24.9361 5.19366C25.23 5.12019 25.4504 5.19366 25.5973 5.41407L26.0381 6.00182C26.1851 5.92835 26.2586 5.92835 26.332 5.92835L26.5524 5.26713C26.6259 5.04672 26.8463 4.89978 27.0667 4.89978C27.3805 4.89978 27.6406 4.95338 27.9387 5.01479C27.9897 5.02528 28.0417 5.036 28.0953 5.04672C28.4626 5.12019 28.83 5.26713 29.1239 5.41407C29.3443 5.561 29.4177 5.78141 29.4177 6.00182L29.2708 6.73652C29.3075 6.77325 29.3443 6.79162 29.381 6.80998C29.4177 6.82835 29.4545 6.84672 29.4912 6.88345ZM27.9288 9.87806C27.9938 10.0982 27.9972 10.3374 27.9205 10.5677C27.7735 11.2289 27.1123 11.6697 26.3776 11.4493C25.9761 11.3155 25.6558 11.0191 25.5156 10.6588C25.4505 10.4386 25.4471 10.1994 25.5239 9.96917C25.6708 9.30794 26.332 8.86713 27.0667 9.08754C27.4683 9.22138 27.7885 9.5178 27.9288 9.87806Z" fill="white"/>
<path fill-rule="evenodd" clip-rule="evenodd" d="M7.94625 17.1823L6.48498 16.5328C5.99788 16.2081 5.51079 16.3705 5.18607 16.8576C4.21188 17.8317 3.2377 19.293 2.75061 20.7543C2.69772 20.913 2.67928 21.0889 2.69531 21.2652H2.64985C2.64985 21.3379 2.68243 21.4106 2.73299 21.4834C2.8068 21.7709 2.97504 22.0405 3.2377 22.2156L4.27349 22.9924V23.3759L2.81221 23.863C2.32512 24.0254 2.00039 24.5124 2.00039 24.9995C2.00039 25.649 2.16275 26.4608 2.32512 27.2726C2.48748 28.0844 2.81221 28.8963 3.13694 29.5457C3.46167 30.0328 3.94876 30.3575 4.43585 30.1952L6.05949 30.0328C6.14067 30.114 6.18126 30.1952 6.22185 30.2764C6.26244 30.3575 6.30303 30.4387 6.38422 30.5199L5.73476 31.9812C5.5724 32.4683 5.73476 33.1177 6.05949 33.4425C6.54658 33.9296 7.19604 34.4166 8.00785 34.9037C8.81967 35.3908 9.46913 35.7156 10.1186 35.8779C10.768 36.0403 11.2551 35.8779 11.5799 35.3908L12.554 34.0919C12.8788 34.2543 13.0411 34.2543 13.2035 34.2543L13.6906 35.7156C13.853 36.2026 14.34 36.5274 14.8271 36.5274C15.5205 36.5274 16.0955 36.4089 16.7543 36.2732C16.8668 36.25 16.9818 36.2263 17.1002 36.2026C17.9121 36.0403 18.7239 35.7156 19.3733 35.3908C19.8604 35.0661 20.0228 34.579 20.0228 34.0919L19.6981 32.4683C19.7792 32.3871 19.8604 32.3465 19.9416 32.3059C20.0228 32.2653 20.104 32.2247 20.1851 32.1435L21.6464 32.793C22.1335 33.1177 22.6206 32.9554 22.9453 32.4683C23.9195 31.4941 24.8937 30.0328 25.3808 28.5715C25.4337 28.4129 25.4521 28.237 25.4361 28.0607H25.4816C25.4816 27.9879 25.449 27.9152 25.3984 27.8425C25.3246 27.5549 25.1564 27.2854 24.8937 27.1103L23.8579 26.3334V25.9499L25.3192 25.4628C25.8063 25.3005 26.131 24.8134 26.131 24.3263C26.131 23.6768 25.9686 22.865 25.8063 22.0532C25.6439 21.2414 25.3192 20.4296 24.9945 19.7801C24.6697 19.293 24.1826 18.9683 23.6956 19.1307L22.0719 19.293C21.9907 19.2118 21.9501 19.1307 21.9096 19.0495C21.869 18.9683 21.8284 18.8871 21.7472 18.8059L22.3966 17.3447C22.559 16.8576 22.3966 16.2081 22.0719 15.8834C21.5848 15.3963 20.9354 14.9092 20.1235 14.4221C19.3117 13.935 18.6623 13.6103 18.0128 13.4479C17.3634 13.2856 16.8763 13.4479 16.5515 13.935L15.5774 15.2339C15.2526 15.0716 15.0903 15.0716 14.9279 15.0716L14.4408 13.6103C14.2784 13.1232 13.7914 12.7985 13.3043 12.7985C12.6109 12.7985 12.036 12.9169 11.3771 13.0526C11.2646 13.0758 11.1496 13.0995 11.0312 13.1232C10.2193 13.2856 9.40753 13.6103 8.75807 13.935C8.27098 14.2597 8.10862 14.7468 8.10862 15.2339L8.43334 16.8576C8.35216 16.9387 8.27098 16.9793 8.1898 17.0199C8.10862 17.0605 8.02744 17.1011 7.94625 17.1823ZM11.3991 23.8003C11.2555 24.2868 11.2479 24.8154 11.4175 25.3243C11.7422 26.7855 13.2035 27.7597 14.8271 27.2726C15.7146 26.9768 16.4223 26.3217 16.7323 25.5256C16.8759 25.039 16.8835 24.5105 16.7139 24.0016C16.3892 22.5403 14.9279 21.5661 13.3043 22.0532C12.4168 22.349 11.7091 23.0041 11.3991 23.8003Z" fill="white"/>
</g>
<defs>
<clipPath id="clip0">
<rect width="36" height="36" fill="white" transform="translate(0.000106812 0.527405)"/>
</clipPath>
</defs>
</svg>
