<svg width="60" height="23" viewBox="0 0 60 23" fill="none" xmlns="http://www.w3.org/2000/svg">
<path d="M31.2002 1.91488V12.6938H28.8003V1.91488C28.8046 1.6001 28.933 1.2997 29.1575 1.07864C29.3821 0.857577 29.6848 0.733643 30.0003 0.733643C30.3157 0.733643 30.6184 0.857577 30.843 1.07864C31.0675 1.2997 31.1959 1.6001 31.2002 1.91488Z" fill="white"/>
<path d="M50.4008 1.91561H50.36C50.3732 1.90542 50.3867 1.89546 50.4004 1.8855C50.4006 1.89546 50.4008 1.90635 50.4008 1.91561Z" fill="white"/>
<path d="M50.4008 1.91561H50.36C50.3732 1.90542 50.3867 1.89546 50.4004 1.8855C50.4006 1.89546 50.4008 1.90635 50.4008 1.91561Z" fill="white"/>
<path d="M39.612 0.717529C36.2917 0.717529 33.6002 3.40382 33.6002 6.71771C33.6002 10.0316 36.2917 12.7181 39.612 12.7181C42.9323 12.7181 45.624 10.0318 45.624 6.71771C45.624 3.4036 42.9325 0.717529 39.612 0.717529ZM39.6241 10.3228C38.9073 10.3228 38.2067 10.1107 37.6107 9.71326C37.0148 9.31582 36.5503 8.75093 36.276 8.09001C36.0017 7.4291 35.9299 6.70185 36.0698 6.00022C36.2096 5.2986 36.5547 4.65412 37.0616 4.14827C37.5684 3.64243 38.2141 3.29795 38.9171 3.15839C39.6201 3.01883 40.3487 3.09045 41.0109 3.36421C41.6731 3.63797 42.2391 4.10157 42.6373 4.69638C43.0355 5.29119 43.2481 5.99049 43.2481 6.70586C43.248 7.66512 42.8662 8.58508 42.1866 9.26338C41.5069 9.94168 40.5852 10.3228 39.6241 10.3228Z" fill="white"/>
<path d="M10.7998 0.718025C10.4816 0.718085 10.1765 0.84421 9.95156 1.06868C9.72657 1.29315 9.60009 1.59759 9.59991 1.9151C8.5621 1.13627 7.29836 0.716044 5.99991 0.718025C2.68692 0.718025 0 3.39908 0 6.70635C0 10.0136 2.68692 12.6947 6.0006 12.6947C7.29904 12.6967 8.56279 12.2764 9.60059 11.4976V15.499C8.54136 15.8739 7.58449 16.4905 6.80623 17.2997C6.02797 18.1089 5.44984 19.0883 5.1179 20.1599C5.45656 20.9089 6.04217 21.5194 6.77713 21.8897C7.51209 22.2601 8.35201 22.3678 9.15691 22.195C9.96181 22.0223 10.6831 21.5794 11.2005 20.9402C11.718 20.3011 12.0003 19.5043 12.0005 18.6826V1.91555C12.0005 1.75822 11.9694 1.60244 11.909 1.4571C11.8487 1.31177 11.7602 1.17972 11.6487 1.06852C11.5372 0.95731 11.4048 0.869118 11.2592 0.80898C11.1135 0.748841 10.9574 0.717935 10.7998 0.718025Z" fill="white"/>
<path d="M25.2003 0.71748C24.882 0.71748 24.5768 0.843641 24.3518 1.06821C24.1267 1.29279 24.0003 1.59738 24.0002 1.91501V7.12443C23.8972 8.00525 23.4736 8.81762 22.81 9.40722C22.1463 9.99682 21.2887 10.3226 20.4002 10.3226C19.5117 10.3226 18.6541 9.99682 17.9905 9.40722C17.3268 8.81762 16.9032 8.00525 16.8002 7.12443V1.91501C16.8002 1.91091 16.8002 1.90703 16.8002 1.90293C16.7986 1.58533 16.6707 1.28137 16.4445 1.05792C16.2184 0.834471 15.9125 0.709839 15.5943 0.711441C15.2761 0.713043 14.9716 0.840747 14.7477 1.06646C14.5238 1.29217 14.3989 1.59741 14.4005 1.91501V7.2582C14.5399 8.79658 15.2683 10.2221 16.4341 11.238C17.5999 12.2539 19.1133 12.782 20.6594 12.7123C22.2055 12.6427 23.6651 11.9807 24.7345 10.8641C25.8038 9.74749 26.4006 8.26231 26.4006 6.71766V1.91501C26.4005 1.75772 26.3695 1.60197 26.3091 1.45667C26.2488 1.31136 26.1604 1.17933 26.0489 1.06813C25.9375 0.956933 25.8051 0.868732 25.6595 0.808567C25.5139 0.748402 25.3579 0.71745 25.2003 0.71748Z" fill="white"/>
<path d="M57.6401 1.91503C56.5995 1.12749 55.3307 0.698753 54.0248 0.69341C52.7189 0.688067 51.4467 1.1064 50.3997 1.8854C50.3997 1.8952 50.3997 1.90523 50.3997 1.91503H50.3595C50.3725 1.905 50.3857 1.8952 50.3992 1.8854C50.3906 1.57099 50.2583 1.27258 50.0311 1.05464C49.8039 0.836706 49.4999 0.716726 49.1847 0.720616C48.8696 0.724506 48.5687 0.851955 48.3469 1.07544C48.1252 1.29892 48.0004 1.60049 47.9995 1.91503V12.6939H50.4001V6.70583C50.4 5.79761 50.7422 4.92257 51.3587 4.25457C51.9752 3.58657 52.8209 3.17448 53.7279 3.1002C54.6348 3.02591 55.5365 3.29485 56.2539 3.85359C56.9713 4.41233 57.4519 5.21998 57.6001 6.11607V12.6942H60V6.16461C59.925 5.33126 59.6763 4.52276 59.2699 3.79096C58.8635 3.05915 58.3083 2.42018 57.6401 1.91503Z" fill="white"/>
</svg>
