<svg width="292" height="164" viewBox="0 0 292 164" fill="none" xmlns="http://www.w3.org/2000/svg">
<rect x="5.89673" y="5.68335" width="280.473" height="152.356" rx="8" fill="#2EB9D8"/>
<path fill-rule="evenodd" clip-rule="evenodd" d="M283.368 1.6814H8.89819C5.0322 1.6814 1.89819 4.81541 1.89819 8.6814V155.041C1.89819 158.907 5.0322 162.041 8.8982 162.041H283.368C287.234 162.041 290.368 158.907 290.368 155.041V8.6814C290.368 4.8154 287.234 1.6814 283.368 1.6814ZM8.89819 0.681396C4.47992 0.681396 0.898193 4.26312 0.898193 8.6814V155.041C0.898193 159.46 4.47992 163.041 8.8982 163.041H283.368C287.786 163.041 291.368 159.46 291.368 155.041V8.6814C291.368 4.26312 287.786 0.681396 283.368 0.681396H8.89819Z" fill="#2EB9D8"/>
<path d="M72.4858 131.231H68.5244L62.2059 93.3694L57.2204 131.231H53.2305C52.076 110.721 50.9859 90.5804 51.4717 79.4893L61.9795 75.9177L72.2759 79.2974C73.3615 91.2763 73.0226 110.734 72.4858 131.231Z" fill="#034861"/>
<path d="M72.2758 79.2975C72.2758 79.2975 63.2585 81.5781 51.4717 79.4895C53.2051 69.4933 54.9635 71.4896 55.766 62.0064C56.1034 58.0301 56.5443 46.555 56.5443 46.555L56.5458 46.5581C56.6327 46.6541 59.3931 49.7368 60.6737 49.7143C61.3723 49.7017 62.9719 48.6316 65.1179 46.0617C65.1179 46.0617 65.5631 61.4155 66.5017 66.4326C67.2467 70.412 69.9308 73.3853 72.2758 79.2975Z" fill="#CEDDED"/>
<path d="M56.5442 46.5551C55.7977 55.2038 56.7892 65.1689 53.0881 72.8516C52.0717 74.205 50.3762 86.5978 50.3472 86.7676C50.3472 86.7676 46.6916 87.0181 46.1309 86.1589C45.0739 84.541 47.5659 73.8744 48.0756 69.784C48.7174 64.6366 46.6257 50.4087 47.47 49.0443C48.3814 47.5717 56.3282 46.5551 56.5442 46.5551Z" fill="#EE4743"/>
<path d="M50.0195 75.5642L51.0896 75.9179C51.0896 75.9179 53.5251 75.5405 54.2794 75.8009C54.6084 75.9145 55.2324 76.5167 55.5477 76.8363C55.7515 77.0426 55.5229 77.4231 55.572 77.2532C55.2209 77.7063 53.4015 76.2567 52.3861 76.8196C52.2681 76.885 55.3412 78.0543 55.5346 78.9907C55.6169 79.3893 55.0432 80.2075 54.6704 80.3705C53.9963 80.6653 52.0998 79.4895 51.7791 79.8241C51.4666 80.1501 52.9476 81.2012 52.9476 81.2012C53.2242 81.5272 52.8083 81.9574 52.8931 81.7867C52.4375 82.1563 51.6321 81.0424 50.8221 80.9044C50.2535 80.8075 49.0486 81.2316 48.5173 81.0072C48.0255 80.7997 47.0973 79.4124 47.0973 79.4124L48.723 76.2535L50.0195 75.5642Z" fill="#F7B198"/>
<path d="M47.4705 49.0436C45.8726 48.6163 38.5208 62.8821 38.5284 65.3797C38.5463 71.1689 47.0973 79.4124 47.0973 79.4124C48.883 78.3585 50.1907 77.033 50.0195 75.5642C50.0195 75.5642 44.2386 67.393 44.4997 66.8177C44.7865 66.1859 48.0188 62.4663 48.0188 62.4663C48.0188 62.4663 50.7149 49.9111 47.4705 49.0436Z" fill="#F05B57"/>
<path d="M77.8834 86.2178C77.3913 86.9136 74.7101 87.6433 74.5234 86.7948C72.006 75.1992 67.5154 71.872 66.4967 66.4311C65.5634 61.4081 65.1222 46.0675 65.1222 46.0675C65.1222 46.0675 74.167 48.4772 74.3367 48.9014C74.5404 49.3936 74.2179 53.9245 74.2349 59.4905C74.2519 62.9863 74.3876 66.8724 74.8798 70.436C74.9646 71.0299 75.1173 71.7596 75.304 72.5742C74.2519 74.2542 73.3355 75.6796 73.3355 75.6796L76.441 79.0905C76.441 79.0905 76.5937 78.9208 76.8484 78.5984C77.7475 82.0942 78.4941 85.3863 77.8834 86.2178Z" fill="#EE4743"/>
<path d="M76.8482 78.5984C76.5937 78.9208 76.4408 79.0905 76.4408 79.0905L73.3353 75.6796C73.3353 75.6796 74.2517 74.2542 75.3038 72.5742C75.7111 74.339 76.3052 76.5111 76.8482 78.5984Z" fill="#EE4743"/>
<path d="M65.1178 46.0618C63.4288 48.0844 61.5918 49.6977 60.6736 49.7143C59.3931 49.7369 56.6328 46.654 56.5457 46.5581L56.5442 46.5551C56.9715 45.8474 57.3329 45.3735 57.0825 44.2041C59.1847 47.5612 61.9976 47.4502 64.2511 43.8593C64.1957 44.8097 64.32 45.6479 65.1178 46.0618Z" fill="#F6A98D"/>
<path d="M64.7954 41.5906L64.2512 43.8592C61.9976 47.4504 59.1847 47.5614 57.0825 44.2041L56.2714 41.8259C55.6851 41.772 54.8724 39.9082 54.8708 39.0086V39.0071C54.8708 38.7492 54.9369 38.5708 55.0943 38.5364C55.3777 38.4734 55.8186 39.373 55.8186 39.373H56.249C56.249 39.373 56.132 36.3396 56.7092 35.6215C57.444 34.7083 58.8759 33.7862 60.0483 33.7577C60.7215 33.7412 63.2885 34.278 63.7833 34.7878C64.6515 35.6783 64.2512 39.7388 64.2512 39.7388H64.6425L64.6469 39.7373V39.7358C65.8667 36.2677 66.7927 41.1697 64.7954 41.5906Z" fill="#F7B198"/>
<path d="M65.8883 39.0084C65.7033 38.3088 65.2041 38.1513 64.6468 39.7356V39.7371L64.6424 39.7386H64.2511C64.2511 39.7386 64.6514 35.6783 63.7832 34.7876C63.2884 34.2778 60.7214 33.741 60.0482 33.7575C58.8757 33.786 57.4437 34.7081 56.709 35.6213C56.1317 36.3394 56.2488 39.3728 56.2488 39.3728H55.8185C55.8185 39.3728 55.3776 38.4732 55.0942 38.5362C54.9367 38.5706 54.8707 38.7491 54.8707 39.0069C54.1001 34.0964 55.3085 30.4438 59.9177 30.4228C64.341 30.4019 66.8345 33.1279 65.8883 39.0084ZM74.8743 138.194C74.3704 138.575 71.7479 138.455 71.1377 138.295C70.1991 138.047 69.4838 135.821 69.4838 135.821C69.4838 135.821 67.7806 135.329 67.5615 134.835C67.1836 133.982 68.524 131.231 68.524 131.231H72.4858C72.4858 131.231 73.5158 132.826 73.8953 133.332C74.3377 133.922 75.3287 135.05 75.4292 135.854C75.495 136.38 75.2971 137.873 74.8743 138.194ZM58.4814 135.834C58.3015 136.239 56.8935 136.627 56.8935 136.627C56.8935 136.627 55.589 135.909 55.2576 136.174C54.8738 136.48 55.3296 137.771 54.9817 138.118C54.1361 138.962 51.3921 138.965 50.1701 139.01C49.6678 139.028 48.4143 139.119 48.1925 138.653C47.6197 137.443 50.4805 135.342 51.3532 134.327C51.944 133.64 53.2304 131.231 53.2304 131.231H57.2203C57.2203 131.231 58.9686 134.744 58.4814 135.834Z" fill="#0E151F"/>
<path d="M76.4336 79.0861C76.4336 79.0861 75.5714 80.1776 75.1621 80.3711C74.4859 80.6889 73.057 80.5795 72.4032 80.8284C71.5576 81.1493 69.5063 82.2978 69.304 82.3114C69.0116 82.3309 68.8182 81.4838 68.9427 81.2199C69.0851 80.9185 69.6519 80.5901 70.1932 80.3293C69.3805 80.6382 68.3459 80.9455 67.8962 80.7296C67.2994 80.4418 66.5602 78.9244 66.8076 78.3096C67.1404 77.482 70.1167 76.9691 70.1167 76.9691L67.3233 76.7742C66.8225 76.7392 66.8505 76.0594 66.8987 76.2293C66.9323 76.0414 67.0776 75.8934 67.2646 75.8559C67.2646 75.8559 69.2801 75.3092 69.9697 75.3151C70.5598 75.3202 72.2759 75.8174 72.2759 75.8174L73.3329 75.6854L75.2882 76.7799L76.4336 79.0861Z" fill="#F7B198"/>
<path d="M85.265 66.6178C85.265 68.2808 78.5789 76.4942 76.848 78.5984C76.5934 78.9208 76.4405 79.0905 76.4405 79.0905L73.3351 75.6796C73.3351 75.6796 74.2514 74.2542 75.3036 72.5742C76.763 70.2663 78.5108 67.4663 78.5448 67.2966C78.867 65.922 74.2345 59.4905 74.2345 59.4905C74.2175 53.9245 74.5399 49.3935 74.3363 48.9014C79.1898 50.1402 85.265 64.1911 85.265 66.6178Z" fill="#F05B57"/>
<path d="M95.9799 123.776C102.38 124.25 102.795 110.739 102.202 103.924C106.844 101.059 115.773 98.7681 114.351 112.517C112.928 126.265 101.511 125.752 95.9799 123.776Z" fill="white"/>
<rect x="100.366" y="30.4227" width="169.042" height="82.7508" rx="8" transform="rotate(-1.3808 100.366 30.4227)" fill="white"/>
<path d="M118.726 62.7834C118.316 62.7905 117.958 62.7538 117.652 62.6732L117.625 61.1617C117.939 61.2344 118.225 61.2685 118.483 61.2639C118.881 61.257 119.164 61.127 119.332 60.874C119.499 60.625 119.578 60.2368 119.569 59.7096L119.429 51.6834L121.245 51.6517L121.385 59.6661C121.402 60.6659 121.187 61.4315 120.739 61.9629C120.292 62.4942 119.621 62.7677 118.726 62.7834Z" fill="#034861"/>
<path d="M124.776 56.87C124.787 57.5183 124.901 58.0067 125.118 58.3349C125.339 58.6632 125.689 58.8231 126.17 58.8147C126.646 58.8063 126.985 58.6363 127.186 58.3046C127.391 57.969 127.488 57.475 127.477 56.8228C127.465 56.1744 127.351 55.69 127.135 55.3695C126.918 55.049 126.57 54.893 126.089 54.9014C125.613 54.9097 125.272 55.0778 125.067 55.4057C124.862 55.7297 124.765 56.2178 124.776 56.87ZM129.305 56.7908C129.323 57.857 129.057 58.6958 128.505 59.3071C127.953 59.9184 127.175 60.2329 126.171 60.2504C125.542 60.2614 124.985 60.1344 124.5 59.8694C124.015 59.6005 123.639 59.2106 123.372 58.6995C123.105 58.1885 122.966 57.5893 122.954 56.9019C122.935 55.8317 123.2 54.9949 123.748 54.3915C124.296 53.7881 125.076 53.4775 126.088 53.4598C126.716 53.4488 127.273 53.5758 127.759 53.8408C128.244 54.1058 128.62 54.4919 128.886 54.999C129.153 55.5061 129.293 56.1034 129.305 56.7908Z" fill="#034861"/>
<path d="M134.377 53.3148C134.62 53.3106 134.821 53.3246 134.982 53.357L134.876 55.0349C134.731 54.9983 134.555 54.9819 134.348 54.9855C133.778 54.9955 133.335 55.1497 133.02 55.4482C132.709 55.7467 132.558 56.1596 132.567 56.6868L132.625 60.0203L130.838 60.0516L130.724 53.5018L132.077 53.4781L132.36 54.5749L132.448 54.5734C132.645 54.2027 132.913 53.903 133.253 53.6744C133.596 53.4418 133.971 53.3219 134.377 53.3148Z" fill="#034861"/>
<path d="M141.873 53.3068L141.888 54.2148L140.868 54.4964C141.06 54.786 141.16 55.1125 141.166 55.4757C141.179 56.1787 140.942 56.7318 140.457 57.1348C139.975 57.5339 139.299 57.7411 138.428 57.7563L138.106 57.7444L137.842 57.7197C137.661 57.8635 137.572 58.0214 137.575 58.1932C137.579 58.451 137.909 58.5741 138.566 58.5627L139.679 58.5432C140.397 58.5306 140.947 58.6753 141.327 58.9773C141.711 59.2792 141.909 59.729 141.919 60.3265C141.933 61.0921 141.623 61.6913 140.99 62.1243C140.36 62.5573 139.448 62.7842 138.253 62.8051C137.339 62.8211 136.637 62.6732 136.147 62.3614C135.661 62.0534 135.413 61.6124 135.403 61.0383C135.396 60.6438 135.514 60.3116 135.755 60.0417C135.996 59.7718 136.354 59.5761 136.829 59.4545C136.644 59.3796 136.482 59.2555 136.342 59.0821C136.202 58.9048 136.13 58.7166 136.127 58.5174C136.122 58.2675 136.191 58.0592 136.333 57.8926C136.474 57.7222 136.68 57.5545 136.951 57.3896C136.605 57.2472 136.327 57.0137 136.118 56.6892C135.913 56.3646 135.807 55.9797 135.799 55.5344C135.787 54.8197 136.009 54.263 136.467 53.8643C136.925 53.4656 137.586 53.2587 138.449 53.2436C138.633 53.2404 138.85 53.2541 139.1 53.2849C139.355 53.3117 139.517 53.3323 139.588 53.3467L141.873 53.3068ZM136.947 60.8706C136.952 61.1167 137.072 61.308 137.309 61.4445C137.55 61.5809 137.883 61.6454 138.309 61.6379C138.949 61.6267 139.45 61.5301 139.81 61.348C140.17 61.1659 140.347 60.9225 140.342 60.6178C140.338 60.3718 140.227 60.2038 140.011 60.1138C139.794 60.0238 139.462 59.9828 139.012 59.9906L138.087 60.0068C137.759 60.0125 137.485 60.0935 137.265 60.2497C137.049 60.4098 136.943 60.6167 136.947 60.8706ZM137.504 55.528C137.511 55.8834 137.596 56.1632 137.759 56.3674C137.927 56.5716 138.177 56.6707 138.509 56.6649C138.845 56.6591 139.089 56.5512 139.242 56.3415C139.394 56.1318 139.467 55.8492 139.461 55.4938C139.447 54.7049 139.116 54.3161 138.468 54.3274C137.812 54.3389 137.491 54.7391 137.504 55.528Z" fill="#034861"/>
<path d="M145.689 54.3886C145.31 54.3952 145.015 54.5215 144.805 54.7674C144.594 55.0094 144.477 55.3514 144.454 55.7932L146.961 55.7494C146.945 55.3082 146.824 54.9704 146.597 54.7361C146.371 54.4978 146.068 54.382 145.689 54.3886ZM146.037 59.9029C144.983 59.9213 144.154 59.6448 143.55 59.0732C142.946 58.5017 142.635 57.6828 142.616 56.6165C142.597 55.519 142.855 54.6667 143.392 54.0596C143.932 53.4485 144.686 53.1345 145.655 53.1175C146.581 53.1013 147.306 53.3524 147.831 53.8706C148.355 54.3888 148.626 55.1127 148.642 56.0423L148.657 56.9093L144.433 56.9832C144.462 57.4906 144.619 57.8844 144.905 58.1646C145.191 58.4448 145.588 58.5805 146.096 58.5716C146.491 58.5647 146.863 58.5171 147.213 58.429C147.563 58.3408 147.928 58.2035 148.307 58.0172L148.332 59.3998C148.022 59.5615 147.69 59.6825 147.336 59.763C146.982 59.8473 146.549 59.8939 146.037 59.9029Z" fill="#034861"/>
<path d="M155.894 54.2101C155.516 54.2167 155.221 54.343 155.01 54.5889C154.8 54.8309 154.683 55.1728 154.659 55.6147L157.166 55.5709C157.151 55.1297 157.03 54.7919 156.803 54.5575C156.576 54.3193 156.273 54.2035 155.894 54.2101ZM156.243 59.7244C155.188 59.7428 154.359 59.4663 153.755 58.8947C153.151 58.3231 152.84 57.5042 152.822 56.438C152.802 55.3405 153.061 54.4882 153.597 53.8811C154.137 53.27 154.892 52.9559 155.86 52.939C156.786 52.9228 157.511 53.1738 158.036 53.6921C158.561 54.2103 158.831 54.9342 158.848 55.8638L158.863 56.7308L154.639 56.8047C154.667 57.3121 154.825 57.7059 155.111 57.9861C155.397 58.2663 155.794 58.4019 156.302 58.3931C156.696 58.3862 157.068 58.3386 157.418 58.2504C157.769 58.1623 158.133 58.025 158.513 57.8387L158.537 59.2213C158.227 59.383 157.896 59.504 157.541 59.5844C157.187 59.6688 156.754 59.7154 156.243 59.7244Z" fill="#034861"/>
<path d="M164.901 57.5101C164.913 58.1819 164.687 58.6976 164.225 59.0573C163.766 59.417 163.072 59.6049 162.142 59.6212C161.666 59.6295 161.259 59.6034 160.922 59.5429C160.585 59.4863 160.269 59.398 159.974 59.2782L159.948 57.8018C160.283 57.9523 160.658 58.0766 161.074 58.1748C161.494 58.2729 161.862 58.3192 162.178 58.3137C162.826 58.3024 163.147 58.1092 163.141 57.7343C163.138 57.5937 163.093 57.4812 163.006 57.3967C162.918 57.3084 162.768 57.2114 162.555 57.1057C162.343 56.9962 162.059 56.8702 161.705 56.728C161.197 56.5259 160.823 56.3371 160.582 56.1616C160.344 55.986 160.169 55.784 160.055 55.5555C159.946 55.323 159.888 55.0368 159.882 54.6971C159.872 54.1151 160.089 53.662 160.532 53.3378C160.98 53.0096 161.617 52.8383 162.445 52.8238C163.234 52.81 164.005 52.9684 164.757 53.2991L164.24 54.5974C163.91 54.4625 163.601 54.3527 163.315 54.2678C163.028 54.183 162.736 54.1431 162.439 54.1483C161.912 54.1576 161.651 54.3047 161.656 54.5898C161.659 54.75 161.745 54.8872 161.915 55.0014C162.089 55.1155 162.465 55.2828 163.043 55.5032C163.558 55.7013 163.937 55.888 164.178 56.0635C164.419 56.239 164.599 56.4429 164.716 56.6753C164.834 56.9077 164.895 57.1859 164.901 57.5101Z" fill="#034861"/>
<path d="M172.064 53.9272C171.685 53.9339 171.39 54.0601 171.18 54.306C170.969 54.548 170.852 54.89 170.828 55.3319L173.336 55.288C173.32 54.8468 173.199 54.509 172.972 54.2747C172.745 54.0364 172.443 53.9206 172.064 53.9272ZM172.412 59.4415C171.358 59.46 170.529 59.1834 169.925 58.6118C169.321 58.0403 169.01 57.2214 168.991 56.1551C168.972 55.0577 169.23 54.2053 169.767 53.5982C170.307 52.9871 171.061 52.6731 172.03 52.6561C172.955 52.6399 173.681 52.891 174.205 53.4092C174.73 53.9275 175.001 54.6514 175.017 55.5809L175.032 56.448L170.808 56.5219C170.837 57.0292 170.994 57.423 171.28 57.7032C171.566 57.9834 171.963 58.1191 172.471 58.1102C172.865 58.1033 173.238 58.0558 173.588 57.9676C173.938 57.8794 174.303 57.7422 174.682 57.5558L174.707 58.9384C174.397 59.1001 174.065 59.2212 173.711 59.3016C173.357 59.3859 172.924 59.4326 172.412 59.4415Z" fill="#034861"/>
<path d="M178.321 59.2209L176.535 59.2522L176.375 50.1364L178.162 50.1051L178.321 59.2209Z" fill="#034861"/>
<path d="M185.937 53.6845C185.558 53.6912 185.263 53.8174 185.053 54.0633C184.842 54.3054 184.725 54.6473 184.701 55.0892L187.209 55.0453C187.193 54.6041 187.072 54.2663 186.845 54.032C186.618 53.7937 186.316 53.6779 185.937 53.6845ZM186.285 59.1988C185.231 59.2173 184.401 58.9407 183.798 58.3692C183.194 57.7976 182.882 56.9787 182.864 55.9125C182.845 54.815 183.103 53.9627 183.64 53.3555C184.18 52.7444 184.934 52.4304 185.903 52.4135C186.828 52.3973 187.554 52.6483 188.078 53.1665C188.603 53.6848 188.874 54.4087 188.89 55.3382L188.905 56.2053L184.681 56.2792C184.709 56.7866 184.867 57.1804 185.153 57.4605C185.439 57.7407 185.836 57.8764 186.344 57.8675C186.738 57.8606 187.111 57.8131 187.461 57.7249C187.811 57.6367 188.176 57.4995 188.555 57.3131L188.579 58.6957C188.27 58.8574 187.938 58.9785 187.584 59.0589C187.23 59.1432 186.797 59.1899 186.285 59.1988Z" fill="#034861"/>
<path d="M196.453 58.9037L194.667 58.935L194.6 55.1094C194.591 54.6368 194.501 54.2848 194.329 54.0534C194.157 53.8181 193.887 53.7037 193.52 53.7101C193.02 53.7189 192.662 53.8931 192.445 54.2329C192.229 54.5688 192.127 55.1234 192.14 55.8967L192.194 58.9783L190.407 59.0095L190.293 52.4597L191.658 52.4359L191.913 53.2694L192.012 53.2677C192.206 52.9478 192.475 52.7048 192.82 52.5386C193.169 52.3684 193.566 52.2794 194.011 52.2716C194.772 52.2583 195.354 52.4552 195.756 52.8623C196.157 53.2655 196.365 53.8557 196.379 54.6329L196.453 58.9037Z" fill="#034861"/>
<path d="M200.955 58.9422C198.916 58.9779 197.877 57.8767 197.838 55.6388C197.818 54.5257 198.081 53.6714 198.625 53.0758C199.17 52.4763 199.959 52.1676 200.994 52.1495C201.752 52.1362 202.434 52.2727 203.041 52.559L202.538 53.9509C202.254 53.8425 201.991 53.7553 201.748 53.6893C201.504 53.6193 201.262 53.5864 201.019 53.5907C200.09 53.6069 199.637 54.2751 199.66 55.5952C199.682 56.8763 200.158 57.5087 201.088 57.4924C201.431 57.4864 201.749 57.4359 202.04 57.3409C202.331 57.2421 202.622 57.0925 202.911 56.892L202.938 58.4211C202.652 58.6097 202.362 58.7418 202.066 58.8173C201.774 58.8927 201.404 58.9344 200.955 58.9422Z" fill="#034861"/>
<path d="M208.627 58.6908L208.266 57.8063L208.219 57.8072C207.925 58.1913 207.619 58.4603 207.302 58.6144C206.988 58.7644 206.575 58.8439 206.063 58.8528C205.435 58.8638 204.935 58.6929 204.566 58.3399C204.2 57.9869 204.012 57.4784 204 56.8144C203.988 56.1192 204.221 55.6033 204.7 55.2668C205.182 54.9262 205.913 54.7298 206.893 54.6775L208.029 54.6225L208.024 54.3354C208.012 53.6715 207.666 53.3454 206.987 53.3573C206.464 53.3665 205.851 53.5354 205.15 53.8642L204.537 52.6677C205.284 52.26 206.116 52.0481 207.034 52.0321C207.913 52.0167 208.59 52.1963 209.065 52.5709C209.541 52.9454 209.785 53.5233 209.799 54.3044L209.875 58.669L208.627 58.6908ZM208.047 55.6653L207.356 55.7008C206.837 55.7256 206.452 55.8261 206.201 56.0023C205.95 56.1786 205.828 56.4425 205.834 56.794C205.843 57.2979 206.136 57.5447 206.714 57.5346C207.128 57.5274 207.456 57.4025 207.698 57.1599C207.944 56.9173 208.063 56.5988 208.056 56.2043L208.047 55.6653Z" fill="#034861"/>
<path d="M215.26 51.8999C215.502 51.8957 215.703 51.9097 215.864 51.9421L215.758 53.62C215.613 53.5834 215.437 53.567 215.23 53.5706C214.66 53.5806 214.217 53.7348 213.902 54.0334C213.591 54.3318 213.44 54.7447 213.449 55.2719L213.507 58.6054L211.721 58.6367L211.606 52.0869L212.959 52.0632L213.242 53.16L213.33 53.1585C213.527 52.7878 213.795 52.4881 214.135 52.2595C214.478 52.0269 214.853 51.907 215.26 51.8999Z" fill="#034861"/>
<path d="M222.755 51.8919L222.771 52.7999L221.75 53.0815C221.943 53.3711 222.042 53.6976 222.048 54.0608C222.061 54.7638 221.824 55.3169 221.339 55.7199C220.858 56.1191 220.181 56.3262 219.311 56.3415L218.988 56.3295L218.724 56.3048C218.543 56.4487 218.454 56.6065 218.457 56.7783C218.461 57.0361 218.792 57.1593 219.448 57.1478L220.561 57.1283C221.279 57.1157 221.829 57.2604 222.209 57.5624C222.594 57.8644 222.791 58.3141 222.801 58.9117C222.815 59.6772 222.505 60.2764 221.872 60.7094C221.242 61.1424 220.33 61.3693 219.135 61.3902C218.221 61.4062 217.519 61.2583 217.029 60.9465C216.543 60.6386 216.295 60.1975 216.285 59.6234C216.279 59.2289 216.396 58.8967 216.637 58.6269C216.879 58.357 217.237 58.1612 217.711 58.0396C217.526 57.9647 217.364 57.8406 217.224 57.6672C217.084 57.49 217.013 57.3017 217.009 57.1025C217.005 56.8526 217.073 56.6443 217.215 56.4777C217.356 56.3073 217.563 56.1396 217.833 55.9747C217.487 55.8323 217.209 55.5988 217 55.2743C216.796 54.9497 216.689 54.5648 216.681 54.1195C216.669 53.4048 216.892 52.8481 217.35 52.4494C217.808 52.0507 218.468 51.8438 219.331 51.8287C219.515 51.8255 219.732 51.8393 219.982 51.87C220.237 51.8968 220.399 51.9174 220.47 51.9318L222.755 51.8919ZM217.83 59.4557C217.834 59.7018 217.954 59.8931 218.191 60.0296C218.432 60.166 218.765 60.2305 219.191 60.2231C219.831 60.2119 220.332 60.1152 220.692 59.9331C221.052 59.751 221.229 59.5076 221.224 59.203C221.22 58.9569 221.109 58.7889 220.893 58.6989C220.677 58.6089 220.344 58.5679 219.895 58.5757L218.969 58.5919C218.641 58.5977 218.367 58.6786 218.147 58.8349C217.931 58.9949 217.825 59.2019 217.83 59.4557ZM218.387 54.1131C218.393 54.4686 218.478 54.7484 218.642 54.9526C218.809 55.1567 219.059 55.2559 219.391 55.25C219.727 55.2442 219.971 55.1364 220.124 54.9266C220.276 54.7169 220.35 54.4343 220.343 54.0789C220.33 53.29 219.998 52.9012 219.35 52.9125C218.694 52.924 218.373 53.3242 218.387 54.1131Z" fill="#034861"/>
<path d="M228.113 58.3499L227.751 57.4655L227.705 57.4663C227.41 57.8504 227.105 58.1195 226.787 58.2735C226.473 58.4235 226.06 58.503 225.549 58.512C224.92 58.523 224.421 58.352 224.051 57.999C223.686 57.646 223.497 57.1375 223.485 56.4735C223.473 55.7783 223.706 55.2625 224.185 54.9259C224.667 54.5854 225.398 54.389 226.378 54.3367L227.514 54.2816L227.509 53.9946C227.497 53.3306 227.152 53.0046 226.472 53.0165C225.949 53.0256 225.336 53.1946 224.635 53.5233L224.022 52.3268C224.769 51.9191 225.602 51.7073 226.519 51.6912C227.398 51.6759 228.075 51.8554 228.551 52.23C229.026 52.6046 229.27 53.1824 229.284 53.9635L229.36 58.3281L228.113 58.3499ZM227.532 55.3245L226.841 55.36C226.322 55.3847 225.937 55.4852 225.686 55.6615C225.435 55.8378 225.313 56.1017 225.319 56.4532C225.328 56.957 225.621 57.2039 226.2 57.1938C226.614 57.1865 226.941 57.0616 227.183 56.8191C227.429 56.5765 227.549 56.2579 227.542 55.8634L227.532 55.3245Z" fill="#034861"/>
<path d="M233.282 58.3767C232.512 58.3902 231.902 58.102 231.45 57.5121C231.002 56.9222 230.769 56.098 230.75 55.0396C230.732 53.9656 230.94 53.1259 231.374 52.5205C231.813 51.9112 232.425 51.5996 233.21 51.5859C234.034 51.5715 234.668 51.8808 235.113 52.5137L235.172 52.5127C235.073 52.026 235.021 51.5913 235.014 51.2086L234.977 49.1113L236.77 49.0799L236.93 58.1957L235.559 58.2197L235.198 57.3762L235.122 57.3776C234.727 58.0291 234.114 58.3622 233.282 58.3767ZM233.884 56.9421C234.341 56.9341 234.672 56.7955 234.879 56.5262C235.089 56.2569 235.198 55.8037 235.206 55.1668L235.203 54.9734C235.191 54.2704 235.073 53.7685 234.849 53.4677C234.628 53.1668 234.274 53.0206 233.786 53.0292C233.388 53.0361 233.08 53.2115 232.863 53.5552C232.651 53.8949 232.55 54.3869 232.561 55.0314C232.572 55.6758 232.692 56.1582 232.92 56.4784C233.149 56.7948 233.47 56.9494 233.884 56.9421Z" fill="#034861"/>
<path d="M240.165 54.8515C240.176 55.4998 240.29 55.9881 240.507 56.3164C240.727 56.6447 241.078 56.8046 241.558 56.7962C242.035 56.7878 242.374 56.6178 242.575 56.2861C242.78 55.9504 242.877 55.4565 242.865 54.8042C242.854 54.1559 242.74 53.6715 242.523 53.351C242.307 53.0305 241.958 52.8745 241.478 52.8829C241.002 52.8912 240.661 53.0593 240.455 53.3872C240.25 53.7111 240.153 54.1992 240.165 54.8515ZM244.693 54.7723C244.712 55.8385 244.445 56.6773 243.893 57.2886C243.341 57.8999 242.564 58.2143 241.56 58.2319C240.931 58.2429 240.374 58.1159 239.889 57.8509C239.404 57.582 239.028 57.192 238.761 56.681C238.494 56.17 238.355 55.5708 238.343 54.8834C238.324 53.8132 238.589 52.9764 239.137 52.373C239.685 51.7696 240.465 51.459 241.476 51.4413C242.105 51.4303 242.662 51.5573 243.147 51.8223C243.632 52.0873 244.008 52.4733 244.275 52.9805C244.542 53.4876 244.681 54.0849 244.693 54.7723Z" fill="#034861"/>
<path d="M121.794 76.3294C121.024 76.3429 120.414 76.0547 119.962 75.4649C119.514 74.8749 119.281 74.0508 119.262 72.9923C119.243 71.9183 119.451 71.0786 119.886 70.4732C120.325 69.8639 120.937 69.5524 121.722 69.5386C122.546 69.5242 123.18 69.8335 123.625 70.4664L123.684 70.4654C123.585 69.9788 123.533 69.5441 123.526 69.1613L123.489 67.064L125.282 67.0326L125.441 76.1484L124.071 76.1724L123.71 75.329L123.634 75.3303C123.239 75.9818 122.626 76.3149 121.794 76.3294ZM122.396 74.8949C122.853 74.8869 123.184 74.7482 123.39 74.479C123.601 74.2096 123.71 73.7565 123.718 73.1195L123.715 72.9262C123.703 72.2232 123.584 71.7212 123.36 71.4204C123.14 71.1195 122.786 70.9734 122.298 70.9819C121.899 70.9889 121.592 71.1642 121.375 71.5079C121.162 71.8476 121.062 72.3397 121.073 72.9841C121.084 73.6285 121.204 74.1109 121.432 74.4312C121.66 74.7475 121.982 74.9021 122.396 74.8949Z" fill="#034861"/>
<path d="M129.928 70.6668C129.549 70.6734 129.255 70.7997 129.044 71.0456C128.833 71.2876 128.716 71.6295 128.693 72.0714L131.2 72.0275C131.185 71.5863 131.064 71.2486 130.837 71.0142C130.61 70.7759 130.307 70.6601 129.928 70.6668ZM130.277 76.181C129.222 76.1995 128.393 75.9229 127.789 75.3514C127.185 74.7798 126.874 73.9609 126.855 72.8947C126.836 71.7972 127.095 70.9449 127.631 70.3377C128.171 69.7266 128.926 69.4126 129.894 69.3957C130.82 69.3795 131.545 69.6305 132.07 70.1488C132.595 70.667 132.865 71.3909 132.881 72.3204L132.897 73.1875L128.673 73.2614C128.701 73.7688 128.858 74.1626 129.145 74.4428C129.431 74.723 129.828 74.8586 130.335 74.8497C130.73 74.8428 131.102 74.7953 131.452 74.7071C131.802 74.619 132.167 74.4817 132.547 74.2953L132.571 75.6779C132.261 75.8396 131.929 75.9607 131.575 76.0411C131.221 76.1254 130.788 76.1721 130.277 76.181Z" fill="#034861"/>
<path d="M139.389 71.14L139.975 71.1298C140.549 71.1197 140.971 71.0166 141.241 70.8205C141.511 70.6243 141.643 70.3212 141.636 69.9111C141.628 69.5049 141.483 69.2183 141.199 69.0514C140.918 68.8844 140.485 68.806 139.899 68.8163L139.349 68.8259L139.389 71.14ZM139.415 72.6164L139.472 75.903L137.656 75.9347L137.507 67.3696L140.002 67.326C141.166 67.3056 142.031 67.5034 142.597 67.9194C143.163 68.3314 143.453 68.969 143.468 69.8322C143.477 70.336 143.346 70.7876 143.076 71.1869C142.806 71.5823 142.418 71.8958 141.915 72.1273C143.237 74.0302 144.099 75.2595 144.499 75.815L142.484 75.8503L140.382 72.5995L139.415 72.6164Z" fill="#034861"/>
<path d="M148.054 70.3497C147.676 70.3563 147.381 70.4826 147.17 70.7285C146.96 70.9705 146.843 71.3124 146.819 71.7543L149.326 71.7104C149.311 71.2692 149.19 70.9315 148.963 70.6971C148.736 70.4589 148.433 70.343 148.054 70.3497ZM148.403 75.864C147.348 75.8824 146.519 75.6058 145.915 75.0343C145.311 74.4627 145 73.6438 144.982 72.5776C144.962 71.4801 145.221 70.6278 145.757 70.0207C146.297 69.4096 147.052 69.0955 148.02 69.0786C148.946 69.0624 149.671 69.3134 150.196 69.8317C150.721 70.3499 150.991 71.0738 151.008 72.0034L151.023 72.8704L146.799 72.9443C146.827 73.4517 146.985 73.8455 147.271 74.1257C147.557 74.4059 147.954 74.5415 148.462 74.5326C148.856 74.5257 149.228 74.4782 149.578 74.39C149.928 74.3019 150.293 74.1646 150.673 73.9783L150.697 75.3609C150.387 75.5226 150.055 75.6436 149.701 75.724C149.347 75.8084 148.914 75.855 148.403 75.864Z" fill="#034861"/>
<path d="M155.187 75.7453C153.148 75.7809 152.109 74.6798 152.07 72.4419C152.051 71.3288 152.313 70.4744 152.857 69.8789C153.402 69.2794 154.191 68.9706 155.226 68.9525C155.984 68.9393 156.666 69.0758 157.273 69.3621L156.77 70.7539C156.487 70.6456 156.223 70.5584 155.98 70.4923C155.737 70.4224 155.494 70.3895 155.252 70.3937C154.322 70.41 153.869 71.0782 153.892 72.3983C153.914 73.6793 154.39 74.3117 155.32 74.2955C155.664 74.2895 155.981 74.239 156.272 74.144C156.564 74.0452 156.854 73.8955 157.144 73.6951L157.17 75.2242C156.885 75.4128 156.594 75.5449 156.298 75.6204C156.007 75.6958 155.636 75.7374 155.187 75.7453Z" fill="#034861"/>
<path d="M163.34 75.4855L163.085 74.6519L162.991 74.6535C162.805 74.9615 162.538 75.2026 162.189 75.3767C161.841 75.5468 161.442 75.6359 160.993 75.6437C160.223 75.6572 159.64 75.4623 159.242 75.059C158.844 74.6518 158.639 74.0616 158.625 73.2883L158.55 69.0175L160.337 68.9862L160.404 72.8118C160.412 73.2844 160.502 73.6383 160.675 73.8736C160.847 74.105 161.116 74.2175 161.483 74.2111C161.983 74.2023 162.342 74.03 162.558 73.6942C162.775 73.3544 162.877 72.7978 162.863 72.0245L162.809 68.943L164.596 68.9117L164.711 75.4615L163.34 75.4855Z" fill="#034861"/>
<path d="M170.124 68.6919C170.367 68.6877 170.568 68.7017 170.729 68.7341L170.623 70.412C170.478 70.3754 170.302 70.359 170.095 70.3626C169.525 70.3726 169.082 70.5268 168.767 70.8254C168.456 71.1238 168.305 71.5367 168.314 72.0639L168.372 75.3974L166.586 75.4287L166.471 68.8789L167.824 68.8552L168.107 69.952L168.195 69.9505C168.392 69.5798 168.66 69.2801 169 69.0515C169.343 68.8189 169.718 68.699 170.124 68.6919Z" fill="#034861"/>
<path d="M176.569 73.3084C176.581 73.9802 176.356 74.4959 175.893 74.8556C175.435 75.2153 174.741 75.4032 173.811 75.4195C173.335 75.4278 172.928 75.4017 172.591 75.3412C172.254 75.2846 171.938 75.1964 171.643 75.0765L171.617 73.6002C171.952 73.7506 172.327 73.8749 172.743 73.9731C173.162 74.0713 173.53 74.1176 173.847 74.112C174.495 74.1007 174.816 73.9075 174.809 73.5326C174.807 73.392 174.762 73.2795 174.675 73.1951C174.587 73.1067 174.437 73.0097 174.224 72.9041C174.011 72.7945 173.728 72.6686 173.374 72.5263C172.866 72.3242 172.492 72.1354 172.25 71.9599C172.013 71.7844 171.837 71.5823 171.724 71.3538C171.614 71.1213 171.557 70.8352 171.551 70.4954C171.541 69.9134 171.757 69.4604 172.201 69.1361C172.648 68.8079 173.286 68.6366 174.114 68.6221C174.903 68.6083 175.674 68.7668 176.426 69.0974L175.909 70.3957C175.579 70.2608 175.27 70.151 174.983 70.0661C174.697 69.9813 174.405 69.9415 174.108 69.9467C173.581 69.9559 173.32 70.1031 173.325 70.3882C173.327 70.5483 173.414 70.6855 173.584 70.7997C173.758 70.9139 174.134 71.0811 174.712 71.3015C175.227 71.4996 175.605 71.6864 175.847 71.8619C176.088 72.0373 176.268 72.2413 176.385 72.4736C176.502 72.706 176.564 72.9842 176.569 73.3084Z" fill="#034861"/>
<path d="M179.364 71.9175C179.375 72.5659 179.489 73.0542 179.706 73.3825C179.927 73.7107 180.277 73.8706 180.758 73.8622C181.234 73.8539 181.573 73.6839 181.774 73.3522C181.979 73.0165 182.076 72.5225 182.065 71.8703C182.053 71.2219 181.939 70.7375 181.723 70.4171C181.506 70.0966 181.158 69.9405 180.677 69.9489C180.201 69.9573 179.86 70.1254 179.655 70.4532C179.449 70.7772 179.353 71.2653 179.364 71.9175ZM183.893 71.8383C183.911 72.9046 183.645 73.7433 183.093 74.3546C182.541 74.9659 181.763 75.2804 180.759 75.2979C180.13 75.3089 179.573 75.1819 179.088 74.917C178.603 74.6481 178.227 74.2581 177.96 73.7471C177.693 73.236 177.554 72.6368 177.542 71.9494C177.523 70.8793 177.788 70.0425 178.336 69.439C178.884 68.8356 179.664 68.525 180.676 68.5073C181.304 68.4963 181.861 68.6233 182.347 68.8883C182.832 69.1533 183.208 69.5394 183.474 70.0465C183.741 70.5537 183.881 71.1509 183.893 71.8383Z" fill="#034861"/>
<path d="M189.962 73.0741C189.974 73.7459 189.748 74.2617 189.286 74.6214C188.827 74.981 188.133 75.1689 187.204 75.1852C186.727 75.1935 186.32 75.1675 185.983 75.1069C185.646 75.0503 185.33 74.9621 185.035 74.8422L185.009 73.3659C185.344 73.5163 185.719 73.6406 186.135 73.7388C186.555 73.837 186.923 73.8833 187.239 73.8777C187.888 73.8664 188.209 73.6733 188.202 73.2983C188.2 73.1577 188.155 73.0452 188.067 72.9608C187.98 72.8725 187.829 72.7755 187.617 72.6698C187.404 72.5602 187.12 72.4343 186.766 72.292C186.259 72.0899 185.884 71.9011 185.643 71.7256C185.405 71.5501 185.23 71.348 185.117 71.1195C185.007 70.887 184.949 70.6009 184.943 70.2611C184.933 69.6792 185.15 69.2261 185.593 68.9019C186.041 68.5737 186.679 68.4023 187.507 68.3879C188.296 68.3741 189.066 68.5325 189.818 68.8631L189.302 70.1614C188.971 70.0266 188.662 69.9167 188.376 69.8319C188.089 69.747 187.797 69.7072 187.5 69.7124C186.973 69.7216 186.712 69.8688 186.717 70.1539C186.72 70.314 186.806 70.4512 186.976 70.5654C187.15 70.6796 187.526 70.8469 188.104 71.0673C188.62 71.2653 188.998 71.4521 189.239 71.6276C189.481 71.8031 189.66 72.007 189.777 72.2393C189.895 72.4717 189.956 72.75 189.962 73.0741Z" fill="#034861"/>
<path d="M201.666 74.815L199.856 74.8467L199.791 71.15L196.399 71.2093L196.464 74.906L194.648 74.9378L194.498 66.3727L196.314 66.3409L196.373 69.6978L199.765 69.6385L199.706 66.2816L201.516 66.2499L201.666 74.815Z" fill="#034861"/>
<path d="M208.333 74.6984L208.078 73.8648L207.984 73.8665C207.798 74.1744 207.531 74.4155 207.183 74.5896C206.834 74.7598 206.435 74.8488 205.986 74.8566C205.216 74.8701 204.633 74.6752 204.235 74.2719C203.837 73.8648 203.632 73.2745 203.618 72.5012L203.543 68.2304L205.33 68.1991L205.397 72.0247C205.405 72.4973 205.496 72.8512 205.668 73.0865C205.84 73.318 206.109 73.4304 206.476 73.424C206.976 73.4153 207.335 73.243 207.552 72.9071C207.768 72.5673 207.87 72.0108 207.856 71.2374L207.803 68.1559L209.589 68.1246L209.704 74.6744L208.333 74.6984Z" fill="#034861"/>
<path d="M217.443 74.539L215.656 74.5703L215.589 70.7447C215.581 70.2721 215.495 69.92 215.33 69.6885C215.17 69.453 214.92 69.3382 214.58 69.3442C214.123 69.3521 213.794 69.5259 213.593 69.8654C213.392 70.2049 213.298 70.7594 213.312 71.5288L213.365 74.6103L211.579 74.6416L211.464 68.0918L212.829 68.0679L213.084 68.9015L213.184 68.8998C213.354 68.596 213.604 68.3572 213.933 68.1834C214.262 68.0058 214.641 67.9132 215.071 67.9057C216.051 67.8885 216.721 68.1972 217.079 68.8316L217.238 68.8288C217.408 68.5211 217.662 68.2803 217.999 68.1064C218.339 67.9325 218.724 67.8418 219.154 67.8342C219.896 67.8213 220.46 68.0028 220.846 68.379C221.235 68.7511 221.437 69.357 221.452 70.1968L221.526 74.4676L219.734 74.4989L219.667 70.6734C219.658 70.2008 219.572 69.8487 219.408 69.6172C219.248 69.3817 218.997 69.2669 218.658 69.2728C218.22 69.2805 217.895 69.4424 217.682 69.7587C217.472 70.0749 217.374 70.5728 217.385 71.2524L217.443 74.539Z" fill="#034861"/>
<path d="M227.525 74.3626L227.164 73.4782L227.117 73.479C226.823 73.8631 226.517 74.1322 226.2 74.2862C225.886 74.4363 225.473 74.5158 224.961 74.5247C224.333 74.5357 223.833 74.3647 223.464 74.0118C223.098 73.6587 222.91 73.1502 222.898 72.4863C222.886 71.7911 223.119 71.2752 223.598 70.9386C224.08 70.5981 224.811 70.4017 225.791 70.3494L226.927 70.2944L226.922 70.0073C226.91 69.3433 226.565 69.0173 225.885 69.0292C225.362 69.0383 224.749 69.2073 224.048 69.536L223.435 68.3395C224.182 67.9319 225.014 67.72 225.932 67.7039C226.811 67.6886 227.488 67.8682 227.963 68.2427C228.439 68.6173 228.683 69.1951 228.697 69.9762L228.773 74.3408L227.525 74.3626ZM226.945 71.3372L226.254 71.3727C225.735 71.3974 225.35 71.4979 225.099 71.6742C224.848 71.8505 224.726 72.1144 224.732 72.4659C224.741 72.9697 225.034 73.2166 225.612 73.2065C226.026 73.1992 226.354 73.0743 226.596 72.8318C226.842 72.5892 226.961 72.2706 226.954 71.8762L226.945 71.3372Z" fill="#034861"/>
<path d="M236.665 74.2028L234.878 74.234L234.811 70.4084C234.803 69.9359 234.712 69.5839 234.54 69.3525C234.368 69.1172 234.099 69.0027 233.732 69.0091C233.232 69.0179 232.873 69.1921 232.657 69.5319C232.44 69.8678 232.338 70.4224 232.352 71.1957L232.406 74.2773L230.619 74.3085L230.504 67.7588L231.869 67.7349L232.124 68.5684L232.224 68.5667C232.417 68.2469 232.686 68.0038 233.031 67.8376C233.38 67.6674 233.777 67.5784 234.222 67.5707C234.984 67.5573 235.565 67.7542 235.967 68.1613C236.369 68.5645 236.576 69.1547 236.59 69.9319L236.665 74.2028Z" fill="#034861"/>
<path d="M239.87 70.8591C239.882 71.5074 239.996 71.9957 240.212 72.324C240.433 72.6522 240.784 72.8122 241.264 72.8038C241.74 72.7954 242.079 72.6254 242.281 72.2937C242.486 71.958 242.582 71.4641 242.571 70.8118C242.56 70.1635 242.446 69.6791 242.229 69.3586C242.013 69.0381 241.664 68.8821 241.184 68.8905C240.707 68.8988 240.366 69.0669 240.161 69.3948C239.956 69.7187 239.859 70.2068 239.87 70.8591ZM244.399 70.7799C244.418 71.8461 244.151 72.6849 243.599 73.2962C243.047 73.9075 242.269 74.2219 241.266 74.2395C240.637 74.2505 240.08 74.1235 239.595 73.8585C239.109 73.5896 238.733 73.1996 238.467 72.6886C238.2 72.1776 238.06 71.5784 238.048 70.891C238.03 69.8208 238.294 68.984 238.842 68.3806C239.391 67.7772 240.17 67.4666 241.182 67.4489C241.811 67.4379 242.368 67.5649 242.853 67.8299C243.338 68.0949 243.714 68.4809 243.981 68.9881C244.248 69.4952 244.387 70.0925 244.399 70.7799Z" fill="#034861"/>
<path d="M250.468 72.0157C250.48 72.6875 250.255 73.2032 249.792 73.5629C249.334 73.9225 248.639 74.1105 247.71 74.1268C247.233 74.1351 246.827 74.109 246.49 74.0485C246.153 73.9919 245.837 73.9036 245.541 73.7838L245.516 72.3074C245.85 72.4579 246.226 72.5822 246.641 72.6804C247.061 72.7785 247.429 72.8248 247.746 72.8193C248.394 72.808 248.715 72.6148 248.708 72.2399C248.706 72.0993 248.661 71.9868 248.573 71.9023C248.486 71.814 248.336 71.717 248.123 71.6113C247.91 71.5018 247.627 71.3758 247.273 71.2336C246.765 71.0315 246.391 70.8427 246.149 70.6672C245.912 70.4916 245.736 70.2896 245.623 70.0611C245.513 69.8286 245.456 69.5424 245.45 69.2027C245.439 68.6207 245.656 68.1676 246.1 67.8434C246.547 67.5152 247.185 67.3439 248.013 67.3294C248.802 67.3156 249.572 67.474 250.324 67.8047L249.808 69.103C249.477 68.9681 249.169 68.8583 248.882 68.7734C248.595 68.6886 248.304 68.6487 248.007 68.6539C247.48 68.6632 247.218 68.8103 247.223 69.0954C247.226 69.2556 247.313 69.3928 247.483 69.507C247.657 69.6211 248.033 69.7884 248.611 70.0088C249.126 70.2069 249.504 70.3936 249.746 70.5691C249.987 70.7446 250.166 70.9485 250.284 71.1809C250.401 71.4133 250.463 71.6915 250.468 72.0157Z" fill="#034861"/>
<path d="M122.616 86.7971C122.237 86.8038 121.942 86.93 121.731 87.1759C121.521 87.4179 121.404 87.7599 121.38 88.2018L123.888 88.1579C123.872 87.7167 123.751 87.3789 123.524 87.1446C123.297 86.9063 122.994 86.7905 122.616 86.7971ZM122.964 92.3114C121.909 92.3299 121.08 92.0533 120.476 91.4817C119.873 90.9102 119.561 90.0913 119.543 89.025C119.523 87.9276 119.782 87.0752 120.318 86.4681C120.859 85.857 121.613 85.543 122.582 85.526C123.507 85.5099 124.232 85.7609 124.757 86.2791C125.282 86.7974 125.552 87.5213 125.569 88.4508L125.584 89.3179L121.36 89.3918C121.388 89.8991 121.546 90.2929 121.832 90.5731C122.118 90.8533 122.515 90.989 123.023 90.9801C123.417 90.9732 123.789 90.9257 124.14 90.8375C124.49 90.7493 124.854 90.6121 125.234 90.4257L125.258 91.8083C124.949 91.97 124.617 92.0911 124.263 92.1715C123.908 92.2558 123.476 92.3025 122.964 92.3114Z" fill="#034861"/>
<path d="M133.132 92.0163L131.345 92.0476L131.278 88.222C131.27 87.7494 131.18 87.3974 131.008 87.166C130.836 86.9307 130.566 86.8163 130.199 86.8227C129.699 86.8314 129.341 87.0057 129.124 87.3455C128.907 87.6814 128.806 88.236 128.819 89.0093L128.873 92.0908L127.086 92.1221L126.972 85.5723L128.337 85.5484L128.592 86.382L128.691 86.3803C128.885 86.0604 129.154 85.8174 129.499 85.6512C129.848 85.481 130.244 85.392 130.69 85.3842C131.451 85.3709 132.033 85.5678 132.435 85.9749C132.836 86.3781 133.044 86.9683 133.058 87.7455L133.132 92.0163Z" fill="#034861"/>
<path d="M142.728 91.8485L142.474 91.0149L142.38 91.0165C142.194 91.3245 141.926 91.5656 141.578 91.7397C141.229 91.9098 140.83 91.9989 140.381 92.0067C139.612 92.0202 139.028 91.8253 138.631 91.422C138.233 91.0149 138.027 90.4246 138.014 89.6513L137.939 85.3805L139.726 85.3492L139.793 89.1748C139.801 89.6474 139.891 90.0013 140.063 90.2366C140.235 90.468 140.505 90.5805 140.872 90.5741C141.372 90.5654 141.73 90.393 141.947 90.0572C142.164 89.7174 142.265 89.1608 142.252 88.3875L142.198 85.306L143.985 85.2747L144.099 91.8245L142.728 91.8485Z" fill="#034861"/>
<path d="M152.02 91.6859L150.233 91.7172L150.166 87.8916C150.158 87.419 150.068 87.067 149.896 86.8356C149.724 86.6003 149.454 86.4859 149.087 86.4923C148.587 86.501 148.229 86.6753 148.012 87.0151C147.795 87.351 147.693 87.9056 147.707 88.6789L147.761 91.7604L145.974 91.7917L145.859 85.2419L147.224 85.218L147.479 86.0516L147.579 86.0498C147.773 85.73 148.042 85.487 148.387 85.3208C148.735 85.1506 149.132 85.0616 149.577 85.0538C150.339 85.0405 150.921 85.2374 151.322 85.6445C151.724 86.0477 151.932 86.6379 151.945 87.4151L152.02 91.6859Z" fill="#034861"/>
<path d="M158.019 91.581L157.658 90.6965L157.611 90.6974C157.317 91.0815 157.011 91.3505 156.693 91.5045C156.379 91.6546 155.967 91.7341 155.455 91.743C154.826 91.754 154.327 91.5831 153.958 91.2301C153.592 90.8771 153.403 90.3686 153.392 89.7046C153.38 89.0094 153.613 88.4935 154.091 88.157C154.574 87.8164 155.305 87.62 156.285 87.5677L157.42 87.5127L157.415 87.2256C157.404 86.5617 157.058 86.2356 156.379 86.2475C155.855 86.2567 155.243 86.4256 154.542 86.7543L153.929 85.5578C154.676 85.1502 155.508 84.9383 156.426 84.9223C157.305 84.9069 157.982 85.0865 158.457 85.4611C158.932 85.8356 159.177 86.4135 159.191 87.1946L159.267 91.5592L158.019 91.581ZM157.439 88.5555L156.748 88.591C156.229 88.6157 155.844 88.7163 155.593 88.8925C155.342 89.0688 155.22 89.3327 155.226 89.6842C155.235 90.1881 155.528 90.4349 156.106 90.4248C156.52 90.4176 156.848 90.2927 157.09 90.0501C157.336 89.8075 157.455 89.489 157.448 89.0945L157.439 88.5555Z" fill="#034861"/>
<path d="M169.302 91.3836L164.37 91.4699L164.22 82.9048L169.153 82.8185L169.179 84.3066L166.062 84.3611L166.095 86.2416L168.995 86.1909L169.021 87.679L166.121 87.7297L166.16 89.9383L169.276 89.8838L169.302 91.3836Z" fill="#034861"/>
<path d="M176.819 91.2521L175.032 91.2834L174.965 87.4578C174.957 86.9852 174.871 86.6331 174.706 86.4016C174.546 86.1661 174.296 86.0513 173.956 86.0572C173.499 86.0652 173.17 86.239 172.969 86.5785C172.768 86.918 172.674 87.4725 172.688 88.2419L172.741 91.3234L170.955 91.3547L170.84 84.8049L172.205 84.781L172.46 85.6146L172.559 85.6129C172.73 85.309 172.98 85.0703 173.309 84.8965C173.638 84.7189 174.017 84.6263 174.447 84.6188C175.427 84.6016 176.097 84.9103 176.455 85.5447L176.614 85.5419C176.784 85.2342 177.038 84.9934 177.374 84.8195C177.715 84.6456 178.1 84.5548 178.53 84.5473C179.272 84.5343 179.836 84.7159 180.221 85.092C180.611 85.4642 180.813 86.0701 180.828 86.9099L180.902 91.1807L179.11 91.212L179.043 87.3865C179.034 86.9139 178.948 86.5618 178.784 86.3303C178.624 86.0948 178.373 85.98 178.034 85.9859C177.596 85.9936 177.271 86.1555 177.058 86.4718C176.848 86.788 176.75 87.2859 176.761 87.9655L176.819 91.2521Z" fill="#034861"/>
<path d="M186.341 91.2027C185.572 91.2162 184.963 90.9475 184.516 90.3967L184.422 90.3983C184.494 90.944 184.531 91.2598 184.533 91.3457L184.579 93.9996L182.792 94.0309L182.627 84.5987L184.08 84.5733L184.347 85.4184L184.429 85.4169C184.836 84.7613 185.449 84.4263 186.269 84.4119C187.042 84.3984 187.653 84.6866 188.101 85.2765C188.549 85.8664 188.782 86.6926 188.801 87.7549C188.813 88.454 188.72 89.0632 188.522 89.5823C188.328 90.1014 188.044 90.499 187.67 90.7751C187.296 91.0513 186.853 91.1938 186.341 91.2027ZM185.72 85.8515C185.279 85.8592 184.959 86.0015 184.76 86.2785C184.562 86.5515 184.464 87.0005 184.468 87.6256L184.471 87.8189C184.483 88.5219 184.596 89.024 184.808 89.325C185.024 89.6259 185.359 89.7724 185.812 89.7645C186.613 89.7505 187.001 89.0835 186.978 87.7633C186.967 87.1189 186.859 86.6383 186.654 86.3215C186.453 86.0008 186.142 85.8441 185.72 85.8515Z" fill="#034861"/>
<path d="M193.873 84.2789C194.116 84.2747 194.317 84.2887 194.478 84.3211L194.372 85.999C194.227 85.9624 194.051 85.946 193.844 85.9496C193.274 85.9596 192.831 86.1138 192.516 86.4124C192.205 86.7108 192.054 87.1237 192.063 87.651L192.121 90.9844L190.334 91.0157L190.22 84.4659L191.573 84.4422L191.856 85.539L191.944 85.5375C192.141 85.1668 192.409 84.8671 192.749 84.6385C193.092 84.4059 193.467 84.286 193.873 84.2789Z" fill="#034861"/>
<path d="M198.401 85.4714C198.022 85.478 197.727 85.6043 197.517 85.8502C197.306 86.0922 197.189 86.4342 197.165 86.876L199.673 86.8322C199.657 86.391 199.536 86.0532 199.309 85.8188C199.083 85.5806 198.78 85.4648 198.401 85.4714ZM198.749 90.9857C197.695 91.0041 196.866 90.7276 196.262 90.156C195.658 89.5845 195.347 88.7656 195.328 87.6993C195.309 86.6018 195.567 85.7495 196.104 85.1424C196.644 84.5313 197.398 84.2173 198.367 84.2003C199.292 84.1841 200.018 84.4352 200.542 84.9534C201.067 85.4716 201.338 86.1955 201.354 87.1251L201.369 87.9921L197.145 88.066C197.174 88.5734 197.331 88.9672 197.617 89.2474C197.903 89.5276 198.3 89.6633 198.808 89.6544C199.202 89.6475 199.575 89.5999 199.925 89.5118C200.275 89.4236 200.64 89.2863 201.019 89.1L201.044 90.4826C200.734 90.6443 200.402 90.7653 200.048 90.8458C199.694 90.9301 199.261 90.9767 198.749 90.9857Z" fill="#034861"/>
<path d="M207.407 88.7714C207.419 89.4432 207.194 89.9589 206.731 90.3186C206.272 90.6783 205.578 90.8662 204.649 90.8825C204.172 90.8908 203.765 90.8647 203.428 90.8042C203.091 90.7476 202.775 90.6594 202.48 90.5395L202.454 89.0632C202.789 89.2136 203.164 89.3379 203.58 89.4361C204 89.5342 204.368 89.5806 204.684 89.575C205.333 89.5637 205.654 89.3705 205.647 88.9956C205.645 88.855 205.6 88.7425 205.512 88.6581C205.425 88.5697 205.275 88.4727 205.062 88.3671C204.849 88.2575 204.565 88.1316 204.211 87.9893C203.704 87.7872 203.329 87.5984 203.088 87.4229C202.851 87.2474 202.675 87.0453 202.562 86.8168C202.452 86.5843 202.394 86.2982 202.388 85.9584C202.378 85.3764 202.595 84.9234 203.039 84.5991C203.486 84.271 204.124 84.0996 204.952 84.0851C205.741 84.0713 206.511 84.2298 207.263 84.5604L206.747 85.8587C206.416 85.7238 206.108 85.614 205.821 85.5291C205.534 85.4443 205.242 85.4045 204.946 85.4097C204.418 85.4189 204.157 85.566 204.162 85.8512C204.165 86.0113 204.251 86.1485 204.421 86.2627C204.595 86.3769 204.971 86.5441 205.55 86.7645C206.065 86.9626 206.443 87.1494 206.684 87.3249C206.926 87.5003 207.105 87.7043 207.223 87.9366C207.34 88.169 207.401 88.4472 207.407 88.7714Z" fill="#034861"/>
<path d="M212.995 90.6193L212.634 89.7348L212.587 89.7357C212.293 90.1198 211.987 90.3888 211.669 90.5428C211.355 90.6929 210.943 90.7724 210.431 90.7813C209.802 90.7923 209.303 90.6213 208.934 90.2684C208.568 89.9153 208.379 89.4069 208.368 88.7429C208.356 88.0477 208.589 87.5318 209.067 87.1953C209.55 86.8547 210.281 86.6583 211.261 86.606L212.396 86.551L212.391 86.2639C212.38 85.6 212.034 85.2739 211.355 85.2858C210.831 85.295 210.219 85.4639 209.517 85.7926L208.905 84.5961C209.652 84.1885 210.484 83.9766 211.402 83.9606C212.281 83.9452 212.958 84.1248 213.433 84.4994C213.908 84.8739 214.153 85.4517 214.167 86.2329L214.243 90.5974L212.995 90.6193ZM212.415 87.5938L211.724 87.6293C211.205 87.654 210.82 87.7545 210.569 87.9308C210.318 88.1071 210.196 88.371 210.202 88.7225C210.21 89.2264 210.504 89.4732 211.082 89.4631C211.496 89.4559 211.824 89.331 212.066 89.0884C212.312 88.8458 212.431 88.5273 212.424 88.1328L212.415 87.5938Z" fill="#034861"/>
<path d="M215.822 89.7318C215.816 89.4037 215.9 89.1542 216.072 88.9832C216.245 88.8122 216.5 88.7237 216.835 88.7178C217.16 88.7122 217.411 88.7937 217.59 88.9625C217.772 89.1312 217.867 89.3757 217.872 89.6959C217.878 90.0045 217.792 90.2502 217.616 90.433C217.439 90.6119 217.191 90.7041 216.87 90.7097C216.542 90.7155 216.287 90.634 216.104 90.4653C215.921 90.2927 215.827 90.0482 215.822 89.7318Z" fill="#034861"/>
</svg>
