<svg width="291" height="164" viewBox="0 0 291 164" fill="none" xmlns="http://www.w3.org/2000/svg">
<path d="M5.42529 13.6833C5.42529 9.26507 9.00702 5.68335 13.4253 5.68335H277.898C282.316 5.68335 285.898 9.26507 285.898 13.6833V150.039C285.898 154.458 282.316 158.039 277.898 158.039H13.4253C9.00702 158.039 5.42529 154.458 5.42529 150.039V13.6833Z" fill="#0FF942"/>
<path fill-rule="evenodd" clip-rule="evenodd" d="M282.897 1.6814H8.42676C4.56077 1.6814 1.42676 4.81541 1.42676 8.6814V155.041C1.42676 158.907 4.56077 162.041 8.42676 162.041H282.897C286.763 162.041 289.897 158.907 289.897 155.041V8.6814C289.897 4.8154 286.763 1.6814 282.897 1.6814ZM8.42676 0.681396C4.00848 0.681396 0.426758 4.26312 0.426758 8.6814V155.041C0.426758 159.46 4.00848 163.041 8.42676 163.041H282.897C287.315 163.041 290.897 159.46 290.897 155.041V8.6814C290.897 4.26312 287.315 0.681396 282.897 0.681396H8.42676Z" fill="#0FF942"/>
<path d="M192.953 121.684C186.552 122.158 186.138 108.646 186.73 101.831C182.088 98.967 173.159 96.6755 174.582 110.424C176.004 124.173 187.422 123.659 192.953 121.684Z" fill="white"/>
<path d="M187.528 38.4204C187.635 34.0034 184.141 30.3364 179.724 30.23L26.726 26.5421C22.3091 26.4356 18.6421 29.93 18.5356 34.347L16.9271 101.078C16.8206 105.495 20.315 109.162 24.732 109.269L177.73 112.957C182.147 113.063 185.813 109.569 185.92 105.152L187.528 38.4204Z" fill="white"/>
<path d="M41.3087 57.7513L36.3762 57.6472L36.5569 49.0827L41.4894 49.1868L41.458 50.6748L38.3415 50.609L38.3018 52.4894L41.2016 52.5506L41.1702 54.0386L38.2704 53.9774L38.2238 56.1859L41.3403 56.2516L41.3087 57.7513Z" fill="#034861"/>
<path d="M47.571 55.9377C47.5568 56.6095 47.3117 57.1161 46.8356 57.4577C46.3635 57.7994 45.6627 57.9604 44.7332 57.9408C44.2567 57.9307 43.8513 57.889 43.5168 57.8155C43.1823 57.7459 42.8699 57.6456 42.5796 57.5144L42.6107 56.0382C42.9394 56.2014 43.3096 56.3401 43.7213 56.4543C44.137 56.5685 44.503 56.629 44.8193 56.6357C45.4676 56.6494 45.7957 56.4687 45.8036 56.0938C45.8066 55.9532 45.766 55.8391 45.6819 55.7513C45.5979 55.6597 45.4516 55.557 45.243 55.4432C45.0345 55.3255 44.7561 55.1887 44.4077 55.0329C43.9084 54.8114 43.5415 54.6083 43.3071 54.4236C43.0765 54.239 42.909 54.0303 42.8045 53.7976C42.704 53.5611 42.6574 53.2729 42.6645 52.9331C42.6768 52.3512 42.9109 51.9069 43.3667 51.6C43.8264 51.2893 44.4703 51.1427 45.2982 51.1602C46.0871 51.1768 46.8509 51.3649 47.5896 51.7243L47.0234 53.0017C46.6984 52.8542 46.3942 52.7325 46.111 52.6367C45.8278 52.5408 45.5378 52.4898 45.241 52.4835C44.7138 52.4724 44.4472 52.6094 44.4411 52.8944C44.4378 53.0546 44.5188 53.195 44.6843 53.3157C44.8536 53.4365 45.2229 53.6181 45.7922 53.8607C46.2994 54.0785 46.6702 54.2797 46.9047 54.4644C47.1391 54.649 47.3105 54.8597 47.4188 55.0964C47.5271 55.3331 47.5778 55.6136 47.571 55.9377Z" fill="#034861"/>
<path d="M51.7109 56.6639C52.0233 56.6705 52.3997 56.6101 52.84 56.4826L52.8119 57.8124C52.3625 58.0022 51.8136 58.0902 51.1653 58.0765C50.4507 58.0615 49.9331 57.8708 49.6126 57.5046C49.2961 57.1345 49.1455 56.5883 49.1608 55.8658L49.2274 52.7083L48.3721 52.6902L48.3881 51.9345L49.3848 51.3578L49.9295 49.9862L51.0718 50.0103L51.0424 51.4045L52.876 51.4432L52.8477 52.7847L51.0141 52.746L50.9475 55.9035C50.9421 56.1573 51.0085 56.3463 51.1465 56.4703C51.2884 56.5944 51.4766 56.659 51.7109 56.6639Z" fill="#034861"/>
<path d="M58.2971 58.1098L57.9702 57.2121L57.9234 57.2111C57.6147 57.5836 57.2986 57.8407 56.9753 57.9823C56.6559 58.1201 56.2404 58.1836 55.7288 58.1728C55.1 58.1596 54.6078 57.9695 54.2522 57.6025C53.9005 57.2356 53.7316 56.7202 53.7456 56.0563C53.7603 55.3612 54.0132 54.8547 54.5044 54.5368C54.9996 54.2152 55.7377 54.0471 56.7187 54.0326L57.8559 54.0215L57.862 53.7344C57.876 53.0705 57.5432 52.7314 56.8637 52.7171C56.3403 52.706 55.7219 52.8512 55.0084 53.1526L54.4422 51.9334C55.2042 51.5548 56.0441 51.3752 56.9619 51.3946C57.8406 51.4132 58.5103 51.6187 58.9708 52.0114C59.4314 52.404 59.6534 52.9908 59.637 53.7719L59.5449 58.1362L58.2971 58.1098ZM57.8339 55.0642L57.1421 55.0731C56.6224 55.0777 56.2338 55.1633 55.9763 55.3298C55.7188 55.4963 55.5864 55.7552 55.579 56.1067C55.5683 56.6105 55.852 56.8685 56.43 56.8807C56.844 56.8894 57.1765 56.7773 57.4276 56.5443C57.6826 56.3113 57.8142 55.9976 57.8225 55.6032L57.8339 55.0642ZM55.9374 50.7869L55.9407 50.6288C56.6289 49.8619 57.1002 49.2838 57.3546 48.8945L59.358 48.9368L59.3554 49.0598C59.1481 49.2586 58.7941 49.554 58.2936 49.9458C57.797 50.3339 57.408 50.6226 57.1266 50.812L55.9374 50.7869Z" fill="#034861"/>
<path d="M68.2912 51.6454C69.0644 51.6617 69.6634 51.9772 70.088 52.5917C70.5127 53.2024 70.714 54.033 70.6918 55.0836C70.669 56.1653 70.4248 56.9983 69.9592 57.5823C69.4976 58.1665 68.8782 58.4503 68.101 58.4339C67.3317 58.4177 66.7342 58.1257 66.3086 57.558L66.1855 57.5554L65.8716 58.2697L64.5066 58.2409L64.699 49.1257L66.4857 49.1634L66.441 51.284C66.4353 51.5535 66.4027 51.9846 66.3433 52.5772L66.4136 52.5787C66.8452 51.9392 67.471 51.6281 68.2912 51.6454ZM67.6869 53.0627C67.2456 53.0534 66.9205 53.1833 66.7117 53.4523C66.5029 53.7175 66.388 54.1625 66.367 54.7872L66.363 54.9805C66.3481 55.6835 66.441 56.1894 66.6415 56.4984C66.846 56.8075 67.1747 56.9668 67.6278 56.9764C67.9949 56.9841 68.2894 56.8223 68.5112 56.491C68.7371 56.1558 68.8569 55.6661 68.8705 55.0217C68.8841 54.3773 68.7849 53.8927 68.5729 53.5678C68.3611 53.239 68.0657 53.0707 67.6869 53.0627Z" fill="#034861"/>
<path d="M76.7383 58.499L76.5158 57.6562L76.4221 57.6542C76.2243 57.9548 75.9479 58.1854 75.5928 58.3459C75.2379 58.5025 74.8359 58.5761 74.3867 58.5666C73.6174 58.5504 73.0418 58.3331 72.6599 57.9148C72.2781 57.4926 72.0953 56.8948 72.1116 56.1216L72.2018 51.851L73.9885 51.8887L73.9077 55.714C73.8978 56.1866 73.9742 56.5438 74.1371 56.7855C74.3001 57.0234 74.5652 57.1462 74.9323 57.154C75.4322 57.1645 75.7969 57.0061 76.0265 56.6789C76.2562 56.3477 76.3792 55.7955 76.3956 55.0222L76.4606 51.9409L78.2473 51.9786L78.1091 58.5279L76.7383 58.499Z" fill="#034861"/>
<path d="M84.594 56.719C84.5798 57.3908 84.3347 57.8974 83.8586 58.239C83.3865 58.5807 82.6857 58.7417 81.7562 58.7221C81.2797 58.7121 80.8743 58.6703 80.5398 58.5968C80.2053 58.5272 79.8929 58.4269 79.6026 58.2957L79.6337 56.8195C79.9624 56.9827 80.3326 57.1214 80.7444 57.2356C81.16 57.3498 81.526 57.4103 81.8423 57.417C82.4906 57.4307 82.8187 57.2501 82.8266 56.8751C82.8296 56.7345 82.789 56.6204 82.7049 56.5327C82.6209 56.441 82.4746 56.3383 82.266 56.2245C82.0575 56.1068 81.7791 55.97 81.4307 55.8142C80.9314 55.5927 80.5645 55.3896 80.3301 55.2049C80.0995 55.0203 79.932 54.8117 79.8275 54.5789C79.727 54.3424 79.6804 54.0542 79.6875 53.7145C79.6998 53.1326 79.9339 52.6882 80.3897 52.3813C80.8494 52.0706 81.4933 51.924 82.3212 51.9415C83.1101 51.9582 83.8739 52.1462 84.6126 52.5056L84.0465 53.783C83.7214 53.6355 83.4172 53.5138 83.134 53.418C82.8508 53.3221 82.5608 53.2711 82.264 53.2648C81.7368 53.2537 81.4702 53.3907 81.4642 53.6758C81.4608 53.8359 81.5418 53.9763 81.7073 54.097C81.8766 54.2178 82.2459 54.3994 82.8152 54.642C83.3224 54.8598 83.6932 55.061 83.9277 55.2457C84.1621 55.4303 84.3335 55.641 84.4418 55.8777C84.5501 56.1145 84.6008 56.3949 84.594 56.719Z" fill="#034861"/>
<path d="M88.6043 58.8666C86.5657 58.8236 85.57 57.6832 85.6172 55.4454C85.6407 54.3324 85.9359 53.4888 86.5028 52.9147C87.0698 52.3367 87.8708 52.0586 88.9057 52.0805C89.6634 52.0964 90.3398 52.2592 90.9349 52.5687L90.3785 53.9401C90.0997 53.8209 89.84 53.7236 89.5994 53.6482C89.3588 53.5689 89.1174 53.5267 88.8753 53.5215C87.9458 53.5019 87.4672 54.1521 87.4393 55.4721C87.4123 56.7531 87.8635 57.4034 88.793 57.423C89.1366 57.4303 89.4559 57.3921 89.7507 57.3084C90.0456 57.2209 90.3415 57.0826 90.6385 56.8935L90.6063 58.4224C90.3134 58.5999 90.0178 58.7206 89.7195 58.7847C89.4251 58.8488 89.0534 58.8761 88.6043 58.8666Z" fill="#034861"/>
<path d="M96.2808 58.9114L95.954 58.0137L95.9071 58.0127C95.5984 58.3852 95.2824 58.6422 94.959 58.7839C94.6396 58.9217 94.2241 58.9852 93.7125 58.9744C93.0837 58.9612 92.5915 58.771 92.2359 58.4041C91.8842 58.0372 91.7154 57.5218 91.7294 56.8579C91.744 56.1627 91.997 55.6562 92.4882 55.3384C92.9833 55.0168 93.7214 54.8487 94.7024 54.8342L95.8396 54.8231L95.8457 54.536C95.8597 53.8721 95.5269 53.533 94.8474 53.5186C94.3241 53.5076 93.7056 53.6528 92.9921 53.9542L92.4259 52.735C93.188 52.3564 94.0279 52.1768 94.9456 52.1962C95.8243 52.2147 96.494 52.4203 96.9546 52.8129C97.4151 53.2056 97.6372 53.7924 97.6207 54.5735L97.5286 58.9377L96.2808 58.9114ZM95.8176 55.8658L95.1259 55.8746C94.6061 55.8793 94.2175 55.9649 93.96 56.1314C93.7026 56.2978 93.5701 56.5568 93.5627 56.9083C93.5521 57.4121 93.8358 57.6701 94.4138 57.6823C94.8277 57.691 95.1602 57.5789 95.4113 57.3458C95.6663 57.1129 95.7979 56.7992 95.8063 56.4047L95.8176 55.8658Z" fill="#034861"/>
<path d="M105.419 59.1043L103.633 59.0666L103.713 55.2412C103.723 54.7687 103.647 54.4135 103.484 54.1756C103.321 53.9338 103.056 53.8091 102.689 53.8013C102.189 53.7908 101.824 53.9511 101.595 54.2823C101.365 54.6095 101.242 55.1598 101.226 55.933L101.161 59.0144L99.3739 58.9767L99.5121 52.4274L100.877 52.4562L101.1 53.2989L101.199 53.301C101.405 52.9889 101.683 52.7564 102.034 52.6037C102.389 52.4471 102.789 52.3734 103.235 52.3828C103.996 52.3989 104.57 52.6181 104.955 53.0404C105.341 53.4588 105.526 54.0566 105.51 54.8337L105.419 59.1043Z" fill="#034861"/>
<path d="M109.33 59.304C108.561 59.2878 107.962 58.9762 107.533 58.3694C107.108 57.7626 106.907 56.9301 106.929 55.8717C106.952 54.7978 107.192 53.9667 107.65 53.3786C108.112 52.7866 108.735 52.4989 109.52 52.5155C110.344 52.5329 110.966 52.8664 111.386 53.516L111.445 53.5173C111.365 53.0272 111.33 52.5908 111.338 52.2081L111.382 50.1109L113.175 50.1487L112.982 59.2639L111.611 59.2349L111.284 58.3782L111.208 58.3766C110.788 59.0124 110.162 59.3216 109.33 59.304ZM109.987 57.8937C110.444 57.9034 110.781 57.7776 110.997 57.5165C111.218 57.2555 111.344 56.8069 111.377 56.1707L111.381 55.9774C111.396 55.2744 111.297 54.7683 111.085 54.4591C110.877 54.1499 110.528 53.9902 110.04 53.9799C109.642 53.9715 109.328 54.1348 109.098 54.4699C108.872 54.8012 108.753 55.289 108.739 55.9334C108.725 56.5778 108.826 57.0644 109.042 57.3932C109.258 57.7182 109.573 57.885 109.987 57.8937Z" fill="#034861"/>
<path d="M116.344 56.047C116.33 56.6953 116.425 57.1876 116.629 57.524C116.837 57.8605 117.181 58.0338 117.661 58.044C118.138 58.054 118.483 57.8972 118.697 57.5735C118.915 57.246 119.031 56.7562 119.044 56.104C119.058 55.4557 118.963 54.9672 118.759 54.6386C118.555 54.31 118.213 54.1407 117.732 54.1305C117.256 54.1205 116.909 54.2753 116.691 54.595C116.473 54.9108 116.358 55.3948 116.344 56.047ZM120.872 56.1425C120.85 57.2087 120.551 58.0366 119.976 58.6261C119.401 59.2157 118.611 59.4999 117.608 59.4787C116.979 59.4654 116.427 59.317 115.953 59.0335C115.478 58.7461 115.117 58.3419 114.87 57.821C114.624 57.3 114.507 56.6959 114.522 56.0085C114.544 54.9384 114.841 54.1125 115.412 53.5307C115.983 52.9488 116.775 52.6686 117.786 52.6899C118.415 52.7032 118.966 52.8516 119.441 53.1351C119.916 53.4186 120.276 53.8189 120.523 54.3359C120.77 54.853 120.887 55.4552 120.872 56.1425Z" fill="#034861"/>
<path d="M129.555 59.6136L129.228 58.7159L129.181 58.7149C128.872 59.0874 128.556 59.3444 128.233 59.4861C127.913 59.6239 127.498 59.6874 126.986 59.6766C126.358 59.6633 125.865 59.4732 125.51 59.1063C125.158 58.7394 124.989 58.224 125.003 57.5601C125.018 56.8649 125.271 56.3584 125.762 56.0406C126.257 55.7189 126.995 55.5509 127.976 55.5364L129.113 55.5253L129.12 55.2382C129.134 54.5743 128.801 54.2352 128.121 54.2208C127.598 54.2098 126.979 54.355 126.266 54.6564L125.7 53.4371C126.462 53.0586 127.302 52.879 128.219 52.8984C129.098 52.9169 129.768 53.1225 130.228 53.5151C130.689 53.9077 130.911 54.4946 130.895 55.2757L130.802 59.6399L129.555 59.6136ZM129.091 56.568L128.4 56.5768C127.88 56.5815 127.491 56.6671 127.234 56.8335C126.976 57 126.844 57.259 126.837 57.6105C126.826 58.1143 127.11 58.3723 127.688 58.3845C128.102 58.3932 128.434 58.2811 128.685 58.048C128.94 57.8151 129.072 57.5014 129.08 57.1069L129.091 56.568Z" fill="#034861"/>
<path d="M140.404 59.8426L140.181 58.9998L140.088 58.9978C139.89 59.2984 139.613 59.5289 139.258 59.6894C138.903 59.8461 138.501 59.9196 138.052 59.9101C137.283 59.8939 136.707 59.6766 136.325 59.2583C135.944 58.8361 135.761 58.2384 135.777 57.4651L135.867 53.1946L137.654 53.2323L137.573 57.0576C137.563 57.5302 137.64 57.8873 137.803 58.1291C137.966 58.367 138.231 58.4898 138.598 58.4975C139.098 58.5081 139.462 58.3497 139.692 58.0224C139.922 57.6913 140.045 57.1391 140.061 56.3658L140.126 53.2845L141.913 53.3222L141.775 59.8715L140.404 59.8426Z" fill="#034861"/>
<path d="M149.695 60.0386L147.908 60.0009L147.989 56.1756C147.999 55.703 147.922 55.3478 147.759 55.11C147.596 54.8682 147.331 54.7434 146.964 54.7357C146.464 54.7251 146.1 54.8855 145.87 55.2166C145.64 55.5439 145.517 56.0941 145.501 56.8674L145.436 59.9487L143.649 59.911L143.787 53.3617L145.152 53.3905L145.375 54.2333L145.474 54.2354C145.68 53.9233 145.959 53.6908 146.31 53.538C146.665 53.3814 147.065 53.3078 147.51 53.3172C148.271 53.3333 148.845 53.5525 149.231 53.9748C149.617 54.3931 149.801 54.9909 149.785 55.7681L149.695 60.0386Z" fill="#034861"/>
<path d="M36.2193 65.0792L38.8848 65.1354C40.0993 65.161 40.9763 65.3534 41.5158 65.7125C42.0592 66.0678 42.3229 66.6223 42.307 67.3761C42.2962 67.8877 42.1663 68.305 41.9172 68.6279C41.6721 68.9509 41.3496 69.1414 40.9499 69.1994L40.9486 69.258C41.4889 69.3905 41.8747 69.6253 42.1059 69.9623C42.341 70.2993 42.4528 70.7432 42.4412 71.2938C42.4247 72.0749 42.1287 72.6782 41.5532 73.1036C40.9816 73.5292 40.2115 73.7317 39.243 73.7113L36.0386 73.6437L36.2193 65.0792ZM37.9638 68.5093L39.0182 68.5316C39.5103 68.5419 39.8673 68.4733 40.0892 68.3256C40.315 68.178 40.4316 67.9284 40.4391 67.577C40.446 67.2489 40.3299 67.012 40.0907 66.8663C39.8555 66.7168 39.4782 66.6365 38.9588 66.6256L38.0039 66.6054L37.9638 68.5093ZM37.9334 69.9504L37.8863 72.1823L39.0696 72.2073C39.5695 72.2178 39.9406 72.1299 40.1828 71.9436C40.4251 71.7573 40.5504 71.4669 40.5587 71.0724C40.5737 70.3617 40.0735 69.9956 39.0581 69.9741L37.9334 69.9504Z" fill="#034861"/>
<path d="M48.1179 73.8986L47.7911 73.0009L47.7442 72.9999C47.4355 73.3723 47.1195 73.6294 46.7961 73.771C46.4767 73.9089 46.0612 73.9724 45.5496 73.9616C44.9209 73.9483 44.4287 73.7582 44.0731 73.3912C43.7213 73.0244 43.5525 72.509 43.5665 71.8451C43.5812 71.1499 43.8341 70.6434 44.3253 70.3256C44.8205 70.0039 45.5586 69.8359 46.5396 69.8214L47.6768 69.8102L47.6828 69.5232C47.6968 68.8593 47.3641 68.5201 46.6845 68.5058C46.1612 68.4948 45.5428 68.6399 44.8292 68.9414L44.263 67.7221C45.0251 67.3436 45.865 67.164 46.7828 67.1834C47.6615 67.2019 48.3311 67.4075 48.7917 67.8001C49.2523 68.1927 49.4743 68.7796 49.4578 69.5606L49.3657 73.9249L48.1179 73.8986ZM47.6548 70.853L46.963 70.8618C46.4433 70.8665 46.0547 70.952 45.7972 71.1185C45.5397 71.285 45.4073 71.544 45.3998 71.8955C45.3892 72.3993 45.6729 72.6573 46.2509 72.6695C46.6649 72.6782 46.9974 72.566 47.2484 72.333C47.5034 72.1001 47.6351 71.7864 47.6434 71.3919L47.6548 70.853Z" fill="#034861"/>
<path d="M53.8681 74.1371C51.8295 74.0941 50.8338 72.9537 50.881 70.7159C50.9045 69.6029 51.1997 68.7593 51.7666 68.1852C52.3337 67.6072 53.1346 67.3291 54.1695 67.351C54.9272 67.367 55.6036 67.5297 56.1988 67.8392L55.6424 69.2106C55.3636 69.0914 55.1038 68.9941 54.8632 68.9187C54.6226 68.8394 54.3813 68.7972 54.1391 68.7921C53.2097 68.7724 52.731 69.4226 52.7031 70.7427C52.6761 72.0236 53.1273 72.6739 54.0568 72.6935C54.4005 72.7008 54.7197 72.6626 55.0145 72.5789C55.3094 72.4914 55.6053 72.3531 55.9024 72.164L55.8701 73.693C55.5772 73.8704 55.2817 73.9911 54.9834 74.0552C54.689 74.1193 54.3172 74.1466 53.8681 74.1371Z" fill="#034861"/>
<path d="M59.177 70.5687L59.9771 69.5892L61.8527 67.6362L63.8679 67.6787L61.207 70.465L63.8879 74.2314L61.8258 74.1879L59.9955 71.4943L59.2151 72.0932L59.1721 74.1319L57.3854 74.0942L57.5778 64.979L59.3645 65.0167L59.2787 69.0822L59.1536 70.5682L59.177 70.5687Z" fill="#034861"/>
<path d="M64.2976 71.7551L64.3285 70.2906L67.4743 70.357L67.4434 71.8215L64.2976 71.7551Z" fill="#034861"/>
<path d="M71.5178 68.9888C71.1389 68.9809 70.8396 69.0957 70.6197 69.3333C70.3998 69.5669 70.2697 69.9041 70.2291 70.3448L72.7364 70.3977C72.7379 69.9562 72.6298 69.614 72.4122 69.3711C72.1947 69.1243 71.8966 68.9968 71.5178 68.9888ZM71.6532 74.5125C70.5988 74.4902 69.7809 74.1819 69.1995 73.5874C68.6182 72.993 68.3388 72.1627 68.3613 71.0965C68.3844 69.9991 68.6757 69.1574 69.235 68.5714C69.7984 67.9816 70.5643 67.697 71.5329 67.7174C72.4584 67.7369 73.1734 68.0157 73.6778 68.5539C74.1822 69.092 74.4246 69.8258 74.405 70.7552L74.3867 71.6222L70.163 71.5331C70.1718 72.0412 70.3138 72.4408 70.589 72.7318C70.8641 73.0228 71.2556 73.1737 71.7633 73.1844C72.1577 73.1927 72.5316 73.1596 72.8848 73.085C73.238 73.0104 73.6078 72.8873 73.9944 72.7158L73.9652 74.0983C73.6495 74.2479 73.3131 74.356 72.9562 74.4227C72.5991 74.4934 72.1648 74.5233 71.6532 74.5125Z" fill="#034861"/>
<path d="M81.8253 74.6099L80.0386 74.5722L80.1193 70.7469C80.1293 70.2743 80.0528 69.9191 79.8898 69.6813C79.7269 69.4395 79.4619 69.3147 79.0948 69.307C78.5949 69.2964 78.2301 69.4567 78.0004 69.7879C77.7708 70.1152 77.6478 70.6654 77.6315 71.4387L77.5665 74.52L75.7798 74.4823L75.918 67.933L77.2829 67.9618L77.5054 68.8046L77.605 68.8067C77.8108 68.4946 78.0892 68.2621 78.4402 68.1093C78.7951 67.9527 79.1952 67.8791 79.6404 67.8885C80.402 67.9046 80.9756 68.1237 81.3613 68.546C81.7471 68.9644 81.9318 69.5622 81.9154 70.3394L81.8253 74.6099Z" fill="#034861"/>
<path d="M85.736 74.8097C84.9666 74.7934 84.3676 74.4819 83.9389 73.875C83.5141 73.2683 83.3129 72.4357 83.3352 71.3774C83.3579 70.3034 83.5981 69.4723 84.056 68.8842C84.5178 68.2923 85.1412 68.0046 85.9262 68.0211C86.7502 68.0385 87.3722 68.372 87.7922 69.0217L87.8508 69.0229C87.7712 68.5328 87.7355 68.0964 87.7436 67.7137L87.7878 65.6165L89.5804 65.6544L89.3881 74.7695L88.0173 74.7406L87.6896 73.8839L87.6134 73.8823C87.1937 74.5181 86.5678 74.8272 85.736 74.8097ZM86.3929 73.3994C86.8498 73.409 87.1865 73.2833 87.403 73.0222C87.6234 72.7611 87.7501 72.3125 87.783 71.6764L87.7871 71.4831C87.802 70.7801 87.7032 70.274 87.491 69.9647C87.2826 69.6556 86.9343 69.4959 86.4462 69.4856C86.0478 69.4772 85.7337 69.6405 85.504 69.9756C85.2782 70.3068 85.1585 70.7946 85.1449 71.439C85.1313 72.0834 85.2324 72.57 85.4481 72.8989C85.664 73.2238 85.9789 73.3906 86.3929 73.3994Z" fill="#034861"/>
<path d="M97.9677 75.0678C97.1983 75.0516 96.6008 74.7596 96.1752 74.1919L96.0815 74.1899C96.1324 74.738 96.157 75.055 96.1552 75.1409L96.0992 77.7946L94.3125 77.7569L94.5115 68.3254L95.9643 68.3561L96.1983 69.2108L96.2803 69.2125C96.7118 68.573 97.3377 68.262 98.1578 68.2793C98.9311 68.2956 99.5301 68.6071 99.9549 69.2139C100.38 69.8206 100.581 70.6551 100.558 71.7174C100.544 72.4165 100.427 73.0216 100.21 73.5327C99.9956 74.0439 99.6963 74.4303 99.3118 74.6918C98.9273 74.9532 98.4793 75.0786 97.9677 75.0678ZM97.5535 69.6965C97.1122 69.6872 96.7872 69.8171 96.5783 70.0862C96.3695 70.3514 96.2547 70.7963 96.2337 71.421L96.2296 71.6143C96.2148 72.3173 96.3076 72.8233 96.5082 73.1323C96.7126 73.4413 97.0414 73.6007 97.4944 73.6102C98.295 73.6271 98.7092 72.9755 98.7371 71.6555C98.7507 71.0111 98.6613 70.5267 98.4689 70.2023C98.2804 69.874 97.9753 69.7054 97.5535 69.6965Z" fill="#034861"/>
<path d="M106.125 75.1227L105.798 74.225L105.751 74.224C105.442 74.5965 105.126 74.8535 104.803 74.9952C104.483 75.133 104.068 75.1965 103.556 75.1857C102.927 75.1725 102.435 74.9823 102.08 74.6154C101.728 74.2485 101.559 73.7331 101.573 73.0692C101.588 72.374 101.841 71.8675 102.332 71.5497C102.827 71.2281 103.565 71.06 104.546 71.0455L105.683 71.0344L105.689 70.7473C105.703 70.0834 105.371 69.7443 104.691 69.7299C104.168 69.7189 103.549 69.8641 102.836 70.1655L102.27 68.9463C103.032 68.5677 103.872 68.3881 104.789 68.4075C105.668 68.426 106.338 68.6316 106.798 69.0242C107.259 69.4169 107.481 70.0037 107.464 70.7848L107.372 75.149L106.125 75.1227ZM105.661 72.0771L104.97 72.0859C104.45 72.0906 104.061 72.1762 103.804 72.3427C103.546 72.5091 103.414 72.7681 103.406 73.1196C103.396 73.6234 103.68 73.8814 104.257 73.8936C104.671 73.9023 105.004 73.7902 105.255 73.5571C105.51 73.3242 105.642 73.0105 105.65 72.616L105.661 72.0771Z" fill="#034861"/>
<path d="M113.014 68.5928C113.256 68.5979 113.457 68.6197 113.616 68.6582L113.446 70.3308C113.302 70.2887 113.127 70.2655 112.92 70.2611C112.35 70.2491 111.902 70.3861 111.575 70.6723C111.253 70.9585 111.086 71.3652 111.075 71.8924L111.004 75.2257L109.218 75.188L109.356 68.6387L110.709 68.6672L110.949 69.7741L111.037 69.776C111.248 69.4131 111.528 69.124 111.876 68.9087C112.228 68.6895 112.608 68.5842 113.014 68.5928Z" fill="#034861"/>
<path d="M118.825 75.3907L118.498 74.493L118.451 74.492C118.142 74.8645 117.826 75.1216 117.503 75.2632C117.184 75.401 116.768 75.4645 116.257 75.4537C115.628 75.4405 115.136 75.2504 114.78 74.8834C114.428 74.5165 114.259 74.0011 114.273 73.3372C114.288 72.6421 114.541 72.1356 115.032 71.8177C115.527 71.4961 116.265 71.328 117.246 71.3136L118.384 71.3024L118.39 71.0153C118.404 70.3514 118.071 70.0123 117.391 69.998C116.868 69.9869 116.25 70.1321 115.536 70.4335L114.97 69.2143C115.732 68.8357 116.572 68.6562 117.49 68.6755C118.368 68.6941 119.038 68.8996 119.499 69.2923C119.959 69.6849 120.181 70.2717 120.165 71.0528L120.073 75.4171L118.825 75.3907ZM118.362 72.3451L117.67 72.354C117.15 72.3586 116.762 72.4442 116.504 72.6107C116.247 72.7772 116.114 73.0361 116.107 73.3876C116.096 73.8914 116.38 74.1494 116.958 74.1616C117.372 74.1703 117.704 74.0582 117.955 73.8252C118.21 73.5922 118.342 73.2785 118.35 72.8841L118.362 72.3451Z" fill="#034861"/>
<path d="M126.821 75.5595L125.034 75.5218L125.227 66.4066L127.013 66.4443L126.821 75.5595Z" fill="#034861"/>
<path d="M132.861 75.6869L132.534 74.7892L132.487 74.7882C132.178 75.1607 131.862 75.4178 131.539 75.5594C131.22 75.6972 130.804 75.7607 130.292 75.7499C129.664 75.7367 129.172 75.5466 128.816 75.1796C128.464 74.8127 128.295 74.2973 128.309 73.6334C128.324 72.9383 128.577 72.4318 129.068 72.1139C129.563 71.7923 130.301 71.6242 131.282 71.6098L132.42 71.5986L132.426 71.3115C132.44 70.6476 132.107 70.3085 131.427 70.2942C130.904 70.2831 130.286 70.4283 129.572 70.7297L129.006 69.5105C129.768 69.1319 130.608 68.9524 131.526 68.9717C132.404 68.9903 133.074 69.1958 133.535 69.5885C133.995 69.9811 134.217 70.5679 134.201 71.349L134.109 75.7133L132.861 75.6869ZM132.398 72.6413L131.706 72.6502C131.186 72.6548 130.798 72.7404 130.54 72.9069C130.283 73.0734 130.15 73.3323 130.143 73.6838C130.132 74.1876 130.416 74.4456 130.994 74.4578C131.408 74.4666 131.74 74.3544 131.991 74.1214C132.246 73.8884 132.378 73.5747 132.386 73.1803L132.398 72.6413Z" fill="#034861"/>
<path d="M38.3867 84.2932C38.0079 84.2852 37.7085 84.4 37.4886 84.6376C37.2688 84.8713 37.1386 85.2085 37.098 85.6492L39.6053 85.7021C39.6068 85.2606 39.4988 84.9184 39.2812 84.6755C39.0637 84.4286 38.7655 84.3012 38.3867 84.2932ZM38.5221 89.8168C37.4677 89.7946 36.6498 89.4863 36.0685 88.8918C35.4871 88.2974 35.2077 87.4671 35.2302 86.4009C35.2534 85.3035 35.5446 84.4618 36.104 83.8758C36.6673 83.286 37.4333 83.0013 38.4018 83.0218C39.3274 83.0413 40.0424 83.3201 40.5468 83.8582C41.0511 84.3963 41.2935 85.1301 41.2739 86.0596L41.2556 86.9266L37.0319 86.8375C37.0408 87.3456 37.1827 87.7452 37.4579 88.0362C37.7331 88.3272 38.1245 88.4781 38.6322 88.4888C39.0267 88.4971 39.4005 88.464 39.7537 88.3894C40.1069 88.3148 40.4768 88.1917 40.8633 88.0201L40.8341 89.4026C40.5184 89.5523 40.1821 89.6604 39.8251 89.7271C39.4681 89.7977 39.0337 89.8276 38.5221 89.8168Z" fill="#034861"/>
<path d="M48.5126 89.9105L46.7259 89.8728L46.8066 86.0474C46.8166 85.5749 46.744 85.2198 46.5888 84.9821C46.4376 84.7405 46.1922 84.6162 45.8524 84.609C45.3955 84.5994 45.06 84.7603 44.8459 85.0918C44.6318 85.4233 44.5167 85.9737 44.5004 86.7431L44.4354 89.8244L42.6487 89.7867L42.7869 83.2374L44.1518 83.2662L44.3743 84.109L44.4739 84.1111C44.656 83.8141 44.9148 83.5851 45.2503 83.4242C45.5859 83.2593 45.9685 83.1815 46.3981 83.1905C47.3783 83.2112 48.0355 83.5455 48.3695 84.1933L48.5277 84.1966C48.7099 83.8957 48.9726 83.6649 49.3159 83.5041C49.6632 83.3434 50.0516 83.2676 50.4812 83.2767C51.2232 83.2924 51.7796 83.4955 52.1503 83.8863C52.525 84.2732 52.7035 84.8864 52.6858 85.7261L52.5957 89.9966L50.8031 89.9588L50.8839 86.1335C50.8938 85.6609 50.8212 85.3058 50.6661 85.0681C50.5149 84.8266 50.2694 84.7022 49.9296 84.6951C49.4922 84.6858 49.1609 84.8351 48.9356 85.1429C48.7142 85.4508 48.5963 85.9446 48.582 86.6241L48.5126 89.9105Z" fill="#034861"/>
<path d="M58.0295 90.2285C57.2602 90.2123 56.6627 89.9203 56.2371 89.3526L56.1433 89.3506C56.1943 89.8987 56.2188 90.2157 56.217 90.3016L56.161 92.9553L54.3743 92.9176L54.5733 83.4861L56.0261 83.5168L56.2601 84.3715L56.3421 84.3733C56.7737 83.7338 57.3995 83.4227 58.2197 83.44C58.9929 83.4563 59.592 83.7679 60.0168 84.3746C60.4415 84.9814 60.6427 85.8159 60.6203 86.8781C60.6056 87.5772 60.4893 88.1823 60.2714 88.6934C60.0574 89.2047 59.7582 89.591 59.3737 89.8525C58.9892 90.114 58.5411 90.2393 58.0295 90.2285ZM57.6154 84.8573C57.1741 84.8479 56.849 84.9778 56.6402 85.2469C56.4314 85.5121 56.3165 85.9571 56.2955 86.5817L56.2914 86.7751C56.2766 87.478 56.3695 87.984 56.57 88.293C56.7745 88.6021 57.1032 88.7614 57.5563 88.7709C58.3569 88.7878 58.7711 88.1363 58.799 86.8163C58.8125 86.1719 58.7231 85.6875 58.5307 85.363C58.3423 85.0347 58.0372 84.8662 57.6154 84.8573Z" fill="#034861"/>
<path d="M65.8234 83.6005C66.0656 83.6056 66.2663 83.6274 66.4257 83.6659L66.2556 85.3385C66.1119 85.2964 65.9366 85.2732 65.7296 85.2688C65.1594 85.2568 64.7111 85.3938 64.3847 85.68C64.0622 85.9662 63.8954 86.3729 63.8843 86.9001L63.8139 90.2334L62.0272 90.1957L62.1654 83.6463L63.5186 83.6749L63.759 84.7818L63.8469 84.7836C64.0577 84.4208 64.3373 84.1317 64.6857 83.9164C65.038 83.6972 65.4173 83.5919 65.8234 83.6005Z" fill="#034861"/>
<path d="M70.3015 84.9667C69.9226 84.9587 69.6233 85.0735 69.4034 85.3111C69.1836 85.5448 69.0534 85.882 69.0128 86.3227L71.5201 86.3756C71.5216 85.9341 71.4135 85.5919 71.1959 85.349C70.9785 85.1021 70.6803 84.9747 70.3015 84.9667ZM70.4369 90.4904C69.3825 90.4681 68.5646 90.1598 67.9832 89.5653C67.4019 88.9709 67.1225 88.1406 67.145 87.0744C67.1681 85.977 67.4594 85.1353 68.0188 84.5493C68.5821 83.9595 69.348 83.6749 70.3166 83.6953C71.2422 83.7148 71.9571 83.9936 72.4615 84.5317C72.9659 85.0699 73.2083 85.8036 73.1887 86.7331L73.1704 87.6001L68.9467 87.511C68.9555 88.0191 69.0975 88.4187 69.3727 88.7097C69.6479 89.0007 70.0393 89.1516 70.547 89.1623C70.9414 89.1706 71.3153 89.1375 71.6685 89.0629C72.0217 88.9883 72.3916 88.8652 72.7781 88.6936L72.7489 90.0762C72.4332 90.2258 72.0968 90.3339 71.7399 90.4006C71.3828 90.4712 70.9485 90.5012 70.4369 90.4904Z" fill="#034861"/>
<path d="M79.1738 88.6118C79.1596 89.2835 78.9145 89.7902 78.4384 90.1318C77.9663 90.4734 77.2655 90.6345 76.336 90.6148C75.8595 90.6048 75.4541 90.563 75.1196 90.4895C74.7851 90.42 74.4727 90.3196 74.1824 90.1885L74.2136 88.7122C74.5422 88.8754 74.9124 89.0141 75.3242 89.1283C75.7398 89.2426 76.1058 89.3031 76.4221 89.3097C77.0704 89.3234 77.3985 89.1428 77.4064 88.7679C77.4094 88.6273 77.3688 88.5131 77.2847 88.4254C77.2007 88.3338 77.0544 88.231 76.8458 88.1172C76.6373 87.9995 76.3589 87.8628 76.0106 87.7069C75.5112 87.4854 75.1443 87.2823 74.9099 87.0976C74.6794 86.9131 74.5118 86.7044 74.4074 86.4717C74.3069 86.2351 74.2602 85.947 74.2674 85.6072C74.2796 85.0253 74.5137 84.5809 74.9695 84.2741C75.4292 83.9634 76.0731 83.8168 76.9011 83.8342C77.6899 83.8509 78.4537 84.0389 79.1924 84.3983L78.6263 85.6757C78.3012 85.5282 77.997 85.4065 77.7138 85.3107C77.4306 85.2149 77.1406 85.1638 76.8438 85.1576C76.3166 85.1464 76.05 85.2834 76.044 85.5685C76.0406 85.7286 76.1216 85.869 76.2871 85.9897C76.4564 86.1105 76.8257 86.2922 77.395 86.5347C77.9022 86.7525 78.273 86.9537 78.5075 87.1384C78.7419 87.3231 78.9133 87.5338 79.0216 87.7705C79.1299 88.0072 79.1806 88.2876 79.1738 88.6118Z" fill="#034861"/>
<path d="M84.6862 90.6739L84.3594 89.7761L84.3125 89.7751C84.0038 90.1476 83.6878 90.4047 83.3644 90.5463C83.045 90.6842 82.6295 90.7477 82.1179 90.7369C81.4891 90.7236 80.9969 90.5335 80.6413 90.1665C80.2896 89.7996 80.1208 89.2842 80.1348 88.6203C80.1494 87.9252 80.4024 87.4187 80.8936 87.1008C81.3887 86.7792 82.1268 86.6111 83.1078 86.5967L84.245 86.5855L84.2511 86.2985C84.2651 85.6345 83.9323 85.2954 83.2528 85.2811C82.7295 85.27 82.111 85.4152 81.3975 85.7166L80.8313 84.4974C81.5934 84.1189 82.4333 83.9393 83.351 83.9586C84.2297 83.9772 84.8994 84.1828 85.36 84.5754C85.8205 84.968 86.0426 85.5548 86.0261 86.3359L85.934 90.7002L84.6862 90.6739ZM84.223 87.6282L83.5313 87.6371C83.0115 87.6418 82.6229 87.7273 82.3654 87.8938C82.108 88.0603 81.9755 88.3193 81.9681 88.6707C81.9575 89.1745 82.2412 89.4325 82.8192 89.4447C83.2331 89.4535 83.5656 89.3413 83.8167 89.1083C84.0717 88.8753 84.2033 88.5616 84.2117 88.1672L84.223 87.6282Z" fill="#034861"/>
<path d="M87.5451 89.8961C87.552 89.5681 87.6451 89.3219 87.8244 89.1577C88.0037 88.9935 88.2612 88.9149 88.5971 88.922C88.9212 88.9288 89.1694 89.02 89.3415 89.1956C89.5175 89.3712 89.6021 89.6191 89.5954 89.9394C89.5889 90.2479 89.4939 90.4901 89.3105 90.6659C89.1271 90.8379 88.8753 90.9205 88.5551 90.9137C88.227 90.9068 87.975 90.8155 87.799 90.6399C87.623 90.4604 87.5384 90.2124 87.5451 89.8961Z" fill="#034861"/>
<path d="M215.314 97.2059H208.658V103.862H215.314V97.2059Z" fill="#FCC37A"/>
<path d="M233.064 111.628C233.064 112.51 232.714 113.357 232.089 113.981C231.465 114.605 230.619 114.956 229.736 114.956H227.517V121.612H204.22V106.081C204.224 104.905 204.693 103.778 205.524 102.947C206.355 102.116 207.482 101.647 208.658 101.643H213.761C214.77 101.642 215.749 101.986 216.535 102.62L223.635 108.3H229.736C230.619 108.3 231.465 108.65 232.089 109.274C232.714 109.899 233.064 110.745 233.064 111.628Z" fill="#F23333"/>
<path d="M219.752 91.6591C219.757 93.4213 219.161 95.1327 218.062 96.5106C216.963 97.8885 215.428 98.8508 213.709 99.2386C211.99 99.6263 210.19 99.4164 208.606 98.6435C207.022 97.8707 205.749 96.5809 204.997 94.9872H204.975C204.473 93.9498 204.215 92.8114 204.22 91.6591C204.224 90.0612 204.72 88.5032 205.641 87.1976C206.562 85.892 207.864 84.9024 209.368 84.3637C210.873 83.8251 212.506 83.7636 214.047 84.1877C215.588 84.6118 216.96 85.5008 217.977 86.7334L218.11 86.9331C218.495 87.3941 218.809 87.9101 219.042 88.4641L219.064 88.4862C219.519 89.4821 219.753 90.5643 219.752 91.6591Z" fill="#FFD9AA"/>
<path d="M219.064 88.4862L209.545 90.3722C209.295 90.4233 209.07 90.5595 208.908 90.7576C208.746 90.9557 208.658 91.2036 208.658 91.4593V93.8778C208.658 94.172 208.541 94.4542 208.333 94.6622C208.125 94.8703 207.843 94.9872 207.549 94.9872H204.975C204.179 93.278 204.032 91.3376 204.562 89.5282C205.091 87.7187 206.261 86.1637 207.853 85.1533C209.445 84.1428 211.35 83.746 213.212 84.0367C215.075 84.3275 216.769 85.286 217.977 86.7334L218.11 86.9331C218.598 87.754 218.975 88.3531 219.042 88.464L219.064 88.4862Z" fill="#57565D"/>
<path d="M254.457 65.6464C254.457 63.0904 253.443 60.6388 251.636 58.8304C249.83 57.0219 247.38 56.0045 244.824 56.0015C243.163 56.0119 241.534 56.4555 240.098 57.2884C239.355 56.0983 238.36 55.0861 237.183 54.3237C236.005 53.5613 234.675 53.0672 233.285 52.8767C231.895 52.6861 230.481 52.8037 229.141 53.221C227.802 53.6383 226.571 54.3452 225.536 55.2915C224.479 54.334 223.223 53.6234 221.858 53.2114C220.493 52.7994 219.053 52.6962 217.643 52.9093C216.233 53.1224 214.888 53.6464 213.706 54.4435C212.524 55.2406 211.533 56.2907 210.807 57.5177C210.081 58.7448 209.636 60.1181 209.506 61.5381C209.376 62.958 209.564 64.3892 210.055 65.7278C210.546 67.0664 211.329 68.279 212.347 69.2776C213.365 70.2763 214.592 71.036 215.94 71.5017C215.929 71.6947 215.882 71.8789 215.882 72.0742C215.875 73.9388 216.411 75.7651 217.424 77.3305C218.437 78.8958 219.884 80.1325 221.588 80.8897C223.292 81.6469 225.18 81.8919 227.02 81.5947C228.861 81.2976 230.576 80.4712 231.955 79.2163C233.153 80.3118 234.61 81.0839 236.19 81.4599C237.769 81.8359 239.418 81.8033 240.981 81.3653C242.545 80.9272 243.971 80.0981 245.125 78.9562C246.279 77.8143 247.123 76.3973 247.577 74.8387C249.56 74.2509 251.301 73.0389 252.541 71.3829C253.78 69.7268 254.452 67.715 254.457 65.6464Z" fill="white"/>
<path d="M250.817 81.2783L255.184 82.0669C255.763 82.1715 256.277 82.5018 256.612 82.9852C256.948 83.4687 257.078 84.0656 256.973 84.6446L253.424 104.296C253.32 104.875 252.989 105.388 252.506 105.724C252.022 106.059 251.426 106.189 250.846 106.085L246.48 105.296L250.817 81.2783Z" fill="#57565D"/>
<path d="M253.033 110.518H266.345V114.956H250.814V112.737C250.814 112.149 251.048 111.584 251.464 111.168C251.88 110.752 252.445 110.518 253.033 110.518Z" fill="#8C8890"/>
<path d="M256.228 88.7747L266.345 110.518H260.799L254.764 96.8732L256.228 88.7747Z" fill="#D9D8DA"/>
<path d="M227.517 92.7684C229.355 92.7684 230.845 91.2784 230.845 89.4403C230.845 87.6022 229.355 86.1122 227.517 86.1122C225.679 86.1122 224.189 87.6022 224.189 89.4403C224.189 91.2784 225.679 92.7684 227.517 92.7684Z" fill="white"/>
<path d="M237.502 67.2528C237.496 68.4729 237.091 69.6576 236.348 70.6253C235.805 71.296 235.452 72.1008 235.327 72.955C235.302 73.1314 235.287 73.3092 235.283 73.4875V75.0184C235.283 75.6069 235.049 76.1712 234.633 76.5873C234.217 77.0034 233.653 77.2372 233.064 77.2372H230.845C230.257 77.2372 229.693 77.0034 229.277 76.5873C228.86 76.1712 228.627 75.6069 228.627 75.0184V73.4875C228.634 73.3235 228.619 73.1593 228.582 72.9994C228.476 72.1375 228.13 71.3227 227.584 70.6475C227.039 69.9516 226.667 69.1355 226.501 68.2671C226.335 67.3987 226.379 66.5032 226.63 65.6553C226.895 64.7541 227.388 63.9362 228.06 63.2797C228.732 62.6232 229.561 62.1501 230.468 61.9056C231.293 61.6763 232.159 61.6408 232.999 61.8018C233.839 61.9629 234.631 62.3161 235.312 62.8339C235.993 63.3517 236.545 64.02 236.925 64.7866C237.305 65.5532 237.502 66.3972 237.502 67.2528Z" fill="#FBDE53"/>
<path d="M235.327 72.955C235.302 73.1314 235.287 73.3092 235.283 73.4875V75.0184C235.283 75.6069 235.049 76.1712 234.633 76.5873C234.217 77.0034 233.653 77.2372 233.064 77.2372H230.845C230.257 77.2372 229.693 77.0034 229.277 76.5873C228.86 76.1712 228.627 75.6069 228.627 75.0184V73.4875C228.634 73.3235 228.619 73.1593 228.582 72.9994L228.627 72.7997H235.283L235.327 72.955Z" fill="#57565D"/>
<path d="M233.064 111.628C233.064 112.51 232.714 113.357 232.089 113.981C231.465 114.605 230.619 114.956 229.736 114.956H226.408V108.3H229.736C230.619 108.3 231.465 108.65 232.089 109.274C232.714 109.899 233.064 110.745 233.064 111.628Z" fill="#FFD9AA"/>
<path d="M223.302 117.128C223.031 117.128 222.767 117.041 222.549 116.88L212.49 109.427C212.358 109.33 212.246 109.208 212.162 109.068C212.078 108.927 212.023 108.772 211.999 108.61C211.976 108.448 211.985 108.283 212.026 108.124C212.067 107.966 212.14 107.817 212.239 107.687C212.441 107.424 212.739 107.25 213.068 107.203C213.396 107.157 213.731 107.24 213.998 107.437L224.056 114.892C224.188 114.988 224.299 115.111 224.383 115.251C224.468 115.391 224.523 115.547 224.546 115.709C224.57 115.871 224.561 116.036 224.519 116.194C224.478 116.352 224.406 116.501 224.307 116.631C224.189 116.786 224.037 116.911 223.863 116.998C223.688 117.084 223.496 117.128 223.302 117.128Z" fill="#DB0000"/>
<path d="M227.517 108.3H225.299V114.956H227.517V108.3Z" fill="#DB0000"/>
<path d="M215.314 114.956H273.002V119.393C273.002 119.982 272.768 120.546 272.352 120.962C271.936 121.378 271.371 121.612 270.783 121.612H215.314V114.956Z" fill="#57565D"/>
<path d="M226.408 61.2622C226.209 61.2621 226.013 61.2085 225.842 61.1069L223.623 59.7867C223.493 59.7148 223.379 59.6175 223.287 59.5005C223.196 59.3836 223.128 59.2494 223.089 59.1059C223.051 58.9624 223.041 58.8126 223.061 58.6654C223.081 58.5181 223.131 58.3764 223.207 58.2487C223.283 58.1209 223.384 58.0097 223.503 57.9218C223.623 57.8338 223.759 57.7707 223.904 57.7364C224.049 57.7021 224.199 57.6972 224.345 57.722C224.492 57.7468 224.632 57.8008 224.757 57.8808L226.976 59.201C227.185 59.3251 227.348 59.5145 227.439 59.7401C227.53 59.9657 227.544 60.2149 227.479 60.4494C227.415 60.684 227.275 60.8908 227.081 61.038C226.888 61.1853 226.651 61.2648 226.408 61.2644V61.2622ZM236.392 61.2622C236.149 61.2626 235.912 61.183 235.719 61.0358C235.525 60.8885 235.385 60.6817 235.321 60.4472C235.256 60.2127 235.271 59.9635 235.362 59.7379C235.453 59.5123 235.615 59.3229 235.824 59.1987L238.043 57.8786C238.168 57.7986 238.308 57.7446 238.455 57.7198C238.602 57.695 238.752 57.6999 238.896 57.7342C239.041 57.7685 239.177 57.8315 239.297 57.9195C239.417 58.0075 239.518 58.1187 239.594 58.2464C239.67 58.3742 239.719 58.5159 239.739 58.6632C239.759 58.8104 239.75 58.9602 239.711 59.1037C239.672 59.2472 239.605 59.3813 239.513 59.4983C239.421 59.6152 239.307 59.7126 239.177 59.7845L236.958 61.1046C236.787 61.207 236.592 61.2614 236.392 61.2622ZM231.54 59.9309C231.246 59.9309 230.964 59.814 230.756 59.606C230.547 59.3979 230.431 59.1158 230.431 58.8215V56.0215C230.431 55.7273 230.547 55.4451 230.756 55.237C230.964 55.029 231.246 54.9121 231.54 54.9121C231.834 54.9121 232.116 55.029 232.324 55.237C232.532 55.4451 232.649 55.7273 232.649 56.0215V58.8215C232.649 59.1158 232.532 59.3979 232.324 59.606C232.116 59.814 231.834 59.9309 231.54 59.9309Z" fill="#FBDE53"/>
</svg>
