<svg width="291" height="163" viewBox="0 0 291 163" fill="none" xmlns="http://www.w3.org/2000/svg">
<rect x="5.42529" y="5.10022" width="280.473" height="152.356" rx="8" fill="#2EB9D8"/>
<path fill-rule="evenodd" clip-rule="evenodd" d="M282.897 1.09827H8.42676C4.56077 1.09827 1.42676 4.23228 1.42676 8.09827V154.458C1.42676 158.324 4.56077 161.458 8.42676 161.458H282.897C286.763 161.458 289.897 158.324 289.897 154.458V8.09827C289.897 4.23227 286.763 1.09827 282.897 1.09827ZM8.42676 0.0982666C4.00848 0.0982666 0.426758 3.67999 0.426758 8.09827V154.458C0.426758 158.877 4.00848 162.458 8.42676 162.458H282.897C287.315 162.458 290.897 158.877 290.897 154.458V8.09827C290.897 3.67999 287.315 0.0982666 282.897 0.0982666H8.42676Z" fill="#2EB9D8"/>
<rect x="93.5453" y="24.2115" width="180.053" height="94.9307" rx="8" transform="rotate(2.50005 93.5453 24.2115)" fill="white"/>
<path d="M110.297 53.2331L110.667 44.6747L112.482 44.7534L112.176 51.8132L115.648 51.9636L115.583 53.4622L110.297 53.2331Z" fill="#034861"/>
<path d="M119.879 48.2409C119.501 48.2245 119.199 48.3326 118.974 48.5653C118.749 48.794 118.611 49.1282 118.561 49.5679L121.066 49.6764C121.077 49.2351 120.977 48.8906 120.765 48.6429C120.553 48.3913 120.258 48.2573 119.879 48.2409ZM119.892 53.7662C118.838 53.7205 118.027 53.3941 117.459 52.7869C116.891 52.1797 116.63 51.3434 116.677 50.278C116.724 49.1814 117.034 48.3464 117.606 47.7729C118.183 47.1958 118.955 46.9282 119.922 46.9701C120.847 47.0102 121.556 47.3048 122.048 47.854C122.541 48.4031 122.767 49.1421 122.726 50.0709L122.689 50.9373L118.468 50.7544C118.466 51.2626 118.599 51.6653 118.868 51.9623C119.136 52.2594 119.524 52.4189 120.031 52.4409C120.426 52.458 120.8 52.4331 121.155 52.3664C121.51 52.2997 121.882 52.1848 122.272 52.0219L122.213 53.4034C121.894 53.546 121.555 53.6466 121.197 53.7054C120.838 53.7681 120.403 53.7883 119.892 53.7662Z" fill="#034861"/>
<path d="M131.074 47.4533C131.316 47.4638 131.516 47.49 131.675 47.5321L131.468 49.2005C131.325 49.1552 131.15 49.1281 130.943 49.1191C130.374 49.0944 129.922 49.2215 129.59 49.5003C129.261 49.7793 129.085 50.1822 129.062 50.7091L128.918 54.0399L127.132 53.9626L127.416 47.4179L128.768 47.4765L128.984 48.5885L129.072 48.5923C129.291 48.2342 129.577 47.9514 129.93 47.7439C130.287 47.5326 130.668 47.4357 131.074 47.4533Z" fill="#034861"/>
<path d="M135.521 48.9186C135.142 48.9022 134.84 49.0103 134.615 49.243C134.39 49.4718 134.253 49.806 134.202 50.2456L136.708 50.3542C136.719 49.9128 136.619 49.5683 136.407 49.3206C136.195 49.069 135.899 48.935 135.521 48.9186ZM135.534 54.4439C134.48 54.3982 133.669 54.0718 133.101 53.4646C132.533 52.8574 132.272 52.0211 132.318 50.9557C132.366 49.8591 132.676 49.0241 133.248 48.4507C133.824 47.8735 134.596 47.6059 135.564 47.6478C136.489 47.6879 137.198 47.9825 137.69 48.5317C138.182 49.0809 138.408 49.8198 138.368 50.7487L138.33 51.615L134.11 51.4322C134.107 51.9403 134.24 52.343 134.509 52.64C134.778 52.9371 135.166 53.0966 135.673 53.1186C136.067 53.1357 136.442 53.1109 136.796 53.0441C137.151 52.9774 137.524 52.8625 137.914 52.6996L137.854 54.0811C137.535 54.2237 137.197 54.3244 136.838 54.3831C136.48 54.4458 136.045 54.466 135.534 54.4439Z" fill="#034861"/>
<path d="M142.312 54.7376C140.275 54.6493 139.305 53.4871 139.402 51.2509C139.45 50.1387 139.764 49.3019 140.344 48.7405C140.923 48.1752 141.73 47.915 142.764 47.9598C143.521 47.9926 144.194 48.1703 144.782 48.493L144.196 49.8516C143.919 49.7263 143.662 49.6233 143.423 49.5425C143.184 49.4579 142.944 49.4103 142.702 49.3998C141.773 49.3596 141.28 49.999 141.223 51.3181C141.168 52.5981 141.604 53.2583 142.533 53.2985C142.876 53.3134 143.196 53.2823 143.493 53.2052C143.79 53.1243 144.089 52.9925 144.39 52.8101L144.324 54.338C144.027 54.5089 143.729 54.623 143.429 54.6804C143.133 54.738 142.761 54.757 142.312 54.7376Z" fill="#034861"/>
<path d="M147.395 51.5503C147.366 52.1981 147.451 52.6925 147.647 53.0333C147.847 53.3743 148.187 53.5553 148.667 53.5761C149.144 53.5967 149.492 53.4476 149.713 53.1287C149.938 52.8061 150.065 52.319 150.093 51.6672C150.121 51.0194 150.037 50.529 149.84 50.1959C149.643 49.8629 149.305 49.686 148.825 49.6652C148.349 49.6445 147.999 49.7916 147.774 50.1064C147.549 50.4173 147.423 50.8986 147.395 51.5503ZM151.92 51.7464C151.873 52.8118 151.556 53.6328 150.968 54.2095C150.38 54.7861 149.585 55.0527 148.582 55.0092C147.954 54.982 147.405 54.8214 146.937 54.5274C146.469 54.2296 146.117 53.8175 145.882 53.2912C145.647 52.7649 145.544 52.1583 145.574 51.4714C145.62 50.4021 145.935 49.583 146.519 49.0139C147.103 48.4449 147.9 48.1823 148.911 48.2261C149.539 48.2533 150.087 48.4139 150.556 48.7079C151.024 49.0019 151.376 49.4101 151.611 49.9325C151.846 50.4549 151.949 51.0595 151.92 51.7464Z" fill="#034861"/>
<path d="M159.112 55.3482L157.327 55.2708L157.492 51.4483C157.513 50.976 157.448 50.6194 157.298 50.3783C157.152 50.1335 156.91 50.0037 156.57 49.989C156.114 49.9692 155.775 50.1227 155.553 50.4493C155.332 50.776 155.205 51.3237 155.171 52.0925L155.038 55.1717L153.252 55.0943L153.536 48.5497L154.9 48.6088L155.104 49.4563L155.203 49.4606C155.392 49.1677 155.656 48.9445 155.995 48.7911C156.334 48.6338 156.718 48.5644 157.147 48.583C158.127 48.6254 158.776 48.9742 159.096 49.6293L159.254 49.6361C159.443 49.3393 159.711 49.1144 160.058 48.9613C160.408 48.8083 160.798 48.7412 161.227 48.7598C161.969 48.7919 162.521 49.0074 162.883 49.4062C163.249 49.8014 163.414 50.4185 163.377 51.2575L163.192 55.525L161.401 55.4474L161.567 51.6248C161.587 51.1526 161.522 50.7959 161.373 50.5548C161.227 50.31 160.984 50.1803 160.645 50.1655C160.208 50.1466 159.873 50.2885 159.641 50.5912C159.413 50.8941 159.284 51.3851 159.254 52.0642L159.112 55.3482Z" fill="#034861"/>
<path d="M165.311 47.3649C165.336 46.7834 165.673 46.5067 166.321 46.5348C166.969 46.5629 167.28 46.8676 167.255 47.4491C167.243 47.7262 167.151 47.9393 166.981 48.0883C166.814 48.2335 166.569 48.2991 166.245 48.2851C165.597 48.257 165.286 47.9503 165.311 47.3649ZM166.816 55.682L165.03 55.6046L165.314 49.06L167.099 49.1374L166.816 55.682Z" fill="#034861"/>
<path d="M171.639 50.4836C171.261 50.4672 170.959 50.5753 170.734 50.808C170.509 51.0367 170.371 51.3709 170.321 51.8105L172.826 51.9191C172.838 51.4778 172.737 51.1333 172.525 50.8856C172.313 50.634 172.018 50.5 171.639 50.4836ZM171.652 56.0088C170.598 55.9632 169.787 55.6368 169.219 55.0296C168.651 54.4224 168.391 53.5861 168.437 52.5207C168.484 51.424 168.794 50.589 169.366 50.0156C169.943 49.4384 170.715 49.1708 171.683 49.2128C172.607 49.2528 173.316 49.5475 173.808 50.0966C174.301 50.6458 174.527 51.3848 174.486 52.3136L174.449 53.18L170.228 52.9971C170.226 53.5053 170.359 53.9079 170.628 54.205C170.896 54.502 171.284 54.6616 171.792 54.6835C172.186 54.7006 172.56 54.6758 172.915 54.6091C173.27 54.5423 173.642 54.4275 174.032 54.2645L173.973 55.6461C173.654 55.7886 173.315 55.8893 172.957 55.9481C172.598 56.0107 172.163 56.031 171.652 56.0088Z" fill="#034861"/>
<path d="M181.819 56.3321L180.034 56.2547L180.2 52.4321C180.22 51.9599 180.151 51.6031 179.994 51.3617C179.836 51.1163 179.574 50.9857 179.207 50.9698C178.708 50.9482 178.339 51.1004 178.102 51.4263C177.866 51.7484 177.731 52.2958 177.697 53.0685L177.564 56.1477L175.778 56.0703L176.062 49.5257L177.426 49.5848L177.629 50.4323L177.729 50.4366C177.942 50.1291 178.225 49.9029 178.579 49.7579C178.938 49.6092 179.339 49.5445 179.784 49.5638C180.545 49.5968 181.114 49.8286 181.49 50.2594C181.867 50.6862 182.038 51.288 182.004 52.0646L181.819 56.3321Z" fill="#034861"/>
<path d="M185.725 56.6186C184.956 56.5853 184.364 56.2605 183.949 55.6443C183.538 55.0283 183.355 54.1915 183.401 53.1338C183.447 52.0606 183.706 51.2351 184.177 50.6573C184.651 50.0757 185.281 49.802 186.066 49.836C186.889 49.8716 187.503 50.2189 187.909 50.8777L187.967 50.8802C187.899 50.3885 187.873 49.9514 187.889 49.5689L187.98 47.4733L189.771 47.5509L189.377 56.6595L188.007 56.6002L187.698 55.7364L187.622 55.7331C187.188 56.3594 186.556 56.6546 185.725 56.6186ZM186.413 55.2232C186.869 55.243 187.209 55.1248 187.431 54.8685C187.657 54.6125 187.794 54.1668 187.841 53.5315L187.849 53.3383C187.88 52.6359 187.792 52.1277 187.587 51.8138C187.385 51.5001 187.041 51.3327 186.553 51.3116C186.155 51.2943 185.837 51.4506 185.6 51.7805C185.367 52.1067 185.236 52.5917 185.209 53.2356C185.181 53.8796 185.271 54.3683 185.479 54.7019C185.688 55.0315 185.999 55.2053 186.413 55.2232Z" fill="#034861"/>
<path d="M195.4 56.9205L195.094 56.0158L195.047 56.0137C194.73 56.3793 194.408 56.6292 194.082 56.7637C193.759 56.8944 193.343 56.9486 192.831 56.9265C192.203 56.8993 191.715 56.6983 191.368 56.3235C191.024 55.9489 190.867 55.4299 190.896 54.7665C190.926 54.0718 191.19 53.571 191.688 53.2642C192.19 52.9536 192.932 52.802 193.913 52.8093L195.05 52.8234L195.063 52.5365C195.091 51.8731 194.766 51.5267 194.087 51.4972C193.564 51.4746 192.943 51.606 192.223 51.8915L191.684 50.66C192.454 50.2985 193.298 50.1376 194.215 50.1773C195.093 50.2154 195.758 50.4357 196.209 50.8385C196.661 51.2412 196.87 51.8329 196.836 52.6134L196.647 56.9745L195.4 56.9205ZM195.005 53.8654L194.313 53.8589C193.793 53.852 193.403 53.9289 193.142 54.0896C192.881 54.2503 192.743 54.5063 192.727 54.8576C192.706 55.361 192.984 55.6252 193.561 55.6502C193.975 55.6682 194.31 55.5634 194.566 55.336C194.826 55.1088 194.965 54.7981 194.982 54.4039L195.005 53.8654Z" fill="#034861"/>
<path d="M204.532 57.3162L202.747 57.2388L202.913 53.4162C202.933 52.944 202.865 52.5872 202.707 52.3458C202.549 52.1004 202.287 51.9698 201.92 51.9539C201.421 51.9323 201.053 52.0845 200.816 52.4105C200.579 52.7325 200.444 53.2799 200.41 54.0526L200.277 57.1318L198.491 57.0544L198.775 50.5098L200.139 50.5689L200.343 51.4164L200.442 51.4207C200.655 51.1132 200.938 50.887 201.293 50.742C201.651 50.5933 202.052 50.5286 202.497 50.5479C203.258 50.5809 203.827 50.8127 204.203 51.2435C204.58 51.6704 204.751 52.2721 204.717 53.0487L204.532 57.3162Z" fill="#034861"/>
<path d="M211.042 57.5982L208.832 50.9455L210.699 51.0264L211.802 54.8102C211.922 55.2885 211.991 55.7391 212.007 56.1621L212.043 56.1636C212.078 55.7898 212.185 55.3468 212.364 54.8345L213.784 51.1601L215.652 51.241L212.874 57.6776L211.042 57.5982Z" fill="#034861"/>
<path d="M216.591 49.5868C216.616 49.0053 216.953 48.7286 217.601 48.7567C218.249 48.7847 218.56 49.0895 218.535 49.671C218.523 49.9481 218.431 50.1611 218.261 50.3101C218.094 50.4554 217.849 50.521 217.525 50.507C216.877 50.4789 216.566 50.1722 216.591 49.5868ZM218.096 57.9039L216.31 57.8265L216.594 51.2819L218.379 51.3592L218.096 57.9039Z" fill="#034861"/>
<path d="M224.625 56.2396C224.596 56.9109 224.34 57.412 223.856 57.7429C223.377 58.074 222.672 58.2194 221.744 58.1792C221.268 58.1586 220.863 58.1078 220.53 58.0269C220.197 57.95 219.887 57.8427 219.6 57.7051L219.664 56.2299C219.989 56.4004 220.356 56.5473 220.765 56.6706C221.178 56.7941 221.543 56.8626 221.859 56.8763C222.507 56.9044 222.839 56.7311 222.855 56.3565C222.861 56.216 222.823 56.1009 222.741 56.0114C222.659 55.9179 222.515 55.8119 222.309 55.6935C222.103 55.5712 221.828 55.4283 221.483 55.2648C220.989 55.0322 220.626 54.821 220.396 54.6312C220.17 54.4415 220.007 54.2292 219.907 53.9942C219.812 53.7555 219.772 53.4664 219.787 53.1269C219.812 52.5454 220.056 52.1063 220.518 51.8096C220.985 51.5092 221.632 51.377 222.459 51.4128C223.247 51.447 224.007 51.6519 224.737 52.0276L224.143 53.2922C223.821 53.1375 223.52 53.0091 223.239 52.907C222.958 52.8049 222.669 52.7474 222.373 52.7345C221.846 52.7117 221.576 52.8427 221.564 53.1276C221.557 53.2876 221.635 53.4298 221.797 53.5542C221.964 53.6787 222.329 53.8685 222.893 54.1236C223.395 54.3526 223.762 54.562 223.992 54.7518C224.222 54.9417 224.389 55.1561 224.492 55.3952C224.595 55.6342 224.639 55.9157 224.625 56.2396Z" fill="#034861"/>
<path d="M226.215 50.0038C226.24 49.4223 226.577 49.1456 227.225 49.1736C227.872 49.2017 228.184 49.5065 228.159 50.088C228.147 50.3651 228.055 50.5781 227.884 50.7271C227.718 50.8724 227.473 50.938 227.149 50.924C226.501 50.8959 226.19 50.5892 226.215 50.0038ZM227.72 58.3208L225.934 58.2435L226.218 51.6988L228.003 51.7762L227.72 58.3208Z" fill="#034861"/>
<path d="M232.413 57.2163C232.725 57.2298 233.102 57.1778 233.545 57.0601L233.488 58.3889C233.034 58.5687 232.484 58.6445 231.836 58.6165C231.122 58.5855 230.608 58.3834 230.296 58.0102C229.988 57.6332 229.849 57.0837 229.881 56.3618L230.017 53.2065L229.163 53.1695L229.196 52.4143L230.205 51.8599L230.78 50.5007L231.921 50.5501L231.861 51.9433L233.693 52.0227L233.635 53.3633L231.803 53.2839L231.666 56.4391C231.655 56.6928 231.717 56.8832 231.853 57.0102C231.992 57.1375 232.178 57.2062 232.413 57.2163Z" fill="#034861"/>
<path d="M238.965 58.8081L238.658 57.9033L238.611 57.9013C238.294 58.2668 237.973 58.5168 237.646 58.6512C237.324 58.7819 236.907 58.8362 236.396 58.8141C235.768 58.7868 235.28 58.5858 234.932 58.2111C234.589 57.8365 234.432 57.3175 234.46 56.654C234.49 55.9594 234.754 55.4586 235.253 55.1518C235.755 54.8412 236.496 54.6895 237.478 54.6969L238.615 54.7109L238.627 54.4241C238.656 53.7607 238.331 53.4142 237.652 53.3848C237.129 53.3622 236.507 53.4936 235.787 53.7791L235.248 52.5476C236.018 52.186 236.862 52.0251 237.779 52.0649C238.657 52.1029 239.322 52.3233 239.774 52.7261C240.226 53.1288 240.435 53.7204 240.401 54.501L240.212 58.8621L238.965 58.8081ZM238.57 55.7529L237.878 55.7464C237.358 55.7395 236.968 55.8165 236.707 55.9772C236.445 56.1379 236.307 56.3939 236.292 56.7451C236.27 57.2486 236.548 57.5128 237.126 57.5378C237.539 57.5557 237.874 57.451 238.13 57.2236C238.391 56.9964 238.529 56.6857 238.546 56.2915L238.57 55.7529Z" fill="#034861"/>
<path d="M245.998 52.4327C246.24 52.4432 246.44 52.4694 246.598 52.5115L246.391 54.1799C246.248 54.1346 246.074 54.1075 245.867 54.0985C245.297 54.0738 244.846 54.2009 244.513 54.4797C244.184 54.7587 244.008 55.1616 243.986 55.6885L243.841 59.0194L242.056 58.942L242.339 52.3974L243.692 52.4559L243.907 53.5679L243.995 53.5717C244.214 53.2136 244.5 52.9308 244.853 52.7233C245.21 52.512 245.592 52.4151 245.998 52.4327Z" fill="#034861"/>
<path d="M252.4 59.3902L250.614 59.3128L251.009 50.2042L252.794 50.2815L252.4 59.3902Z" fill="#034861"/>
<path d="M258.435 59.6517L258.128 58.7469L258.081 58.7449C257.764 59.1104 257.443 59.3604 257.116 59.4948C256.794 59.6255 256.377 59.6798 255.866 59.6577C255.238 59.6304 254.75 59.4294 254.402 59.0547C254.059 58.6801 253.902 58.1611 253.93 57.4976C253.96 56.803 254.225 56.3022 254.723 55.9954C255.225 55.6848 255.966 55.5331 256.948 55.5405L258.085 55.5545L258.097 55.2677C258.126 54.6043 257.801 54.2578 257.122 54.2284C256.599 54.2058 255.977 54.3372 255.257 54.6227L254.718 53.3912C255.488 53.0296 256.332 52.8687 257.249 52.9085C258.127 52.9465 258.792 53.1669 259.244 53.5697C259.696 53.9724 259.905 54.564 259.871 55.3446L259.682 59.7057L258.435 59.6517ZM258.04 56.5965L257.348 56.59C256.828 56.5831 256.438 56.6601 256.177 56.8208C255.915 56.9815 255.777 57.2375 255.762 57.5887C255.74 58.0922 256.018 58.3564 256.596 58.3814C257.009 58.3993 257.344 58.2946 257.6 58.0672C257.861 57.84 257.999 57.5293 258.016 57.1351L258.04 56.5965Z" fill="#034861"/>
<path d="M114.843 69.4451L114.439 67.1344L113.885 64.2132L113.844 64.2114L112.426 69.3404L110.506 69.2572L108.928 62.6319L110.707 62.709L111.337 65.6394C111.435 66.1637 111.527 66.8851 111.612 67.8037L111.648 67.8053C111.676 67.5093 111.765 67.042 111.914 66.4034L112.029 65.9098L112.973 62.8071L114.94 62.8924L115.57 66.0633C115.582 66.1498 115.6 66.2777 115.624 66.4468C115.652 66.6162 115.677 66.7971 115.7 66.9897C115.723 67.1784 115.743 67.3649 115.758 67.5494C115.778 67.7301 115.787 67.8751 115.786 67.9846L115.821 67.9861C115.869 67.7066 115.948 67.3249 116.059 66.841C116.17 66.3532 116.249 66.0242 116.295 65.8542L117.205 62.9905L118.955 63.0664L116.787 69.5293L114.843 69.4451Z" fill="#034861"/>
<path d="M122.675 64.3771C122.297 64.3607 121.995 64.4688 121.77 64.7015C121.545 64.9302 121.407 65.2644 121.357 65.7041L123.862 65.8126C123.874 65.3713 123.773 65.0268 123.561 64.7791C123.349 64.5275 123.054 64.3935 122.675 64.3771ZM122.688 69.9023C121.635 69.8567 120.824 69.5303 120.256 68.9231C119.688 68.3159 119.427 67.4796 119.473 66.4142C119.52 65.3176 119.83 64.4825 120.403 63.9091C120.979 63.3319 121.751 63.0643 122.719 63.1063C123.644 63.1463 124.352 63.441 124.845 63.9901C125.337 64.5393 125.563 65.2783 125.523 66.2071L125.485 67.0735L121.265 66.8906C121.262 67.3988 121.395 67.8014 121.664 68.0985C121.932 68.3956 122.32 68.5551 122.828 68.5771C123.222 68.5941 123.596 68.5693 123.951 68.5026C124.306 68.4358 124.678 68.321 125.069 68.158L125.009 69.5396C124.69 69.6821 124.351 69.7828 123.993 69.8416C123.634 69.9042 123.199 69.9245 122.688 69.9023Z" fill="#034861"/>
<path d="M130.744 63.454C131.517 63.4875 132.109 63.8161 132.52 64.44C132.931 65.0599 133.114 65.8948 133.068 66.9446C133.021 68.0256 132.759 68.8529 132.28 69.4265C131.806 70.0002 131.18 70.2703 130.404 70.2366C129.635 70.2033 129.044 69.8982 128.631 69.3212L128.508 69.3158L128.178 70.0229L126.814 69.9638L127.209 60.8552L128.995 60.9325L128.903 63.0516C128.891 63.3209 128.849 63.7511 128.776 64.3423L128.847 64.3454C129.292 63.7156 129.925 63.4185 130.744 63.454ZM130.109 64.8575C129.668 64.8384 129.34 64.961 129.125 65.2254C128.911 65.4859 128.786 65.9282 128.751 66.5523L128.743 66.7454C128.712 67.4479 128.794 67.9558 128.988 68.2692C129.185 68.5827 129.51 68.7493 129.963 68.7689C130.33 68.7848 130.628 68.6296 130.857 68.3033C131.09 67.9732 131.221 67.4862 131.249 66.8423C131.277 66.1984 131.188 65.7117 130.983 65.3822C130.779 65.0488 130.487 64.8739 130.109 64.8575Z" fill="#034861"/>
<path d="M139.583 70.6343C138.814 70.601 138.222 70.2763 137.807 69.6601C137.395 69.044 137.213 68.2072 137.259 67.1496C137.305 66.0764 137.564 65.2509 138.034 64.6731C138.509 64.0915 139.139 63.8177 139.923 63.8517C140.747 63.8874 141.361 64.2346 141.767 64.8934L141.825 64.896C141.757 64.4042 141.731 63.9672 141.747 63.5847L141.838 61.489L143.629 61.5666L143.235 70.6753L141.865 70.6159L141.556 69.7521L141.48 69.7488C141.046 70.3752 140.414 70.6704 139.583 70.6343ZM140.271 69.239C140.727 69.2588 141.067 69.1405 141.289 68.8843C141.515 68.6282 141.652 68.1825 141.699 67.5473L141.707 67.3541C141.737 66.6516 141.65 66.1434 141.445 65.8296C141.243 65.5159 140.899 65.3485 140.411 65.3273C140.013 65.3101 139.695 65.4664 139.458 65.7963C139.225 66.1224 139.094 66.6075 139.066 67.2514C139.039 67.8953 139.129 68.3841 139.337 68.7176C139.546 69.0473 139.857 69.2211 140.271 69.239Z" fill="#034861"/>
<path d="M148.046 65.4763C147.668 65.4599 147.366 65.5681 147.141 65.8007C146.916 66.0295 146.778 66.3637 146.728 66.8033L149.233 66.9119C149.245 66.4705 149.144 66.126 148.932 65.8783C148.72 65.6267 148.425 65.4927 148.046 65.4763ZM148.059 71.0016C147.005 70.9559 146.194 70.6295 145.626 70.0223C145.058 69.4151 144.798 68.5789 144.844 67.5134C144.891 66.4168 145.201 65.5818 145.773 65.0084C146.35 64.4312 147.122 64.1636 148.09 64.2055C149.014 64.2456 149.723 64.5402 150.215 65.0894C150.708 65.6386 150.934 66.3776 150.893 67.3064L150.856 68.1728L146.635 67.9899C146.633 68.4981 146.766 68.9007 147.035 69.1978C147.303 69.4948 147.691 69.6543 148.199 69.6763C148.593 69.6934 148.967 69.6686 149.322 69.6018C149.677 69.5351 150.049 69.4203 150.439 69.2573L150.38 70.6388C150.061 70.7814 149.722 70.8821 149.364 70.9408C149.005 71.0035 148.57 71.0238 148.059 71.0016Z" fill="#034861"/>
<path d="M157.492 65.5279C157.594 65.1764 157.753 64.7376 157.972 64.2114C158.194 63.6815 158.418 63.2005 158.644 62.7685L159.926 62.824C159.623 63.8549 159.384 64.8239 159.208 65.7312L157.569 65.6602L157.492 65.5279ZM154.759 65.4094C154.86 65.058 155.02 64.6192 155.238 64.093C155.46 63.5631 155.684 63.0821 155.91 62.65L157.192 62.7056C156.89 63.7364 156.65 64.7055 156.474 65.6128L154.835 65.5417L154.759 65.4094Z" fill="#034861"/>
<path d="M166.618 65.1315L166.578 66.0388L165.542 66.2579C165.717 66.5587 165.797 66.8906 165.781 67.2535C165.75 67.956 165.481 68.4936 164.972 68.8665C164.467 69.2356 163.78 69.4013 162.909 69.3636L162.588 69.3321L162.326 69.2914C162.137 69.424 162.038 69.5761 162.031 69.7478C162.019 70.0054 162.342 70.1484 162.997 70.1768L164.11 70.225C164.828 70.2561 165.367 70.4339 165.729 70.7584C166.094 71.0831 166.264 71.544 166.238 72.1411C166.204 72.906 165.859 73.4854 165.2 73.8791C164.546 74.273 163.622 74.4441 162.428 74.3924C161.514 74.3528 160.823 74.1625 160.353 73.8216C159.886 73.4847 159.666 73.0294 159.691 72.4557C159.708 72.0615 159.845 71.7371 160.102 71.4824C160.36 71.2276 160.729 71.054 161.21 70.9615C161.03 70.8755 160.875 70.7417 160.746 70.5602C160.617 70.3747 160.557 70.1825 160.566 69.9834C160.577 69.7337 160.658 69.53 160.809 69.3723C160.961 69.2108 161.177 69.0559 161.457 68.9077C161.12 68.7446 160.857 68.4947 160.669 68.1581C160.484 67.8216 160.401 67.4309 160.42 66.986C160.451 66.2719 160.707 65.7297 161.189 65.3596C161.67 64.9894 162.342 64.8231 163.204 64.8604C163.388 64.8684 163.604 64.8953 163.852 64.9413C164.104 64.9835 164.265 65.0139 164.335 65.0326L166.618 65.1315ZM161.242 72.3822C161.231 72.628 161.34 72.8263 161.568 72.9769C161.8 73.1277 162.129 73.2123 162.554 73.2308C163.194 73.2585 163.7 73.1924 164.07 73.0325C164.441 72.8726 164.632 72.6405 164.646 72.3361C164.656 72.0902 164.556 71.9158 164.346 71.8128C164.135 71.7099 163.806 71.6487 163.357 71.6292L162.432 71.5892C162.104 71.575 161.826 71.6391 161.597 71.7817C161.371 71.9283 161.253 72.1285 161.242 72.3822ZM162.123 67.0833C162.107 67.4384 162.175 67.7229 162.326 67.9366C162.481 68.1506 162.724 68.2647 163.056 68.2791C163.392 68.2936 163.642 68.2009 163.807 68.0008C163.972 67.8007 164.062 67.5231 164.078 67.168C164.112 66.3797 163.805 65.9715 163.157 65.9434C162.502 65.915 162.157 66.2949 162.123 67.0833Z" fill="#034861"/>
<path d="M172.053 71.9239L171.85 71.0764L171.756 71.0724C171.551 71.3685 171.27 71.5928 170.911 71.7454C170.553 71.8941 170.15 71.9587 169.701 71.9393C168.932 71.906 168.361 71.676 167.989 71.2493C167.616 70.8187 167.447 70.2171 167.481 69.4444L167.665 65.1769L169.451 65.2542L169.285 69.0768C169.265 69.549 169.333 69.9078 169.491 70.1531C169.648 70.3946 169.911 70.5232 170.278 70.5391C170.777 70.5608 171.145 70.4106 171.382 70.0885C171.619 69.7625 171.754 69.2131 171.788 68.4404L171.921 65.3613L173.707 65.4386L173.423 71.9833L172.053 71.9239Z" fill="#034861"/>
<path d="M175.577 63.8247C175.602 63.2432 175.939 62.9665 176.587 62.9946C177.234 63.0227 177.546 63.3275 177.521 63.9089C177.509 64.186 177.417 64.3991 177.247 64.5481C177.08 64.6933 176.835 64.759 176.511 64.7449C175.863 64.7169 175.552 64.4101 175.577 63.8247ZM177.082 72.1418L175.296 72.0644L175.58 65.5198L177.365 65.5972L177.082 72.1418Z" fill="#034861"/>
<path d="M180.526 69.0008C180.498 69.6487 180.582 70.143 180.778 70.4839C180.978 70.8249 181.319 71.0058 181.799 71.0266C182.275 71.0472 182.623 70.8981 182.844 70.5792C183.069 70.2566 183.196 69.7695 183.224 69.1178C183.252 68.4699 183.168 67.9795 182.971 67.6464C182.775 67.3134 182.436 67.1365 181.956 67.1157C181.48 67.095 181.13 67.2421 180.905 67.5569C180.68 67.8678 180.554 68.3491 180.526 69.0008ZM185.051 69.1969C185.005 70.2623 184.687 71.0833 184.099 71.66C183.511 72.2366 182.716 72.5032 181.713 72.4598C181.085 72.4325 180.536 72.2719 180.068 71.978C179.6 71.6801 179.249 71.268 179.013 70.7417C178.778 70.2154 178.675 69.6088 178.705 68.9219C178.751 67.8526 179.066 67.0335 179.65 66.4645C180.234 65.8955 181.031 65.6328 182.042 65.6766C182.67 65.7039 183.219 65.8645 183.687 66.1584C184.155 66.4524 184.507 66.8606 184.742 67.383C184.978 67.9054 185.08 68.51 185.051 69.1969Z" fill="#034861"/>
<path d="M192.425 72.8066L190.639 72.7292L190.805 68.9066C190.825 68.4344 190.757 68.0776 190.599 67.8362C190.442 67.5909 190.18 67.4602 189.813 67.4444C189.313 67.4227 188.945 67.5749 188.708 67.9009C188.471 68.2229 188.336 68.7703 188.302 69.5431L188.169 72.6222L186.384 72.5448L186.667 66.0002L188.031 66.0593L188.235 66.9068L188.334 66.9111C188.547 66.6036 188.831 66.3774 189.185 66.2324C189.543 66.0838 189.945 66.019 190.39 66.0383C191.151 66.0713 191.719 66.3032 192.096 66.7339C192.472 67.1608 192.643 67.7625 192.61 68.5391L192.425 72.8066Z" fill="#034861"/>
<path d="M196.15 64.5226C195.922 65.2829 195.538 66.2027 194.998 67.282L193.716 67.2264C194.036 66.0829 194.273 65.1138 194.429 64.319L196.074 64.3902L196.15 64.5226ZM198.884 64.641C198.655 65.4014 198.272 66.3212 197.732 67.4004L196.45 67.3449C196.769 66.2014 197.007 65.2322 197.163 64.4374L198.802 64.5084L198.884 64.641Z" fill="#034861"/>
<path d="M204.783 73.4594C204.014 73.426 203.422 73.1013 203.007 72.4851C202.596 71.869 202.413 71.0322 202.459 69.9746C202.506 68.9014 202.764 68.0759 203.235 67.4981C203.71 66.9165 204.339 66.6427 205.124 66.6767C205.947 66.7124 206.562 67.0596 206.967 67.7184L207.026 67.721C206.957 67.2293 206.931 66.7922 206.948 66.4097L207.039 64.314L208.83 64.3916L208.435 73.5003L207.065 73.4409L206.757 72.5772L206.681 72.5739C206.247 73.2002 205.614 73.4954 204.783 73.4594ZM205.471 72.064C205.928 72.0838 206.267 71.9655 206.489 71.7093C206.716 71.4532 206.852 71.0076 206.899 70.3723L206.908 70.1791C206.938 69.4766 206.851 68.9685 206.645 68.6546C206.444 68.3409 206.099 68.1735 205.611 68.1523C205.213 68.1351 204.896 68.2914 204.658 68.6213C204.425 68.9474 204.295 69.4325 204.267 70.0764C204.239 70.7203 204.329 71.2091 204.538 71.5426C204.746 71.8723 205.057 72.0461 205.471 72.064Z" fill="#034861"/>
<path d="M211.867 70.3588C211.839 71.0066 211.923 71.501 212.12 71.8418C212.32 72.1828 212.66 72.3638 213.14 72.3846C213.616 72.4052 213.965 72.2561 214.186 71.9372C214.411 71.6146 214.538 71.1275 214.566 70.4757C214.594 69.8279 214.51 69.3375 214.313 69.0044C214.116 68.6714 213.778 68.4944 213.298 68.4737C212.822 68.453 212.471 68.6001 212.247 68.9149C212.022 69.2258 211.896 69.7071 211.867 70.3588ZM216.392 70.5549C216.346 71.6203 216.029 72.4413 215.441 73.018C214.853 73.5946 214.058 73.8612 213.055 73.8177C212.426 73.7905 211.878 73.6299 211.41 73.3359C210.942 73.0381 210.59 72.626 210.355 72.0997C210.12 71.5734 210.017 70.9668 210.047 70.2799C210.093 69.2106 210.408 68.3915 210.992 67.8224C211.576 67.2534 212.373 66.9908 213.384 67.0346C214.012 67.0618 214.56 67.2224 215.028 67.5164C215.497 67.8104 215.848 68.2186 216.084 68.741C216.319 69.2634 216.422 69.868 216.392 70.5549Z" fill="#034861"/>
<path d="M223.766 74.1646L221.981 74.0872L222.147 70.2646C222.167 69.7924 222.099 69.4356 221.941 69.1942C221.783 68.9488 221.521 68.8182 221.154 68.8023C220.655 68.7807 220.287 68.9329 220.05 69.2588C219.813 69.5809 219.678 70.1283 219.644 70.901L219.511 73.9802L217.725 73.9028L218.009 67.3582L219.373 67.4173L219.577 68.2648L219.676 68.2691C219.889 67.9616 220.172 67.7354 220.527 67.5904C220.885 67.4417 221.286 67.377 221.731 67.3963C222.492 67.4293 223.061 67.6611 223.437 68.0919C223.814 68.5187 223.985 69.1205 223.951 69.8971L223.766 74.1646Z" fill="#034861"/>
<path d="M227.672 74.4511C226.903 74.4178 226.311 74.093 225.896 73.4768C225.485 72.8608 225.302 72.024 225.348 70.9663C225.394 69.8931 225.653 69.0676 226.124 68.4898C226.599 67.9082 227.228 67.6345 228.013 67.6685C228.836 67.7041 229.45 68.0514 229.856 68.7102L229.914 68.7127C229.846 68.221 229.82 67.7839 229.836 67.4014L229.927 65.3058L231.718 65.3834L231.324 74.492L229.954 74.4327L229.645 73.5689L229.569 73.5656C229.136 74.1919 228.503 74.4871 227.672 74.4511ZM228.36 73.0557C228.816 73.0755 229.156 72.9573 229.378 72.701C229.604 72.445 229.741 71.9993 229.788 71.364L229.796 71.1708C229.827 70.4684 229.739 69.9602 229.534 69.6463C229.332 69.3326 228.988 69.1652 228.5 69.1441C228.102 69.1268 227.784 69.2831 227.547 69.613C227.314 69.9392 227.184 70.4242 227.156 71.0681C227.128 71.7121 227.218 72.2008 227.426 72.5344C227.635 72.864 227.946 73.0378 228.36 73.0557Z" fill="#034861"/>
<path d="M236.135 69.2931C235.757 69.2767 235.455 69.3848 235.23 69.6175C235.005 69.8462 234.867 70.1804 234.817 70.6201L237.322 70.7286C237.334 70.2873 237.233 69.9428 237.021 69.6951C236.809 69.4435 236.514 69.3095 236.135 69.2931ZM236.148 74.8183C235.095 74.7727 234.284 74.4463 233.716 73.8391C233.148 73.2319 232.887 72.3956 232.933 71.3302C232.98 70.2336 233.29 69.3985 233.863 68.8251C234.439 68.248 235.211 67.9803 236.179 68.0223C237.104 68.0624 237.812 68.357 238.305 68.9061C238.797 69.4553 239.023 70.1943 238.983 71.1231L238.945 71.9895L234.725 71.8066C234.722 72.3148 234.855 72.7174 235.124 73.0145C235.392 73.3116 235.78 73.4711 236.288 73.4931C236.682 73.5101 237.056 73.4853 237.411 73.4186C237.766 73.3518 238.138 73.237 238.529 73.074L238.469 74.4556C238.15 74.5981 237.811 74.6988 237.453 74.7576C237.094 74.8202 236.659 74.8405 236.148 74.8183Z" fill="#034861"/>
<path d="M112.36 85.4699C111.591 85.4365 111 85.1314 110.588 84.5544L110.494 84.5503C110.533 85.0994 110.55 85.4168 110.546 85.5027L110.432 88.1545L108.646 88.0772L109.055 78.6524L110.506 78.7153L110.721 79.575L110.803 79.5786C111.249 78.9488 111.881 78.6517 112.701 78.6872C113.474 78.7207 114.066 79.0455 114.477 79.6615C114.888 80.2775 115.071 81.1163 115.025 82.1778C114.994 82.8764 114.865 83.4787 114.636 83.9849C114.41 84.4913 114.103 84.8709 113.712 85.1238C113.322 85.3766 112.871 85.492 112.36 85.4699ZM112.065 80.0907C111.624 80.0716 111.297 80.1943 111.082 80.4586C110.867 80.7191 110.742 81.1614 110.708 81.7855L110.699 81.9787C110.669 82.6811 110.75 83.189 110.944 83.5024C111.142 83.8159 111.467 83.9825 111.919 84.0021C112.719 84.0368 113.148 83.3946 113.205 82.0755C113.233 81.4316 113.154 80.9453 112.969 80.6167C112.788 80.2843 112.487 80.109 112.065 80.0907Z" fill="#034861"/>
<path d="M120.994 85.7266L120.79 84.8791L120.696 84.8751C120.492 85.1712 120.211 85.3955 119.852 85.5481C119.494 85.6968 119.09 85.7615 118.641 85.742C117.873 85.7087 117.302 85.4787 116.929 85.052C116.557 84.6214 116.388 84.0198 116.421 83.2471L116.606 78.9796L118.391 79.0569L118.226 82.8795C118.205 83.3517 118.274 83.7105 118.431 83.9558C118.589 84.1973 118.851 84.3259 119.218 84.3418C119.718 84.3635 120.086 84.2133 120.323 83.8912C120.56 83.5652 120.695 83.0158 120.728 82.2431L120.862 79.164L122.647 79.2413L122.364 85.786L120.994 85.7266Z" fill="#034861"/>
<path d="M127.181 80.5873C126.803 80.5709 126.501 80.679 126.276 80.9117C126.051 81.1404 125.913 81.4746 125.863 81.9143L128.368 82.0228C128.379 81.5815 128.279 81.237 128.067 80.9893C127.855 80.7377 127.56 80.6037 127.181 80.5873ZM127.194 86.1126C126.14 86.0669 125.329 85.7405 124.761 85.1333C124.193 84.5261 123.932 83.6898 123.979 82.6244C124.026 81.5278 124.336 80.6928 124.908 80.1193C125.485 79.5422 126.257 79.2746 127.224 79.3165C128.149 79.3566 128.858 79.6512 129.35 80.2004C129.843 80.7495 130.069 81.4885 130.028 82.4174L129.991 83.2837L125.77 83.1009C125.768 83.609 125.901 84.0117 126.169 84.3087C126.438 84.6058 126.826 84.7653 127.333 84.7873C127.728 84.8044 128.102 84.7795 128.457 84.7128C128.812 84.6461 129.184 84.5312 129.574 84.3683L129.515 85.7498C129.196 85.8924 128.857 85.993 128.499 86.0518C128.14 86.1145 127.705 86.1347 127.194 86.1126Z" fill="#034861"/>
<path d="M133.387 86.3809C132.619 86.3476 132.027 86.0229 131.611 85.4066C131.2 84.7906 131.018 83.9538 131.063 82.8962C131.11 81.823 131.368 80.9975 131.839 80.4196C132.314 79.8381 132.944 79.5643 133.728 79.5983C134.552 79.634 135.166 79.9812 135.571 80.64L135.63 80.6425C135.561 80.1508 135.535 79.7137 135.552 79.3313L135.643 77.2356L137.434 77.3132L137.039 86.4219L135.67 86.3625L135.361 85.4987L135.285 85.4954C134.851 86.1218 134.219 86.4169 133.387 86.3809ZM134.075 84.9856C134.532 85.0053 134.871 84.8871 135.094 84.6309C135.32 84.3748 135.456 83.9291 135.503 83.2938L135.512 83.1007C135.542 82.3982 135.455 81.89 135.249 81.5762C135.048 81.2625 134.703 81.095 134.215 81.0739C133.817 81.0567 133.5 81.213 133.263 81.5429C133.03 81.869 132.899 82.3541 132.871 82.998C132.843 83.6419 132.934 84.1306 133.142 84.4642C133.351 84.7939 133.662 84.9676 134.075 84.9856Z" fill="#034861"/>
<path d="M141.851 81.2229C141.472 81.2065 141.171 81.3146 140.945 81.5473C140.72 81.7761 140.583 82.1103 140.533 82.5499L143.038 82.6585C143.049 82.2171 142.949 81.8726 142.737 81.6249C142.525 81.3733 142.229 81.2393 141.851 81.2229ZM141.864 86.7482C140.81 86.7025 139.999 86.3761 139.431 85.7689C138.863 85.1617 138.602 84.3254 138.648 83.26C138.696 82.1634 139.006 81.3284 139.578 80.755C140.154 80.1778 140.926 79.9102 141.894 79.9521C142.819 79.9922 143.528 80.2868 144.02 80.836C144.512 81.3852 144.738 82.1241 144.698 83.053L144.661 83.9193L140.44 83.7365C140.438 84.2447 140.571 84.6473 140.839 84.9443C141.108 85.2414 141.496 85.4009 142.003 85.4229C142.397 85.44 142.772 85.4152 143.127 85.3484C143.481 85.2817 143.854 85.1668 144.244 85.0039L144.184 86.3854C143.865 86.528 143.527 86.6287 143.168 86.6874C142.81 86.7501 142.375 86.7703 141.864 86.7482Z" fill="#034861"/>
<path d="M152.048 81.6648C151.67 81.6484 151.368 81.7565 151.143 81.9891C150.918 82.2179 150.78 82.5521 150.73 82.9917L153.235 83.1003C153.247 82.659 153.146 82.3145 152.934 82.0668C152.722 81.8152 152.427 81.6812 152.048 81.6648ZM152.061 87.19C151.008 87.1444 150.197 86.8179 149.629 86.2108C149.061 85.6036 148.8 84.7673 148.846 83.7019C148.893 82.6052 149.203 81.7702 149.776 81.1968C150.352 80.6196 151.124 80.352 152.092 80.394C153.017 80.434 153.725 80.7287 154.218 81.2778C154.71 81.827 154.936 82.566 154.896 83.4948L154.858 84.3612L150.638 84.1783C150.635 84.6865 150.768 85.0891 151.037 85.3862C151.305 85.6832 151.693 85.8428 152.201 85.8647C152.595 85.8818 152.969 85.857 153.324 85.7903C153.679 85.7235 154.051 85.6087 154.442 85.4457L154.382 86.8272C154.063 86.9698 153.724 87.0705 153.366 87.1293C153.007 87.1919 152.572 87.2122 152.061 87.19Z" fill="#034861"/>
<path d="M162.229 87.5133L160.443 87.4359L160.609 83.6133C160.629 83.1411 160.561 82.7843 160.403 82.5429C160.246 82.2975 159.983 82.1669 159.616 82.151C159.117 82.1294 158.749 82.2815 158.512 82.6075C158.275 82.9296 158.14 83.477 158.106 84.2497L157.973 87.3289L156.187 87.2515L156.471 80.7069L157.835 80.766L158.039 81.6135L158.138 81.6178C158.351 81.3103 158.634 81.0841 158.989 80.9391C159.347 80.7904 159.749 80.7257 160.194 80.745C160.955 80.778 161.523 81.0098 161.899 81.4406C162.276 81.8674 162.447 82.4692 162.414 83.2458L162.229 87.5133Z" fill="#034861"/>
<path d="M166.719 87.8251C164.682 87.7369 163.712 86.5746 163.809 84.3385C163.857 83.2262 164.171 82.3894 164.751 81.828C165.33 81.2628 166.137 81.0025 167.171 81.0473C167.928 81.0801 168.601 81.2579 169.189 81.5805L168.603 82.9392C168.326 82.8138 168.069 82.7108 167.83 82.6301C167.591 82.5454 167.351 82.4979 167.109 82.4874C166.18 82.4471 165.687 83.0866 165.63 84.4056C165.575 85.6857 166.011 86.3458 166.94 86.3861C167.283 86.401 167.603 86.3699 167.9 86.2928C168.197 86.2118 168.496 86.0801 168.797 85.8976L168.731 87.4255C168.434 87.5964 168.136 87.7106 167.836 87.768C167.54 87.8255 167.168 87.8446 166.719 87.8251Z" fill="#034861"/>
<path d="M171.802 84.6378C171.773 85.2857 171.858 85.78 172.054 86.1209C172.254 86.4619 172.594 86.6428 173.074 86.6636C173.551 86.6842 173.899 86.5351 174.12 86.2163C174.345 85.8937 174.472 85.4065 174.5 84.7548C174.528 84.1069 174.444 83.6165 174.247 83.2835C174.05 82.9504 173.712 82.7735 173.232 82.7527C172.756 82.7321 172.406 82.8791 172.181 83.1939C171.956 83.5048 171.83 83.9861 171.802 84.6378ZM176.327 84.8339C176.28 85.8993 175.963 86.7203 175.375 87.297C174.787 87.8736 173.992 88.1402 172.989 88.0968C172.361 88.0696 171.812 87.909 171.344 87.615C170.876 87.3171 170.524 86.905 170.289 86.3787C170.054 85.8524 169.951 85.2458 169.981 84.559C170.027 83.4897 170.342 82.6705 170.926 82.1015C171.51 81.5325 172.307 81.2699 173.318 81.3136C173.946 81.3409 174.494 81.5015 174.963 81.7955C175.431 82.0894 175.783 82.4976 176.018 83.02C176.253 83.5424 176.356 84.147 176.327 84.8339Z" fill="#034861"/>
<path d="M183.701 88.4436L181.915 88.3662L182.081 84.5437C182.101 84.0714 182.033 83.7146 181.875 83.4732C181.718 83.2279 181.455 83.0973 181.089 83.0814C180.589 83.0597 180.221 83.2119 179.984 83.5379C179.747 83.86 179.612 84.4074 179.578 85.1801L179.445 88.2592L177.659 88.1819L177.943 81.6372L179.307 81.6963L179.511 82.5438L179.61 82.5481C179.823 82.2406 180.106 82.0144 180.461 81.8695C180.819 81.7208 181.221 81.6561 181.666 81.6753C182.427 81.7083 182.995 81.9402 183.371 82.3709C183.748 82.7978 183.919 83.3995 183.886 84.1761L183.701 88.4436Z" fill="#034861"/>
<path d="M188.353 87.3373C188.665 87.3508 189.042 87.2988 189.485 87.1811L189.428 88.5099C188.974 88.6897 188.424 88.7655 187.776 88.7375C187.062 88.7065 186.548 88.5044 186.236 88.1312C185.928 87.7542 185.789 87.2047 185.821 86.4828L185.957 83.3275L185.103 83.2905L185.135 82.5353L186.145 81.9808L186.72 80.6217L187.861 80.6711L187.801 82.0643L189.633 82.1437L189.575 83.4843L187.743 83.4049L187.606 86.5601C187.595 86.8138 187.657 87.0042 187.793 87.1312C187.932 87.2585 188.118 87.3271 188.353 87.3373Z" fill="#034861"/>
<path d="M194.69 82.2397C194.932 82.2502 195.133 82.2764 195.291 82.3185L195.084 83.9869C194.941 83.9416 194.766 83.9145 194.56 83.9055C193.99 83.8808 193.539 84.0079 193.206 84.2867C192.877 84.5657 192.701 84.9686 192.678 85.4955L192.534 88.8263L190.749 88.749L191.032 82.2043L192.385 82.2629L192.6 83.3749L192.688 83.3787C192.907 83.0206 193.193 82.7378 193.546 82.5303C193.903 82.319 194.285 82.2221 194.69 82.2397Z" fill="#034861"/>
<path d="M200.349 89.1649L200.042 88.2602L199.995 88.2582C199.679 88.6237 199.357 88.8737 199.03 89.0081C198.708 89.1388 198.291 89.1931 197.78 89.1709C197.152 89.1437 196.664 88.9427 196.316 88.568C195.973 88.1934 195.816 87.6743 195.844 87.0109C195.874 86.3162 196.139 85.8155 196.637 85.5086C197.139 85.198 197.881 85.0464 198.862 85.0537L199.999 85.0678L200.011 84.781C200.04 84.1175 199.715 83.7711 199.036 83.7417C198.513 83.719 197.891 83.8504 197.171 84.136L196.632 82.9044C197.403 82.5429 198.246 82.382 199.163 82.4217C200.041 82.4598 200.706 82.6802 201.158 83.0829C201.61 83.4857 201.819 84.0773 201.785 84.8578L201.596 89.219L200.349 89.1649ZM199.954 86.1098L199.262 86.1033C198.742 86.0964 198.352 86.1733 198.091 86.3341C197.83 86.4948 197.691 86.7508 197.676 87.102C197.654 87.6054 197.932 87.8697 198.51 87.8947C198.923 87.9126 199.258 87.8079 199.515 87.5805C199.775 87.3532 199.913 87.0425 199.93 86.6484L199.954 86.1098Z" fill="#034861"/>
<path d="M207.382 82.7896C207.624 82.8 207.824 82.8263 207.982 82.8684L207.775 84.5368C207.632 84.4915 207.458 84.4643 207.251 84.4554C206.681 84.4307 206.23 84.5578 205.897 84.8366C205.568 85.1156 205.393 85.5185 205.37 86.0454L205.225 89.3762L203.44 89.2989L203.724 82.7542L205.076 82.8128L205.292 83.9248L205.379 83.9286C205.598 83.5705 205.884 83.2877 206.237 83.0801C206.594 82.8688 206.976 82.772 207.382 82.7896Z" fill="#034861"/>
<path d="M216.635 89.8706L216.431 89.0231L216.337 89.019C216.133 89.3151 215.851 89.5395 215.493 89.6921C215.134 89.8408 214.731 89.9054 214.282 89.8859C213.513 89.8526 212.943 89.6226 212.57 89.1959C212.198 88.7654 212.028 88.1637 212.062 87.391L212.247 83.1235L214.032 83.2009L213.867 87.0235C213.846 87.4957 213.915 87.8545 214.072 88.0998C214.23 88.3412 214.492 88.4699 214.859 88.4858C215.358 88.5074 215.727 88.3572 215.963 88.0351C216.2 87.7091 216.336 87.1598 216.369 86.3871L216.503 83.3079L218.288 83.3853L218.004 89.9299L216.635 89.8706Z" fill="#034861"/>
<path d="M225.919 90.2728L224.133 90.1955L224.299 86.3729C224.32 85.9007 224.251 85.5439 224.093 85.3024C223.936 85.0571 223.674 84.9265 223.307 84.9106C222.807 84.889 222.439 85.0411 222.202 85.3671C221.965 85.6892 221.83 86.2366 221.797 87.0093L221.663 90.0884L219.878 90.0111L220.161 83.4664L221.525 83.5255L221.729 84.373L221.828 84.3774C222.041 84.0699 222.325 83.8437 222.679 83.6987C223.037 83.55 223.439 83.4853 223.884 83.5046C224.645 83.5375 225.213 83.7694 225.59 84.2002C225.966 84.627 226.137 85.2287 226.104 86.0054L225.919 90.2728Z" fill="#034861"/>
<path d="M111.668 101.455C110.899 101.422 110.308 101.116 109.895 100.539L109.801 100.535C109.84 101.084 109.858 101.402 109.854 101.488L109.739 104.14L107.954 104.062L108.362 94.6374L109.814 94.7003L110.029 95.56L110.111 95.5636C110.556 94.9338 111.189 94.6367 112.008 94.6722C112.781 94.7057 113.373 95.0305 113.784 95.6465C114.195 96.2625 114.378 97.1013 114.332 98.1628C114.302 98.8614 114.172 99.4637 113.943 99.9699C113.718 100.476 113.41 100.856 113.02 101.109C112.63 101.362 112.179 101.477 111.668 101.455ZM111.373 96.0757C110.932 96.0566 110.604 96.1793 110.389 96.4436C110.175 96.7041 110.05 97.1464 110.015 97.7705L110.007 97.9637C109.976 98.6661 110.058 99.174 110.251 99.4874C110.449 99.8009 110.774 99.9675 111.227 99.9871C112.027 100.022 112.455 99.3796 112.513 98.0605C112.54 97.4166 112.462 96.9303 112.277 96.6017C112.096 96.2693 111.794 96.094 111.373 96.0757Z" fill="#034861"/>
<path d="M118.609 96.2309C118.231 96.2145 117.929 96.3226 117.704 96.5553C117.479 96.7841 117.341 97.1183 117.291 97.5579L119.796 97.6665C119.808 97.2251 119.707 96.8806 119.495 96.6329C119.283 96.3813 118.988 96.2473 118.609 96.2309ZM118.622 101.756C117.568 101.711 116.757 101.384 116.189 100.777C115.621 100.17 115.361 99.3334 115.407 98.268C115.454 97.1714 115.764 96.3364 116.336 95.7629C116.913 95.1858 117.685 94.9182 118.653 94.9601C119.577 95.0002 120.286 95.2948 120.778 95.844C121.271 96.3932 121.497 97.1321 121.456 98.061L121.419 98.9273L117.198 98.7445C117.196 99.2526 117.329 99.6553 117.598 99.9523C117.866 100.249 118.254 100.409 118.762 100.431C119.156 100.448 119.53 100.423 119.885 100.356C120.24 100.29 120.612 100.175 121.002 100.012L120.943 101.393C120.624 101.536 120.285 101.637 119.927 101.695C119.568 101.758 119.133 101.778 118.622 101.756Z" fill="#034861"/>
<path d="M126.69 95.3084C126.932 95.3188 127.132 95.3451 127.291 95.3872L127.083 97.0555C126.941 97.0103 126.766 96.9831 126.559 96.9742C125.989 96.9495 125.538 97.0766 125.205 97.3554C124.877 97.6344 124.701 98.0373 124.678 98.5642L124.534 101.895L122.748 101.818L123.032 95.273L124.384 95.3316L124.6 96.4436L124.688 96.4474C124.906 96.0893 125.192 95.8065 125.545 95.5989C125.903 95.3876 126.284 95.2908 126.69 95.3084Z" fill="#034861"/>
<path d="M132.035 97.0062L130.49 96.9392L130.265 102.143L128.479 102.066L128.705 96.8619L127.721 96.8193L127.758 95.9587L128.763 95.5213L128.784 95.0413C128.816 94.2959 129.023 93.7595 129.405 93.4319C129.786 93.1044 130.381 92.9581 131.189 92.9931C131.805 93.0198 132.35 93.1353 132.822 93.3395L132.308 94.631C131.954 94.5023 131.625 94.4313 131.321 94.4181C131.067 94.4071 130.88 94.4753 130.761 94.6226C130.641 94.766 130.576 94.9548 130.566 95.1889L130.548 95.5987L132.094 95.6656L132.035 97.0062ZM133.115 94.015C133.14 93.4335 133.477 93.1568 134.125 93.1848C134.773 93.2129 135.084 93.5177 135.059 94.0992C135.047 94.3763 134.955 94.5893 134.785 94.7383C134.618 94.8836 134.373 94.9492 134.049 94.9352C133.401 94.9071 133.09 94.6004 133.115 94.015ZM134.62 102.332L132.834 102.255L133.118 95.71L134.903 95.7874L134.62 102.332Z" fill="#034861"/>
<path d="M138.279 102.491L136.493 102.413L136.888 93.3046L138.673 93.3819L138.279 102.491Z" fill="#034861"/>
<path d="M149.132 102.961L147.346 102.883L147.512 99.0609C147.532 98.5886 147.468 98.232 147.318 97.9909C147.172 97.7461 146.929 97.6163 146.59 97.6016C146.133 97.5818 145.794 97.7353 145.573 98.0619C145.351 98.3886 145.224 98.9363 145.191 99.7051L145.057 102.784L143.272 102.707L143.555 96.1623L144.919 96.2214L145.123 97.0689L145.223 97.0732C145.411 96.7803 145.675 96.5571 146.014 96.4037C146.353 96.2464 146.738 96.177 147.167 96.1956C148.146 96.238 148.796 96.5868 149.116 97.2419L149.274 97.2487C149.462 96.9519 149.73 96.727 150.077 96.5739C150.428 96.4209 150.818 96.3538 151.247 96.3724C151.988 96.4045 152.54 96.62 152.902 97.0188C153.268 97.414 153.433 98.0311 153.397 98.8701L153.212 103.138L151.421 103.06L151.586 99.2374C151.607 98.7652 151.542 98.4085 151.392 98.1674C151.246 97.9226 151.004 97.7929 150.664 97.7781C150.227 97.7592 149.892 97.9011 149.66 98.2038C149.432 98.5067 149.303 98.9977 149.274 99.6768L149.132 102.961Z" fill="#034861"/>
<path d="M159.206 103.397L158.899 102.493L158.853 102.491C158.536 102.856 158.214 103.106 157.888 103.24C157.565 103.371 157.148 103.425 156.637 103.403C156.009 103.376 155.521 103.175 155.174 102.8C154.83 102.426 154.673 101.907 154.701 101.243C154.732 100.549 154.996 100.048 155.494 99.741C155.996 99.4304 156.738 99.2788 157.719 99.2861L158.856 99.3002L158.868 99.0133C158.897 98.3499 158.572 98.0035 157.893 97.9741C157.37 97.9514 156.748 98.0828 156.028 98.3683L155.489 97.1368C156.26 96.7753 157.103 96.6144 158.02 96.6541C158.898 96.6922 159.563 96.9126 160.015 97.3153C160.467 97.718 160.676 98.3097 160.642 99.0902L160.453 103.451L159.206 103.397ZM158.811 100.342L158.119 100.336C157.599 100.329 157.209 100.406 156.948 100.566C156.687 100.727 156.548 100.983 156.533 101.334C156.511 101.838 156.789 102.102 157.367 102.127C157.781 102.145 158.115 102.04 158.372 101.813C158.632 101.586 158.77 101.275 158.787 100.881L158.811 100.342ZM157.01 96.0238L157.016 95.8658C157.722 95.1143 158.206 94.5469 158.468 94.1634L160.471 94.2501L160.465 94.373C160.253 94.5672 159.893 94.8546 159.384 95.2352C158.879 95.6122 158.483 95.8922 158.198 96.0753L157.01 96.0238Z" fill="#034861"/>
<path d="M166.947 101.786C166.918 102.457 166.662 102.958 166.178 103.289C165.699 103.62 164.994 103.765 164.066 103.725C163.59 103.705 163.185 103.654 162.852 103.573C162.519 103.496 162.209 103.389 161.922 103.251L161.986 101.776C162.311 101.946 162.678 102.093 163.087 102.217C163.5 102.34 163.865 102.409 164.181 102.422C164.829 102.45 165.161 102.277 165.177 101.902C165.183 101.762 165.145 101.647 165.063 101.557C164.981 101.464 164.837 101.358 164.631 101.239C164.425 101.117 164.15 100.974 163.805 100.811C163.311 100.578 162.948 100.367 162.718 100.177C162.492 99.9875 162.329 99.7752 162.229 99.5402C162.134 99.3015 162.094 99.0124 162.109 98.6728C162.134 98.0913 162.378 97.6523 162.84 97.3556C163.307 97.0552 163.954 96.9229 164.781 96.9588C165.569 96.9929 166.329 97.1979 167.059 97.5736L166.465 98.8381C166.143 98.6834 165.842 98.555 165.561 98.4529C165.28 98.3508 164.991 98.2933 164.695 98.2805C164.168 98.2577 163.898 98.3887 163.886 98.6736C163.879 98.8336 163.957 98.9758 164.119 99.1001C164.286 99.2246 164.651 99.4144 165.215 99.6696C165.717 99.8985 166.084 100.108 166.314 100.298C166.544 100.488 166.711 100.702 166.814 100.941C166.917 101.18 166.961 101.462 166.947 101.786Z" fill="#034861"/>
<path d="M174.315 98.6445C173.936 98.6281 173.634 98.7363 173.409 98.9689C173.184 99.1977 173.047 99.5319 172.996 99.9715L175.502 100.08C175.513 99.6387 175.413 99.2942 175.201 99.0465C174.989 98.7949 174.693 98.6609 174.315 98.6445ZM174.328 104.17C173.274 104.124 172.463 103.798 171.895 103.191C171.327 102.583 171.066 101.747 171.112 100.682C171.16 99.585 171.47 98.75 172.042 98.1766C172.618 97.5994 173.39 97.3318 174.358 97.3737C175.283 97.4138 175.992 97.7084 176.484 98.2576C176.976 98.8068 177.202 99.5458 177.162 100.475L177.124 101.341L172.904 101.158C172.901 101.666 173.034 102.069 173.303 102.366C173.572 102.663 173.96 102.823 174.467 102.845C174.861 102.862 175.236 102.837 175.59 102.77C175.945 102.703 176.318 102.588 176.708 102.425L176.648 103.807C176.329 103.95 175.991 104.05 175.632 104.109C175.274 104.172 174.839 104.192 174.328 104.17Z" fill="#034861"/>
<path d="M183.104 102.486C183.075 103.157 182.819 103.658 182.335 103.989C181.855 104.32 181.151 104.465 180.222 104.425C179.746 104.405 179.342 104.354 179.009 104.273C178.676 104.196 178.366 104.089 178.079 103.951L178.143 102.476C178.468 102.646 178.835 102.793 179.244 102.917C179.657 103.04 180.021 103.109 180.337 103.122C180.985 103.15 181.317 102.977 181.334 102.602C181.34 102.462 181.302 102.347 181.22 102.257C181.138 102.164 180.994 102.058 180.788 101.94C180.582 101.817 180.306 101.674 179.962 101.511C179.467 101.278 179.105 101.067 178.875 100.877C178.648 100.688 178.486 100.475 178.386 100.24C178.291 100.002 178.251 99.7124 178.265 99.3729C178.291 98.7914 178.534 98.3523 178.997 98.0556C179.464 97.7552 180.11 97.623 180.938 97.6588C181.726 97.693 182.486 97.8979 183.216 98.2736L182.622 99.5382C182.3 99.3835 181.999 99.2551 181.718 99.153C181.437 99.0509 181.148 98.9934 180.851 98.9805C180.324 98.9577 180.055 99.0887 180.042 99.3736C180.036 99.5336 180.113 99.6758 180.276 99.8002C180.443 99.9247 180.808 100.114 181.372 100.37C181.874 100.599 182.24 100.808 182.471 100.998C182.701 101.188 182.867 101.402 182.97 101.641C183.074 101.88 183.118 102.162 183.104 102.486Z" fill="#034861"/>
<path d="M187.227 103.304C187.539 103.317 187.917 103.265 188.36 103.147L188.302 104.476C187.848 104.656 187.298 104.732 186.65 104.704C185.936 104.673 185.423 104.471 185.11 104.097C184.802 103.72 184.664 103.171 184.695 102.449L184.832 99.2937L183.977 99.2567L184.01 98.5016L185.019 97.9471L185.594 96.5879L186.736 96.6373L186.675 98.0306L188.507 98.11L188.449 99.4505L186.617 99.3711L186.48 102.526C186.469 102.78 186.532 102.97 186.667 103.097C186.806 103.225 186.993 103.293 187.227 103.304Z" fill="#034861"/>
<path d="M193.779 104.895L193.472 103.991L193.426 103.989C193.109 104.354 192.787 104.604 192.461 104.738C192.138 104.869 191.721 104.923 191.21 104.901C190.582 104.874 190.094 104.673 189.747 104.298C189.403 103.924 189.246 103.405 189.274 102.741C189.305 102.047 189.569 101.546 190.067 101.239C190.569 100.928 191.311 100.777 192.292 100.784L193.429 100.798L193.441 100.511C193.47 99.8479 193.145 99.5015 192.466 99.472C191.943 99.4494 191.321 99.5808 190.601 99.8663L190.062 98.6348C190.833 98.2733 191.676 98.1124 192.593 98.1521C193.472 98.1901 194.136 98.4105 194.588 98.8133C195.04 99.216 195.249 99.8077 195.215 100.588L195.026 104.949L193.779 104.895ZM193.384 101.84L192.692 101.834C192.172 101.827 191.782 101.904 191.521 102.064C191.26 102.225 191.121 102.481 191.106 102.832C191.084 103.336 191.362 103.6 191.94 103.625C192.354 103.643 192.688 103.538 192.945 103.311C193.205 103.084 193.343 102.773 193.36 102.379L193.384 101.84Z" fill="#034861"/>
<path d="M202.911 105.291L201.126 105.214L201.291 101.391C201.312 100.919 201.243 100.562 201.086 100.321C200.928 100.075 200.666 99.9446 200.299 99.9287C199.8 99.9071 199.431 100.059 199.194 100.385C198.958 100.707 198.822 101.255 198.789 102.027L198.655 105.107L196.87 105.029L197.154 98.4846L198.518 98.5437L198.721 99.3912L198.821 99.3955C199.034 99.088 199.317 98.8618 199.671 98.7168C200.03 98.5681 200.431 98.5034 200.876 98.5227C201.637 98.5557 202.206 98.7875 202.582 99.2183C202.958 99.6451 203.13 100.247 203.096 101.023L202.911 105.291Z" fill="#034861"/>
<path d="M206.817 105.577C206.048 105.544 205.456 105.219 205.041 104.603C204.629 103.987 204.447 103.15 204.493 102.093C204.539 101.02 204.798 100.194 205.268 99.6162C205.743 99.0347 206.373 98.7609 207.157 98.7949C207.981 98.8305 208.595 99.1778 209.001 99.8366L209.059 99.8391C208.991 99.3474 208.965 98.9103 208.981 98.5279L209.072 96.4322L210.863 96.5098L210.469 105.618L209.099 105.559L208.79 104.695L208.714 104.692C208.28 105.318 207.648 105.613 206.817 105.577ZM207.505 104.182C207.961 104.202 208.301 104.084 208.523 103.827C208.749 103.571 208.886 103.126 208.933 102.49L208.941 102.297C208.971 101.595 208.884 101.087 208.679 100.773C208.477 100.459 208.133 100.292 207.645 100.27C207.247 100.253 206.929 100.41 206.692 100.739C206.459 101.066 206.328 101.551 206.3 102.195C206.273 102.838 206.363 103.327 206.571 103.661C206.78 103.99 207.091 104.164 207.505 104.182Z" fill="#034861"/>
<path d="M216.492 105.879L216.185 104.975L216.139 104.973C215.822 105.338 215.5 105.588 215.174 105.723C214.851 105.853 214.434 105.908 213.923 105.885C213.295 105.858 212.807 105.657 212.46 105.282C212.116 104.908 211.959 104.389 211.988 103.725C212.018 103.031 212.282 102.53 212.78 102.223C213.282 101.913 214.024 101.761 215.005 101.768L216.142 101.782L216.154 101.495C216.183 100.832 215.858 100.486 215.179 100.456C214.656 100.433 214.034 100.565 213.314 100.85L212.775 99.6189C213.546 99.2574 214.389 99.0965 215.306 99.1362C216.185 99.1743 216.849 99.3947 217.301 99.7974C217.753 100.2 217.962 100.792 217.928 101.572L217.739 105.933L216.492 105.879ZM216.097 102.824L215.405 102.818C214.885 102.811 214.495 102.888 214.234 103.049C213.973 103.209 213.835 103.465 213.819 103.816C213.797 104.32 214.075 104.584 214.653 104.609C215.067 104.627 215.402 104.522 215.658 104.295C215.918 104.068 216.056 103.757 216.073 103.363L216.097 102.824Z" fill="#034861"/>
<path d="M223.525 99.504C223.767 99.5145 223.967 99.5408 224.126 99.5828L223.918 101.251C223.776 101.206 223.601 101.179 223.394 101.17C222.824 101.145 222.373 101.272 222.04 101.551C221.712 101.83 221.536 102.233 221.513 102.76L221.369 106.091L219.583 106.013L219.867 99.4687L221.219 99.5273L221.435 100.639L221.522 100.643C221.741 100.285 222.027 100.002 222.38 99.7946C222.737 99.5833 223.119 99.4864 223.525 99.504Z" fill="#034861"/>
<path d="M224.812 105.401C224.826 105.073 224.925 104.829 225.107 104.669C225.29 104.509 225.55 104.436 225.885 104.451C226.209 104.465 226.455 104.561 226.623 104.741C226.795 104.92 226.875 105.17 226.861 105.49C226.847 105.798 226.747 106.038 226.56 106.21C226.373 106.378 226.119 106.455 225.799 106.441C225.471 106.427 225.221 106.33 225.049 106.15C224.877 105.967 224.798 105.717 224.812 105.401Z" fill="#034861"/>
<path d="M80.4926 105.913H86.9674V112.388H80.4926V105.913Z" fill="#FCC37A"/>
<path d="M63.2265 119.942C63.2265 120.801 63.5676 121.624 64.1747 122.231C64.7818 122.838 65.6053 123.179 66.4639 123.179H68.6222V129.654H91.284V114.546C91.2805 113.403 90.8247 112.307 90.0159 111.498C89.2071 110.689 88.1112 110.233 86.9674 110.23H82.0034C81.0219 110.228 80.0696 110.563 79.3056 111.179L72.3991 116.705H66.4639C65.6053 116.705 64.7818 117.046 64.1747 117.653C63.5676 118.26 63.2265 119.083 63.2265 119.942Z" fill="#F23333"/>
<path d="M76.1761 100.518C76.1713 102.232 76.7511 103.896 77.8198 105.237C78.8885 106.577 80.3822 107.513 82.0544 107.89C83.7267 108.268 85.4775 108.063 87.0181 107.312C88.5587 106.56 89.797 105.305 90.5286 103.755H90.5502C91.0384 102.746 91.2894 101.639 91.284 100.518C91.2808 98.9632 90.7983 97.4477 89.9021 96.1777C89.006 94.9077 87.7399 93.9451 86.2765 93.4211C84.8132 92.8971 83.2238 92.8373 81.7252 93.2498C80.2266 93.6624 78.8918 94.5271 77.9027 95.7262L77.7732 95.9205C77.3984 96.3688 77.0929 96.8708 76.8668 97.4097L76.8452 97.4312C76.4029 98.4 76.1747 99.4527 76.1761 100.518Z" fill="#FFD9AA"/>
<path d="M76.8452 97.4313L86.1042 99.2658C86.3479 99.3156 86.567 99.448 86.7243 99.6407C86.8816 99.8335 86.9675 100.075 86.9675 100.323V102.676C86.9675 102.962 87.0812 103.237 87.2835 103.439C87.4859 103.641 87.7604 103.755 88.0466 103.755H90.5502C91.3243 102.092 91.4671 100.205 90.9519 98.4449C90.4368 96.6847 89.2989 95.1721 87.7506 94.1892C86.2023 93.2063 84.3492 92.8203 82.5372 93.1031C80.7252 93.3859 79.0779 94.3183 77.9028 95.7263L77.7733 95.9205C77.2984 96.7191 76.9315 97.3018 76.8668 97.4097L76.8452 97.4313Z" fill="#57565D"/>
<path d="M23.9021 68.4855C23.9021 64.9973 25.2867 61.6519 27.7518 59.184C30.2169 56.7161 33.5607 55.3276 37.0489 55.3236C39.3148 55.3378 41.5378 55.9431 43.4981 57.0797C44.5112 55.4556 45.8693 54.0744 47.476 53.0339C49.0827 51.9935 50.8987 51.3193 52.7951 51.0593C54.6915 50.7992 56.6219 50.9596 58.4494 51.5291C60.2769 52.0986 61.9567 53.0633 63.3696 54.3547C64.8115 53.0479 66.526 52.0783 68.3889 51.516C70.2518 50.9538 72.2164 50.8129 74.1405 51.1037C76.0645 51.3945 77.8998 52.1097 79.5133 53.1974C81.1268 54.2851 82.4782 55.7182 83.4694 57.3927C84.4607 59.0672 85.0671 60.9412 85.2446 62.879C85.4221 64.8168 85.1664 66.7698 84.4959 68.5965C83.8254 70.4233 82.7569 72.078 81.3679 73.4408C79.9789 74.8036 78.3041 75.8403 76.4649 76.4759C76.48 76.7393 76.5436 76.9906 76.5436 77.257C76.5532 79.8016 75.8221 82.2939 74.4395 84.4301C73.0569 86.5662 71.0825 88.2539 68.7572 89.2872C66.4319 90.3205 63.8561 90.6547 61.3441 90.2492C58.832 89.8438 56.4923 88.716 54.6102 87.0036C52.9751 88.4985 50.9861 89.5522 48.8309 90.0652C46.6757 90.5783 44.4253 90.5339 42.292 89.9361C40.1588 89.3383 38.2129 88.2069 36.6382 86.6486C35.0634 85.0904 33.9116 83.1566 33.2914 81.0297C30.5848 80.2275 28.2093 78.5736 26.5178 76.3137C24.8262 74.0537 23.9089 71.3084 23.9021 68.4855Z" fill="white"/>
<path d="M45.9576 90.4198L41.7097 91.1869C41.1464 91.2887 40.6466 91.61 40.3202 92.0802C39.9939 92.5505 39.8677 93.1311 39.9694 93.6944L43.4215 112.81C43.5232 113.373 43.8446 113.873 44.3148 114.199C44.785 114.525 45.3657 114.652 45.929 114.55L50.1768 113.783L45.9576 90.4198Z" fill="#57565D"/>
<path d="M43.8021 118.863H30.8525V123.179H45.9604V121.021C45.9604 120.449 45.733 119.9 45.3282 119.495C44.9235 119.09 44.3745 118.863 43.8021 118.863Z" fill="#8C8890"/>
<path d="M40.6941 97.7119L30.8524 118.863H36.2481L42.1186 105.59L40.6941 97.7119Z" fill="#D9D8DA"/>
<path d="M73.8176 96.7758C71.7207 96.7758 70.0208 95.0759 70.0208 92.9789C70.0208 90.882 71.7207 89.1821 73.8176 89.1821C75.9146 89.1821 77.6145 90.882 77.6145 92.9789C77.6145 95.0759 75.9146 96.7758 73.8176 96.7758Z" fill="white"/>
<path d="M63.2265 119.942C63.2265 120.801 63.5676 121.624 64.1747 122.231C64.7818 122.838 65.6053 123.179 66.4639 123.179H69.7013V116.705H66.4639C65.6053 116.705 64.7818 117.046 64.1747 117.653C63.5676 118.26 63.2265 119.083 63.2265 119.942Z" fill="#FFD9AA"/>
<path d="M72.7228 125.292C72.9864 125.293 73.243 125.208 73.4545 125.051L83.2401 117.801C83.3684 117.707 83.4767 117.588 83.5586 117.452C83.6405 117.315 83.6943 117.164 83.717 117.006C83.7397 116.849 83.7308 116.688 83.6908 116.534C83.6508 116.38 83.5805 116.235 83.484 116.109C83.2871 115.853 82.9978 115.684 82.6779 115.638C82.358 115.593 82.0331 115.674 81.7725 115.865L71.989 123.117C71.8607 123.211 71.7524 123.33 71.6705 123.466C71.5886 123.603 71.5348 123.754 71.5121 123.912C71.4894 124.069 71.4983 124.23 71.5383 124.384C71.5783 124.538 71.6486 124.682 71.7451 124.809C71.8597 124.959 72.0076 125.081 72.1773 125.165C72.3469 125.249 72.5336 125.293 72.7228 125.292Z" fill="#DB0000"/>
<path d="M68.6222 116.705H70.7804V123.179H68.6222V116.705Z" fill="#DB0000"/>
<path d="M80.4926 123.179H24.3777V127.496C24.3777 128.068 24.6051 128.617 25.0098 129.022C25.4146 129.427 25.9635 129.654 26.5359 129.654H80.4926V123.179Z" fill="#57565D"/>
<path d="M56.8923 64.4201L57.7806 71.3556L56.1936 71.5588L55.3053 64.6233C55.2823 64.4204 55.3424 64.2163 55.4727 64.055C55.6029 63.8937 55.7929 63.7884 56.0015 63.7617C56.2101 63.7349 56.4205 63.789 56.5872 63.9123C56.7539 64.0355 56.8635 64.2179 56.8923 64.4201Z" fill="#00E351"/>
<path d="M69.5891 62.7944L69.562 62.7978C69.5699 62.7901 69.578 62.7826 69.5863 62.775C69.5872 62.7814 69.5883 62.7884 69.5891 62.7944Z" fill="#00E351"/>
<path d="M69.5891 62.7944L69.562 62.7978C69.5699 62.7901 69.578 62.7826 69.5863 62.775C69.5872 62.7814 69.5883 62.7884 69.5891 62.7944Z" fill="#00E351"/>
<path d="M62.3561 62.9373C60.1605 63.2185 58.6021 65.1749 58.8751 67.3071C59.1482 69.4394 61.1494 70.94 63.345 70.6588C65.5406 70.3776 67.0992 68.4212 66.826 66.2888C66.5529 64.1564 64.5518 62.656 62.3561 62.9373ZM63.1556 69.1166C62.6817 69.1773 62.2009 69.1001 61.774 68.8949C61.3472 68.6896 60.9935 68.3655 60.7576 67.9635C60.5218 67.5615 60.4144 67.0996 60.449 66.6363C60.4837 66.173 60.6588 65.7291 60.9523 65.3607C61.2457 64.9923 61.6443 64.716 62.0977 64.5666C62.551 64.4173 63.0388 64.4017 63.4992 64.5217C63.9597 64.6418 64.3721 64.8922 64.6845 65.2412C64.9968 65.5901 65.195 66.0221 65.2539 66.4824C65.333 67.0996 65.1563 67.7239 64.7628 68.2179C64.3693 68.7119 63.7912 69.0352 63.1556 69.1166Z" fill="#00E351"/>
<path d="M43.3036 65.3778C43.0932 65.4047 42.9019 65.5117 42.7716 65.6752C42.6413 65.8387 42.5828 66.0453 42.6088 66.2496C41.8584 65.8364 40.9881 65.673 40.1296 65.7843C37.9388 66.0649 36.383 68.0175 36.6556 70.1455C36.9281 72.2735 38.9258 73.771 41.1171 73.4904C41.9758 73.3817 42.7769 73.0043 43.399 72.4153L43.7287 74.9899C43.0592 75.3208 42.4772 75.7986 42.0293 76.3851C41.5813 76.9717 41.2797 77.6509 41.1486 78.3685C41.4342 78.8218 41.8718 79.165 42.3883 79.341C42.9048 79.517 43.4691 79.5152 43.9871 79.3359C44.5051 79.1566 44.9456 78.8105 45.2351 78.3554C45.5246 77.9004 45.6456 77.3638 45.578 76.835L44.1963 66.0466C44.1833 65.9454 44.1499 65.8478 44.098 65.7594C44.0461 65.671 43.9767 65.5935 43.8938 65.5314C43.8109 65.4693 43.7161 65.4237 43.6149 65.3974C43.5136 65.371 43.4078 65.3644 43.3036 65.3778Z" fill="#00E351"/>
<path d="M52.8261 64.1578C52.6156 64.1847 52.4242 64.2918 52.2939 64.4553C52.1636 64.6189 52.105 64.8256 52.1312 65.0299L52.5605 68.3819C52.565 68.9573 52.3518 69.5159 51.9615 69.9515C51.5713 70.3871 51.031 70.6693 50.4435 70.7445C49.8559 70.8198 49.262 70.6828 48.7746 70.3597C48.2871 70.0365 47.9401 69.5497 47.7994 68.9916L47.3701 65.6397C47.3697 65.6371 47.3694 65.6346 47.3691 65.632C47.3419 65.4277 47.2322 65.243 47.0642 65.1184C46.8963 64.9938 46.6838 64.9395 46.4735 64.9674C46.2632 64.9954 46.0723 65.1034 45.9429 65.2676C45.8134 65.4318 45.756 65.6387 45.7832 65.843L46.2236 69.2809C46.4425 70.259 47.0417 71.1145 47.8963 71.6694C48.7509 72.2244 49.7952 72.436 50.8118 72.2602C51.8284 72.0845 52.7391 71.5349 53.3542 70.7259C53.9693 69.9169 54.2416 68.9107 54.1142 67.9168L53.7185 64.8266C53.7055 64.7254 53.6721 64.6279 53.6202 64.5395C53.5683 64.4511 53.499 64.3736 53.4161 64.3115C53.3333 64.2494 53.2385 64.2039 53.1373 64.1775C53.036 64.1511 52.9303 64.1444 52.8261 64.1578Z" fill="#00E351"/>
<path d="M74.3761 62.1809C73.6231 61.7623 72.7487 61.5939 71.8847 61.701C71.0208 61.8082 70.2139 62.1851 69.5858 62.775C69.5866 62.7813 69.5874 62.7878 69.5882 62.7941L69.5617 62.7975C69.5694 62.7899 69.5774 62.7825 69.5855 62.7751C69.5539 62.5735 69.4418 62.3927 69.2736 62.2717C69.1054 62.1507 68.8945 62.0993 68.6864 62.1285C68.4784 62.1577 68.2899 62.2651 68.1616 62.4277C68.0334 62.5903 67.9757 62.7949 68.0011 62.9974L68.8894 69.9329L70.4768 69.7295L69.9833 65.8766C69.9084 65.2922 70.0626 64.7002 70.4152 64.2182C70.7678 63.7362 71.2931 63.3994 71.8867 63.2748C72.4803 63.1502 73.0988 63.2469 73.6192 63.5456C74.1396 63.8444 74.524 64.3233 74.6958 64.8873L75.2379 69.1199L76.8249 68.9166L76.2868 64.7153C76.1685 64.1855 75.9374 63.6863 75.6084 63.2499C75.2794 62.8134 74.8596 62.4493 74.3761 62.1809Z" fill="#00E351"/>
</svg>
