<svg width="292" height="163" viewBox="0 0 292 163" fill="none" xmlns="http://www.w3.org/2000/svg">
<rect x="5.89526" y="5.10022" width="280.473" height="152.356" rx="8" fill="#C7235E"/>
<path fill-rule="evenodd" clip-rule="evenodd" d="M283.367 1.09827H8.89673C5.03074 1.09827 1.89673 4.23228 1.89673 8.09827V154.458C1.89673 158.324 5.03074 161.458 8.89673 161.458H283.367C287.233 161.458 290.367 158.324 290.367 154.458V8.09827C290.367 4.23227 287.233 1.09827 283.367 1.09827ZM8.89673 0.0982666C4.47845 0.0982666 0.896729 3.67999 0.896729 8.09827V154.458C0.896729 158.877 4.47845 162.458 8.89673 162.458H283.367C287.785 162.458 291.367 158.877 291.367 154.458V8.09827C291.367 3.67999 287.785 0.0982666 283.367 0.0982666H8.89673Z" fill="#C7235E"/>
<rect width="193.923" height="94.9307" rx="8" transform="matrix(-0.999048 0.0436203 0.0436203 0.999048 207.901 23.6066)" fill="white"/>
<path d="M33.5501 53.9662L34.1357 53.9486C34.7097 53.9313 35.1304 53.8229 35.398 53.6234C35.6656 53.4238 35.7932 53.1191 35.7808 52.7091C35.7686 52.303 35.6194 52.0183 35.3331 51.855C35.0507 51.6915 34.6167 51.6186 34.031 51.6362L33.4805 51.6528L33.5501 53.9662ZM33.5945 55.4421L33.6933 58.7277L31.8777 58.7823L31.6201 50.2198L34.1151 50.1447C35.2786 50.1097 36.146 50.2966 36.7171 50.7054C37.2881 51.1103 37.5866 51.7442 37.6126 52.6071C37.6277 53.1108 37.5026 53.5639 37.2373 53.9666C36.9718 54.3654 36.5886 54.6837 36.0877 54.9216C37.4341 56.8077 38.311 58.026 38.7184 58.5765L36.7037 58.6371L34.5608 55.413L33.5945 55.4421Z" fill="#034861"/>
<path d="M42.2047 53.0669C41.8259 53.0782 41.5328 53.2082 41.3254 53.4568C41.1178 53.7014 41.005 54.0448 40.987 54.4869L43.4937 54.4115C43.4726 53.9705 43.3472 53.6343 43.1175 53.4028C42.8877 53.1675 42.5834 53.0555 42.2047 53.0669ZM42.6225 58.5763C41.5683 58.608 40.7357 58.3419 40.1247 57.778C39.5137 57.2141 39.1922 56.3992 39.1601 55.3333C39.1271 54.2361 39.3749 53.3806 39.9036 52.7668C40.436 52.1489 41.1864 51.8254 42.1547 51.7963C43.0801 51.7685 43.8084 52.0103 44.3396 52.5219C44.8709 53.0335 45.1505 53.754 45.1784 54.6832L45.2045 55.55L40.9818 55.6771C41.0166 56.1841 41.1789 56.5759 41.4686 56.8524C41.7582 57.129 42.1569 57.2596 42.6645 57.2444C43.0588 57.2325 43.4305 57.1803 43.7794 57.0877C44.1283 56.9952 44.4914 56.8533 44.8687 56.6622L44.9102 58.0444C44.6026 58.21 44.2722 58.3352 43.9191 58.4201C43.5662 58.5088 43.134 58.5609 42.6225 58.5763Z" fill="#034861"/>
<path d="M51.2518 56.2533C51.272 56.9248 51.0532 57.4434 50.5952 57.8089C50.1411 58.1743 49.4495 58.3709 48.5202 58.3989C48.0438 58.4132 47.6368 58.3922 47.299 58.336C46.9613 58.2836 46.6442 58.1993 46.3476 58.0832L46.3032 56.6073C46.6398 56.7535 47.0166 56.8731 47.4337 56.9661C47.8546 57.0589 48.2232 57.1006 48.5395 57.0911C49.1876 57.0716 49.5061 56.8744 49.4948 56.4996C49.4905 56.359 49.4442 56.2471 49.3557 56.1638C49.2671 56.0765 49.1157 55.9814 48.9016 55.8785C48.6874 55.7716 48.4023 55.6492 48.0464 55.5114C47.5364 55.3157 47.1596 55.1317 46.916 54.9592C46.6764 54.7867 46.4984 54.5869 46.3821 54.3598C46.2697 54.1287 46.2083 53.8433 46.1981 53.5036C46.1806 52.9218 46.3916 52.4661 46.8311 52.1363C47.2744 51.8025 47.9099 51.6232 48.7377 51.5983C49.5264 51.5745 50.2988 51.7232 51.0549 52.0444L50.5548 53.3491C50.2226 53.2184 49.9126 53.1124 49.6249 53.0312C49.3372 52.95 49.0449 52.9138 48.7482 52.9228C48.2211 52.9386 47.9618 53.0891 47.9704 53.3741C47.9752 53.5342 48.0633 53.6702 48.2348 53.7823C48.4101 53.8943 48.7882 54.0568 49.3691 54.2699C49.8868 54.4615 50.2674 54.6435 50.511 54.8159C50.7546 54.9884 50.9365 55.19 51.0568 55.4209C51.1771 55.6517 51.2421 55.9292 51.2518 56.2533Z" fill="#034861"/>
<path d="M57.3428 58.0162L57.0774 57.1859L56.9837 57.1888C56.8016 57.4991 56.5373 57.7434 56.191 57.9219C55.8445 58.0965 55.4468 58.1905 54.9977 58.204C54.2286 58.2272 53.6426 58.0396 53.2398 57.6414C52.8369 57.2393 52.6238 56.6516 52.6006 55.8786L52.4721 51.609L54.2584 51.5553L54.3735 55.3797C54.3877 55.8522 54.4823 56.2049 54.6574 56.4381C54.8323 56.6673 55.1033 56.7764 55.4703 56.7653C55.9701 56.7503 56.3263 56.5735 56.5388 56.2349C56.7513 55.8924 56.8459 55.3346 56.8226 54.5616L56.7299 51.4809L58.5162 51.4272L58.7132 57.975L57.3428 58.0162Z" fill="#034861"/>
<path d="M62.3737 57.8649L60.5874 57.9186L60.3132 48.8055L62.0995 48.7518L62.3737 57.8649Z" fill="#034861"/>
<path d="M66.9729 56.4193C67.2853 56.4099 67.6581 56.3303 68.0912 56.1805L68.1312 57.5099C67.6921 57.7225 67.1485 57.8385 66.5003 57.858C65.7858 57.8795 65.2592 57.7155 64.9204 57.3662C64.5854 57.0128 64.407 56.475 64.3853 55.7526L64.2903 52.5959L63.4352 52.6216L63.4125 51.8661L64.3785 51.2391L64.8523 49.8414L65.9943 49.807L66.0363 51.2009L67.8694 51.1458L67.9098 52.487L66.0766 52.5421L66.1716 55.6989C66.1792 55.9527 66.2552 56.138 66.3994 56.2548C66.5475 56.3715 66.7387 56.4263 66.9729 56.4193Z" fill="#034861"/>
<path d="M73.6245 57.5264L73.2521 56.6466L73.2053 56.648C72.916 57.0358 72.6135 57.3086 72.2978 57.4667C71.9859 57.6206 71.5742 57.7053 71.0627 57.7207C70.4341 57.7396 69.9328 57.5749 69.5589 57.2266C69.1889 56.8782 68.9939 56.3721 68.9739 55.7084C68.953 55.0134 69.1797 54.4946 69.654 54.1521C70.1321 53.8055 70.8606 53.5999 71.8396 53.5353L72.9747 53.466L72.9661 53.179C72.9461 52.5152 72.5964 52.1936 71.9171 52.214C71.3939 52.2297 70.7837 52.4064 70.0865 52.7439L69.4586 51.5552C70.2003 51.1382 71.03 50.9159 71.9475 50.8883C72.826 50.8618 73.5053 51.0329 73.9854 51.4014C74.4654 51.77 74.7172 52.3447 74.7407 53.1256L74.8719 57.4889L73.6245 57.5264ZM73.0061 54.5085L72.3157 54.5527C71.7969 54.5839 71.4131 54.6893 71.1645 54.8687C70.9159 55.0481 70.7969 55.3135 70.8074 55.665C70.8226 56.1686 71.1191 56.4118 71.697 56.3944C72.1108 56.3819 72.4372 56.2529 72.676 56.0074C72.9187 55.7617 73.0342 55.4416 73.0223 55.0473L73.0061 54.5085Z" fill="#034861"/>
<path d="M78.4301 56.1215C78.2508 56.9163 77.9353 57.8618 77.4837 58.9579L76.1952 58.9966C76.4178 57.9504 76.5855 56.9644 76.6983 56.0388L78.3382 55.9894L78.4301 56.1215Z" fill="#034861"/>
<path d="M85.9846 55.8708C86.4375 55.8571 86.7655 55.7183 86.9686 55.4543C87.1715 55.1863 87.273 54.728 87.2731 54.0793L87.2665 53.8626C87.2454 53.1597 87.1209 52.6594 86.8931 52.3614C86.6692 52.0633 86.3171 51.9215 85.8369 51.9359C84.9974 51.9612 84.5975 52.6337 84.6372 53.9534C84.657 54.6093 84.7752 55.0962 84.9919 55.4141C85.2124 55.7318 85.5433 55.884 85.9846 55.8708ZM85.3883 57.2897C84.6152 57.313 84.0011 57.0345 83.5459 56.4541C83.0906 55.8699 82.847 55.0468 82.8151 53.9848C82.7829 52.9149 82.9803 52.0727 83.4073 51.458C83.8383 50.8432 84.4422 50.5241 85.2192 50.5007C85.6331 50.4883 85.9966 50.5555 86.3098 50.7024C86.6229 50.8493 86.9016 51.0832 87.1457 51.4041L87.1925 51.4027L87.3255 50.5605L88.8365 50.515L89.1202 59.9443L87.328 59.9982L87.2454 57.2514C87.2382 57.0133 87.2537 56.6845 87.2919 56.2652L87.2158 56.2675C87.034 56.5895 86.7874 56.8373 86.4761 57.0108C86.1648 57.1843 85.8022 57.2773 85.3883 57.2897Z" fill="#034861"/>
<path d="M95.5403 56.8671L95.275 56.0368L95.1813 56.0396C94.9991 56.3499 94.7349 56.5943 94.3885 56.7728C94.0421 56.9473 93.6443 57.0413 93.1953 57.0549C92.4261 57.078 91.8401 56.8905 91.4374 56.4922C91.0345 56.0901 90.8214 55.5025 90.7981 54.7294L90.6697 50.4599L92.456 50.4061L92.571 54.2306C92.5852 54.703 92.6799 55.0558 92.8549 55.2889C93.0299 55.5181 93.3009 55.6272 93.6679 55.6162C94.1676 55.6011 94.5238 55.4243 94.7364 55.0857C94.9488 54.7433 95.0434 54.1855 95.0202 53.4124L94.9275 50.3318L96.7138 50.278L96.9108 56.8258L95.5403 56.8671Z" fill="#034861"/>
<path d="M101.334 51.288C100.955 51.2994 100.662 51.4293 100.455 51.6779C100.247 51.9225 100.135 52.2659 100.117 52.708L102.623 52.6326C102.602 52.1917 102.477 51.8554 102.247 51.624C102.017 51.3886 101.713 51.2766 101.334 51.288ZM101.752 56.7974C100.698 56.8291 99.8652 56.563 99.2542 55.9991C98.6432 55.4352 98.3217 54.6203 98.2896 53.5544C98.2566 52.4572 98.5044 51.6017 99.0331 50.9879C99.5655 50.37 100.316 50.0465 101.284 50.0174C102.21 49.9896 102.938 50.2315 103.469 50.7431C104 51.2547 104.28 51.9751 104.308 52.9044L104.334 53.7712L100.111 53.8982C100.146 54.4052 100.308 54.797 100.598 55.0735C100.888 55.3501 101.286 55.4808 101.794 55.4655C102.188 55.4536 102.56 55.4014 102.909 55.3088C103.258 55.2163 103.621 55.0744 103.998 54.8833L104.04 56.2655C103.732 56.4311 103.402 56.5563 103.049 56.6412C102.696 56.73 102.263 56.782 101.752 56.7974Z" fill="#034861"/>
<path d="M110.774 56.4088L108.987 56.4625L108.713 47.3495L110.5 47.2957L110.774 56.4088Z" fill="#034861"/>
<path d="M113.978 53.0238C113.998 53.6719 114.118 54.1588 114.339 54.4843C114.563 54.8097 114.916 54.9652 115.396 54.9508C115.872 54.9364 116.209 54.7622 116.406 54.428C116.607 54.0897 116.698 53.5946 116.678 52.9426C116.658 52.2944 116.538 51.8115 116.318 51.4937C116.097 51.176 115.747 51.0244 115.267 51.0388C114.79 51.0532 114.451 51.2255 114.25 51.5559C114.049 51.8825 113.958 52.3717 113.978 53.0238ZM118.505 52.8876C118.537 53.9535 118.281 54.7956 117.737 55.4138C117.193 56.032 116.419 56.3562 115.416 56.3864C114.787 56.4053 114.229 56.2853 113.74 56.0264C113.251 55.7637 112.871 55.3785 112.597 54.8708C112.324 54.3632 112.177 53.7658 112.157 53.0786C112.124 52.0088 112.379 51.1687 112.919 50.5584C113.46 49.9481 114.235 49.6278 115.247 49.5974C115.875 49.5785 116.434 49.6984 116.922 49.9573C117.411 50.2162 117.792 50.5975 118.065 51.1012C118.338 51.6049 118.485 52.2004 118.505 52.8876Z" fill="#034861"/>
<path d="M124.59 54.0469C124.61 54.7185 124.391 55.237 123.933 55.6025C123.479 55.9679 122.787 56.1646 121.858 56.1926C121.382 56.2069 120.975 56.1859 120.637 56.1296C120.299 56.0773 119.982 55.993 119.686 55.8769L119.641 54.401C119.978 54.5472 120.355 54.6668 120.772 54.7597C121.193 54.8526 121.561 54.8943 121.877 54.8847C122.526 54.8652 122.844 54.6681 122.833 54.2932C122.828 54.1527 122.782 54.0407 122.694 53.9574C122.605 53.8702 122.454 53.7751 122.24 53.6721C122.025 53.5652 121.74 53.4429 121.384 53.3051C120.874 53.1094 120.498 52.9253 120.254 52.7529C120.014 52.5803 119.836 52.3805 119.72 52.1535C119.608 51.9224 119.546 51.637 119.536 51.2973C119.519 50.7155 119.73 50.2597 120.169 49.93C120.612 49.5962 121.248 49.4168 122.076 49.3919C122.864 49.3682 123.637 49.5169 124.393 49.8381L123.893 51.1428C123.561 51.0121 123.251 50.9061 122.963 50.8249C122.675 50.7436 122.383 50.7075 122.086 50.7164C121.559 50.7323 121.3 50.8827 121.308 51.1677C121.313 51.3278 121.401 51.4639 121.573 51.576C121.748 51.688 122.126 51.8505 122.707 52.0636C123.225 52.2551 123.605 52.4371 123.849 52.6096C124.092 52.782 124.274 52.9837 124.395 53.2145C124.515 53.4454 124.58 53.7229 124.59 54.0469Z" fill="#034861"/>
<path d="M35.8178 74.7883C35.0487 74.8114 34.437 74.5504 33.9829 74.0052L33.8892 74.008C33.9681 74.5528 34.0089 74.8681 34.0115 74.954L34.0913 77.6071L32.305 77.6608L32.0213 68.2315L33.4738 68.1878L33.7512 69.0295L33.8332 69.027C34.2314 68.3663 34.8405 68.0236 35.6605 67.9989C36.4336 67.9757 37.0478 68.2561 37.503 68.8404C37.9583 69.4246 38.2019 70.2477 38.2339 71.3097C38.2549 72.0086 38.1697 72.6189 37.9783 73.1405C37.7907 73.662 37.5116 74.0632 37.141 74.344C36.7704 74.6248 36.3293 74.7729 35.8178 74.7883ZM35.1295 69.4452C34.6883 69.4585 34.3703 69.6048 34.1755 69.8843C33.9806 70.1598 33.8886 70.61 33.8996 71.235L33.9054 71.4282C33.9265 72.131 34.0452 72.6316 34.2613 72.9299C34.4813 73.2281 34.8177 73.3704 35.2706 73.3568C36.0711 73.3327 36.4514 72.6608 36.4117 71.3411C36.3923 70.6969 36.2783 70.2177 36.0695 69.9035C35.8645 69.5853 35.5512 69.4325 35.1295 69.4452Z" fill="#034861"/>
<path d="M43.2625 67.7702C43.5046 67.7629 43.7062 67.7744 43.8673 67.8048L43.783 69.4838C43.6374 69.4492 43.4611 69.4349 43.2542 69.4411C42.6841 69.4583 42.2434 69.6181 41.932 69.9206C41.6246 70.2229 41.4788 70.6376 41.4947 71.1648L41.5949 74.4972L39.8086 74.551L39.6116 68.0031L40.9645 67.9624L41.2612 69.0556L41.349 69.0529C41.541 68.6798 41.8055 68.3768 42.1424 68.1439C42.4831 67.907 42.8564 67.7824 43.2625 67.7702Z" fill="#034861"/>
<path d="M46.5797 71.0587C46.5992 71.7068 46.7194 72.1937 46.9402 72.5192C47.1649 72.8446 47.5174 73.0001 47.9977 72.9856C48.474 72.9713 48.8107 72.7971 49.0078 72.4628C49.2086 72.1246 49.2993 71.6295 49.2796 70.9774C49.2601 70.3293 49.1401 69.8464 48.9195 69.5286C48.6989 69.2109 48.3485 69.0593 47.8682 69.0737C47.3919 69.088 47.0532 69.2604 46.8521 69.5908C46.6509 69.9173 46.5601 70.4066 46.5797 71.0587ZM51.1069 70.9225C51.139 71.9884 50.883 72.8305 50.3388 73.4487C49.7947 74.0669 49.0209 74.3911 48.0174 74.4212C47.3888 74.4402 46.8302 74.3202 46.3418 74.0613C45.8532 73.7985 45.4723 73.4133 45.1991 72.9057C44.9259 72.3981 44.7789 71.8007 44.7583 71.1135C44.7261 70.0436 44.9802 69.2036 45.5207 68.5933C46.0612 67.983 46.8371 67.6627 47.8483 67.6322C48.477 67.6133 49.0355 67.7333 49.524 67.9922C50.0124 68.251 50.3932 68.6323 50.6663 69.1361C50.9394 69.6398 51.0863 70.2353 51.1069 70.9225Z" fill="#034861"/>
<path d="M56.1445 68.8482L54.5983 68.8947L54.755 74.1013L52.9687 74.1551L52.812 68.9484L51.8281 68.978L51.8022 68.1171L52.7717 67.6072L52.7572 67.127C52.7348 66.3812 52.9019 65.831 53.2586 65.4764C53.6153 65.1218 54.1977 64.9323 55.006 64.908C55.6229 64.8894 56.1742 64.9647 56.66 65.1337L56.2426 66.4594C55.88 66.3569 55.5464 66.3103 55.2419 66.3195C54.9881 66.3271 54.8069 66.4088 54.6982 66.5645C54.5895 66.7162 54.5386 66.9093 54.5456 67.1435L54.558 67.5535L56.1042 67.507L56.1445 68.8482Z" fill="#034861"/>
<path d="M59.8811 68.5423C59.5024 68.5537 59.2093 68.6837 59.0018 68.9322C58.7943 69.1768 58.6815 69.5202 58.6635 69.9624L61.1702 69.887C61.1491 69.446 61.0237 69.1098 60.794 68.8783C60.5642 68.6429 60.2599 68.5309 59.8811 68.5423ZM60.299 74.0518C59.2447 74.0835 58.4121 73.8174 57.8012 73.2535C57.1902 72.6896 56.8687 71.8746 56.8366 70.8087C56.8036 69.7116 57.0514 68.8561 57.5801 68.2422C58.1125 67.6244 58.8629 67.3009 59.8312 67.2717C60.7566 67.2439 61.4849 67.4858 62.0161 67.9974C62.5474 68.509 62.827 69.2294 62.8549 70.1587L62.881 71.0255L58.6583 71.1525C58.6931 71.6595 58.8553 72.0513 59.145 72.3279C59.4347 72.6044 59.8334 72.7351 60.341 72.7198C60.7353 72.708 61.107 72.6557 61.4559 72.5632C61.8048 72.4706 62.1679 72.3288 62.5451 72.1377L62.5867 73.5198C62.2791 73.6854 61.9487 73.8106 61.5956 73.8955C61.2427 73.9843 60.8104 74.0364 60.299 74.0518Z" fill="#034861"/>
<path d="M68.9283 71.7287C68.9485 72.4003 68.7296 72.9188 68.2717 73.2843C67.8176 73.6497 67.1259 73.8464 66.1967 73.8743C65.7203 73.8887 65.3133 73.8677 64.9755 73.8114C64.6378 73.7591 64.3207 73.6748 64.0241 73.5587L63.9797 72.0828C64.3163 72.229 64.6931 72.3485 65.1101 72.4415C65.5311 72.5344 65.8997 72.576 66.216 72.5665C66.8641 72.547 67.1825 72.3499 67.1713 71.975C67.167 71.8345 67.1207 71.7225 67.0322 71.6392C66.9436 71.552 66.7922 71.4569 66.5781 71.3539C66.3638 71.247 66.0788 71.1247 65.7229 70.9869C65.2129 70.7912 64.8361 70.6071 64.5925 70.4347C64.3528 70.2621 64.1749 70.0623 64.0586 69.8352C63.9462 69.6041 63.8848 69.3187 63.8746 68.9791C63.8571 68.3973 64.0681 67.9415 64.5076 67.6117C64.9509 67.278 65.5864 67.0986 66.4142 67.0737C67.2029 67.05 67.9753 67.1987 68.7313 67.5199L68.2313 68.8245C67.8991 68.6938 67.5891 68.5879 67.3014 68.5067C67.0137 68.4254 66.7214 68.3893 66.4247 68.3982C65.8976 68.4141 65.6383 68.5645 65.6469 68.8495C65.6517 69.0096 65.7398 69.1457 65.9112 69.2578C66.0866 69.3697 66.4647 69.5323 67.0456 69.7454C67.5633 69.9369 67.9439 70.1189 68.1875 70.2914C68.4311 70.4638 68.613 70.6655 68.7333 70.8963C68.8535 71.1272 68.9186 71.4047 68.9283 71.7287Z" fill="#034861"/>
<path d="M70.0567 65.3931C70.0392 64.8113 70.3545 64.5107 71.0026 64.4912C71.6508 64.4717 71.9836 64.7528 72.0011 65.3346C72.0094 65.6118 71.934 65.831 71.7747 65.9921C71.6192 66.1492 71.3794 66.2326 71.0553 66.2424C70.4072 66.2619 70.0743 65.9788 70.0567 65.3931ZM72.167 73.5775L70.3807 73.6312L70.1837 67.0834L71.97 67.0297L72.167 73.5775Z" fill="#034861"/>
<path d="M75.3714 70.1925C75.3909 70.8406 75.511 71.3275 75.7318 71.653C75.9566 71.9784 76.3091 72.1339 76.7893 72.1195C77.2657 72.1051 77.6024 71.9309 77.7994 71.5967C78.0003 71.2584 78.0909 70.7633 78.0713 70.1113C78.0518 69.4631 77.9318 68.9802 77.7112 68.6624C77.4906 68.3447 77.1402 68.1931 76.6599 68.2075C76.1836 68.2219 75.8448 68.3942 75.6437 68.7246C75.4425 69.0512 75.3517 69.5404 75.3714 70.1925ZM79.8986 70.0563C79.9307 71.1222 79.6746 71.9643 79.1305 72.5825C78.5863 73.2007 77.8125 73.5249 76.8091 73.5551C76.1804 73.574 75.6219 73.454 75.1334 73.1951C74.6448 72.9324 74.2639 72.5472 73.9907 72.0395C73.7175 71.5319 73.5706 70.9345 73.5499 70.2473C73.5177 69.1775 73.7719 68.3374 74.3124 67.7271C74.8529 67.1168 75.6287 66.7965 76.64 66.7661C77.2686 66.7472 77.8272 66.8671 78.3156 67.126C78.8041 67.3849 79.1849 67.7662 79.458 68.2699C79.7311 68.7736 79.8779 69.3691 79.8986 70.0563Z" fill="#034861"/>
<path d="M87.5175 73.1157L85.7312 73.1694L85.6161 69.345C85.6019 68.8725 85.5073 68.5217 85.3324 68.2925C85.1573 68.0594 84.8863 67.9483 84.5193 67.9594C84.0195 67.9744 83.6634 68.1531 83.4509 68.4956C83.2384 68.8342 83.1437 69.39 83.167 70.1631L83.2597 73.2438L81.4734 73.2975L81.2764 66.7497L82.641 66.7086L82.9063 67.5389L83.0059 67.5359C83.1955 67.2137 83.4616 66.9673 83.8043 66.7967C84.1508 66.6222 84.5466 66.5282 84.9917 66.5148C85.7531 66.4919 86.3371 66.6815 86.7439 67.0835C87.1506 67.4816 87.3657 68.0691 87.389 68.8461L87.5175 73.1157Z" fill="#034861"/>
<path d="M93.5148 72.9352L93.1424 72.0554L93.0956 72.0568C92.8063 72.4446 92.5039 72.7175 92.1882 72.8755C91.8762 73.0295 91.4645 73.1142 90.9531 73.1296C90.3244 73.1485 89.8232 72.9838 89.4492 72.6355C89.0792 72.2871 88.8842 71.781 88.8643 71.1172C88.8433 70.4222 89.07 69.9035 89.5443 69.5609C90.0224 69.2144 90.7509 69.0088 91.7299 68.9441L92.865 68.8748L92.8564 68.5878C92.8364 67.9241 92.4868 67.6024 91.8074 67.6229C91.2842 67.6386 90.674 67.8152 89.9768 68.1528L89.349 66.9641C90.0907 66.547 90.9203 66.3247 91.8378 66.2971C92.7164 66.2707 93.3956 66.4417 93.8757 66.8103C94.3557 67.1788 94.6075 67.7536 94.631 68.5345L94.7623 72.8977L93.5148 72.9352ZM92.8964 69.9173L92.206 69.9615C91.6872 69.9928 91.3035 70.0981 91.0548 70.2775C90.8062 70.457 90.6872 70.7224 90.6978 71.0738C90.7129 71.5775 91.0094 71.8206 91.5873 71.8032C92.0012 71.7908 92.3275 71.6618 92.5663 71.4162C92.809 71.1705 92.9245 70.8505 92.9126 70.4561L92.8964 69.9173Z" fill="#034861"/>
<path d="M98.3934 72.7885L96.6071 72.8422L96.333 63.7291L98.1193 63.6754L98.3934 72.7885Z" fill="#034861"/>
<path d="M102.823 67.2504C102.444 67.2618 102.151 67.3918 101.943 67.6403C101.736 67.885 101.623 68.2284 101.605 68.6705L104.112 68.5951C104.091 68.1541 103.965 67.8179 103.736 67.5864C103.506 67.351 103.201 67.239 102.823 67.2504ZM103.24 72.7599C102.186 72.7916 101.354 72.5255 100.743 71.9616C100.132 71.3977 99.8102 70.5828 99.7781 69.5168C99.7451 68.4197 99.9929 67.5642 100.522 66.9504C101.054 66.3325 101.804 66.009 102.773 65.9799C103.698 65.952 104.426 66.1939 104.958 66.7055C105.489 67.2171 105.768 67.9375 105.796 68.8668L105.823 69.7336L101.6 69.8607C101.635 70.3676 101.797 70.7594 102.087 71.036C102.376 71.3126 102.775 71.4432 103.282 71.4279C103.677 71.4161 104.048 71.3639 104.397 71.2713C104.746 71.1787 105.109 71.0369 105.487 70.8458L105.528 72.228C105.221 72.3935 104.89 72.5188 104.537 72.6036C104.184 72.6924 103.752 72.7445 103.24 72.7599Z" fill="#034861"/>
<path d="M111.87 70.4368C111.89 71.1084 111.671 71.627 111.213 71.9925C110.759 72.3578 110.067 72.5545 109.138 72.5825C108.662 72.5968 108.255 72.5758 107.917 72.5195C107.579 72.4672 107.262 72.3829 106.966 72.2668L106.921 70.7909C107.258 70.9371 107.635 71.0567 108.052 71.1496C108.473 71.2425 108.841 71.2842 109.157 71.2747C109.806 71.2552 110.124 71.058 110.113 70.6832C110.109 70.5426 110.062 70.4307 109.974 70.3473C109.885 70.2601 109.734 70.165 109.52 70.062C109.305 69.9552 109.02 69.8328 108.664 69.695C108.154 69.4993 107.778 69.3153 107.534 69.1428C107.294 68.9703 107.116 68.7704 107 68.5434C106.888 68.3123 106.826 68.0269 106.816 67.6872C106.799 67.1054 107.01 66.6496 107.449 66.3199C107.892 65.9861 108.528 65.8067 109.356 65.7818C110.144 65.7581 110.917 65.9068 111.673 66.228L111.173 67.5327C110.841 67.402 110.531 67.296 110.243 67.2148C109.955 67.1336 109.663 67.0974 109.366 67.1063C108.839 67.1222 108.58 67.2726 108.588 67.5577C108.593 67.7177 108.681 67.8538 108.853 67.9659C109.028 68.0779 109.406 68.2404 109.987 68.4535C110.505 68.6451 110.885 68.8271 111.129 68.9995C111.373 69.1719 111.555 69.3736 111.675 69.6044C111.795 69.8353 111.86 70.1128 111.87 70.4368Z" fill="#034861"/>
<path d="M122.482 72.0638L120.696 72.1175L120.581 68.2931C120.567 67.8206 120.472 67.4698 120.297 67.2406C120.122 67.0075 119.851 66.8964 119.484 66.9075C118.984 66.9225 118.628 67.1013 118.416 67.4437C118.203 67.7823 118.108 68.3381 118.132 69.1112L118.224 72.1919L116.438 72.2456L116.241 65.6978L117.606 65.6567L117.871 66.487L117.971 66.484C118.16 66.1618 118.426 65.9154 118.769 65.7448C119.115 65.5703 119.511 65.4763 119.956 65.4629C120.718 65.44 121.302 65.6296 121.709 66.0316C122.115 66.4297 122.33 67.0172 122.354 67.7942L122.482 72.0638Z" fill="#034861"/>
<path d="M125.645 68.68C125.665 69.3282 125.785 69.815 126.006 70.1405C126.231 70.466 126.583 70.6214 127.063 70.607C127.54 70.5927 127.877 70.4184 128.074 70.0842C128.274 69.746 128.365 69.2508 128.345 68.5988C128.326 67.9506 128.206 67.4677 127.985 67.15C127.765 66.8322 127.414 66.6806 126.934 66.6951C126.458 66.7094 126.119 66.8818 125.918 67.2122C125.717 67.5387 125.626 68.028 125.645 68.68ZM130.173 68.5438C130.205 69.6097 129.949 70.4518 129.405 71.07C128.86 71.6882 128.087 72.0124 127.083 72.0426C126.455 72.0615 125.896 71.9415 125.408 71.6827C124.919 71.4199 124.538 71.0347 124.265 70.5271C123.992 70.0194 123.845 69.422 123.824 68.7348C123.792 67.665 124.046 66.8249 124.587 66.2146C125.127 65.6044 125.903 65.284 126.914 65.2536C127.543 65.2347 128.101 65.3547 128.59 65.6135C129.078 65.8724 129.459 66.2537 129.732 66.7574C130.005 67.2612 130.152 67.8566 130.173 68.5438Z" fill="#034861"/>
<path d="M139.373 69.6094C139.393 70.281 139.174 70.7995 138.716 71.165C138.262 71.5304 137.571 71.7271 136.641 71.755C136.165 71.7694 135.758 71.7484 135.42 71.6921C135.083 71.6398 134.765 71.5555 134.469 71.4394L134.424 69.9635C134.761 70.1097 135.138 70.2293 135.555 70.3222C135.976 70.4151 136.344 70.4567 136.661 70.4472C137.309 70.4277 137.627 70.2306 137.616 69.8557C137.612 69.7152 137.565 69.6032 137.477 69.5199C137.388 69.4327 137.237 69.3376 137.023 69.2346C136.809 69.1277 136.523 69.0054 136.168 68.8676C135.658 68.6719 135.281 68.4878 135.037 68.3154C134.798 68.1428 134.62 67.943 134.503 67.7159C134.391 67.4848 134.329 67.1995 134.319 66.8598C134.302 66.278 134.513 65.8222 134.952 65.4925C135.396 65.1587 136.031 64.9793 136.859 64.9544C137.648 64.9307 138.42 65.0794 139.176 65.4006L138.676 66.7052C138.344 66.5746 138.034 66.4686 137.746 66.3874C137.458 66.3061 137.166 66.27 136.869 66.2789C136.342 66.2948 136.083 66.4452 136.092 66.7302C136.096 66.8903 136.185 67.0264 136.356 67.1385C136.531 67.2505 136.909 67.413 137.49 67.6261C138.008 67.8176 138.389 67.9996 138.632 68.1721C138.876 68.3445 139.058 68.5462 139.178 68.777C139.298 69.0079 139.363 69.2854 139.373 69.6094Z" fill="#034861"/>
<path d="M143.375 66.0304C142.996 66.0418 142.703 66.1718 142.495 66.4203C142.288 66.665 142.175 67.0084 142.157 67.4505L144.664 67.3751C144.643 66.9341 144.517 66.5979 144.287 66.3664C144.058 66.131 143.753 66.0191 143.375 66.0304ZM143.792 71.5399C142.738 71.5716 141.906 71.3055 141.295 70.7416C140.684 70.1777 140.362 69.3628 140.33 68.2969C140.297 67.1997 140.545 66.3442 141.074 65.7304C141.606 65.1125 142.356 64.789 143.325 64.7599C144.25 64.7321 144.978 64.9739 145.51 65.4855C146.041 65.9971 146.32 66.7176 146.348 67.6468L146.374 68.5136L142.152 68.6407C142.187 69.1477 142.349 69.5394 142.639 69.816C142.928 70.0926 143.327 70.2232 143.834 70.208C144.229 70.1961 144.6 70.1439 144.949 70.0513C145.298 69.9588 145.661 69.8169 146.039 69.6258L146.08 71.008C145.773 71.1736 145.442 71.2988 145.089 71.3837C144.736 71.4724 144.304 71.5245 143.792 71.5399Z" fill="#034861"/>
<path d="M36.299 90.781C35.5298 90.8042 34.9182 90.5432 34.4641 89.998L34.3703 90.0008C34.4493 90.5455 34.49 90.8609 34.4926 90.9468L34.5724 93.5998L32.7861 93.6536L32.5024 84.2243L33.9549 84.1806L34.2323 85.0222L34.3143 85.0197C34.7126 84.359 35.3217 84.0163 36.1416 83.9917C36.9147 83.9684 37.5289 84.2489 37.9842 84.8331C38.4394 85.4174 38.683 86.2405 38.715 87.3025C38.736 88.0014 38.6508 88.6117 38.4594 89.1333C38.2719 89.6548 37.9928 90.0559 37.6222 90.3367C37.2515 90.6175 36.8105 90.7656 36.299 90.781ZM35.6107 85.438C35.1694 85.4513 34.8514 85.5976 34.6566 85.877C34.4617 86.1525 34.3697 86.6028 34.3807 87.2277L34.3865 87.421C34.4077 88.1238 34.5263 88.6244 34.7424 88.9227C34.9624 89.2209 35.2989 89.3632 35.7518 89.3496C36.5522 89.3255 36.9326 88.6536 36.8929 87.3339C36.8735 86.6896 36.7594 86.2104 36.5506 85.8963C36.3457 85.5781 36.0323 85.4253 35.6107 85.438Z" fill="#034861"/>
<path d="M41.6141 87.2153C41.6336 87.8634 41.7537 88.3503 41.9746 88.6758C42.1993 89.0012 42.5518 89.1567 43.032 89.1423C43.5084 89.1279 43.8451 88.9537 44.0422 88.6195C44.243 88.2813 44.3336 87.7861 44.314 87.1341C44.2945 86.4859 44.1745 86.003 43.9539 85.6853C43.7333 85.3675 43.3829 85.2159 42.9026 85.2303C42.4263 85.2447 42.0876 85.417 41.8865 85.7475C41.6853 86.074 41.5945 86.5632 41.6141 87.2153ZM46.1413 87.0791C46.1734 88.145 45.9173 88.9871 45.3732 89.6053C44.829 90.2235 44.0552 90.5477 43.0518 90.5779C42.4232 90.5968 41.8646 90.4768 41.3761 90.2179C40.8875 89.9552 40.5066 89.57 40.2334 89.0623C39.9602 88.5547 39.8133 87.9573 39.7926 87.2701C39.7605 86.2003 40.0146 85.3602 40.5551 84.7499C41.0956 84.1396 41.8714 83.8193 42.8827 83.7889C43.5113 83.77 44.0699 83.8899 44.5584 84.1488C45.0468 84.4077 45.4276 84.789 45.7007 85.2927C45.9738 85.7964 46.1207 86.3919 46.1413 87.0791Z" fill="#034861"/>
<path d="M52.2258 88.2384C52.246 88.91 52.0271 89.4286 51.5692 89.7941C51.1151 90.1594 50.4234 90.3561 49.4942 90.3841C49.0178 90.3984 48.6108 90.3774 48.273 90.3211C47.9353 90.2688 47.6182 90.1845 47.3216 90.0684L47.2772 88.5925C47.6138 88.7387 47.9906 88.8583 48.4076 88.9512C48.8286 89.0441 49.1972 89.0858 49.5135 89.0762C50.1616 89.0567 50.48 88.8596 50.4688 88.4848C50.4645 88.3442 50.4182 88.2323 50.3297 88.1489C50.2411 88.0617 50.0897 87.9666 49.8756 87.8636C49.6613 87.7568 49.3763 87.6344 49.0204 87.4966C48.5104 87.3009 48.1336 87.1169 47.89 86.9444C47.6503 86.7719 47.4724 86.572 47.3561 86.345C47.2437 86.1139 47.1823 85.8285 47.1721 85.4888C47.1546 84.907 47.3656 84.4512 47.8051 84.1215C48.2484 83.7877 48.8839 83.6083 49.7117 83.5834C50.5004 83.5597 51.2728 83.7084 52.0289 84.0296L51.5288 85.3343C51.1966 85.2036 50.8866 85.0976 50.5989 85.0164C50.3112 84.9352 50.0189 84.899 49.7222 84.9079C49.1951 84.9238 48.9358 85.0742 48.9444 85.3593C48.9492 85.5193 49.0373 85.6554 49.2087 85.7675C49.3841 85.8795 49.7622 86.042 50.3431 86.2551C50.8608 86.4467 51.2414 86.6287 51.485 86.8011C51.7286 86.9735 51.9105 87.1752 52.0308 87.406C52.1511 87.6369 52.2161 87.9144 52.2258 88.2384Z" fill="#034861"/>
<path d="M56.3974 88.7519C56.7098 88.7425 57.0826 88.6629 57.5158 88.5131L57.5558 89.8426C57.1166 90.0551 56.573 90.1711 55.9249 90.1906C55.2103 90.2121 54.6837 90.0482 54.3449 89.6988C54.0099 89.3455 53.8315 88.8076 53.8098 88.0853L53.7148 84.9285L52.8598 84.9542L52.837 84.1987L53.803 83.5717L54.2768 82.174L55.4189 82.1397L55.4608 83.5336L57.294 83.4784L57.3343 84.8196L55.5011 84.8748L55.5961 88.0315C55.6038 88.2853 55.6797 88.4706 55.8239 88.5874C55.972 88.7041 56.1632 88.759 56.3974 88.7519Z" fill="#034861"/>
<path d="M63.5292 89.8446L63.2639 89.0143L63.1702 89.0171C62.988 89.3274 62.7238 89.5718 62.3774 89.7503C62.031 89.9248 61.6332 90.0189 61.1842 90.0324C60.415 90.0555 59.829 89.868 59.4263 89.4697C59.0234 89.0676 58.8103 88.48 58.787 87.7069L58.6586 83.4374L60.4449 83.3836L60.5599 87.2081C60.5741 87.6805 60.6688 88.0333 60.8438 88.2664C61.0188 88.4956 61.2898 88.6047 61.6568 88.5937C62.1566 88.5786 62.5127 88.4018 62.7253 88.0633C62.9377 87.7208 63.0323 87.163 63.0091 86.3899L62.9164 83.3093L64.7027 83.2555L64.8997 89.8034L63.5292 89.8446Z" fill="#034861"/>
<path d="M68.5602 89.6932L66.7739 89.747L66.4997 80.6339L68.286 80.5802L68.5602 89.6932Z" fill="#034861"/>
<path d="M74.5984 89.5116L74.2261 88.6317L74.1793 88.6332C73.89 89.0209 73.5875 89.2938 73.2718 89.4518C72.9599 89.6058 72.5482 89.6905 72.0367 89.7059C71.4081 89.7248 70.9068 89.5601 70.5329 89.2118C70.1629 88.8634 69.9679 88.3573 69.9479 87.6936C69.927 86.9986 70.1537 86.4798 70.628 86.1373C71.1061 85.7907 71.8346 85.5851 72.8135 85.5205L73.9487 85.4511L73.9401 85.1642C73.9201 84.5004 73.5704 84.1787 72.891 84.1992C72.3678 84.2149 71.7576 84.3916 71.0604 84.7291L70.4326 83.5404C71.1743 83.1234 72.0039 82.9011 72.9215 82.8735C73.8 82.847 74.4793 83.0181 74.9593 83.3866C75.4394 83.7552 75.6912 84.3299 75.7147 85.1108L75.8459 89.474L74.5984 89.5116ZM73.9801 86.4936L73.2897 86.5379C72.7708 86.5691 72.3871 86.6744 72.1385 86.8539C71.8899 87.0333 71.7709 87.2987 71.7814 87.6501C71.7966 88.1538 72.0931 88.3969 72.6709 88.3796C73.0848 88.3671 73.4112 88.2381 73.65 87.9925C73.8927 87.7468 74.0081 87.4268 73.9963 87.0325L73.9801 86.4936Z" fill="#034861"/>
<path d="M83.7349 89.2367L81.9486 89.2904L81.8336 85.466C81.8194 84.9936 81.7248 84.6427 81.5498 84.4135C81.3748 84.1804 81.1037 84.0693 80.7367 84.0804C80.2369 84.0954 79.8808 84.2742 79.6684 84.6167C79.4558 84.9552 79.3612 85.5111 79.3844 86.2842L79.4771 89.3648L77.6908 89.4185L77.4938 82.8707L78.8584 82.8297L79.1237 83.66L79.2233 83.657C79.4129 83.3347 79.6791 83.0883 80.0217 82.9178C80.3682 82.7432 80.764 82.6492 81.2091 82.6358C81.9705 82.6129 82.5546 82.8025 82.9614 83.2045C83.3681 83.6026 83.5831 84.1902 83.6065 84.9672L83.7349 89.2367Z" fill="#034861"/>
<path d="M87.2872 87.8695C87.1079 88.6643 86.7924 89.6098 86.3408 90.7059L85.0524 90.7446C85.2749 89.6984 85.4426 88.7125 85.5554 87.7868L87.1953 87.7374L87.2872 87.8695Z" fill="#034861"/>
<path d="M95.7682 88.9919C94.999 89.0151 94.3873 88.7541 93.9332 88.2089L93.8395 88.2117C93.9185 88.7564 93.9592 89.0718 93.9618 89.1577L94.0416 91.8107L92.2553 91.8645L91.9716 82.4352L93.4241 82.3915L93.7015 83.2331L93.7835 83.2306C94.1818 82.5699 94.7909 82.2272 95.6108 82.2026C96.3839 82.1793 96.9981 82.4598 97.4534 83.044C97.9086 83.6283 98.1522 84.4514 98.1842 85.5134C98.2052 86.2123 98.12 86.8226 97.9286 87.3442C97.7411 87.8657 97.462 88.2668 97.0913 88.5476C96.7207 88.8284 96.2797 88.9765 95.7682 88.9919ZM95.0798 83.6489C94.6386 83.6622 94.3206 83.8085 94.1258 84.0879C93.9309 84.3634 93.8389 84.8137 93.8499 85.4386L93.8557 85.6319C93.8769 86.3347 93.9955 86.8353 94.2116 87.1336C94.4316 87.4318 94.768 87.5741 95.221 87.5605C96.0214 87.5364 96.4017 86.8645 96.362 85.5448C96.3427 84.9005 96.2286 84.4213 96.0198 84.1072C95.8149 83.789 95.5015 83.6362 95.0798 83.6489Z" fill="#034861"/>
<path d="M101.083 85.4262C101.103 86.0743 101.223 86.5612 101.444 86.8867C101.668 87.2121 102.021 87.3676 102.501 87.3532C102.978 87.3388 103.314 87.1646 103.511 86.8304C103.712 86.4922 103.803 85.997 103.783 85.345C103.764 84.6968 103.644 84.2139 103.423 83.8962C103.202 83.5784 102.852 83.4268 102.372 83.4412C101.895 83.4556 101.557 83.6279 101.356 83.9584C101.154 84.2849 101.064 84.7741 101.083 85.4262ZM105.611 85.29C105.643 86.3559 105.387 87.198 104.842 87.8162C104.298 88.4344 103.524 88.7586 102.521 88.7888C101.892 88.8077 101.334 88.6877 100.845 88.4288C100.357 88.1661 99.9758 87.7809 99.7026 87.2732C99.4294 86.7656 99.2825 86.1682 99.2618 85.481C99.2296 84.4112 99.4838 83.5711 100.024 82.9608C100.565 82.3505 101.341 82.0302 102.352 81.9998C102.981 81.9809 103.539 82.1008 104.028 82.3597C104.516 82.6186 104.897 82.9999 105.17 83.5036C105.443 84.0073 105.59 84.6028 105.611 85.29Z" fill="#034861"/>
<path d="M110.639 81.7505C110.881 81.7432 111.083 81.7547 111.244 81.785L111.16 83.4641C111.014 83.4294 110.838 83.4152 110.631 83.4214C110.061 83.4385 109.62 83.5983 109.309 83.9008C109.001 84.2032 108.855 84.6179 108.871 85.145L108.972 88.4775L107.185 88.5312L106.988 81.9834L108.341 81.9427L108.638 83.0358L108.726 83.0332C108.918 82.6601 109.182 82.357 109.519 82.1242C109.86 81.8872 110.233 81.7627 110.639 81.7505Z" fill="#034861"/>
<path d="M118.421 86.9094C118.874 86.8958 119.202 86.757 119.405 86.4929C119.608 86.225 119.709 85.7666 119.709 85.1179L119.703 84.9012C119.682 84.1984 119.557 83.698 119.329 83.4C119.106 83.1019 118.753 82.9601 118.273 82.9746C117.434 82.9998 117.034 83.6723 117.074 84.992C117.093 85.648 117.211 86.1349 117.428 86.4527C117.649 86.7705 117.98 86.9227 118.421 86.9094ZM117.825 88.3284C117.052 88.3516 116.437 88.0731 115.982 87.4928C115.527 86.9085 115.283 86.0854 115.251 85.0234C115.219 83.9536 115.417 83.1113 115.844 82.4966C116.275 81.8818 116.879 81.5627 117.656 81.5394C118.069 81.5269 118.433 81.5941 118.746 81.741C119.059 81.8879 119.338 82.1219 119.582 82.4428L119.629 82.4414L119.762 81.5991L121.273 81.5536L121.556 90.983L119.764 91.0369L119.682 88.2901C119.675 88.0519 119.69 87.7232 119.728 87.3039L119.652 87.3062C119.47 87.6282 119.224 87.8759 118.912 88.0494C118.601 88.2229 118.238 88.3159 117.825 88.3284Z" fill="#034861"/>
<path d="M127.977 87.9057L127.711 87.0754L127.618 87.0782C127.435 87.3886 127.171 87.6329 126.825 87.8114C126.478 87.986 126.081 88.08 125.632 88.0935C124.862 88.1166 124.276 87.9291 123.874 87.5309C123.471 87.1287 123.258 86.5411 123.234 85.7681L123.106 81.4985L124.892 81.4448L125.007 85.2692C125.022 85.7416 125.116 86.0944 125.291 86.3275C125.466 86.5568 125.737 86.6659 126.104 86.6548C126.604 86.6398 126.96 86.463 127.173 86.1244C127.385 85.7819 127.48 85.2241 127.456 84.451L127.364 81.3704L129.15 81.3167L129.347 87.8645L127.977 87.9057Z" fill="#034861"/>
<path d="M133.77 82.3266C133.392 82.338 133.099 82.468 132.891 82.7165C132.684 82.9612 132.571 83.3045 132.553 83.7467L135.06 83.6713C135.038 83.2303 134.913 82.8941 134.683 82.6626C134.453 82.4272 134.149 82.3152 133.77 82.3266ZM134.188 87.8361C133.134 87.8678 132.301 87.6017 131.69 87.0378C131.08 86.4739 130.758 85.659 130.726 84.593C130.693 83.4959 130.941 82.6404 131.469 82.0265C132.002 81.4087 132.752 81.0852 133.721 81.0561C134.646 81.0282 135.374 81.2701 135.905 81.7817C136.437 82.2933 136.716 83.0137 136.744 83.943L136.77 84.8098L132.548 84.9368C132.582 85.4438 132.745 85.8356 133.034 86.1122C133.324 86.3888 133.723 86.5194 134.23 86.5041C134.625 86.4923 134.996 86.4401 135.345 86.3475C135.694 86.2549 136.057 86.1131 136.434 85.922L136.476 87.3042C136.168 87.4697 135.838 87.595 135.485 87.6798C135.132 87.7686 134.7 87.8207 134.188 87.8361Z" fill="#034861"/>
<path d="M147.468 87.3193L145.682 87.3731L145.566 83.5486C145.552 83.0762 145.458 82.7254 145.283 82.4961C145.108 82.263 144.837 82.152 144.47 82.163C143.97 82.1781 143.614 82.3568 143.401 82.6993C143.189 83.0379 143.094 83.5937 143.117 84.3668L143.21 87.4474L141.424 87.5012L141.227 80.9534L142.591 80.9123L142.857 81.7426L142.956 81.7396C143.146 81.4173 143.412 81.1709 143.755 81.0004C144.101 80.8258 144.497 80.7319 144.942 80.7185C145.703 80.6956 146.287 80.8851 146.694 81.2871C147.101 81.6852 147.316 82.2728 147.339 83.0498L147.468 87.3193Z" fill="#034861"/>
<path d="M150.631 83.9356C150.651 84.5837 150.771 85.0706 150.992 85.3961C151.216 85.7215 151.569 85.877 152.049 85.8626C152.525 85.8482 152.862 85.674 153.059 85.3398C153.26 85.0015 153.351 84.5064 153.331 83.8543C153.312 83.2062 153.192 82.7233 152.971 82.4055C152.75 82.0878 152.4 81.9362 151.92 81.9506C151.443 81.9649 151.105 82.1373 150.904 82.4677C150.702 82.7942 150.612 83.2835 150.631 83.9356ZM155.158 83.7994C155.19 84.8653 154.934 85.7074 154.39 86.3256C153.846 86.9438 153.072 87.268 152.069 87.2982C151.44 87.3171 150.882 87.1971 150.393 86.9382C149.905 86.6754 149.524 86.2902 149.251 85.7826C148.977 85.275 148.83 84.6776 148.81 83.9904C148.778 82.9205 149.032 82.0805 149.572 81.4702C150.113 80.8599 150.889 80.5396 151.9 80.5092C152.528 80.4902 153.087 80.6102 153.575 80.8691C154.064 81.1279 154.445 81.5092 154.718 82.013C154.991 82.5167 155.138 83.1122 155.158 83.7994Z" fill="#034861"/>
<path d="M165.893 86.765L164.107 86.8188L163.992 82.9943C163.963 82.0494 163.598 81.5876 162.895 81.6087C162.395 81.6237 162.039 81.8045 161.827 82.1508C161.614 82.4972 161.52 83.0511 161.543 83.8125L161.635 86.8931L159.849 86.9469L159.575 77.8338L161.361 77.78L161.417 79.6366C161.421 79.7811 161.418 80.1212 161.407 80.6569L161.381 81.1853L161.475 81.1825C161.854 80.5301 162.477 80.1909 163.344 80.1649C164.113 80.1417 164.703 80.3311 165.114 80.733C165.524 81.1349 165.741 81.7224 165.765 82.4955L165.893 86.765Z" fill="#034861"/>
<path d="M171.89 86.5846L171.518 85.7048L171.471 85.7062C171.182 86.094 170.879 86.3668 170.564 86.5248C170.252 86.6788 169.84 86.7635 169.329 86.7789C168.7 86.7978 168.199 86.6331 167.825 86.2848C167.455 85.9364 167.26 85.4303 167.24 84.7666C167.219 84.0716 167.446 83.5528 167.92 83.2103C168.398 82.8637 169.126 82.6581 170.105 82.5935L171.241 82.5242L171.232 82.2372C171.212 81.5734 170.862 81.2518 170.183 81.2722C169.66 81.2879 169.05 81.4646 168.352 81.8021L167.725 80.6134C168.466 80.1964 169.296 79.9741 170.213 79.9465C171.092 79.92 171.771 80.0911 172.251 80.4596C172.731 80.8282 172.983 81.4029 173.007 82.1838L173.138 86.5471L171.89 86.5846ZM171.272 83.5667L170.582 83.6109C170.063 83.6421 169.679 83.7475 169.43 83.9269C169.182 84.1063 169.063 84.3717 169.073 84.7231C169.089 85.2268 169.385 85.47 169.963 85.4526C170.377 85.4401 170.703 85.3111 170.942 85.0656C171.185 84.8199 171.3 84.4998 171.288 84.1055L171.272 83.5667Z" fill="#034861"/>
<path d="M177.645 86.5287C175.607 86.59 174.554 85.502 174.487 83.2648C174.454 82.152 174.705 81.2944 175.242 80.6921C175.779 80.0858 176.564 79.7671 177.599 79.736C178.357 79.7132 179.04 79.8411 179.651 80.1198L179.165 81.5178C178.881 81.4131 178.616 81.3292 178.372 81.2662C178.128 81.1993 177.885 81.1695 177.642 81.1768C176.713 81.2047 176.268 81.8785 176.308 83.1983C176.347 84.4789 176.831 85.1053 177.76 85.0773C178.103 85.067 178.42 85.0125 178.71 84.9139C179 84.8114 179.289 84.6581 179.576 84.4541L179.622 85.9827C179.338 86.1749 179.049 86.3106 178.755 86.3898C178.464 86.4689 178.094 86.5152 177.645 86.5287Z" fill="#034861"/>
<path d="M183.705 80.8244C183.326 80.8358 183.033 80.9657 182.826 81.2143C182.618 81.4589 182.505 81.8023 182.487 82.2444L184.994 82.169C184.973 81.7281 184.847 81.3918 184.618 81.1604C184.388 80.925 184.084 80.813 183.705 80.8244ZM184.123 86.3338C183.069 86.3655 182.236 86.0994 181.625 85.5355C181.014 84.9716 180.692 84.1567 180.66 83.0908C180.627 81.9936 180.875 81.1381 181.404 80.5243C181.936 79.9064 182.687 79.5829 183.655 79.5538C184.58 79.526 185.309 79.7679 185.84 80.2795C186.371 80.7911 186.651 81.5115 186.679 82.4408L186.705 83.3076L182.482 83.4346C182.517 83.9416 182.679 84.3334 182.969 84.6099C183.258 84.8865 183.657 85.0172 184.165 85.0019C184.559 84.99 184.931 84.9378 185.28 84.8452C185.629 84.7527 185.992 84.6108 186.369 84.4197L186.41 85.8019C186.103 85.9675 185.772 86.0927 185.419 86.1776C185.066 86.2664 184.634 86.3184 184.123 86.3338Z" fill="#034861"/>
<path d="M194.286 85.9108L192.5 85.9646L192.385 82.1401C192.371 81.6677 192.276 81.3168 192.101 81.0876C191.926 80.8545 191.655 80.7435 191.288 80.7545C190.788 80.7695 190.432 80.9483 190.22 81.2908C190.007 81.6294 189.913 82.1852 189.936 82.9583L190.029 86.0389L188.242 86.0927L188.045 79.5448L189.41 79.5038L189.675 80.3341L189.775 80.3311C189.964 80.0088 190.231 79.7624 190.573 79.5919C190.92 79.4173 191.316 79.3233 191.761 79.31C192.522 79.2871 193.106 79.4766 193.513 79.8786C193.92 80.2767 194.135 80.8643 194.158 81.6413L194.286 85.9108Z" fill="#034861"/>
<path d="M39.0431 106.588L37.2568 106.642L37.1418 102.818C37.1276 102.345 37.0369 101.994 36.8698 101.765C36.7064 101.531 36.4549 101.42 36.1152 101.43C35.6584 101.444 35.3316 101.622 35.1347 101.964C34.9379 102.306 34.851 102.861 34.8742 103.63L34.9669 106.711L33.1806 106.765L32.9836 100.217L34.3482 100.176L34.6135 101.006L34.7131 101.003C34.8797 100.697 35.1265 100.455 35.4533 100.278C35.78 100.096 36.1581 99.9984 36.5876 99.9855C37.5676 99.956 38.241 100.256 38.6078 100.886L38.7659 100.881C38.9325 100.572 39.1831 100.328 39.5177 100.149C39.8562 99.9712 40.2403 99.8756 40.6698 99.8627C41.4116 99.8404 41.9777 100.015 42.3679 100.386C42.7619 100.753 42.9716 101.357 42.9968 102.196L43.1253 106.466L41.3331 106.52L41.2181 102.695C41.2038 102.223 41.1132 101.872 40.946 101.642C40.7827 101.409 40.5312 101.297 40.1915 101.307C39.7542 101.321 39.4309 101.487 39.2217 101.806C39.0163 102.124 38.9239 102.623 38.9443 103.303L39.0431 106.588Z" fill="#034861"/>
<path d="M49.1226 106.285L48.7502 105.405L48.7034 105.407C48.4141 105.795 48.1117 106.067 47.7959 106.225C47.484 106.379 47.0723 106.464 46.5608 106.48C45.9322 106.498 45.4309 106.334 45.057 105.985C44.687 105.637 44.492 105.131 44.472 104.467C44.4511 103.772 44.6778 103.253 45.1521 102.911C45.6302 102.564 46.3587 102.359 47.3377 102.294L48.4728 102.225L48.4642 101.938C48.4442 101.274 48.0945 100.952 47.4152 100.973C46.892 100.989 46.2818 101.165 45.5846 101.503L44.9567 100.314C45.6984 99.897 46.5281 99.6747 47.4456 99.6471C48.3241 99.6207 49.0034 99.7917 49.4835 100.16C49.9635 100.529 50.2153 101.104 50.2388 101.884L50.37 106.248L49.1226 106.285ZM48.5042 103.267L47.8138 103.312C47.295 103.343 46.9112 103.448 46.6626 103.628C46.414 103.807 46.295 104.072 46.3055 104.424C46.3207 104.927 46.6172 105.171 47.1951 105.153C47.6089 105.141 47.9353 105.012 48.1741 104.766C48.4168 104.521 48.5323 104.2 48.5204 103.806L48.5042 103.267Z" fill="#034861"/>
<path d="M54.9341 104.803C55.2465 104.794 55.6193 104.714 56.0525 104.564L56.0925 105.894C55.6533 106.106 55.1097 106.222 54.4616 106.242C53.747 106.263 53.2204 106.099 52.8816 105.75C52.5466 105.397 52.3682 104.859 52.3465 104.137L52.2515 100.98L51.3965 101.005L51.3737 100.25L52.3397 99.623L52.8135 98.2253L53.9556 98.1909L53.9975 99.5848L55.8307 99.5297L55.871 100.871L54.0378 100.926L54.1328 104.083C54.1405 104.337 54.2164 104.522 54.3606 104.639C54.5087 104.755 54.6999 104.81 54.9341 104.803Z" fill="#034861"/>
<path d="M60.0899 106.073C58.0517 106.134 56.999 105.046 56.9317 102.809C56.8982 101.696 57.1499 100.838 57.6867 100.236C58.2234 99.6297 59.0091 99.311 60.0438 99.2798C60.8013 99.257 61.4851 99.385 62.0953 99.6636L61.6098 101.062C61.3253 100.957 61.0609 100.873 60.8167 100.81C60.5724 100.743 60.3292 100.713 60.0871 100.721C59.1579 100.749 58.7131 101.422 58.7528 102.742C58.7913 104.023 59.2752 104.649 60.2045 104.621C60.5481 104.611 60.8649 104.556 61.1551 104.458C61.4451 104.355 61.7336 104.202 62.0206 103.998L62.0665 105.527C61.7831 105.719 61.4941 105.854 61.1995 105.934C60.9088 106.013 60.5389 106.059 60.0899 106.073Z" fill="#034861"/>
<path d="M69.6445 105.668L67.8582 105.722L67.7432 101.897C67.7147 100.952 67.3491 100.49 66.6463 100.512C66.1465 100.527 65.7905 100.707 65.5782 101.054C65.3658 101.4 65.2711 101.954 65.294 102.715L65.3867 105.796L63.6004 105.85L63.3262 96.7366L65.1125 96.6829L65.1684 98.5395C65.1727 98.6839 65.1693 99.024 65.158 99.5598L65.1329 100.088L65.2266 100.085C65.6056 99.433 66.2285 99.0938 67.0953 99.0677C67.8645 99.0446 68.4544 99.2339 68.8651 99.6358C69.2758 100.038 69.4928 100.625 69.5161 101.398L69.6445 105.668Z" fill="#034861"/>
<path d="M77.2618 105.556C75.2237 105.617 74.1709 104.529 74.1036 102.292C74.0701 101.179 74.3218 100.322 74.8586 99.7193C75.3953 99.113 76.181 98.7943 77.2157 98.7632C77.9732 98.7404 78.657 98.8684 79.2672 99.147L78.7817 100.545C78.4972 100.44 78.2328 100.356 77.9886 100.293C77.7443 100.227 77.5011 100.197 77.2591 100.204C76.3298 100.232 75.885 100.906 75.9247 102.225C75.9632 103.506 76.4471 104.133 77.3764 104.105C77.72 104.094 78.0369 104.04 78.327 103.941C78.617 103.839 78.9055 103.685 79.1925 103.481L79.2385 105.01C78.9551 105.202 78.666 105.338 78.3714 105.417C78.0807 105.496 77.7108 105.542 77.2618 105.556Z" fill="#034861"/>
<path d="M82.0966 102.005C82.1161 102.653 82.2363 103.14 82.4571 103.465C82.6819 103.791 83.0344 103.946 83.5146 103.932C83.991 103.917 84.3277 103.743 84.5247 103.409C84.7256 103.071 84.8162 102.575 84.7966 101.923C84.7771 101.275 84.6571 100.792 84.4365 100.475C84.2159 100.157 83.8654 100.005 83.3852 100.02C82.9088 100.034 82.5701 100.206 82.369 100.537C82.1678 100.863 82.077 101.353 82.0966 102.005ZM86.6239 101.868C86.656 102.934 86.3999 103.776 85.8558 104.395C85.3116 105.013 84.5378 105.337 83.5343 105.367C82.9057 105.386 82.3472 105.266 81.8587 105.007C81.3701 104.745 80.9892 104.359 80.716 103.852C80.4428 103.344 80.2959 102.747 80.2752 102.059C80.243 100.99 80.4972 100.15 81.0377 99.5393C81.5781 98.929 82.354 98.6086 83.3653 98.5782C83.9939 98.5593 84.5524 98.6793 85.0409 98.9381C85.5294 99.197 85.9102 99.5783 86.1833 100.082C86.4563 100.586 86.6032 101.181 86.6239 101.868Z" fill="#034861"/>
<path d="M94.2428 104.928L92.4565 104.982L92.3414 101.157C92.3272 100.685 92.2326 100.334 92.0577 100.105C91.8826 99.8715 91.6116 99.7605 91.2446 99.7715C90.7448 99.7865 90.3887 99.9653 90.1762 100.308C89.9637 100.646 89.869 101.202 89.8923 101.975L89.9849 105.056L88.1986 105.11L88.0016 98.5618L89.3663 98.5208L89.6316 99.3511L89.7312 99.3481C89.9208 99.0258 90.1869 98.7794 90.5296 98.6089C90.8761 98.4343 91.2719 98.3404 91.717 98.327C92.4783 98.3041 93.0624 98.4936 93.4692 98.8956C93.8759 99.2937 94.091 99.8813 94.1143 100.658L94.2428 104.928Z" fill="#034861"/>
<path d="M101.747 99.2973C101.368 99.3087 101.075 99.4386 100.867 99.6872C100.66 99.9318 100.547 100.275 100.529 100.717L103.036 100.642C103.015 100.201 102.889 99.8647 102.66 99.6333C102.43 99.3979 102.126 99.2859 101.747 99.2973ZM102.165 104.807C101.11 104.838 100.278 104.572 99.6668 104.008C99.0558 103.445 98.7343 102.63 98.7022 101.564C98.6692 100.467 98.917 99.611 99.4457 98.9972C99.9781 98.3793 100.729 98.0559 101.697 98.0267C102.622 97.9989 103.35 98.2408 103.882 98.7524C104.413 99.264 104.693 99.9844 104.721 100.914L104.747 101.78L100.524 101.907C100.559 102.414 100.721 102.806 101.011 103.083C101.3 103.359 101.699 103.49 102.207 103.475C102.601 103.463 102.973 103.411 103.322 103.318C103.67 103.226 104.034 103.084 104.411 102.893L104.452 104.275C104.145 104.44 103.814 104.566 103.461 104.65C103.108 104.739 102.676 104.791 102.165 104.807Z" fill="#034861"/>
<path d="M108.071 104.512L106.284 104.566L106.01 95.4525L107.796 95.3988L108.071 104.512Z" fill="#034861"/>
<path d="M116.666 104.37C115.897 104.394 115.285 104.133 114.831 103.587L114.737 103.59C114.816 104.135 114.857 104.45 114.859 104.536L114.939 107.189L113.153 107.243L112.869 97.8137L114.322 97.77L114.599 98.6117L114.681 98.6092C115.079 97.9485 115.689 97.6058 116.508 97.5811C117.282 97.5579 117.896 97.8383 118.351 98.4226C118.806 99.0068 119.05 99.8299 119.082 100.892C119.103 101.591 119.018 102.201 118.826 102.723C118.639 103.244 118.36 103.645 117.989 103.926C117.618 104.207 117.177 104.355 116.666 104.37ZM115.978 99.0274C115.536 99.0407 115.218 99.187 115.023 99.4665C114.829 99.742 114.737 100.192 114.748 100.817L114.753 101.01C114.775 101.713 114.893 102.214 115.109 102.512C115.329 102.81 115.666 102.953 116.119 102.939C116.919 102.915 117.299 102.243 117.26 100.923C117.24 100.279 117.126 99.7999 116.918 99.4857C116.713 99.1675 116.399 99.0147 115.978 99.0274Z" fill="#034861"/>
<path d="M123.206 98.6517C122.827 98.6631 122.534 98.7931 122.327 99.0416C122.119 99.2862 122.006 99.6296 121.988 100.072L124.495 99.9964C124.474 99.5554 124.348 99.2192 124.119 98.9877C123.889 98.7523 123.585 98.6403 123.206 98.6517ZM123.624 104.161C122.569 104.193 121.737 103.927 121.126 103.363C120.515 102.799 120.193 101.984 120.161 100.918C120.128 99.8209 120.376 98.9654 120.905 98.3516C121.437 97.7338 122.188 97.4103 123.156 97.3811C124.081 97.3533 124.81 97.5952 125.341 98.1068C125.872 98.6184 126.152 99.3388 126.18 100.268L126.206 101.135L121.983 101.262C122.018 101.769 122.18 102.161 122.47 102.437C122.759 102.714 123.158 102.844 123.666 102.829C124.06 102.817 124.432 102.765 124.781 102.673C125.13 102.58 125.493 102.438 125.87 102.247L125.911 103.629C125.604 103.795 125.273 103.92 124.92 104.005C124.567 104.094 124.135 104.146 123.624 104.161Z" fill="#034861"/>
<path d="M131.197 97.1392C131.439 97.1319 131.641 97.1435 131.802 97.1738L131.718 98.8529C131.572 98.8182 131.396 98.8039 131.189 98.8101C130.619 98.8273 130.178 98.9871 129.867 99.2896C129.559 99.5919 129.413 100.007 129.429 100.534L129.53 103.866L127.743 103.92L127.546 97.3722L128.899 97.3315L129.196 98.4246L129.284 98.4219C129.476 98.0488 129.74 97.7458 130.077 97.5129C130.418 97.276 130.791 97.1514 131.197 97.1392Z" fill="#034861"/>
<path d="M136.653 98.4406L135.107 98.4871L135.263 103.694L133.477 103.747L133.32 98.5409L132.336 98.5704L132.311 97.7095L133.28 97.1997L133.266 96.7194C133.243 95.9737 133.41 95.4235 133.767 95.0688C134.124 94.7142 134.706 94.5247 135.514 94.5004C136.131 94.4818 136.683 94.5571 137.168 94.7261L136.751 96.0518C136.388 95.9494 136.055 95.9027 135.75 95.9119C135.496 95.9195 135.315 96.0012 135.207 96.1569C135.098 96.3087 135.047 96.5017 135.054 96.736L135.066 97.1459L136.612 97.0994L136.653 98.4406ZM137.51 95.3783C137.493 94.7965 137.808 94.4959 138.456 94.4764C139.104 94.4569 139.437 94.738 139.455 95.3198C139.463 95.597 139.388 95.8162 139.228 95.9773C139.073 96.1344 138.833 96.2178 138.509 96.2275C137.861 96.247 137.528 95.9639 137.51 95.3783ZM139.621 103.563L137.834 103.616L137.637 97.0686L139.424 97.0148L139.621 103.563Z" fill="#034861"/>
<path d="M143.281 103.453L141.495 103.506L141.221 94.3932L143.007 94.3395L143.281 103.453Z" fill="#034861"/>
<path d="M144.884 102.566C144.874 102.238 144.955 101.987 145.125 101.814C145.296 101.641 145.549 101.549 145.885 101.539C146.209 101.53 146.461 101.608 146.642 101.775C146.827 101.941 146.924 102.184 146.934 102.504C146.943 102.813 146.861 103.06 146.687 103.245C146.512 103.426 146.265 103.521 145.945 103.531C145.617 103.541 145.36 103.462 145.176 103.296C144.991 103.126 144.894 102.882 144.884 102.566Z" fill="#034861"/>
<g clip-path="url(#clip0)">
<path d="M239.226 94.0885L235.523 90.4309L239.226 86.7605C239.944 86.0518 239.944 84.8874 239.226 84.1787C238.534 83.4826 237.304 83.4952 236.612 84.1787L232.897 87.8237L229.194 84.166C228.502 83.4826 227.272 83.4699 226.58 84.166C225.85 84.8748 225.85 86.0391 226.58 86.7479L230.283 90.4182L226.58 94.0759C226.221 94.4302 226.042 94.8732 226.042 95.3668C226.042 95.8477 226.234 96.316 226.567 96.6451C227.272 97.3412 228.502 97.3412 229.194 96.6451L232.897 93.0001L236.6 96.6577C236.958 97.0121 237.42 97.1893 237.906 97.1893C238.406 97.1893 238.867 96.9995 239.213 96.6577C239.572 96.316 239.751 95.8604 239.751 95.3795C239.764 94.8859 239.585 94.4302 239.226 94.0885ZM238.329 95.7971C238.111 96.0123 237.727 96.0123 237.496 95.7971L233.345 91.6838C233.217 91.5699 233.063 91.494 232.897 91.494C232.73 91.494 232.564 91.5699 232.461 91.6838L228.297 95.7971C228.079 96.0123 227.695 96.0123 227.464 95.7971C227.349 95.6832 227.298 95.5313 227.298 95.3795C227.298 95.2149 227.349 95.063 227.464 94.9745L231.615 90.8612C231.859 90.6207 231.859 90.2284 231.615 89.9752L227.451 85.8746C227.221 85.6468 227.221 85.2798 227.451 85.052C227.682 84.8241 228.066 84.8241 228.284 85.052L232.448 89.1526C232.692 89.393 233.102 89.393 233.345 89.1526L237.496 85.052C237.727 84.8241 238.111 84.8241 238.329 85.052C238.573 85.2798 238.573 85.6468 238.329 85.8746L234.178 89.9752C233.922 90.2284 233.922 90.6207 234.178 90.8612L238.329 94.9745C238.445 95.0757 238.509 95.2276 238.509 95.3795C238.509 95.5313 238.445 95.6832 238.329 95.7971Z" fill="#4E5292"/>
<path d="M273.845 112.162L266.619 95.2782C266.478 94.9618 266.12 94.8226 265.799 94.9365L252.461 100.164C252.295 100.227 252.167 100.341 252.103 100.505C252.039 100.657 252.039 100.834 252.103 100.974L252.269 101.391L250.565 102.049C250.411 102.113 250.283 102.227 250.219 102.391C250.155 102.518 250.155 102.657 250.194 102.783C249.386 102.948 248.566 102.986 247.964 102.973C247.08 102.961 246.158 102.695 245.222 102.214C244.338 101.746 243.172 101.265 241.699 100.771C244.684 98.2778 246.58 94.5695 246.58 90.4309C246.58 82.9637 240.43 76.9014 232.884 76.9014C225.337 76.9014 219.187 82.9764 219.187 90.4309C219.187 94.9239 221.442 98.9359 224.889 101.379C224.594 101.556 224.338 101.758 224.095 101.999L223.633 102.492C222.711 102.657 218.585 102.935 217.829 102.961C217.099 102.973 216.356 102.847 215.613 102.644C215.625 102.543 215.613 102.454 215.574 102.366C215.51 102.201 215.382 102.087 215.215 102.024L213.524 101.366L213.691 100.948C213.755 100.796 213.755 100.619 213.691 100.48C213.614 100.315 213.486 100.202 213.332 100.138L200.007 94.9492C199.687 94.8226 199.328 94.9745 199.187 95.2909L191.948 112.162C191.82 112.478 191.961 112.832 192.281 112.972L205.593 118.958C205.67 118.996 205.76 119.021 205.862 119.021C205.939 119.021 206.016 118.996 206.093 118.971C206.26 118.907 206.388 118.781 206.452 118.616L206.951 117.401L208.45 118.072C208.527 118.11 208.617 118.123 208.707 118.123C208.796 118.123 208.873 118.11 208.95 118.085C209.065 118.034 209.155 117.946 209.232 117.832C210.398 118.477 211.73 119.325 212.615 120.211L212.205 120.73C211.051 122.185 211.295 124.35 212.73 125.527C213.345 126.046 214.114 126.311 214.908 126.311C215.036 126.311 215.177 126.311 215.305 126.299C215.356 126.286 215.408 126.273 215.459 126.261C215.292 127.476 215.728 128.716 216.715 129.526C217.253 129.969 217.932 130.247 218.662 130.311C218.777 130.323 218.88 130.323 218.982 130.323C219.341 130.323 219.687 130.26 220.033 130.146C220.007 131.184 220.43 132.184 221.225 132.893C221.263 132.943 221.289 132.981 221.34 133.007C221.98 133.538 222.762 133.817 223.582 133.817C223.723 133.817 223.864 133.804 223.992 133.791C224.351 133.753 224.684 133.639 225.004 133.5C225.132 134.209 225.465 134.88 226.055 135.361C226.542 135.753 227.118 135.993 227.733 136.044C227.823 136.057 227.913 136.057 228.002 136.057C228.963 136.057 229.86 135.626 230.45 134.854L232.166 132.602C232.269 132.475 232.346 132.336 232.423 132.197L235.446 134.361C235.972 134.728 236.6 134.918 237.189 134.918C238.06 134.918 238.893 134.525 239.47 133.854C239.931 133.31 240.161 132.639 240.174 131.981C240.764 132.386 241.455 132.614 242.199 132.614C243.262 132.614 244.249 132.171 244.889 131.387C245.62 130.551 245.863 129.488 245.671 128.501C245.876 128.539 246.094 128.552 246.286 128.552C247.298 128.552 248.31 128.147 248.989 127.337C249.617 126.602 249.912 125.628 249.796 124.666C249.784 124.59 249.758 124.514 249.745 124.438C249.989 124.489 250.219 124.527 250.463 124.527C251.436 124.527 252.397 124.122 253.051 123.337C253.55 122.73 253.845 121.97 253.845 121.186C253.845 120.452 253.589 119.768 253.153 119.186C253.743 118.528 254.883 117.908 256.446 117.363L256.587 117.705C256.651 117.87 256.779 117.996 256.946 118.059C257.023 118.085 257.1 118.097 257.176 118.097C257.266 118.097 257.356 118.085 257.445 118.047L258.945 117.376L259.444 118.591C259.508 118.756 259.636 118.882 259.803 118.945C259.88 118.971 259.957 118.996 260.034 118.996C260.123 118.996 260.213 118.971 260.303 118.933L273.615 112.946C273.845 112.845 273.986 112.478 273.845 112.162ZM220.456 90.4182C220.456 83.6345 226.042 78.129 232.897 78.129C239.764 78.129 245.338 83.6345 245.338 90.4182C245.338 97.1893 239.764 102.707 232.897 102.707C226.042 102.707 220.456 97.1893 220.456 90.4182ZM206.016 116.288C206.016 116.3 206.016 116.3 206.003 116.313L205.504 117.553L193.345 112.086L200.11 96.3161L212.281 101.075L212.128 101.467C212.115 101.48 212.115 101.48 212.102 101.492C212.102 101.505 212.102 101.505 212.102 101.518L206.016 116.288ZM208.361 116.667L207.413 116.25L213.05 102.543L214.165 102.973L208.361 116.667ZM216.112 124.691C216.1 124.704 216.1 124.704 216.087 124.704C215.805 124.907 215.485 125.033 215.126 125.071C214.536 125.147 213.947 124.97 213.499 124.59C212.576 123.831 212.422 122.464 213.153 121.515L215.203 118.92C215.561 118.464 216.074 118.173 216.638 118.097C217.201 118.034 217.778 118.186 218.226 118.54C219.175 119.274 219.354 120.654 218.624 121.616L216.612 124.236C216.471 124.413 216.292 124.565 216.112 124.691ZM220.763 128.172C220.674 128.273 220.584 128.387 220.456 128.488C220.02 128.919 219.38 129.146 218.726 129.083C218.265 129.045 217.816 128.868 217.483 128.589C216.599 127.868 216.381 126.602 216.958 125.641C217.201 125.451 217.419 125.236 217.611 124.995L219.623 122.375C219.674 122.325 219.687 122.261 219.725 122.211C220.161 121.894 220.686 121.755 221.225 121.793C221.66 121.831 222.096 121.996 222.455 122.261C223.326 122.932 223.595 124.147 223.108 125.109C223.095 125.122 223.082 125.134 223.07 125.16C223.005 125.261 222.941 125.375 222.852 125.489L220.763 128.172ZM225.35 131.665C225.337 131.69 225.312 131.716 225.299 131.728C225.184 131.792 225.094 131.88 225.043 132.007C224.684 132.323 224.261 132.5 223.8 132.564C223.223 132.627 222.647 132.475 222.185 132.133C222.16 132.095 222.121 132.07 222.083 132.045C221.263 131.374 221.007 130.209 221.468 129.248C221.57 129.146 221.66 129.058 221.763 128.931L223.838 126.248C223.941 126.122 224.043 125.97 224.146 125.805C224.594 125.4 225.209 125.21 225.824 125.261C226.247 125.299 226.695 125.463 227.041 125.717C228.041 126.501 228.22 127.931 227.451 128.931L225.35 131.665ZM231.116 131.855L229.386 134.12C229.015 134.589 228.412 134.854 227.797 134.804C227.426 134.778 227.093 134.639 226.811 134.411C226.298 133.994 226.08 133.323 226.209 132.589C226.26 132.526 226.324 132.475 226.362 132.412L228.438 129.691C228.54 129.551 228.63 129.387 228.72 129.248C229.36 128.83 230.168 128.843 230.783 129.311C231.564 129.944 231.718 131.07 231.116 131.855ZM252.013 122.578C251.308 123.4 250.053 123.552 249.156 122.919L242.045 117.844C241.75 117.642 241.366 117.705 241.161 117.984C241.058 118.135 241.02 118.3 241.045 118.452C241.071 118.604 241.161 118.756 241.302 118.857L247.554 123.312C248.067 123.679 248.387 124.223 248.477 124.843C248.554 125.463 248.361 126.071 247.964 126.552C247.208 127.438 245.876 127.602 244.928 126.932L237.919 121.932C237.625 121.73 237.24 121.793 237.035 122.084C236.83 122.363 236.894 122.742 237.176 122.945L243.8 127.666C244.595 128.488 244.633 129.741 243.877 130.627C243.16 131.475 241.776 131.652 240.853 131.007L233.832 125.995C233.55 125.792 233.166 125.856 232.948 126.147C232.743 126.425 232.807 126.805 233.102 127.007L238.24 130.678C238.24 130.678 238.24 130.678 238.252 130.678C238.291 130.716 238.342 130.754 238.393 130.792C239.021 131.412 239.06 132.412 238.483 133.082C237.919 133.728 236.92 133.892 236.151 133.374L232.769 130.969C232.82 129.982 232.41 128.994 231.59 128.349C230.885 127.805 230.014 127.615 229.181 127.767C229.245 126.64 228.771 125.514 227.836 124.767C227.298 124.362 226.619 124.097 225.94 124.033C225.491 123.995 225.03 124.059 224.607 124.198C224.633 123.084 224.171 122.008 223.249 121.299C222.711 120.882 222.032 120.629 221.365 120.565C221.007 120.54 220.674 120.578 220.328 120.641C220.443 119.502 219.995 118.338 219.046 117.579C218.329 117.022 217.432 116.769 216.522 116.882C215.613 116.996 214.793 117.452 214.242 118.173L213.383 119.249C212.371 118.287 210.962 117.389 209.745 116.731L215.19 103.859C216.048 104.1 216.907 104.252 217.791 104.252H217.88C218.047 104.252 220.494 104.1 222.314 103.935L219.866 106.492C219.495 106.884 219.341 107.403 219.405 107.934C219.482 108.453 219.79 108.922 220.238 109.2C222.314 110.44 224.991 110.339 226.9 108.998L229.412 107.302L233.794 106.909C235.408 109.352 237.625 110.883 240.366 111.466L251.757 119.591C252.256 119.971 252.564 120.578 252.564 121.224C252.525 121.704 252.346 122.185 252.013 122.578ZM252.18 118.376L240.956 110.364C240.879 110.314 240.789 110.276 240.7 110.263C238.099 109.744 236.113 108.314 234.601 105.922C234.473 105.707 234.255 105.606 234.011 105.618L229.091 106.049C228.989 106.061 228.874 106.099 228.784 106.15L226.132 107.947C224.62 109.01 222.48 109.086 220.84 108.099C220.712 108.023 220.622 107.884 220.61 107.732C220.584 107.567 220.635 107.403 220.738 107.302L224.364 103.53C224.376 103.517 224.389 103.505 224.389 103.492L225.004 102.859C225.337 102.518 225.722 102.315 226.145 102.189C228.143 103.315 230.437 103.96 232.884 103.96C235.703 103.96 238.304 103.112 240.495 101.682C242.288 102.252 243.646 102.796 244.62 103.315C245.748 103.897 246.862 104.214 247.951 104.226H248.156C249.092 104.226 249.912 104.112 250.668 103.935L255.895 116.262C254.165 116.857 252.91 117.566 252.18 118.376ZM257.445 116.667L251.641 102.973L252.756 102.543L258.394 116.25L257.445 116.667ZM260.29 117.566L259.777 116.326C259.777 116.313 259.777 116.313 259.777 116.313V116.3L253.691 101.53C253.679 101.518 253.691 101.518 253.679 101.505C253.679 101.492 253.666 101.492 253.666 101.48L253.499 101.087L265.684 96.3287L272.436 112.098L260.29 117.566Z" fill="#4E5292"/>
<path d="M272.449 112.098L260.303 117.566L259.79 116.326C259.79 116.313 259.79 116.313 259.79 116.313V116.3L253.704 101.53C253.691 101.518 253.704 101.518 253.691 101.505C253.691 101.492 253.679 101.492 253.679 101.48L253.512 101.087L265.697 96.3287L272.449 112.098Z" fill="#98D3BA"/>
<path d="M255.895 116.25C254.165 116.844 252.923 117.553 252.192 118.363L240.969 110.352C240.892 110.301 240.802 110.263 240.712 110.251C238.111 109.732 236.125 108.301 234.614 105.909C234.485 105.694 234.268 105.593 234.024 105.606L229.104 106.036C229.002 106.049 228.886 106.087 228.797 106.137L226.145 107.934C224.633 108.998 222.493 109.074 220.853 108.086C220.725 108.01 220.635 107.871 220.622 107.719C220.597 107.555 220.648 107.39 220.75 107.289L224.376 103.517C224.389 103.505 224.402 103.492 224.402 103.479L225.017 102.847C225.35 102.505 225.735 102.302 226.157 102.176C228.156 103.302 230.45 103.948 232.897 103.948C235.715 103.948 238.316 103.1 240.507 101.67C242.301 102.239 243.659 102.783 244.633 103.302C245.76 103.884 246.875 104.201 247.964 104.214H248.169C249.105 104.214 249.925 104.1 250.68 103.922L255.895 116.25Z" fill="#F0D299"/>
<path d="M255.895 116.25C254.165 116.844 252.923 117.553 252.192 118.363L251.155 117.629C251.923 116.857 253.832 115.769 255.447 115.174L255.895 116.25Z" fill="#DFC189"/>
<path d="M252.525 121.211C252.525 121.692 252.346 122.185 252.026 122.565C251.321 123.388 250.065 123.54 249.169 122.907L242.058 117.832C241.763 117.629 241.379 117.692 241.174 117.971C241.071 118.123 241.033 118.287 241.058 118.439C241.084 118.591 241.174 118.743 241.315 118.844L247.567 123.299C248.08 123.666 248.4 124.21 248.49 124.831C248.566 125.451 248.374 126.058 247.977 126.539C247.221 127.425 245.889 127.59 244.94 126.919L237.932 121.92C237.637 121.717 237.253 121.78 237.048 122.071C236.843 122.35 236.907 122.73 237.189 122.932L243.813 127.653C244.607 128.476 244.646 129.729 243.89 130.614C243.172 131.462 241.789 131.64 240.866 130.994L233.845 125.982C233.563 125.78 233.179 125.843 232.961 126.134C232.756 126.413 232.82 126.792 233.115 126.995L238.252 130.665C238.252 130.665 238.252 130.665 238.265 130.665C238.304 130.703 238.355 130.741 238.406 130.779C239.034 131.399 239.072 132.399 238.496 133.07C237.932 133.715 236.933 133.88 236.164 133.361L232.781 130.956C232.833 129.969 232.423 128.982 231.603 128.336C230.898 127.792 230.027 127.602 229.194 127.754C229.258 126.628 228.784 125.501 227.849 124.755C227.31 124.35 226.631 124.084 225.952 124.021C225.504 123.983 225.043 124.046 224.62 124.185C224.645 123.071 224.184 121.996 223.262 121.287C222.724 120.869 222.045 120.616 221.378 120.553C221.02 120.527 220.686 120.565 220.34 120.629C220.456 119.49 220.007 118.325 219.059 117.566C218.342 117.009 217.445 116.756 216.535 116.87C215.625 116.984 214.805 117.439 214.255 118.161L213.396 119.236C212.384 118.275 210.975 117.376 209.757 116.718L215.203 103.846C216.061 104.087 216.92 104.239 217.804 104.239H217.893C218.06 104.239 220.507 104.087 222.326 103.922L219.879 106.479C219.508 106.871 219.354 107.39 219.418 107.922C219.495 108.441 219.802 108.909 220.251 109.187C222.326 110.428 225.004 110.326 226.913 108.985L229.425 107.289L233.806 106.897C235.421 109.339 237.637 110.871 240.379 111.453L251.77 119.578C252.218 119.958 252.525 120.565 252.525 121.211Z" fill="#F0D299"/>
<path d="M232.897 78.129C226.042 78.129 220.456 83.6345 220.456 90.4182C220.456 97.1893 226.042 102.707 232.897 102.707C239.764 102.707 245.338 97.1893 245.338 90.4182C245.338 83.6472 239.751 78.129 232.897 78.129ZM239.226 96.6704C238.867 97.0248 238.419 97.202 237.919 97.202C237.432 97.202 236.958 97.0122 236.612 96.6704L232.897 93.0001L229.194 96.6578C228.502 97.3539 227.272 97.3539 226.567 96.6578C226.221 96.3161 226.042 95.8604 226.042 95.3795C226.042 94.8859 226.234 94.4303 226.58 94.0886L230.283 90.4309L226.58 86.7606C225.85 86.0518 225.85 84.8875 226.58 84.1787C227.272 83.4826 228.502 83.4953 229.194 84.1787L232.897 87.8237L236.612 84.1661C237.304 83.4826 238.534 83.47 239.226 84.1661C239.944 84.8748 239.944 86.0392 239.226 86.7479L235.523 90.4182L239.226 94.0759C239.585 94.4303 239.764 94.8732 239.764 95.3668C239.764 95.8731 239.585 96.3287 239.226 96.6704Z" fill="#E26D6D"/>
<path d="M232.359 102.695C225.747 102.416 220.456 97.0121 220.456 90.4182C220.456 83.8117 225.76 78.4201 232.359 78.1417C226.977 78.4834 222.66 83.8496 222.66 90.4182C222.66 96.9742 226.977 102.366 232.359 102.695Z" fill="#D26767"/>
<path d="M245.338 90.4182C245.338 97.0121 240.033 102.416 233.435 102.695C238.829 102.353 243.134 96.9742 243.134 90.4182C243.134 83.8496 238.829 78.4834 233.435 78.1417C240.033 78.4201 245.338 83.8117 245.338 90.4182Z" fill="#F27974"/>
<path d="M238.329 94.9745C238.445 95.0757 238.509 95.2276 238.509 95.3795C238.509 95.5313 238.445 95.6832 238.329 95.7971C238.111 96.0123 237.727 96.0123 237.496 95.7971L233.345 91.6838C233.217 91.5699 233.063 91.494 232.897 91.494C232.73 91.494 232.564 91.5699 232.461 91.6838L228.297 95.7971C228.079 96.0123 227.695 96.0123 227.464 95.7971C227.349 95.6832 227.298 95.5313 227.298 95.3795C227.298 95.2149 227.349 95.0631 227.464 94.9745L231.615 90.8612C231.859 90.6207 231.859 90.2284 231.615 89.9752L227.451 85.8746C227.221 85.6468 227.221 85.2798 227.451 85.052C227.682 84.8242 228.066 84.8242 228.284 85.052L232.448 89.1526C232.692 89.3931 233.102 89.3931 233.345 89.1526L237.496 85.052C237.727 84.8242 238.111 84.8242 238.329 85.052C238.573 85.2798 238.573 85.6468 238.329 85.8746L234.178 89.9752C233.922 90.2284 233.922 90.6207 234.178 90.8612L238.329 94.9745Z" fill="#FFDB7C"/>
<path d="M266.145 97.3791L265.799 97.5184L253.935 102.151L253.679 101.53C253.666 101.518 253.679 101.518 253.666 101.505C253.666 101.492 253.653 101.492 253.653 101.48L253.486 101.087L265.671 96.3287L266.145 97.3791Z" fill="#B9E0CE"/>
<path d="M272.449 112.098L260.29 117.566L259.79 116.351L271.924 110.896L272.449 112.098Z" fill="#89C3A8"/>
<path d="M258.394 116.237L257.445 116.667L251.641 102.973L252.756 102.53L258.394 116.237Z" fill="#D8DFE6"/>
<path d="M212.281 101.087L212.128 101.48C212.115 101.492 212.115 101.492 212.102 101.505C212.102 101.518 212.102 101.518 212.102 101.53L206.016 116.3V116.313C206.016 116.313 206.016 116.313 206.003 116.326L205.504 117.566L193.345 112.098L200.11 96.3287L212.281 101.087Z" fill="#39B4D5"/>
<path d="M214.165 102.973L208.361 116.667L207.413 116.237L213.05 102.53L214.165 102.973Z" fill="#D8DFE6"/>
<path d="M231.116 131.855L229.386 134.12C229.015 134.589 228.412 134.854 227.797 134.804C227.426 134.778 227.093 134.639 226.811 134.411C226.298 133.994 226.08 133.323 226.209 132.589C226.26 132.526 226.324 132.475 226.362 132.412L228.438 129.691C228.54 129.551 228.63 129.387 228.72 129.248C229.36 128.83 230.168 128.843 230.783 129.311C231.564 129.944 231.718 131.07 231.116 131.855ZM227.426 128.944L225.35 131.678C225.337 131.703 225.312 131.728 225.299 131.741C225.184 131.804 225.094 131.893 225.043 132.019C224.684 132.336 224.261 132.513 223.8 132.576C223.223 132.639 222.647 132.488 222.185 132.146C222.16 132.108 222.121 132.083 222.083 132.057C221.263 131.386 221.007 130.222 221.468 129.26C221.57 129.159 221.66 129.07 221.763 128.944L223.838 126.261C223.941 126.134 224.043 125.982 224.146 125.818C224.594 125.413 225.209 125.223 225.824 125.274C226.247 125.311 226.695 125.476 227.041 125.729C228.028 126.514 228.195 127.944 227.426 128.944ZM223.108 125.122C223.095 125.134 223.082 125.147 223.07 125.172C223.005 125.274 222.941 125.387 222.852 125.501L220.776 128.184C220.686 128.286 220.597 128.4 220.469 128.501C220.033 128.931 219.392 129.159 218.739 129.096C218.278 129.058 217.829 128.881 217.496 128.602C216.612 127.881 216.394 126.615 216.971 125.653C217.214 125.463 217.432 125.248 217.624 125.008L219.636 122.388C219.687 122.337 219.7 122.274 219.738 122.223C220.174 121.907 220.699 121.768 221.237 121.806C221.673 121.844 222.109 122.008 222.467 122.274C223.313 122.932 223.582 124.147 223.108 125.122ZM218.624 121.616L216.612 124.236C216.458 124.426 216.279 124.577 216.112 124.691C216.1 124.704 216.1 124.704 216.087 124.704C215.805 124.906 215.485 125.033 215.126 125.071C214.536 125.147 213.947 124.97 213.499 124.59C212.576 123.831 212.422 122.464 213.153 121.515L215.203 118.92C215.561 118.464 216.074 118.173 216.638 118.097C217.201 118.034 217.778 118.186 218.226 118.54C219.175 119.274 219.354 120.654 218.624 121.616Z" fill="#F0D299"/>
<path d="M251.052 104.821C250.309 104.998 249.258 105.251 248.413 105.251H248.208C247.119 105.239 246.004 104.922 244.876 104.34C243.941 103.846 241.417 102.796 239.623 102.201C239.918 102.037 240.2 101.859 240.495 101.682C242.288 102.252 243.646 102.796 244.62 103.315C245.748 103.897 246.862 104.214 247.951 104.226H248.156C249.092 104.226 249.912 104.112 250.668 103.935L251.052 104.821ZM227.029 102.631C226.247 102.923 225.517 103.644 225.273 103.884L224.658 104.517C224.658 104.53 224.645 104.543 224.633 104.555L221.109 108.213C221.02 108.188 220.93 108.137 220.853 108.086C220.725 108.01 220.635 107.871 220.622 107.719C220.597 107.555 220.648 107.39 220.75 107.289L224.376 103.517C224.389 103.505 224.402 103.492 224.402 103.479L225.017 102.847C225.35 102.505 225.735 102.302 226.157 102.176C226.452 102.353 226.734 102.492 227.029 102.631Z" fill="#FFE4AA"/>
<path d="M238.457 133.082C237.894 133.728 236.894 133.892 236.125 133.374L232.743 130.969C232.769 130.564 232.705 130.159 232.576 129.779L236.125 132.171C236.894 132.69 237.894 132.538 238.457 131.88C238.585 131.728 238.688 131.551 238.765 131.387C238.97 131.943 238.867 132.589 238.457 133.082ZM213.985 118.427L213.358 119.224C212.345 118.262 210.936 117.363 209.719 116.705L210.129 115.743C211.295 116.414 213.025 117.579 213.985 118.427Z" fill="#DFC189"/>
<path d="M222.288 103.91L221.096 105.137C219.546 105.251 217.983 105.353 217.855 105.353H217.765C216.932 105.353 215.587 105.137 214.716 104.922L215.164 103.834C216.023 104.074 216.881 104.226 217.765 104.226H217.855C217.983 104.226 219.52 104.138 221.045 104.011C221.481 103.973 221.891 103.948 222.288 103.91Z" fill="#FFE4AA"/>
<path d="M199.635 97.3791L199.981 97.5184L211.846 102.151L212.102 101.53C212.115 101.518 212.102 101.518 212.115 101.505C212.115 101.492 212.128 101.492 212.128 101.48L212.294 101.087L200.097 96.3287L199.635 97.3791Z" fill="#4EBCE5"/>
<path d="M193.345 112.098L205.491 117.566L205.99 116.351L193.857 110.896L193.345 112.098Z" fill="#24A7C5"/>
</g>
<defs>
<clipPath id="clip0">
<rect width="82" height="81" fill="white" transform="translate(191.897 65.979)"/>
</clipPath>
</defs>
</svg>
