<svg width="292" height="164" viewBox="0 0 292 164" fill="none" xmlns="http://www.w3.org/2000/svg">
<path d="M5.89526 13.7275C5.89526 9.30926 9.47699 5.72754 13.8953 5.72754H278.368C282.786 5.72754 286.368 9.30926 286.368 13.7275V150.084C286.368 154.502 282.786 158.084 278.368 158.084H13.8953C9.47699 158.084 5.89526 154.502 5.89526 150.084V13.7275Z" fill="#0FF942"/>
<path fill-rule="evenodd" clip-rule="evenodd" d="M283.367 1.72559H8.89673C5.03074 1.72559 1.89673 4.8596 1.89673 8.72559V155.086C1.89673 158.952 5.03074 162.086 8.89673 162.086H283.367C287.233 162.086 290.367 158.952 290.367 155.086V8.72559C290.367 4.85959 287.233 1.72559 283.367 1.72559ZM8.89673 0.725586C4.47845 0.725586 0.896729 4.30731 0.896729 8.72559V155.086C0.896729 159.504 4.47845 163.086 8.89673 163.086H283.367C287.785 163.086 291.367 159.504 291.367 155.086V8.72559C291.367 4.30731 287.785 0.725586 283.367 0.725586H8.89673Z" fill="#0FF942"/>
<path d="M88.1142 32.2263C88.3069 27.8122 92.0414 24.3901 96.4555 24.5828L274.209 32.3439C278.623 32.5366 282.045 36.2712 281.853 40.6852L278.41 119.541C278.217 123.955 274.482 127.377 270.068 127.184L92.3146 119.423C87.9005 119.23 84.4785 115.496 84.6712 111.082L88.1142 32.2263Z" fill="white"/>
<path d="M105.596 52.7283L100.669 52.4664L101.124 43.9121L106.05 44.174L105.971 45.6602L102.859 45.4947L102.759 47.3729L105.655 47.5269L105.576 49.0131L102.68 48.8591L102.563 51.065L105.675 51.2304L105.596 52.7283Z" fill="#034861"/>
<path d="M113.284 53.137L111.5 53.0421L111.703 49.2214C111.728 48.7494 111.663 48.3919 111.507 48.1489C111.352 47.9021 111.091 47.7689 110.725 47.7494C110.225 47.7229 109.856 47.8714 109.616 48.1951C109.376 48.5148 109.235 49.0609 109.194 49.8332L109.03 52.9109L107.246 52.816L107.594 46.2745L108.957 46.3469L109.152 47.1964L109.252 47.2017C109.467 46.8963 109.753 46.6729 110.109 46.5314C110.469 46.3862 110.871 46.3255 111.316 46.3491C112.076 46.3895 112.642 46.627 113.014 47.0614C113.387 47.4919 113.552 48.0953 113.511 48.8715L113.284 53.137Z" fill="#034861"/>
<path d="M117.772 53.4929C115.735 53.3846 114.777 52.213 114.896 49.9778C114.955 48.8661 115.277 48.0324 115.862 47.4768C116.447 46.9172 117.256 46.6649 118.29 46.7198C119.047 46.7601 119.718 46.9444 120.303 47.2728L119.703 48.6256C119.428 48.4976 119.171 48.392 118.933 48.309C118.695 48.222 118.455 48.1721 118.214 48.1592C117.285 48.1099 116.786 48.7444 116.716 50.0629C116.648 51.3423 117.078 52.0067 118.006 52.0561C118.35 52.0743 118.67 52.0463 118.967 51.9722C119.265 51.8941 119.565 51.7653 119.868 51.5858L119.787 53.113C119.488 53.281 119.189 53.3922 118.889 53.4467C118.593 53.5013 118.22 53.5167 117.772 53.4929Z" fill="#034861"/>
<path d="M125.923 53.8088L125.727 52.9593L125.634 52.9544C125.426 53.2485 125.143 53.47 124.783 53.6191C124.423 53.7643 124.019 53.825 123.57 53.8011C122.802 53.7603 122.233 53.5247 121.865 53.0944C121.497 52.6602 121.333 52.0569 121.374 51.2845L121.601 47.0191L123.386 47.1139L123.183 50.9347C123.157 51.4067 123.222 51.7661 123.378 52.013C123.533 52.2559 123.794 52.3872 124.161 52.4067C124.66 52.4332 125.029 52.2866 125.269 51.9668C125.51 51.6432 125.65 51.0952 125.691 50.3229L125.855 47.2452L127.639 47.34L127.292 53.8816L125.923 53.8088Z" fill="#034861"/>
<path d="M132.16 48.7304C131.782 48.7103 131.479 48.8154 131.251 49.0459C131.024 49.2724 130.883 49.6053 130.829 50.0444L133.333 50.1775C133.348 49.7363 133.251 49.3908 133.042 49.141C132.832 48.8874 132.538 48.7505 132.16 48.7304ZM132.119 54.2555C131.065 54.1995 130.258 53.8652 129.696 53.2524C129.134 52.6397 128.881 51.8009 128.938 50.736C128.996 49.6399 129.314 48.8079 129.892 48.2402C130.474 47.6687 131.248 47.4086 132.216 47.4601C133.14 47.5092 133.846 47.8108 134.333 48.3647C134.82 48.9187 135.038 49.6599 134.989 50.5883L134.943 51.4542L130.724 51.23C130.717 51.7381 130.846 52.142 131.112 52.4417C131.378 52.7414 131.764 52.9047 132.271 52.9317C132.665 52.9526 133.04 52.9314 133.395 52.8682C133.751 52.8049 134.124 52.6937 134.516 52.5346L134.443 53.9155C134.122 54.0549 133.783 54.1523 133.424 54.2075C133.065 54.2667 132.63 54.2827 132.119 54.2555Z" fill="#034861"/>
<path d="M142.282 54.6784L140.498 54.5836L140.701 50.7628C140.726 50.2908 140.661 49.9333 140.505 49.6903C140.35 49.4435 140.09 49.3103 139.723 49.2908C139.224 49.2643 138.854 49.4128 138.614 49.7365C138.374 50.0562 138.233 50.6023 138.192 51.3746L138.029 54.4523L136.244 54.3574L136.592 47.8159L137.955 47.8884L138.15 48.7378L138.25 48.7431C138.466 48.4377 138.751 48.2143 139.107 48.0728C139.467 47.9276 139.869 47.8669 140.314 47.8905C141.074 47.931 141.641 48.1684 142.013 48.6028C142.385 49.0333 142.55 49.6367 142.509 50.413L142.282 54.6784Z" fill="#034861"/>
<path d="M146.945 53.6178C147.257 53.6344 147.635 53.586 148.079 53.4727L148.008 54.8009C147.553 54.9762 147.002 55.0466 146.354 55.0122C145.64 54.9743 145.129 54.7672 144.821 54.3909C144.516 54.0109 144.383 53.4601 144.421 52.7384L144.589 49.5847L143.735 49.5393L143.775 48.7845L144.79 48.2399L145.378 46.8864L146.519 46.9471L146.445 48.3397L148.276 48.437L148.205 49.7769L146.374 49.6796L146.206 52.8333C146.193 53.0869 146.253 53.2778 146.387 53.4062C146.525 53.5348 146.711 53.6053 146.945 53.6178Z" fill="#034861"/>
<path d="M153.332 48.5825C153.574 48.5954 153.774 48.6236 153.932 48.6672L153.709 50.3335C153.566 50.2868 153.392 50.258 153.185 50.247C152.616 50.2167 152.163 50.3394 151.828 50.6149C151.496 50.8907 151.317 51.2919 151.289 51.8185L151.112 55.1477L149.327 55.0529L149.675 48.5113L151.026 48.5832L151.231 49.6972L151.319 49.7019C151.541 49.346 151.83 49.066 152.185 48.8619C152.544 48.6541 152.927 48.561 153.332 48.5825Z" fill="#034861"/>
<path d="M158.923 55.563L158.625 54.6552L158.578 54.6527C158.258 55.0152 157.934 55.262 157.606 55.3932C157.282 55.5207 156.865 55.5709 156.354 55.5438C155.726 55.5104 155.24 55.3046 154.896 54.9264C154.556 54.5485 154.404 54.028 154.439 53.3648C154.476 52.6705 154.745 52.1724 155.246 51.8704C155.752 51.5648 156.495 51.4204 157.476 51.4374L158.613 51.4626L158.628 51.1759C158.663 50.5128 158.341 50.1632 157.663 50.1271C157.14 50.0993 156.517 50.2246 155.794 50.503L155.268 49.2663C156.041 48.9123 156.887 48.7597 157.803 48.8085C158.681 48.8551 159.344 49.082 159.791 49.4892C160.239 49.8963 160.442 50.49 160.401 51.2701L160.169 55.6292L158.923 55.563ZM158.557 52.5041L157.866 52.4908C157.346 52.4788 156.955 52.5519 156.692 52.7101C156.43 52.8682 156.289 53.1228 156.27 53.4739C156.243 53.9771 156.519 54.244 157.096 54.2747C157.51 54.2967 157.845 54.1952 158.104 53.9704C158.366 53.7457 158.508 53.4364 158.529 53.0424L158.557 52.5041Z" fill="#034861"/>
<path d="M168.121 50.6419C167.742 50.6218 167.44 50.727 167.212 50.9574C166.985 51.1839 166.844 51.5168 166.789 51.9559L169.294 52.089C169.309 51.6478 169.212 51.3023 169.003 51.0526C168.793 50.7989 168.499 50.662 168.121 50.6419ZM168.079 56.167C167.026 56.1111 166.219 55.7767 165.657 55.164C165.095 54.5512 164.842 53.7124 164.899 52.6475C164.957 51.5514 165.275 50.7195 165.853 50.1517C166.435 49.5802 167.209 49.3202 168.177 49.3716C169.101 49.4207 169.807 49.7223 170.294 50.2763C170.781 50.8302 170.999 51.5714 170.95 52.4998L170.904 53.3657L166.685 53.1415C166.678 53.6496 166.807 54.0535 167.073 54.3532C167.338 54.6529 167.725 54.8162 168.232 54.8432C168.626 54.8641 169.001 54.843 169.356 54.7797C169.712 54.7165 170.085 54.6053 170.477 54.4462L170.404 55.827C170.083 55.9665 169.744 56.0638 169.385 56.1191C169.026 56.1782 168.59 56.1942 168.079 56.167Z" fill="#034861"/>
<path d="M173.989 56.3638L172.205 56.269L172.689 47.1646L174.473 47.2595L173.989 56.3638Z" fill="#034861"/>
<path d="M182.567 56.9371C181.798 56.8963 181.211 56.5853 180.803 56.0043L180.71 55.9993C180.743 56.5488 180.757 56.8664 180.753 56.9522L180.612 59.6027L178.827 59.5079L179.328 50.0876L180.779 50.1647L180.986 51.0265L181.068 51.0309C181.519 50.4055 182.155 50.1146 182.974 50.1582C183.746 50.1992 184.335 50.5298 184.74 51.1498C185.146 51.7698 185.32 52.6104 185.264 53.6714C185.226 54.3696 185.091 54.9707 184.857 55.4746C184.626 55.9787 184.315 56.3553 183.922 56.6043C183.53 56.8533 183.078 56.9643 182.567 56.9371ZM182.325 51.5554C181.884 51.5319 181.555 51.6513 181.338 51.9136C181.12 52.172 180.991 52.613 180.95 53.2367L180.94 53.4298C180.903 54.132 180.979 54.6406 181.17 54.9559C181.364 55.2713 181.688 55.4411 182.14 55.4651C182.94 55.5077 183.375 54.8697 183.445 53.5512C183.479 52.9076 183.405 52.4206 183.223 52.0901C183.046 51.756 182.746 51.5778 182.325 51.5554Z" fill="#034861"/>
<path d="M189.559 51.7815C189.181 51.7614 188.878 51.8665 188.651 52.097C188.423 52.3235 188.283 52.6564 188.228 53.0955L190.732 53.2286C190.748 52.7874 190.651 52.4419 190.441 52.1922C190.232 51.9385 189.938 51.8016 189.559 51.7815ZM189.518 57.3066C188.465 57.2506 187.657 56.9163 187.095 56.3035C186.533 55.6908 186.28 54.852 186.337 53.7871C186.395 52.691 186.713 51.859 187.291 51.2913C187.873 50.7198 188.648 50.4598 189.615 50.5112C190.54 50.5603 191.245 50.8619 191.732 51.4158C192.219 51.9698 192.438 52.711 192.389 53.6394L192.342 54.5053L188.124 54.2811C188.116 54.7892 188.246 55.1931 188.511 55.4928C188.777 55.7925 189.163 55.9558 189.67 55.9828C190.064 56.0037 190.439 55.9825 190.795 55.9193C191.15 55.856 191.524 55.7449 191.915 55.5857L191.842 56.9666C191.522 57.106 191.182 57.2034 190.823 57.2586C190.464 57.3178 190.029 57.3338 189.518 57.3066Z" fill="#034861"/>
<path d="M197.649 50.9382C197.891 50.9511 198.09 50.9793 198.249 51.0229L198.025 52.6892C197.883 52.6425 197.708 52.6137 197.502 52.6027C196.932 52.5724 196.48 52.695 196.144 52.9706C195.813 53.2463 195.633 53.6475 195.605 54.1741L195.428 57.5034L193.643 57.4085L193.991 50.867L195.343 50.9388L195.548 52.0529L195.635 52.0575C195.858 51.7016 196.146 51.4216 196.501 51.2175C196.861 51.0098 197.243 50.9166 197.649 50.9382Z" fill="#034861"/>
<path d="M202.977 52.6884L201.433 52.6063L201.156 57.8079L199.372 57.713L199.648 52.5114L198.665 52.4591L198.711 51.599L199.719 51.1715L199.745 50.6917C199.784 49.9467 199.997 49.4122 200.382 49.0885C200.767 48.7647 201.363 48.6243 202.17 48.6672C202.786 48.7 203.33 48.8208 203.8 49.0296L203.274 50.316C202.921 50.1838 202.592 50.1096 202.288 50.0934C202.034 50.0799 201.847 50.1463 201.726 50.2924C201.605 50.4346 201.538 50.6227 201.526 50.8568L201.504 51.2664L203.049 51.3485L202.977 52.6884ZM204.086 49.7079C204.117 49.1267 204.456 48.8533 205.104 48.8877C205.752 48.9221 206.06 49.2299 206.029 49.8111C206.014 50.0881 205.921 50.3002 205.749 50.4475C205.581 50.5912 205.335 50.6544 205.011 50.6372C204.363 50.6028 204.055 50.293 204.086 49.7079ZM205.509 58.0393L203.725 57.9444L204.073 51.4029L205.857 51.4978L205.509 58.0393Z" fill="#034861"/>
<path d="M209.166 58.2337L207.382 58.1388L207.866 49.0345L209.65 49.1294L209.166 58.2337Z" fill="#034861"/>
<path d="M216.935 57.3616C217.387 57.3856 217.725 57.2745 217.95 57.0283C218.174 56.7781 218.314 56.3298 218.367 55.6833L218.379 55.4668C218.416 54.7647 218.334 54.2557 218.132 53.9398C217.933 53.6242 217.594 53.4536 217.114 53.4281C216.276 53.3835 215.821 54.0204 215.751 55.3389C215.716 55.9942 215.794 56.4893 215.983 56.824C216.177 57.159 216.494 57.3382 216.935 57.3616ZM216.222 58.7261C215.45 58.6851 214.861 58.3565 214.456 57.7403C214.051 57.1203 213.876 56.2798 213.933 55.2188C213.99 54.15 214.256 53.327 214.733 52.7499C215.213 52.1731 215.842 51.9053 216.618 51.9465C217.031 51.9685 217.388 52.0657 217.688 52.2381C217.988 52.4105 218.246 52.6668 218.463 53.0069L218.51 53.0094L218.712 52.1811L220.222 52.2613L219.721 61.6816L217.93 61.5864L218.076 58.8423C218.089 58.6043 218.132 58.278 218.205 57.8633L218.129 57.8593C217.921 58.1651 217.654 58.3915 217.33 58.5385C217.005 58.6856 216.636 58.7481 216.222 58.7261Z" fill="#034861"/>
<path d="M226.374 59.1484L226.179 58.2989L226.085 58.294C225.878 58.5881 225.594 58.8096 225.235 58.9587C224.875 59.1039 224.471 59.1645 224.022 59.1407C223.254 59.0999 222.685 58.8643 222.317 58.434C221.949 57.9997 221.785 57.3965 221.826 56.6241L222.053 52.3587L223.838 52.4535L223.635 56.2743C223.609 56.7463 223.674 57.1057 223.83 57.3526C223.985 57.5955 224.246 57.7268 224.612 57.7462C225.112 57.7728 225.481 57.6262 225.721 57.3064C225.962 56.9828 226.102 56.4348 226.143 55.6625L226.307 52.5848L228.091 52.6796L227.744 59.2212L226.374 59.1484Z" fill="#034861"/>
<path d="M232.612 54.07C232.233 54.0499 231.931 54.155 231.703 54.3855C231.476 54.612 231.335 54.9448 231.28 55.384L233.785 55.5171C233.8 55.0759 233.703 54.7304 233.494 54.4806C233.284 54.227 232.99 54.0901 232.612 54.07ZM232.57 59.5951C231.517 59.5391 230.71 59.2048 230.148 58.592C229.586 57.9793 229.333 57.1405 229.39 56.0756C229.448 54.9795 229.766 54.1475 230.344 53.5797C230.926 53.0083 231.7 52.7482 232.668 52.7997C233.592 52.8488 234.298 53.1504 234.785 53.7043C235.272 54.2583 235.49 54.9995 235.441 55.9278L235.395 56.7938L231.176 56.5696C231.169 57.0777 231.298 57.4816 231.564 57.7813C231.829 58.081 232.216 58.2443 232.723 58.2712C233.117 58.2922 233.492 58.271 233.847 58.2078C234.202 58.1445 234.576 58.0333 234.968 57.8742L234.895 59.2551C234.574 59.3945 234.235 59.4919 233.876 59.5471C233.517 59.6063 233.081 59.6223 232.57 59.5951Z" fill="#034861"/>
<path d="M242.804 54.6118C242.426 54.5917 242.123 54.6968 241.896 54.9273C241.669 55.1538 241.528 55.4866 241.473 55.9258L243.977 56.0589C243.993 55.6177 243.896 55.2722 243.686 55.0224C243.477 54.7688 243.183 54.6319 242.804 54.6118ZM242.763 60.1369C241.71 60.0809 240.902 59.7466 240.34 59.1338C239.778 58.5211 239.526 57.6823 239.582 56.6174C239.64 55.5213 239.958 54.6893 240.536 54.1215C241.118 53.5501 241.893 53.29 242.86 53.3415C243.785 53.3906 244.49 53.6922 244.977 54.2461C245.464 54.8001 245.683 55.5413 245.634 56.4696L245.588 57.3356L241.369 57.1114C241.362 57.6195 241.491 58.0234 241.756 58.3231C242.022 58.6228 242.409 58.7861 242.916 58.813C243.31 58.834 243.684 58.8128 244.04 58.7496C244.395 58.6863 244.769 58.5751 245.161 58.416L245.087 59.7969C244.767 59.9363 244.427 60.0337 244.068 60.0889C243.709 60.1481 243.274 60.1641 242.763 60.1369Z" fill="#034861"/>
<path d="M251.556 58.5389C251.52 59.2098 251.259 59.7083 250.772 60.0345C250.289 60.3609 249.584 60.4994 248.655 60.4501C248.179 60.4248 247.775 60.3701 247.443 60.2859C247.111 60.2057 246.802 60.0954 246.516 59.955L246.595 58.4805C246.918 58.6542 247.284 58.8047 247.691 58.932C248.103 59.0595 248.467 59.1316 248.783 59.1484C249.431 59.1828 249.764 59.0128 249.784 58.6383C249.792 58.4979 249.755 58.3825 249.673 58.2921C249.592 58.1978 249.45 58.0905 249.245 57.9701C249.04 57.8458 248.766 57.7002 248.423 57.5333C247.931 57.2959 247.571 57.0811 247.342 56.8891C247.118 56.6972 246.957 56.4833 246.86 56.2473C246.767 56.0077 246.73 55.7182 246.748 55.3788C246.779 54.7976 247.027 54.3609 247.492 54.0688C247.962 53.773 248.61 53.6471 249.437 53.691C250.225 53.7329 250.982 53.9453 251.709 54.3282L251.102 55.5868C250.782 55.429 250.482 55.2976 250.202 55.1928C249.922 55.0879 249.634 55.0276 249.337 55.0118C248.811 54.9838 248.54 55.1122 248.525 55.397C248.516 55.5569 248.593 55.6999 248.754 55.8258C248.92 55.9519 249.283 56.1453 249.844 56.4059C250.344 56.6398 250.708 56.8528 250.937 57.0449C251.165 57.237 251.33 57.4531 251.43 57.6931C251.531 57.9332 251.573 58.2151 251.556 58.5389Z" fill="#034861"/>
<path d="M255.67 59.3971C255.982 59.4137 256.36 59.3654 256.804 59.2521L256.734 60.5803C256.279 60.7556 255.727 60.826 255.08 60.7916C254.366 60.7536 253.855 60.5465 253.546 60.1702C253.242 59.7903 253.109 59.2395 253.147 58.5178L253.315 55.3641L252.46 55.3187L252.5 54.5639L253.515 54.0193L254.103 52.6658L255.244 52.7265L255.17 54.119L257.002 54.2164L256.931 55.5563L255.099 55.4589L254.931 58.6127C254.918 58.8662 254.978 59.0572 255.112 59.1856C255.25 59.3142 255.436 59.3847 255.67 59.3971Z" fill="#034861"/>
<path d="M262.207 61.0531L261.909 60.1454L261.862 60.1429C261.542 60.5053 261.217 60.7521 260.89 60.8833C260.566 61.0109 260.149 61.061 259.638 61.0339C259.01 61.0005 258.524 60.7947 258.18 60.4166C257.84 60.0386 257.688 59.5181 257.723 58.855C257.76 58.1606 258.029 57.6625 258.53 57.3605C259.036 57.0549 259.779 56.9105 260.76 56.9275L261.897 56.9527L261.912 56.666C261.947 56.0029 261.625 55.6533 260.947 55.6172C260.424 55.5894 259.801 55.7147 259.078 55.9932L258.551 54.7564C259.325 54.4025 260.17 54.2499 261.087 54.2986C261.965 54.3452 262.628 54.5721 263.075 54.9793C263.523 55.3864 263.726 55.9801 263.685 56.7602L263.453 61.1193L262.207 61.0531ZM261.841 57.9942L261.15 57.9809C260.63 57.9689 260.239 58.042 259.976 58.2002C259.713 58.3583 259.573 58.613 259.554 58.964C259.527 59.4672 259.803 59.7342 260.38 59.7648C260.793 59.7868 261.129 59.6854 261.388 59.4605C261.65 59.2358 261.792 58.9265 261.813 58.5325L261.841 57.9942ZM260.083 53.6584L260.091 53.5004C260.803 52.756 261.293 52.1933 261.56 51.8123L263.561 51.9187L263.554 52.0416C263.341 52.2336 262.977 52.5175 262.464 52.8931C261.956 53.2651 261.558 53.5412 261.27 53.7216L260.083 53.6584Z" fill="#034861"/>
<path d="M103.673 61.9655C104.445 62.0065 105.034 62.341 105.439 62.9688C105.844 63.5927 106.018 64.4293 105.962 65.4786C105.905 66.5592 105.634 67.3838 105.15 67.9527C104.67 68.5218 104.042 68.7857 103.266 68.7444C102.497 68.7036 101.91 68.3926 101.502 67.8116L101.379 67.8051L101.043 68.5089L99.6794 68.4364L100.163 59.3321L101.948 59.4269L101.835 61.545C101.821 61.8142 101.775 62.244 101.696 62.8344L101.767 62.8381C102.218 62.2128 102.854 61.9219 103.673 61.9655ZM103.024 63.3626C102.583 63.3392 102.254 63.4586 102.037 63.7209C101.819 63.9793 101.69 64.4203 101.649 65.044L101.639 65.2371C101.602 65.9392 101.678 66.4479 101.869 66.7632C102.063 67.0786 102.387 67.2484 102.839 67.2724C103.206 67.2919 103.506 67.1396 103.738 66.8156C103.974 66.4878 104.11 66.0021 104.144 65.3585C104.178 64.7149 104.095 64.2273 103.893 63.8959C103.692 63.5605 103.402 63.3828 103.024 63.3626Z" fill="#034861"/>
<path d="M111.897 69.0858L111.701 68.2364L111.608 68.2314C111.4 68.5255 111.117 68.7471 110.757 68.8961C110.397 69.0413 109.993 69.102 109.544 69.0781C108.776 69.0373 108.207 68.8017 107.839 68.3714C107.471 67.9372 107.307 67.3339 107.348 66.5616L107.575 62.2961L109.36 62.3909L109.157 66.2117C109.131 66.6837 109.196 67.0431 109.352 67.29C109.507 67.533 109.768 67.6642 110.135 67.6837C110.634 67.7102 111.003 67.5636 111.243 67.2439C111.484 66.9202 111.624 66.3722 111.665 65.5999L111.829 62.5222L113.613 62.6171L113.266 69.1586L111.897 69.0858Z" fill="#034861"/>
<path d="M119.805 67.5582C119.77 68.2291 119.508 68.7276 119.022 69.0538C118.539 69.3802 117.833 69.5187 116.905 69.4694C116.429 69.4441 116.025 69.3894 115.693 69.3052C115.361 69.225 115.052 69.1147 114.766 68.9743L114.844 67.4998C115.168 67.6735 115.533 67.824 115.941 67.9513C116.353 68.0788 116.717 68.1509 117.033 68.1677C117.68 68.2021 118.014 68.0321 118.034 67.6576C118.041 67.5172 118.004 67.4018 117.923 67.3114C117.842 67.2171 117.699 67.1098 117.494 66.9894C117.29 66.8651 117.016 66.7195 116.673 66.5526C116.181 66.3152 115.82 66.1004 115.592 65.9084C115.367 65.7165 115.207 65.5026 115.11 65.2666C115.017 65.027 114.979 64.7375 114.997 64.3981C115.028 63.8169 115.276 63.3802 115.742 63.0881C116.211 62.7923 116.86 62.6664 117.686 62.7103C118.474 62.7522 119.232 62.9646 119.959 63.3475L119.352 64.6061C119.032 64.4483 118.732 64.3169 118.452 64.2121C118.172 64.1072 117.883 64.0469 117.587 64.0311C117.06 64.0032 116.789 64.1315 116.774 64.4163C116.766 64.5762 116.842 64.7192 117.004 64.8451C117.169 64.9712 117.533 65.1646 118.094 65.4252C118.594 65.6591 118.958 65.8721 119.186 66.0642C119.415 66.2563 119.579 66.4724 119.68 66.7124C119.781 66.9525 119.822 67.2344 119.805 67.5582Z" fill="#034861"/>
<path d="M123.745 69.833C121.709 69.7247 120.75 68.5531 120.869 66.3179C120.928 65.2062 121.25 64.3725 121.835 63.8169C122.42 63.2573 123.229 63.005 124.263 63.0599C125.02 63.1002 125.691 63.2845 126.276 63.6129L125.676 64.9657C125.401 64.8377 125.144 64.7321 124.906 64.649C124.668 64.5621 124.428 64.5122 124.187 64.4993C123.258 64.45 122.759 65.0845 122.689 66.403C122.621 67.6824 123.051 68.3468 123.979 68.3961C124.323 68.4144 124.643 68.3864 124.94 68.3123C125.238 68.2342 125.538 68.1054 125.841 67.9259L125.76 69.4531C125.461 69.6211 125.162 69.7323 124.862 69.7868C124.566 69.8414 124.193 69.8568 123.745 69.833Z" fill="#034861"/>
<path d="M131.416 70.1234L131.118 69.2157L131.071 69.2132C130.751 69.5756 130.427 69.8224 130.099 69.9536C129.775 70.0812 129.358 70.1313 128.847 70.1042C128.219 70.0708 127.733 69.865 127.389 69.4869C127.049 69.1089 126.897 68.5884 126.932 67.9253C126.969 67.2309 127.238 66.7328 127.74 66.4309C128.245 66.1252 128.988 65.9809 129.969 65.9978L131.106 66.023L131.121 65.7363C131.156 65.0732 130.834 64.7236 130.156 64.6875C129.633 64.6597 129.01 64.785 128.287 65.0635L127.761 63.8267C128.534 63.4728 129.38 63.3202 130.296 63.3689C131.174 63.4155 131.837 63.6425 132.284 64.0496C132.732 64.4568 132.935 65.0504 132.894 65.8306L132.662 70.1896L131.416 70.1234ZM131.05 67.0645L130.359 67.0512C129.839 67.0393 129.448 67.1123 129.185 67.2705C128.923 67.4287 128.782 67.6833 128.763 68.0343C128.737 68.5375 129.012 68.8045 129.589 68.8352C130.003 68.8571 130.339 68.7557 130.597 68.5308C130.859 68.3061 131.001 67.9968 131.022 67.6028L131.05 67.0645Z" fill="#034861"/>
<path d="M140.544 70.6086L138.759 70.5137L138.962 66.6929C138.987 66.221 138.922 65.8635 138.767 65.6205C138.612 65.3737 138.351 65.2405 137.984 65.221C137.485 65.1945 137.115 65.343 136.875 65.6666C136.635 65.9864 136.494 66.5324 136.453 67.3048L136.29 70.3825L134.505 70.2876L134.853 63.7461L136.216 63.8185L136.412 64.668L136.511 64.6733C136.727 64.3679 137.013 64.1445 137.368 64.003C137.728 63.8578 138.13 63.7971 138.575 63.8207C139.336 63.8611 139.902 64.0985 140.274 64.533C140.646 64.9635 140.812 65.5669 140.77 66.3431L140.544 70.6086Z" fill="#034861"/>
<path d="M144.446 70.9334C143.677 70.8925 143.089 70.562 142.68 69.9417C142.275 69.3217 142.1 68.4831 142.156 67.426C142.213 66.3533 142.48 65.5304 142.956 64.9572C143.437 64.3803 144.069 64.1127 144.853 64.1544C145.676 64.1982 146.287 64.5514 146.686 65.2141L146.745 65.2173C146.681 64.7249 146.659 64.2876 146.68 63.9053L146.791 61.8106L148.581 61.9058L148.097 71.0101L146.728 70.9373L146.428 70.0706L146.352 70.0665C145.912 70.6886 145.277 70.9775 144.446 70.9334ZM145.148 69.5448C145.604 69.5691 145.945 69.4542 146.169 69.2001C146.398 68.9463 146.539 68.502 146.592 67.8672L146.602 67.6741C146.64 66.972 146.557 66.463 146.355 66.1471C146.157 65.8314 145.814 65.6606 145.326 65.6347C144.928 65.6136 144.609 65.7668 144.369 66.0943C144.132 66.4182 143.997 66.9019 143.963 67.5455C143.929 68.1892 144.014 68.6788 144.219 69.0143C144.425 69.346 144.734 69.5228 145.148 69.5448Z" fill="#034861"/>
<path d="M151.56 67.9024C151.526 68.55 151.605 69.0451 151.798 69.3879C151.995 69.7308 152.333 69.9151 152.813 69.9406C153.289 69.9659 153.639 69.8202 153.863 69.5035C154.091 69.1831 154.223 68.6972 154.258 68.0458C154.292 67.3983 154.212 66.907 154.019 66.5721C153.826 66.2371 153.489 66.0569 153.009 66.0314C152.533 66.0061 152.181 66.1497 151.954 66.4623C151.726 66.771 151.595 67.251 151.56 67.9024ZM156.083 68.1428C156.027 69.2078 155.701 70.0256 155.108 70.5965C154.514 71.1673 153.716 71.4261 152.714 71.3728C152.086 71.3395 151.539 71.1735 151.074 70.8749C150.609 70.5725 150.261 70.157 150.031 69.6284C149.801 69.0998 149.704 68.4922 149.741 67.8057C149.797 66.7369 150.12 65.9209 150.71 65.3576C151.299 64.7943 152.099 64.5396 153.109 64.5933C153.737 64.6266 154.284 64.7926 154.749 65.0912C155.214 65.3897 155.562 65.8013 155.792 66.326C156.023 66.8507 156.12 67.4563 156.083 68.1428Z" fill="#034861"/>
<path d="M159.199 70.3387C158.955 71.1159 158.562 72.0319 158.021 73.0866L156.733 73.0182C157.042 71.9941 157.291 71.0255 157.481 70.1124L159.119 70.1995L159.199 70.3387Z" fill="#034861"/>
<path d="M166.622 72.1121C164.585 72.0039 163.627 70.8322 163.746 68.5971C163.805 67.4854 164.127 66.6517 164.712 66.096C165.297 65.5365 166.106 65.2841 167.14 65.3391C167.897 65.3793 168.568 65.5636 169.153 65.892L168.553 67.2449C168.278 67.1168 168.021 67.0113 167.783 66.9282C167.545 66.8412 167.305 66.7913 167.064 66.7785C166.135 66.7291 165.636 67.3637 165.566 68.6821C165.498 69.9616 165.928 70.626 166.856 70.6753C167.2 70.6936 167.52 70.6656 167.817 70.5914C168.115 70.5134 168.415 70.3846 168.718 70.2051L168.637 71.7322C168.338 71.9002 168.039 72.0115 167.739 72.0659C167.443 72.1206 167.07 72.136 166.622 72.1121Z" fill="#034861"/>
<path d="M171.735 68.9748C171.7 69.6223 171.78 70.1175 171.973 70.4603C172.17 70.8032 172.508 70.9875 172.988 71.013C173.464 71.0383 173.814 70.8926 174.038 70.5759C174.266 70.2555 174.398 69.7696 174.432 69.1182C174.467 68.4707 174.387 67.9794 174.194 67.6445C174 67.3095 173.664 67.1293 173.184 67.1038C172.708 67.0785 172.356 67.2221 172.128 67.5347C171.901 67.8434 171.769 68.3234 171.735 68.9748ZM176.258 69.2152C176.201 70.2801 175.876 71.098 175.282 71.6689C174.689 72.2397 173.891 72.4985 172.888 72.4452C172.26 72.4119 171.714 72.2459 171.248 71.9473C170.783 71.6449 170.436 71.2294 170.206 70.7008C169.975 70.1722 169.879 69.5646 169.915 68.8781C169.972 67.8093 170.295 66.9933 170.884 66.43C171.474 65.8667 172.273 65.612 173.284 65.6657C173.912 65.699 174.458 65.865 174.924 66.1636C175.389 66.4621 175.737 66.8737 175.967 67.3984C176.197 67.9231 176.294 68.5287 176.258 69.2152Z" fill="#034861"/>
<path d="M181.144 72.8841C180.376 72.8432 179.788 72.5323 179.381 71.9513L179.287 71.9463C179.32 72.4957 179.335 72.8133 179.33 72.8992L179.189 75.5497L177.405 75.4548L177.905 66.0345L179.357 66.1117L179.563 66.9735L179.645 66.9778C180.097 66.3525 180.732 66.0616 181.551 66.1051C182.324 66.1462 182.913 66.4767 183.318 67.0968C183.723 67.7168 183.897 68.5573 183.841 69.6183C183.804 70.3166 183.668 70.9176 183.434 71.4215C183.204 71.9257 182.892 72.3022 182.5 72.5513C182.107 72.8003 181.655 72.9112 181.144 72.8841ZM180.902 67.5023C180.461 67.4789 180.132 67.5983 179.915 67.8606C179.698 68.119 179.569 68.56 179.528 69.1837L179.517 69.3768C179.48 70.0789 179.557 70.5876 179.747 70.9029C179.942 71.2183 180.265 71.3881 180.718 71.4121C181.517 71.4546 181.952 70.8166 182.022 69.4982C182.057 68.8546 181.983 68.3675 181.801 68.0371C181.623 67.703 181.323 67.5247 180.902 67.5023Z" fill="#034861"/>
<path d="M185.502 64.7426C185.533 64.1614 185.872 63.888 186.52 63.9224C187.167 63.9569 187.476 64.2647 187.445 64.8459C187.43 65.1228 187.337 65.335 187.165 65.4823C186.997 65.6259 186.751 65.6891 186.427 65.6719C185.779 65.6375 185.471 65.3277 185.502 64.7426ZM186.925 73.074L185.141 72.9792L185.489 66.4376L187.273 66.5325L186.925 73.074Z" fill="#034861"/>
<path d="M192.958 73.3947L192.66 72.487L192.613 72.4845C192.293 72.8469 191.969 73.0937 191.641 73.2249C191.317 73.3525 190.9 73.4027 190.389 73.3755C189.761 73.3421 189.275 73.1363 188.931 72.7582C188.592 72.3802 188.439 71.8597 188.475 71.1966C188.511 70.5023 188.78 70.0041 189.282 69.7022C189.787 69.3965 190.53 69.2522 191.511 69.2691L192.648 69.2943L192.663 69.0076C192.698 68.3445 192.377 67.9949 191.698 67.9588C191.175 67.931 190.552 68.0564 189.829 68.3348L189.303 67.098C190.076 66.7441 190.922 66.5915 191.838 66.6402C192.716 66.6869 193.379 66.9138 193.826 67.3209C194.274 67.7281 194.477 68.3217 194.436 69.1019L194.204 73.4609L192.958 73.3947ZM192.592 70.3358L191.901 70.3225C191.381 70.3106 190.99 70.3837 190.727 70.5418C190.465 70.7 190.324 70.9546 190.305 71.3056C190.279 71.8088 190.554 72.0758 191.131 72.1065C191.545 72.1284 191.881 72.027 192.139 71.8021C192.401 71.5774 192.543 71.2681 192.564 70.8741L192.592 70.3358Z" fill="#034861"/>
<path d="M198.572 67.1331L200.526 67.237L201.565 70.9829C201.653 71.3084 201.705 71.6906 201.721 72.1296L201.756 72.1314C201.82 71.7319 201.924 71.358 202.068 71.0097L203.475 67.3937L205.388 67.4954L202.228 74.7266C201.939 75.3957 201.549 75.8874 201.059 76.2017C200.572 76.5162 200.015 76.6567 199.387 76.6233C199.079 76.607 198.779 76.5577 198.486 76.4757L198.561 75.0597C198.773 75.1218 199.006 75.1596 199.259 75.1731C199.575 75.1899 199.855 75.107 200.1 74.9244C200.348 74.7459 200.548 74.4651 200.702 74.0821L200.824 73.7659L198.572 67.1331Z" fill="#034861"/>
<path d="M212.682 74.5605C211.913 74.5196 211.325 74.2087 210.918 73.6277L210.824 73.6227C210.858 74.1721 210.872 74.4897 210.868 74.5755L210.727 77.2261L208.942 77.1312L209.443 67.7109L210.894 67.7881L211.101 68.6499L211.182 68.6542C211.634 68.0289 212.27 67.738 213.089 67.7815C213.861 67.8226 214.45 68.1531 214.855 68.7732C215.26 69.3932 215.435 70.2337 215.378 71.2947C215.341 71.993 215.206 72.594 214.971 73.0979C214.741 73.6021 214.43 73.9786 214.037 74.2277C213.644 74.4767 213.193 74.5876 212.682 74.5605ZM212.44 69.1787C211.999 69.1553 211.67 69.2747 211.452 69.537C211.235 69.7954 211.106 70.2364 211.065 70.8601L211.055 71.0532C211.018 71.7553 211.094 72.264 211.285 72.5793C211.479 72.8947 211.803 73.0645 212.255 73.0885C213.055 73.131 213.49 72.493 213.56 71.1746C213.594 70.531 213.52 70.0439 213.338 69.7135C213.16 69.3794 212.861 69.2011 212.44 69.1787Z" fill="#034861"/>
<path d="M219.674 69.4049C219.296 69.3847 218.993 69.4899 218.765 69.7203C218.538 69.9469 218.397 70.2797 218.343 70.7188L220.847 70.852C220.863 70.4108 220.766 70.0653 220.556 69.8155C220.346 69.5619 220.053 69.425 219.674 69.4049ZM219.633 74.93C218.58 74.874 217.772 74.5396 217.21 73.9269C216.648 73.3142 216.395 72.4754 216.452 71.4105C216.51 70.3144 216.828 69.4824 217.406 68.9146C217.988 68.3431 218.763 68.0831 219.73 68.1345C220.654 68.1837 221.36 68.4852 221.847 69.0392C222.334 69.5932 222.553 70.3343 222.503 71.2627L222.457 72.1287L218.239 71.9044C218.231 72.4126 218.36 72.8165 218.626 73.1162C218.892 73.4159 219.278 73.5792 219.785 73.6061C220.179 73.6271 220.554 73.6059 220.909 73.5427C221.265 73.4794 221.638 73.3682 222.03 73.2091L221.957 74.59C221.636 74.7294 221.297 74.8268 220.938 74.882C220.579 74.9411 220.144 74.9571 219.633 74.93Z" fill="#034861"/>
<path d="M229.799 68.793L229.751 69.6999L228.713 69.9088C228.885 70.2113 228.961 70.5439 228.941 70.9067C228.904 71.6088 228.629 72.1438 228.117 72.5117C227.609 72.8758 226.919 73.0348 226.05 72.9885L225.729 72.9539L225.467 72.9106C225.276 73.0413 225.176 73.1925 225.167 73.3641C225.153 73.6216 225.474 73.7677 226.13 73.8025L227.241 73.8616C227.959 73.8998 228.497 74.0829 228.855 74.411C229.217 74.7392 229.382 75.2018 229.35 75.7986C229.31 76.5631 228.958 77.139 228.296 77.5263C227.638 77.9138 226.712 78.0758 225.518 78.0124C224.606 77.9638 223.916 77.7668 223.449 77.4212C222.986 77.0798 222.77 76.6223 222.8 76.0489C222.821 75.6549 222.962 75.3319 223.222 75.0797C223.482 74.8275 223.852 74.6575 224.334 74.5697C224.155 74.4819 224.002 74.3466 223.875 74.1638C223.748 73.9771 223.69 73.7843 223.7 73.5854C223.713 73.3357 223.797 73.1328 223.95 72.9767C224.103 72.8166 224.32 72.6639 224.602 72.5185C224.266 72.352 224.006 72.0995 223.821 71.7611C223.639 71.4228 223.56 71.0314 223.584 70.5867C223.622 69.8729 223.883 69.3332 224.368 68.9678C224.853 68.6024 225.526 68.4427 226.389 68.4885C226.572 68.4982 226.787 68.5273 227.035 68.5757C227.287 68.6203 227.448 68.6524 227.517 68.6717L229.799 68.793ZM224.353 75.9906C224.34 76.2363 224.446 76.4357 224.673 76.5885C224.903 76.7416 225.231 76.8294 225.656 76.852C226.296 76.886 226.802 76.8249 227.174 76.6687C227.546 76.5124 227.74 76.2822 227.757 75.9779C227.77 75.7322 227.671 75.5568 227.462 75.4518C227.252 75.3467 226.923 75.2823 226.475 75.2585L225.55 75.2093C225.222 75.1919 224.943 75.2533 224.713 75.3937C224.486 75.5381 224.366 75.7371 224.353 75.9906ZM225.285 70.7006C225.266 71.0556 225.331 71.3407 225.48 71.5559C225.633 71.7714 225.875 71.8879 226.207 71.9055C226.542 71.9234 226.794 71.8331 226.961 71.6346C227.128 71.4362 227.221 71.1595 227.239 70.8045C227.281 70.0165 226.978 69.6054 226.331 69.5709C225.676 69.5361 225.327 69.9127 225.285 70.7006Z" fill="#034861"/>
<path d="M234.688 75.6129L234.39 74.7052L234.343 74.7027C234.023 75.0651 233.699 75.3119 233.371 75.4431C233.047 75.5707 232.63 75.6209 232.119 75.5937C231.491 75.5603 231.005 75.3545 230.661 74.9764C230.322 74.5984 230.169 74.0779 230.205 73.4148C230.242 72.7205 230.511 72.2223 231.012 71.9204C231.517 71.6147 232.26 71.4704 233.241 71.4873L234.378 71.5125L234.393 71.2258C234.428 70.5627 234.107 70.2131 233.428 70.177C232.905 70.1492 232.282 70.2746 231.56 70.553L231.033 69.3162C231.807 68.9623 232.652 68.8097 233.568 68.8584C234.446 68.9051 235.109 69.132 235.557 69.5391C236.004 69.9463 236.208 70.5399 236.166 71.3201L235.934 75.6791L234.688 75.6129ZM234.323 72.554L233.631 72.5407C233.111 72.5288 232.72 72.6018 232.457 72.76C232.195 72.9182 232.054 73.1728 232.035 73.5238C232.009 74.027 232.284 74.294 232.861 74.3247C233.275 74.3466 233.611 74.2452 233.869 74.0203C234.131 73.7956 234.273 73.4863 234.294 73.0923L234.323 72.554Z" fill="#034861"/>
<path d="M242.675 76.0374L240.89 75.9426L241.374 66.8382L243.159 66.9331L242.675 76.0374Z" fill="#034861"/>
<path d="M246.149 72.9304C246.115 73.5779 246.194 74.073 246.387 74.4158C246.584 74.7588 246.922 74.943 247.402 74.9685C247.878 74.9938 248.228 74.8481 248.452 74.5314C248.681 74.2111 248.812 73.7252 248.847 73.0738C248.881 72.4262 248.802 71.935 248.608 71.6C248.415 71.2651 248.078 71.0848 247.598 71.0593C247.122 71.034 246.771 71.1777 246.543 71.4902C246.315 71.7989 246.184 72.279 246.149 72.9304ZM250.672 73.1708C250.616 74.2357 250.291 75.0536 249.697 75.6244C249.103 76.1953 248.305 76.4541 247.303 76.4008C246.675 76.3674 246.128 76.2014 245.663 75.9029C245.198 75.6004 244.85 75.1849 244.62 74.6563C244.39 74.1277 244.293 73.5202 244.33 72.8337C244.386 71.7648 244.71 70.9488 245.299 70.3856C245.888 69.8223 246.688 69.5675 247.698 69.6212C248.326 69.6546 248.873 69.8206 249.338 70.1191C249.803 70.4177 250.151 70.8293 250.382 71.354C250.612 71.8787 250.709 72.4843 250.672 73.1708Z" fill="#034861"/>
<path d="M256.639 74.8317C256.604 75.5026 256.342 76.0012 255.856 76.3273C255.373 76.6537 254.667 76.7923 253.739 76.7429C253.263 76.7176 252.859 76.6629 252.527 76.5788C252.195 76.4985 251.886 76.3882 251.6 76.2478L251.678 74.7733C252.002 74.947 252.367 75.0975 252.775 75.2248C253.187 75.3523 253.551 75.4244 253.867 75.4412C254.514 75.4756 254.848 75.3056 254.868 74.9311C254.875 74.7907 254.838 74.6753 254.757 74.5849C254.676 74.4907 254.533 74.3833 254.328 74.2629C254.124 74.1386 253.85 73.993 253.507 73.8261C253.015 73.5887 252.654 73.374 252.426 73.1819C252.202 72.99 252.041 72.7761 251.944 72.5401C251.851 72.3005 251.814 72.011 251.832 71.6716C251.862 71.0904 252.111 70.6538 252.576 70.3616C253.045 70.0658 253.694 69.9399 254.521 69.9839C255.309 70.0257 256.066 70.2381 256.793 70.621L256.186 71.8796C255.866 71.7218 255.566 71.5904 255.286 71.4856C255.006 71.3807 254.718 71.3204 254.421 71.3047C253.895 71.2767 253.624 71.4051 253.609 71.6898C253.6 71.8497 253.677 71.9927 253.838 72.1186C254.003 72.2448 254.367 72.4381 254.928 72.6988C255.428 72.9327 255.792 73.1457 256.021 73.3377C256.249 73.5298 256.413 73.7459 256.514 73.9859C256.615 74.226 256.657 74.5079 256.639 74.8317Z" fill="#034861"/>
<path d="M100.895 84.641C100.127 84.6001 99.538 84.2696 99.1289 83.6493C98.7238 83.0293 98.5493 82.1907 98.6055 81.1336C98.6625 80.0609 98.9292 79.238 99.4056 78.6648C99.8862 78.088 100.518 77.8204 101.302 77.862C102.126 77.9058 102.737 78.259 103.136 78.9218L103.194 78.9249C103.13 78.4325 103.109 77.9952 103.129 77.6129L103.24 75.5182L105.031 75.6134L104.547 84.7177L103.178 84.645L102.877 83.7782L102.801 83.7741C102.361 84.3962 101.726 84.6852 100.895 84.641ZM101.597 83.2524C102.053 83.2767 102.394 83.1618 102.619 82.9078C102.847 82.6539 102.988 82.2096 103.041 81.5748L103.052 81.3817C103.089 80.6796 103.007 80.1706 102.804 79.8547C102.606 79.5391 102.263 79.3683 101.775 79.3423C101.377 79.3212 101.058 79.4744 100.818 79.8019C100.582 80.1258 100.446 80.6095 100.412 81.2532C100.378 81.8968 100.463 82.3864 100.669 82.722C100.874 83.0536 101.183 83.2305 101.597 83.2524Z" fill="#034861"/>
<path d="M110.567 85.0378L110.27 84.13L110.223 84.1276C109.902 84.49 109.578 84.7368 109.25 84.868C108.927 84.9955 108.509 85.0457 107.998 85.0186C107.37 84.9852 106.885 84.7794 106.541 84.4013C106.201 84.0233 106.049 83.5028 106.084 82.8397C106.121 82.1453 106.39 81.6472 106.891 81.3452C107.396 81.0396 108.139 80.8952 109.12 80.9122L110.257 80.9374L110.273 80.6507C110.308 79.9876 109.986 79.638 109.307 79.6019C108.785 79.5741 108.162 79.6994 107.439 79.9779L106.912 78.7411C107.686 78.3872 108.531 78.2345 109.448 78.2833C110.326 78.3299 110.988 78.5568 111.436 78.964C111.884 79.3711 112.087 79.9648 112.045 80.7449L111.814 85.104L110.567 85.0378ZM110.202 81.9789L109.51 81.9656C108.991 81.9536 108.6 82.0267 108.337 82.1849C108.074 82.343 107.934 82.5976 107.915 82.9487C107.888 83.4519 108.163 83.7188 108.741 83.7495C109.154 83.7715 109.49 83.6701 109.749 83.4452C110.011 83.2205 110.152 82.9112 110.173 82.5172L110.202 81.9789Z" fill="#034861"/>
<path d="M116.482 84.0437C116.794 84.0603 117.172 84.0119 117.616 83.8986L117.546 85.2268C117.091 85.4021 116.539 85.4725 115.892 85.4381C115.178 85.4002 114.667 85.1931 114.358 84.8168C114.054 84.4368 113.92 83.886 113.959 83.1644L114.126 80.0106L113.272 79.9652L113.312 79.2104L114.327 78.6658L114.915 77.3124L116.056 77.373L115.982 78.7656L117.814 78.8629L117.742 80.2028L115.911 80.1055L115.743 83.2592C115.73 83.5128 115.79 83.7037 115.924 83.8321C116.062 83.9607 116.248 84.0312 116.482 84.0437Z" fill="#034861"/>
<path d="M120.461 82.2719C120.426 82.9194 120.506 83.4146 120.699 83.7573C120.895 84.1003 121.234 84.2845 121.714 84.31C122.189 84.3353 122.54 84.1896 122.764 83.873C122.992 83.5526 123.123 83.0667 123.158 82.4153C123.192 81.7678 123.113 81.2765 122.92 80.9416C122.726 80.6066 122.389 80.4264 121.91 80.4009C121.434 80.3756 121.082 80.5192 120.854 80.8318C120.626 81.1404 120.495 81.6205 120.461 82.2719ZM124.984 82.5123C124.927 83.5772 124.602 84.3951 124.008 84.966C123.415 85.5368 122.616 85.7956 121.614 85.7423C120.986 85.7089 120.439 85.543 119.974 85.2444C119.509 84.9419 119.161 84.5264 118.931 83.9978C118.701 83.4693 118.604 82.8617 118.641 82.1752C118.698 81.1064 119.021 80.2903 119.61 79.7271C120.199 79.1638 120.999 78.909 122.01 78.9627C122.638 78.9961 123.184 79.1621 123.65 79.4606C124.115 79.7592 124.463 80.1708 124.693 80.6955C124.923 81.2202 125.02 81.8258 124.984 82.5123Z" fill="#034861"/>
<path d="M130.951 84.1732C130.915 84.8441 130.654 85.3427 130.167 85.6689C129.684 85.9953 128.979 86.1338 128.05 86.0844C127.574 86.0591 127.17 86.0044 126.838 85.9203C126.506 85.84 126.197 85.7297 125.911 85.5893L125.99 84.1149C126.313 84.2885 126.679 84.439 127.086 84.5663C127.498 84.6938 127.862 84.7659 128.178 84.7827C128.826 84.8172 129.159 84.6471 129.179 84.2727C129.187 84.1322 129.15 84.0168 129.069 83.9265C128.988 83.8322 128.845 83.7248 128.64 83.6044C128.435 83.4801 128.161 83.3345 127.818 83.1676C127.326 82.9302 126.966 82.7155 126.737 82.5234C126.513 82.3315 126.352 82.1176 126.255 81.8817C126.162 81.642 126.125 81.3525 126.143 81.0131C126.174 80.4319 126.422 79.9953 126.887 79.7032C127.357 79.4074 128.005 79.2814 128.832 79.3254C129.62 79.3673 130.377 79.5796 131.104 79.9625L130.497 81.2211C130.177 81.0633 129.877 80.9319 129.597 80.8271C129.317 80.7222 129.029 80.6619 128.732 80.6462C128.206 80.6182 127.935 80.7466 127.92 81.0313C127.911 81.1913 127.988 81.3342 128.149 81.4601C128.315 81.5863 128.678 81.7797 129.239 82.0403C129.739 82.2742 130.103 82.4872 130.332 82.6793C130.56 82.8713 130.725 83.0874 130.825 83.3275C130.926 83.5675 130.968 83.8494 130.951 84.1732Z" fill="#034861"/>
<path d="M134.056 85.0248C133.812 85.802 133.419 86.7179 132.878 87.7727L131.59 87.7043C131.899 86.6802 132.148 85.7116 132.337 84.7985L133.976 84.8856L134.056 85.0248Z" fill="#034861"/>
<path d="M138.24 79.9487L140.194 80.0526L141.233 83.7985C141.321 84.124 141.373 84.5062 141.389 84.9452L141.424 84.947C141.489 84.5475 141.593 84.1736 141.736 83.8253L143.143 80.2093L145.056 80.311L141.897 87.5422C141.607 88.2113 141.217 88.703 140.727 89.0173C140.241 89.3318 139.684 89.4723 139.056 89.439C138.747 89.4226 138.447 89.3734 138.154 89.2913L138.229 87.8753C138.441 87.9374 138.674 87.9752 138.927 87.9887C139.243 88.0055 139.524 87.9226 139.768 87.74C140.016 87.5615 140.217 87.2808 140.37 86.8977L140.493 86.5815L138.24 79.9487Z" fill="#034861"/>
<path d="M151.759 81.8174C151.381 81.7973 151.078 81.9024 150.851 82.1329C150.624 82.3594 150.483 82.6922 150.428 83.1314L152.932 83.2645C152.948 82.8233 152.851 82.4778 152.641 82.2281C152.432 81.9744 152.138 81.8375 151.759 81.8174ZM151.718 87.3425C150.665 87.2865 149.857 86.9522 149.295 86.3394C148.733 85.7267 148.48 84.8879 148.537 83.823C148.595 82.7269 148.913 81.8949 149.491 81.3272C150.073 80.7557 150.848 80.4956 151.815 80.5471C152.74 80.5962 153.445 80.8978 153.932 81.4517C154.419 82.0057 154.638 82.7469 154.589 83.6753L154.543 84.5412L150.324 84.317C150.316 84.8251 150.446 85.229 150.711 85.5287C150.977 85.8284 151.363 85.9917 151.871 86.0187C152.264 86.0396 152.639 86.0184 152.995 85.9552C153.35 85.8919 153.724 85.7808 154.115 85.6216L154.042 87.0025C153.722 87.1419 153.382 87.2393 153.023 87.2945C152.664 87.3537 152.229 87.3697 151.718 87.3425Z" fill="#034861"/>
<path d="M161.882 87.7654L160.097 87.6706L160.3 83.8498C160.325 83.3778 160.26 83.0203 160.105 82.7774C159.95 82.5305 159.689 82.3973 159.322 82.3778C158.823 82.3513 158.453 82.4998 158.213 82.8235C157.973 83.1432 157.833 83.6893 157.792 84.4616L157.628 87.5393L155.843 87.4444L156.191 80.9029L157.554 80.9754L157.75 81.8248L157.849 81.8301C158.065 81.5247 158.351 81.3013 158.706 81.1598C159.066 81.0147 159.468 80.9539 159.913 80.9775C160.674 81.018 161.24 81.2554 161.612 81.6898C161.984 82.1203 162.15 82.7237 162.108 83.5L161.882 87.7654Z" fill="#034861"/>
<path d="M171.466 88.2749L171.27 87.4254L171.177 87.4204C170.97 87.7145 170.686 87.9361 170.326 88.0852C169.966 88.2304 169.562 88.291 169.113 88.2672C168.345 88.2263 167.777 87.9907 167.408 87.5604C167.04 87.1262 166.877 86.5229 166.918 85.7506L167.144 81.4851L168.929 81.58L168.726 85.4008C168.701 85.8728 168.766 86.2322 168.921 86.479C169.076 86.722 169.337 86.8532 169.704 86.8727C170.203 86.8993 170.573 86.7527 170.813 86.4329C171.053 86.1093 171.194 85.5613 171.235 84.7889L171.398 81.7112L173.183 81.8061L172.835 88.3476L171.466 88.2749Z" fill="#034861"/>
<path d="M180.746 88.7681L178.961 88.6733L179.164 84.8525C179.189 84.3805 179.124 84.023 178.969 83.7801C178.814 83.5332 178.553 83.4 178.186 83.3806C177.687 83.354 177.317 83.5026 177.077 83.8262C176.837 84.146 176.697 84.692 176.656 85.4643L176.492 88.542L174.707 88.4472L175.055 81.9056L176.418 81.9781L176.614 82.8276L176.713 82.8328C176.929 82.5275 177.215 82.304 177.57 82.1625C177.93 82.0174 178.332 81.9566 178.777 81.9802C179.538 82.0207 180.104 82.2581 180.476 82.6925C180.848 83.123 181.014 83.7264 180.972 84.5027L180.746 88.7681Z" fill="#034861"/>
<path d="M186.737 89.0866L186.439 88.1789L186.393 88.1764C186.072 88.5388 185.748 88.7856 185.42 88.9169C185.097 89.0444 184.679 89.0946 184.168 89.0674C183.54 89.034 183.054 88.8283 182.711 88.4501C182.371 88.0722 182.219 87.5516 182.254 86.8885C182.291 86.1942 182.56 85.696 183.061 85.3941C183.566 85.0884 184.309 84.9441 185.29 84.961L186.427 84.9863L186.442 84.6996C186.478 84.0364 186.156 83.6868 185.477 83.6507C184.954 83.623 184.332 83.7483 183.609 84.0267L183.082 82.79C183.856 82.436 184.701 82.2834 185.618 82.3321C186.495 82.3788 187.158 82.6057 187.606 83.0128C188.054 83.42 188.257 84.0136 188.215 84.7938L187.984 89.1529L186.737 89.0866ZM186.372 86.0278L185.68 86.0145C185.16 86.0025 184.769 86.0756 184.507 86.2337C184.244 86.3919 184.103 86.6465 184.085 86.9976C184.058 87.5008 184.333 87.7677 184.911 87.7984C185.324 87.8204 185.66 87.7189 185.918 87.494C186.181 87.2694 186.322 86.96 186.343 86.5661L186.372 86.0278Z" fill="#034861"/>
<path d="M197.607 87.7163C197.571 88.3873 197.31 88.8858 196.823 89.212C196.34 89.5384 195.635 89.6769 194.706 89.6276C194.23 89.6023 193.826 89.5476 193.494 89.4634C193.162 89.3832 192.853 89.2729 192.567 89.1325L192.646 87.658C192.969 87.8317 193.335 87.9821 193.742 88.1094C194.154 88.2369 194.518 88.3091 194.834 88.3259C195.482 88.3603 195.815 88.1903 195.835 87.8158C195.843 87.6754 195.806 87.56 195.724 87.4696C195.643 87.3753 195.5 87.268 195.296 87.1476C195.091 87.0232 194.817 86.8776 194.474 86.7107C193.982 86.4734 193.622 86.2586 193.393 86.0665C193.169 85.8747 193.008 85.6608 192.911 85.4248C192.818 85.1852 192.781 84.8957 192.799 84.5563C192.83 83.9751 193.078 83.5384 193.543 83.2463C194.013 82.9505 194.661 82.8246 195.488 82.8685C196.276 82.9104 197.033 83.1228 197.76 83.5057L197.153 84.7643C196.833 84.6064 196.533 84.4751 196.253 84.3702C195.973 84.2654 195.685 84.2051 195.388 84.1893C194.862 84.1613 194.591 84.2897 194.576 84.5745C194.567 84.7344 194.644 84.8773 194.805 85.0033C194.971 85.1294 195.334 85.3228 195.895 85.5834C196.395 85.8173 196.759 86.0303 196.988 86.2224C197.216 86.4145 197.381 86.6305 197.481 86.8706C197.582 87.1107 197.624 87.3926 197.607 87.7163Z" fill="#034861"/>
<path d="M201.892 84.4822C201.513 84.4621 201.21 84.5673 200.983 84.7977C200.756 85.0242 200.615 85.3571 200.56 85.7962L203.065 85.9293C203.08 85.4881 202.983 85.1426 202.774 84.8929C202.564 84.6392 202.27 84.5023 201.892 84.4822ZM201.85 90.0073C200.797 89.9513 199.99 89.617 199.428 89.0043C198.865 88.3915 198.613 87.5527 198.669 86.4878C198.728 85.3917 199.046 84.5598 199.624 83.992C200.205 83.4205 200.98 83.1605 201.948 83.2119C202.872 83.261 203.578 83.5626 204.065 84.1166C204.551 84.6705 204.77 85.4117 204.721 86.3401L204.675 87.206L200.456 86.9818C200.449 87.4899 200.578 87.8938 200.844 88.1935C201.109 88.4932 201.496 88.6565 202.003 88.6835C202.397 88.7044 202.772 88.6833 203.127 88.62C203.482 88.5568 203.856 88.4456 204.248 88.2865L204.174 89.6673C203.854 89.8068 203.514 89.9041 203.156 89.9594C202.796 90.0185 202.361 90.0345 201.85 90.0073Z" fill="#034861"/>
<path d="M211.833 90.4206L210.048 90.3257L210.251 86.505C210.276 86.033 210.215 85.6757 210.068 85.4332C209.924 85.1869 209.683 85.0548 209.343 85.0367C208.887 85.0125 208.547 85.1626 208.322 85.4871C208.097 85.8115 207.965 86.358 207.924 87.1264L207.76 90.2041L205.976 90.1093L206.323 83.5677L207.687 83.6402L207.882 84.4896L207.982 84.4949C208.173 84.2039 208.439 83.9833 208.78 83.8332C209.12 83.6792 209.505 83.6136 209.934 83.6364C210.913 83.6885 211.559 84.0436 211.873 84.7018L212.031 84.7102C212.222 84.4152 212.492 84.1929 212.841 84.0432C213.193 83.8937 213.583 83.8304 214.013 83.8532C214.754 83.8926 215.303 84.1135 215.661 84.5159C216.023 84.9146 216.182 85.5332 216.138 86.3719L215.911 90.6374L214.12 90.5422L214.324 86.7214C214.349 86.2494 214.287 85.8922 214.14 85.6496C213.997 85.4034 213.755 85.2712 213.416 85.2532C212.979 85.23 212.643 85.3686 212.408 85.669C212.177 85.9697 212.043 86.4594 212.007 87.1381L211.833 90.4206Z" fill="#034861"/>
<path d="M221.902 90.9559L221.605 90.0481L221.558 90.0457C221.237 90.4081 220.913 90.6549 220.585 90.7861C220.262 90.9136 219.844 90.9638 219.333 90.9367C218.705 90.9033 218.22 90.6975 217.876 90.3194C217.536 89.9414 217.384 89.4209 217.419 88.7577C217.456 88.0634 217.725 87.5653 218.226 87.2633C218.731 86.9577 219.474 86.8133 220.455 86.8303L221.592 86.8555L221.608 86.5688C221.643 85.9057 221.321 85.5561 220.642 85.52C220.12 85.4922 219.497 85.6175 218.774 85.896L218.247 84.6592C219.021 84.3052 219.866 84.1526 220.783 84.2014C221.661 84.248 222.323 84.4749 222.771 84.8821C223.219 85.2892 223.422 85.8829 223.38 86.663L223.149 91.0221L221.902 90.9559ZM221.537 87.897L220.845 87.8837C220.326 87.8717 219.935 87.9448 219.672 88.103C219.409 88.2611 219.269 88.5157 219.25 88.8668C219.223 89.37 219.498 89.6369 220.076 89.6676C220.489 89.6896 220.825 89.5882 221.084 89.3633C221.346 89.1386 221.487 88.8293 221.508 88.4353L221.537 87.897Z" fill="#034861"/>
<path d="M231.03 91.4411L229.246 91.3462L229.449 87.5254C229.474 87.0534 229.409 86.6959 229.253 86.453C229.098 86.2061 228.837 86.0729 228.471 86.0535C227.971 86.0269 227.602 86.1755 227.362 86.4991C227.122 86.8189 226.981 87.3649 226.94 88.1373L226.776 91.2149L224.992 91.1201L225.34 84.5785L226.703 84.651L226.898 85.5005L226.998 85.5057C227.214 85.2004 227.499 84.9769 227.855 84.8355C228.215 84.6903 228.617 84.6295 229.062 84.6532C229.822 84.6936 230.389 84.931 230.761 85.3654C231.133 85.796 231.298 86.3993 231.257 87.1756L231.03 91.4411Z" fill="#034861"/>
<path d="M237.022 91.7595L236.724 90.8518L236.677 90.8493C236.357 91.2117 236.032 91.4585 235.705 91.5898C235.381 91.7173 234.964 91.7675 234.453 91.7403C233.825 91.7069 233.339 91.5012 232.995 91.123C232.655 90.7451 232.503 90.2246 232.538 89.5614C232.575 88.8671 232.844 88.3689 233.345 88.067C233.851 87.7614 234.594 87.617 235.575 87.6339L236.712 87.6592L236.727 87.3725C236.762 86.7093 236.44 86.3597 235.762 86.3237C235.239 86.2959 234.616 86.4212 233.893 86.6996L233.366 85.4629C234.14 85.1089 234.985 84.9563 235.902 85.005C236.78 85.0517 237.443 85.2786 237.89 85.6857C238.338 86.0929 238.541 86.6866 238.5 87.4667L238.268 91.8258L237.022 91.7595ZM236.656 88.7007L235.965 88.6874C235.445 88.6754 235.054 88.7485 234.791 88.9066C234.528 89.0648 234.388 89.3194 234.369 89.6705C234.342 90.1737 234.618 90.4406 235.195 90.4713C235.608 90.4933 235.944 90.3918 236.203 90.1669C236.465 89.9423 236.607 89.6329 236.628 89.239L236.656 88.7007Z" fill="#034861"/>
<path d="M242.635 85.4979L244.59 85.6018L245.629 89.3478C245.717 89.6732 245.769 90.0554 245.785 90.4944L245.82 90.4963C245.884 90.0968 245.988 89.7228 246.132 89.3745L247.539 85.7585L249.452 85.8602L246.292 93.0914C246.002 93.7605 245.613 94.2523 245.122 94.5665C244.636 94.881 244.079 95.0216 243.451 94.9882C243.143 94.9718 242.843 94.9226 242.55 94.8405L242.625 93.4245C242.837 93.4866 243.069 93.5244 243.323 93.5379C243.639 93.5547 243.919 93.4718 244.164 93.2892C244.412 93.1107 244.612 92.83 244.766 92.4469L244.888 92.1307L242.635 85.4979Z" fill="#034861"/>
<path d="M254.201 92.6727L253.903 91.765L253.856 91.7625C253.535 92.1249 253.211 92.3717 252.884 92.5029C252.56 92.6305 252.143 92.6806 251.632 92.6535C251.004 92.6201 250.518 92.4143 250.174 92.0362C249.834 91.6582 249.682 91.1377 249.717 90.4746C249.754 89.7802 250.023 89.2821 250.524 88.9802C251.029 88.6745 251.773 88.5302 252.754 88.5471L253.891 88.5723L253.906 88.2856C253.941 87.6225 253.619 87.2729 252.941 87.2368C252.418 87.209 251.795 87.3344 251.072 87.6128L250.545 86.376C251.319 86.0221 252.164 85.8695 253.081 85.9182C253.959 85.9648 254.621 86.1917 255.069 86.5989C255.517 87.0061 255.72 87.5997 255.679 88.3799L255.447 92.7389L254.201 92.6727ZM253.835 89.6138L253.143 89.6005C252.624 89.5886 252.233 89.6616 251.97 89.8198C251.707 89.978 251.567 90.2326 251.548 90.5836C251.521 91.0868 251.797 91.3538 252.374 91.3845C252.787 91.4064 253.123 91.305 253.382 91.0801C253.644 90.8554 253.786 90.5461 253.807 90.1521L253.835 89.6138Z" fill="#034861"/>
<path d="M100.806 99.233C101.118 99.2496 101.496 99.2012 101.94 99.0879L101.87 100.416C101.415 100.591 100.863 100.662 100.216 100.627C99.5018 100.59 98.9905 100.382 98.682 100.006C98.3775 99.6261 98.2444 99.0753 98.2828 98.3537L98.4504 95.1999L97.5962 95.1545L97.6363 94.3997L98.651 93.8552L99.2393 92.5017L100.38 92.5623L100.306 93.9549L102.138 94.0522L102.066 95.3921L100.235 95.2948L100.067 98.4485C100.054 98.7021 100.114 98.8931 100.248 99.0214C100.386 99.15 100.572 99.2206 100.806 99.233Z" fill="#034861"/>
<path d="M103.55 92.4316C103.581 91.8503 103.92 91.5769 104.567 91.6114C105.215 91.6458 105.523 91.9536 105.492 92.5348C105.478 92.8118 105.384 93.0239 105.212 93.1712C105.044 93.3148 104.798 93.3781 104.475 93.3608C103.827 93.3264 103.519 93.0167 103.55 92.4316ZM104.973 100.763L103.188 100.668L103.536 94.1266L105.321 94.2214L104.973 100.763Z" fill="#034861"/>
<path d="M109.847 95.6121C109.469 95.592 109.166 95.6971 108.938 95.9276C108.711 96.1541 108.57 96.487 108.516 96.9261L111.02 97.0592C111.035 96.618 110.938 96.2725 110.729 96.0228C110.519 95.7691 110.225 95.6322 109.847 95.6121ZM109.806 101.137C108.752 101.081 107.945 100.747 107.383 100.134C106.821 99.5214 106.568 98.6826 106.625 97.6177C106.683 96.5216 107.001 95.6896 107.579 95.1219C108.161 94.5504 108.935 94.2904 109.903 94.3418C110.827 94.3909 111.533 94.6925 112.02 95.2464C112.507 95.8004 112.726 96.5416 112.676 97.47L112.63 98.3359L108.411 98.1117C108.404 98.6198 108.533 99.0237 108.799 99.3234C109.065 99.6231 109.451 99.7864 109.958 99.8134C110.352 99.8343 110.727 99.8131 111.082 99.7499C111.438 99.6866 111.811 99.5755 112.203 99.4163L112.13 100.797C111.809 100.937 111.47 101.034 111.111 101.089C110.752 101.148 110.317 101.164 109.806 101.137Z" fill="#034861"/>
<path d="M119.969 101.56L118.185 101.465L118.388 97.6445C118.413 97.1725 118.348 96.815 118.193 96.5721C118.037 96.3252 117.777 96.192 117.41 96.1725C116.911 96.146 116.541 96.2945 116.301 96.6182C116.061 96.9379 115.92 97.484 115.879 98.2563L115.716 101.334L113.931 101.239L114.279 94.6976L115.642 94.7701L115.837 95.6195L115.937 95.6248C116.153 95.3194 116.438 95.096 116.794 94.9545C117.154 94.8094 117.556 94.7486 118.001 94.7722C118.761 94.8127 119.328 95.0501 119.7 95.4845C120.072 95.915 120.237 96.5184 120.196 97.2947L119.969 101.56Z" fill="#034861"/>
<path d="M124.802 96.4071C124.424 96.3869 124.121 96.4921 123.894 96.7225C123.667 96.9491 123.526 97.2819 123.471 97.721L125.975 97.8542C125.991 97.413 125.894 97.0675 125.684 96.8177C125.475 96.5641 125.181 96.4272 124.802 96.4071ZM124.761 101.932C123.708 101.876 122.9 101.542 122.338 100.929C121.776 100.316 121.523 99.4776 121.58 98.4127C121.638 97.3166 121.956 96.4846 122.534 95.9168C123.116 95.3453 123.891 95.0853 124.858 95.1367C125.783 95.1859 126.488 95.4874 126.975 96.0414C127.462 96.5954 127.681 97.3366 127.632 98.2649L127.586 99.1309L123.367 98.9066C123.359 99.4148 123.489 99.8187 123.754 100.118C124.02 100.418 124.406 100.581 124.914 100.608C125.308 100.629 125.682 100.608 126.038 100.545C126.393 100.482 126.767 100.37 127.158 100.211L127.085 101.592C126.765 101.732 126.425 101.829 126.066 101.884C125.707 101.943 125.272 101.959 124.761 101.932Z" fill="#034861"/>
<path d="M136.633 102.446L136.438 101.596L136.344 101.591C136.137 101.886 135.853 102.107 135.493 102.256C135.134 102.401 134.729 102.462 134.281 102.438C133.512 102.397 132.944 102.162 132.576 101.731C132.208 101.297 132.044 100.694 132.085 99.9216L132.312 95.6562L134.096 95.751L133.893 99.5718C133.868 100.044 133.933 100.403 134.088 100.65C134.244 100.893 134.505 101.024 134.871 101.044C135.371 101.07 135.74 100.924 135.98 100.604C136.22 100.28 136.361 99.7323 136.402 98.96L136.566 95.8823L138.35 95.9771L138.002 102.519L136.633 102.446Z" fill="#034861"/>
<path d="M145.913 102.939L144.129 102.844L144.332 99.0235C144.357 98.5516 144.292 98.1941 144.136 97.9511C143.981 97.7043 143.72 97.5711 143.354 97.5516C142.854 97.5251 142.485 97.6736 142.245 97.9972C142.005 98.317 141.864 98.863 141.823 99.6354L141.659 102.713L139.875 102.618L140.223 96.0767L141.586 96.1491L141.781 96.9986L141.881 97.0039C142.096 96.6985 142.382 96.4751 142.738 96.3336C143.098 96.1884 143.5 96.1277 143.945 96.1513C144.705 96.1917 145.271 96.4291 145.643 96.8636C146.016 97.2941 146.181 97.8975 146.14 98.6737L145.913 102.939Z" fill="#034861"/>
<path d="M154.45 103.51C153.681 103.469 153.093 103.159 152.686 102.577L152.592 102.573C152.626 103.122 152.64 103.44 152.636 103.525L152.495 106.176L150.71 106.081L151.211 96.6608L152.662 96.7379L152.869 97.5997L152.95 97.604C153.402 96.9787 154.038 96.6878 154.857 96.7313C155.629 96.7724 156.218 97.1029 156.623 97.723C157.028 98.343 157.203 99.1835 157.146 100.245C157.109 100.943 156.974 101.544 156.739 102.048C156.509 102.552 156.198 102.928 155.805 103.177C155.412 103.427 154.961 103.537 154.45 103.51ZM154.208 98.1285C153.767 98.1051 153.438 98.2245 153.22 98.4868C153.003 98.7452 152.874 99.1862 152.833 99.8099L152.823 100.003C152.786 100.705 152.862 101.214 153.053 101.529C153.247 101.845 153.571 102.014 154.023 102.038C154.823 102.081 155.258 101.443 155.328 100.124C155.362 99.4808 155.288 98.9938 155.106 98.6633C154.928 98.3292 154.629 98.1509 154.208 98.1285Z" fill="#034861"/>
<path d="M160.043 100.398C160.008 101.046 160.087 101.541 160.28 101.884C160.477 102.227 160.816 102.411 161.296 102.437C161.771 102.462 162.121 102.316 162.346 102C162.574 101.679 162.705 101.193 162.74 100.542C162.774 99.8943 162.695 99.4031 162.501 99.0681C162.308 98.7332 161.971 98.553 161.492 98.5275C161.016 98.5022 160.664 98.6458 160.436 98.9584C160.208 99.267 160.077 99.7471 160.043 100.398ZM164.565 100.639C164.509 101.704 164.184 102.522 163.59 103.093C162.996 103.663 162.198 103.922 161.196 103.869C160.568 103.836 160.021 103.67 159.556 103.371C159.091 103.069 158.743 102.653 158.513 102.124C158.283 101.596 158.186 100.988 158.223 100.302C158.28 99.233 158.603 98.4169 159.192 97.8537C159.781 97.2904 160.581 97.0356 161.591 97.0893C162.22 97.1227 162.766 97.2887 163.231 97.5872C163.697 97.8858 164.044 98.2974 164.275 98.8221C164.505 99.3468 164.602 99.9524 164.565 100.639Z" fill="#034861"/>
<path d="M170.533 102.3C170.497 102.971 170.236 103.469 169.749 103.795C169.266 104.122 168.561 104.26 167.632 104.211C167.156 104.186 166.752 104.131 166.42 104.047C166.088 103.967 165.779 103.856 165.493 103.716L165.572 102.241C165.895 102.415 166.261 102.566 166.668 102.693C167.08 102.82 167.444 102.893 167.76 102.909C168.408 102.944 168.741 102.774 168.761 102.399C168.769 102.259 168.732 102.143 168.65 102.053C168.569 101.959 168.426 101.851 168.222 101.731C168.017 101.607 167.743 101.461 167.4 101.294C166.908 101.057 166.548 100.842 166.319 100.65C166.095 100.458 165.934 100.244 165.837 100.008C165.744 99.7686 165.707 99.4791 165.725 99.1397C165.756 98.5585 166.004 98.1219 166.469 97.8298C166.939 97.5339 167.587 97.408 168.414 97.452C169.202 97.4939 169.959 97.7062 170.686 98.0891L170.079 99.3477C169.759 99.1899 169.459 99.0585 169.179 98.9537C168.899 98.8488 168.611 98.7885 168.314 98.7728C167.788 98.7448 167.517 98.8732 167.502 99.1579C167.493 99.3178 167.57 99.4608 167.731 99.5867C167.897 99.7129 168.26 99.9062 168.821 100.167C169.321 100.401 169.685 100.614 169.914 100.806C170.142 100.998 170.307 101.214 170.407 101.454C170.508 101.694 170.55 101.976 170.533 102.3Z" fill="#034861"/>
<path d="M172.183 96.0798C172.214 95.4986 172.554 95.2252 173.201 95.2596C173.849 95.2941 174.157 95.6019 174.126 96.1831C174.111 96.46 174.018 96.6722 173.846 96.8195C173.678 96.9631 173.432 97.0263 173.108 97.0091C172.461 96.9747 172.152 96.6649 172.183 96.0798ZM173.606 104.411L171.822 104.316L172.17 97.7748L173.954 97.8697L173.606 104.411Z" fill="#034861"/>
<path d="M179.478 98.0401C180.251 98.0812 180.839 98.4156 181.244 99.0435C181.649 99.6674 181.824 100.504 181.768 101.553C181.71 102.634 181.44 103.458 180.956 104.027C180.475 104.596 179.847 104.86 179.071 104.819C178.303 104.778 177.715 104.467 177.308 103.886L177.185 103.88L176.848 104.584L175.485 104.511L175.969 95.4067L177.753 95.5016L177.641 97.6197C177.626 97.8889 177.58 98.3186 177.502 98.9091L177.572 98.9128C178.024 98.2875 178.659 97.9966 179.478 98.0401ZM178.829 99.4373C178.388 99.4139 178.059 99.5333 177.842 99.7956C177.625 100.054 177.496 100.495 177.455 101.119L177.444 101.312C177.407 102.014 177.484 102.523 177.674 102.838C177.869 103.153 178.192 103.323 178.645 103.347C179.011 103.367 179.311 103.214 179.543 102.89C179.78 102.562 179.915 102.077 179.949 101.433C179.984 100.79 179.9 100.302 179.698 99.9705C179.497 99.6352 179.207 99.4574 178.829 99.4373Z" fill="#034861"/>
<path d="M184.852 105.009L183.068 104.914L183.552 95.8098L185.336 95.9047L184.852 105.009Z" fill="#034861"/>
<path d="M189.726 99.8581C189.348 99.838 189.045 99.9432 188.818 100.174C188.591 100.4 188.45 100.733 188.395 101.172L190.899 101.305C190.915 100.864 190.818 100.519 190.608 100.269C190.399 100.015 190.105 99.8782 189.726 99.8581ZM189.685 105.383C188.632 105.327 187.824 104.993 187.262 104.38C186.7 103.767 186.447 102.929 186.504 101.864C186.562 100.768 186.88 99.9357 187.458 99.3679C188.04 98.7964 188.815 98.5364 189.782 98.5878C190.707 98.637 191.412 98.9385 191.899 99.4925C192.386 100.046 192.605 100.788 192.556 101.716L192.51 102.582L188.291 102.358C188.283 102.866 188.413 103.27 188.678 103.569C188.944 103.869 189.33 104.032 189.838 104.059C190.231 104.08 190.606 104.059 190.962 103.996C191.317 103.933 191.691 103.822 192.082 103.662L192.009 105.043C191.689 105.183 191.349 105.28 190.99 105.335C190.631 105.394 190.196 105.41 189.685 105.383Z" fill="#034861"/>
<path d="M199.573 105.909C197.537 105.801 196.578 104.629 196.697 102.394C196.756 101.282 197.078 100.448 197.663 99.8928C198.249 99.3332 199.058 99.0809 200.092 99.1358C200.849 99.1761 201.519 99.3604 202.104 99.6888L201.504 101.042C201.23 100.914 200.973 100.808 200.735 100.725C200.497 100.638 200.257 100.588 200.015 100.575C199.087 100.526 198.588 101.16 198.518 102.479C198.45 103.758 198.88 104.423 199.808 104.472C200.151 104.49 200.472 104.462 200.769 104.388C201.067 104.31 201.367 104.181 201.67 104.002L201.589 105.529C201.29 105.697 200.991 105.808 200.691 105.863C200.394 105.917 200.022 105.933 199.573 105.909Z" fill="#034861"/>
<path d="M207.245 106.199L206.947 105.292L206.9 105.289C206.579 105.651 206.255 105.898 205.927 106.03C205.604 106.157 205.187 106.207 204.676 106.18C204.048 106.147 203.562 105.941 203.218 105.563C202.878 105.185 202.726 104.664 202.761 104.001C202.798 103.307 203.067 102.809 203.568 102.507C204.073 102.201 204.816 102.057 205.797 102.074L206.934 102.099L206.95 101.812C206.985 101.149 206.663 100.799 205.984 100.763C205.462 100.736 204.839 100.861 204.116 101.139L203.589 99.9026C204.363 99.5487 205.208 99.3961 206.125 99.4448C207.003 99.4915 207.665 99.7184 208.113 100.126C208.561 100.533 208.764 101.126 208.723 101.906L208.491 106.266L207.245 106.199ZM206.879 103.14L206.187 103.127C205.668 103.115 205.277 103.188 205.014 103.346C204.751 103.505 204.611 103.759 204.592 104.11C204.565 104.613 204.84 104.88 205.418 104.911C205.831 104.933 206.167 104.832 206.426 104.607C206.688 104.382 206.83 104.073 206.85 103.679L206.879 103.14Z" fill="#034861"/>
<path d="M216.372 106.684L214.588 106.59L214.791 102.769C214.816 102.297 214.751 101.939 214.595 101.696C214.44 101.45 214.18 101.316 213.813 101.297C213.314 101.27 212.944 101.419 212.704 101.743C212.464 102.062 212.323 102.608 212.282 103.381L212.119 106.458L210.334 106.364L210.682 99.822L212.045 99.8944L212.24 100.744L212.34 100.749C212.556 100.444 212.841 100.22 213.197 100.079C213.557 99.9337 213.959 99.873 214.404 99.8966C215.164 99.937 215.731 100.174 216.103 100.609C216.475 101.039 216.64 101.643 216.599 102.419L216.372 106.684Z" fill="#034861"/>
<path d="M220.275 107.009C219.506 106.968 218.917 106.638 218.508 106.018C218.103 105.398 217.929 104.559 217.985 103.502C218.042 102.429 218.309 101.606 218.785 101.033C219.266 100.456 219.898 100.189 220.682 100.23C221.505 100.274 222.116 100.627 222.515 101.29L222.573 101.293C222.51 100.801 222.488 100.363 222.508 99.9812L222.62 97.8865L224.41 97.9817L223.926 107.086L222.557 107.013L222.257 106.146L222.181 106.142C221.741 106.764 221.105 107.053 220.275 107.009ZM220.976 105.621C221.433 105.645 221.773 105.53 221.998 105.276C222.227 105.022 222.368 104.578 222.421 103.943L222.431 103.75C222.468 103.048 222.386 102.539 222.184 102.223C221.985 101.907 221.642 101.737 221.155 101.711C220.757 101.689 220.438 101.843 220.197 102.17C219.961 102.494 219.826 102.978 219.792 103.621C219.757 104.265 219.843 104.755 220.048 105.09C220.253 105.422 220.563 105.599 220.976 105.621Z" fill="#034861"/>
<path d="M226.154 98.9487C226.185 98.3675 226.524 98.0941 227.172 98.1285C227.819 98.1629 228.128 98.4707 228.097 99.0519C228.082 99.3289 227.989 99.541 227.816 99.6883C227.648 99.832 227.403 99.8952 227.079 99.878C226.431 99.8435 226.123 99.5338 226.154 98.9487ZM227.577 107.28L225.793 107.185L226.14 100.644L227.925 100.739L227.577 107.28Z" fill="#034861"/>
<path d="M231.52 107.607C230.752 107.566 230.163 107.236 229.754 106.615C229.349 105.995 229.175 105.157 229.231 104.1C229.288 103.027 229.554 102.204 230.031 101.631C230.511 101.054 231.144 100.786 231.928 100.828C232.751 100.872 233.362 101.225 233.761 101.888L233.819 101.891C233.756 101.399 233.734 100.961 233.754 100.579L233.865 98.4843L235.656 98.5795L235.172 107.684L233.803 107.611L233.503 106.744L233.427 106.74C232.987 107.362 232.351 107.651 231.52 107.607ZM232.222 106.219C232.678 106.243 233.019 106.128 233.244 105.874C233.472 105.62 233.613 105.176 233.667 104.541L233.677 104.348C233.714 103.646 233.632 103.137 233.43 102.821C233.231 102.505 232.888 102.334 232.401 102.308C232.003 102.287 231.684 102.44 231.443 102.768C231.207 103.092 231.072 103.576 231.038 104.219C231.003 104.863 231.089 105.352 231.294 105.688C231.499 106.02 231.809 106.197 232.222 106.219Z" fill="#034861"/>
<path d="M241.193 108.004L240.895 107.096L240.848 107.094C240.528 107.456 240.203 107.703 239.876 107.834C239.552 107.962 239.135 108.012 238.624 107.985C237.996 107.951 237.51 107.745 237.166 107.367C236.826 106.989 236.674 106.469 236.709 105.806C236.746 105.111 237.015 104.613 237.516 104.311C238.022 104.006 238.765 103.861 239.746 103.878L240.883 103.903L240.898 103.617C240.933 102.954 240.611 102.604 239.933 102.568C239.41 102.54 238.787 102.665 238.064 102.944L237.537 101.707C238.311 101.353 239.156 101.201 240.073 101.249C240.951 101.296 241.613 101.523 242.061 101.93C242.509 102.337 242.712 102.931 242.671 103.711L242.439 108.07L241.193 108.004ZM240.827 104.945L240.136 104.932C239.616 104.92 239.225 104.993 238.962 105.151C238.699 105.309 238.559 105.564 238.54 105.915C238.513 106.418 238.789 106.685 239.366 106.716C239.779 106.738 240.115 106.636 240.374 106.411C240.636 106.187 240.778 105.877 240.799 105.483L240.827 104.945Z" fill="#034861"/>
<path d="M247.107 107.01C247.419 107.026 247.798 106.978 248.242 106.865L248.171 108.193C247.716 108.368 247.164 108.439 246.517 108.404C245.803 108.366 245.292 108.159 244.983 107.783C244.679 107.403 244.546 106.852 244.584 106.13L244.752 102.977L243.897 102.931L243.938 102.176L244.952 101.632L245.541 100.278L246.682 100.339L246.608 101.732L248.439 101.829L248.368 103.169L246.536 103.072L246.369 106.225C246.355 106.479 246.415 106.67 246.549 106.798C246.687 106.927 246.873 106.997 247.107 107.01Z" fill="#034861"/>
<path d="M251.086 105.238C251.051 105.885 251.131 106.381 251.324 106.723C251.521 107.066 251.859 107.251 252.339 107.276C252.815 107.301 253.165 107.156 253.389 106.839C253.617 106.519 253.749 106.033 253.783 105.381C253.818 104.734 253.738 104.243 253.545 103.908C253.351 103.573 253.015 103.392 252.535 103.367C252.059 103.342 251.707 103.485 251.479 103.798C251.252 104.106 251.121 104.587 251.086 105.238ZM255.609 105.478C255.552 106.543 255.227 107.361 254.633 107.932C254.04 108.503 253.242 108.762 252.239 108.708C251.611 108.675 251.065 108.509 250.599 108.21C250.134 107.908 249.787 107.492 249.557 106.964C249.327 106.435 249.23 105.828 249.266 105.141C249.323 104.072 249.646 103.256 250.235 102.693C250.825 102.13 251.625 101.875 252.635 101.929C253.263 101.962 253.81 102.128 254.275 102.427C254.74 102.725 255.088 103.137 255.318 103.662C255.548 104.186 255.645 104.792 255.609 105.478Z" fill="#034861"/>
<path d="M256.702 107.989C256.719 107.661 256.82 107.418 257.004 107.26C257.189 107.102 257.449 107.031 257.784 107.049C258.108 107.066 258.353 107.166 258.52 107.346C258.69 107.528 258.767 107.778 258.75 108.098C258.733 108.406 258.631 108.645 258.442 108.815C258.253 108.981 257.998 109.056 257.679 109.039C257.351 109.021 257.102 108.922 256.932 108.741C256.762 108.556 256.685 108.305 256.702 107.989Z" fill="#034861"/>
<g clip-path="url(#clip0)">
<path d="M96.8342 112.239L89.6079 95.3559C89.467 95.0395 89.1083 94.9003 88.7879 95.0142L75.4501 100.241C75.2836 100.304 75.1554 100.418 75.0914 100.583C75.0273 100.735 75.0273 100.912 75.0914 101.051L75.2579 101.469L73.5539 102.127C73.4001 102.19 73.272 102.304 73.2079 102.469C73.1439 102.595 73.1439 102.734 73.1823 102.861C72.3751 103.026 71.5551 103.064 70.9529 103.051C70.0689 103.038 69.1464 102.772 68.2111 102.292C67.327 101.823 66.1611 101.342 64.6876 100.849C67.6729 98.3554 69.5692 94.6471 69.5692 90.5085C69.5692 83.0413 63.4192 76.979 55.8726 76.979C48.3261 76.979 42.1761 83.054 42.1761 90.5085C42.1761 95.0015 44.4311 99.0135 47.8776 101.456C47.5829 101.633 47.3267 101.836 47.0833 102.076L46.622 102.57C45.6995 102.734 41.5739 103.013 40.8179 103.038C40.0876 103.051 39.3445 102.924 38.6014 102.722C38.6142 102.621 38.6014 102.532 38.5629 102.443C38.4989 102.279 38.3708 102.165 38.2042 102.102L36.5129 101.444L36.6795 101.026C36.7436 100.874 36.7436 100.697 36.6795 100.558C36.6026 100.393 36.4745 100.279 36.3208 100.216L22.9958 95.0268C22.6754 94.9003 22.3167 95.0521 22.1758 95.3685L14.9367 112.239C14.8086 112.556 14.9495 112.91 15.2698 113.049L28.582 119.036C28.6589 119.074 28.7486 119.099 28.8511 119.099C28.9279 119.099 29.0048 119.074 29.0817 119.048C29.2483 118.985 29.3764 118.859 29.4404 118.694L29.9401 117.479L31.4392 118.15C31.5161 118.188 31.6058 118.2 31.6954 118.2C31.7851 118.2 31.862 118.188 31.9389 118.162C32.0542 118.112 32.1439 118.023 32.2208 117.909C33.3867 118.555 34.7192 119.403 35.6033 120.289L35.1933 120.808C34.0401 122.263 34.2836 124.427 35.7186 125.604C36.3336 126.123 37.1023 126.389 37.8967 126.389C38.0248 126.389 38.1658 126.389 38.2939 126.376C38.3451 126.364 38.3964 126.351 38.4476 126.338C38.2811 127.553 38.7167 128.794 39.7033 129.604C40.2414 130.047 40.9204 130.325 41.6508 130.388C41.7661 130.401 41.8686 130.401 41.9711 130.401C42.3298 130.401 42.6758 130.338 43.0217 130.224C42.9961 131.262 43.4189 132.262 44.2133 132.97C44.2517 133.021 44.2773 133.059 44.3286 133.084C44.9692 133.616 45.7508 133.894 46.5708 133.894C46.7117 133.894 46.8526 133.882 46.9808 133.869C47.3395 133.831 47.6726 133.717 47.9929 133.578C48.1211 134.286 48.4542 134.957 49.0436 135.438C49.5304 135.831 50.107 136.071 50.722 136.122C50.8117 136.134 50.9014 136.134 50.9911 136.134C51.952 136.134 52.8489 135.704 53.4383 134.932L55.1551 132.679C55.2576 132.553 55.3345 132.413 55.4114 132.274L58.4351 134.438C58.9604 134.805 59.5883 134.995 60.1776 134.995C61.0489 134.995 61.8817 134.603 62.4583 133.932C62.9195 133.388 63.1501 132.717 63.1629 132.059C63.7523 132.464 64.4442 132.692 65.1873 132.692C66.2508 132.692 67.2373 132.249 67.8779 131.464C68.6083 130.629 68.8517 129.566 68.6595 128.579C68.8645 128.617 69.0823 128.629 69.2745 128.629C70.2867 128.629 71.2989 128.224 71.9779 127.414C72.6058 126.68 72.9004 125.706 72.7851 124.744C72.7723 124.668 72.7467 124.592 72.7339 124.516C72.9773 124.567 73.2079 124.604 73.4514 124.604C74.4251 124.604 75.3861 124.199 76.0395 123.415C76.5392 122.807 76.8339 122.048 76.8339 121.263C76.8339 120.529 76.5776 119.846 76.142 119.264C76.7314 118.605 77.8717 117.985 79.4348 117.441L79.5758 117.783C79.6398 117.947 79.7679 118.074 79.9345 118.137C80.0114 118.162 80.0883 118.175 80.1651 118.175C80.2548 118.175 80.3445 118.162 80.4342 118.124L81.9333 117.454L82.4329 118.669C82.497 118.833 82.6251 118.96 82.7917 119.023C82.8686 119.048 82.9454 119.074 83.0223 119.074C83.112 119.074 83.2017 119.048 83.2914 119.01L96.6036 113.024C96.8342 112.923 96.9751 112.556 96.8342 112.239ZM43.4445 90.4959C43.4445 83.7121 49.0308 78.2067 55.8854 78.2067C62.7529 78.2067 68.3264 83.7121 68.3264 90.4959C68.3264 97.267 62.7529 102.785 55.8854 102.785C49.0308 102.785 43.4445 97.267 43.4445 90.4959ZM29.0048 116.365C29.0048 116.378 29.0048 116.378 28.992 116.391L28.4923 117.631L16.3333 112.163L23.0983 96.3937L35.2701 101.152L35.1164 101.545C35.1036 101.557 35.1036 101.557 35.0908 101.57C35.0908 101.583 35.0908 101.583 35.0908 101.595L29.0048 116.365ZM31.3495 116.745L30.4014 116.327L36.0389 102.621L37.1536 103.051L31.3495 116.745ZM39.1011 124.769C39.0883 124.782 39.0883 124.782 39.0754 124.782C38.7936 124.984 38.4733 125.111 38.1145 125.149C37.5251 125.225 36.9358 125.047 36.4873 124.668C35.5648 123.908 35.4111 122.542 36.1414 121.592L38.1914 118.998C38.5501 118.542 39.0626 118.251 39.6264 118.175C40.1901 118.112 40.7667 118.264 41.2151 118.618C42.1633 119.352 42.3426 120.732 41.6123 121.694L39.6008 124.313C39.4598 124.491 39.2804 124.642 39.1011 124.769ZM43.752 128.249C43.6623 128.351 43.5726 128.465 43.4445 128.566C43.0089 128.996 42.3683 129.224 41.7148 129.161C41.2536 129.123 40.8051 128.946 40.472 128.667C39.5879 127.946 39.3701 126.68 39.9467 125.718C40.1901 125.528 40.4079 125.313 40.6001 125.073L42.6117 122.453C42.6629 122.402 42.6758 122.339 42.7142 122.288C43.1498 121.972 43.6751 121.833 44.2133 121.871C44.6489 121.909 45.0845 122.073 45.4433 122.339C46.3145 123.01 46.5836 124.225 46.0967 125.187C46.0839 125.199 46.0711 125.212 46.0583 125.237C45.9942 125.339 45.9301 125.452 45.8404 125.566L43.752 128.249ZM48.3389 131.743C48.3261 131.768 48.3004 131.793 48.2876 131.806C48.1723 131.869 48.0826 131.958 48.0314 132.084C47.6726 132.401 47.2498 132.578 46.7886 132.641C46.212 132.704 45.6354 132.553 45.1742 132.211C45.1486 132.173 45.1101 132.148 45.0717 132.122C44.2517 131.452 43.9954 130.287 44.4567 129.325C44.5592 129.224 44.6489 129.135 44.7514 129.009L46.827 126.326C46.9295 126.199 47.032 126.047 47.1345 125.883C47.5829 125.478 48.1979 125.288 48.8129 125.339C49.2358 125.377 49.6842 125.541 50.0301 125.794C51.0295 126.579 51.2089 128.009 50.4401 129.009L48.3389 131.743ZM54.1045 131.932L52.3748 134.198C52.0033 134.666 51.4011 134.932 50.7861 134.881C50.4145 134.856 50.0814 134.717 49.7995 134.489C49.287 134.071 49.0692 133.401 49.1973 132.667C49.2486 132.603 49.3126 132.553 49.3511 132.489L51.4267 129.768C51.5292 129.629 51.6189 129.464 51.7086 129.325C52.3492 128.908 53.1564 128.92 53.7714 129.389C54.5529 130.021 54.7067 131.148 54.1045 131.932ZM75.0017 122.655C74.297 123.478 73.0414 123.63 72.1445 122.997L65.0336 117.922C64.7389 117.719 64.3545 117.783 64.1495 118.061C64.047 118.213 64.0086 118.378 64.0342 118.529C64.0598 118.681 64.1495 118.833 64.2904 118.934L70.5429 123.389C71.0554 123.757 71.3758 124.301 71.4654 124.921C71.5423 125.541 71.3501 126.149 70.9529 126.629C70.197 127.515 68.8645 127.68 67.9164 127.009L60.9079 122.01C60.6133 121.807 60.2289 121.871 60.0239 122.162C59.8189 122.44 59.8829 122.82 60.1648 123.022L66.7889 127.743C67.5833 128.566 67.6217 129.819 66.8658 130.705C66.1483 131.553 64.7645 131.73 63.842 131.084L56.8208 126.073C56.5389 125.87 56.1545 125.933 55.9367 126.224C55.7317 126.503 55.7958 126.883 56.0904 127.085L61.2283 130.755C61.2283 130.755 61.2283 130.755 61.2411 130.755C61.2795 130.793 61.3308 130.831 61.382 130.869C62.0098 131.489 62.0483 132.489 61.4717 133.16C60.9079 133.806 59.9086 133.97 59.1398 133.451L55.7573 131.047C55.8086 130.059 55.3986 129.072 54.5786 128.427C53.8739 127.882 53.0026 127.693 52.1698 127.844C52.2339 126.718 51.7598 125.592 50.8245 124.845C50.2864 124.44 49.6073 124.174 48.9283 124.111C48.4798 124.073 48.0186 124.136 47.5958 124.275C47.6214 123.162 47.1601 122.086 46.2376 121.377C45.6995 120.959 45.0204 120.706 44.3542 120.643C43.9954 120.618 43.6623 120.656 43.3164 120.719C43.4317 119.58 42.9833 118.416 42.0351 117.656C41.3176 117.099 40.4208 116.846 39.5111 116.96C38.6014 117.074 37.7814 117.53 37.2304 118.251L36.372 119.327C35.3598 118.365 33.9504 117.466 32.7333 116.808L38.1786 103.937C39.037 104.177 39.8954 104.329 40.7795 104.329H40.8692C41.0358 104.329 43.4829 104.177 45.3023 104.013L42.8551 106.569C42.4836 106.962 42.3298 107.481 42.3939 108.012C42.4708 108.531 42.7783 108.999 43.2267 109.278C45.3023 110.518 47.9801 110.417 49.8892 109.075L52.4004 107.379L56.7823 106.987C58.3967 109.43 60.6133 110.961 63.3551 111.543L74.7454 119.669C75.2451 120.048 75.5526 120.656 75.5526 121.301C75.5142 121.782 75.3348 122.263 75.0017 122.655ZM75.1683 118.454L63.9445 110.442C63.8676 110.392 63.7779 110.354 63.6883 110.341C61.0873 109.822 59.1014 108.392 57.5895 106C57.4614 105.785 57.2436 105.683 57.0001 105.696L52.0801 106.126C51.9776 106.139 51.8623 106.177 51.7726 106.228L49.1204 108.025C47.6086 109.088 45.4689 109.164 43.8289 108.177C43.7008 108.101 43.6111 107.962 43.5983 107.81C43.5726 107.645 43.6239 107.481 43.7264 107.379L47.3523 103.608C47.3651 103.595 47.3779 103.582 47.3779 103.57L47.9929 102.937C48.3261 102.595 48.7104 102.393 49.1333 102.266C51.132 103.393 53.4254 104.038 55.8726 104.038C58.6914 104.038 61.2923 103.19 63.4833 101.76C65.277 102.329 66.6351 102.874 67.6089 103.393C68.7364 103.975 69.8511 104.291 70.9401 104.304H71.1451C72.0804 104.304 72.9004 104.19 73.6564 104.013L78.8839 116.34C77.1542 116.935 75.8986 117.644 75.1683 118.454ZM80.4342 116.745L74.6301 103.051L75.7448 102.621L81.3823 116.327L80.4342 116.745ZM83.2786 117.644L82.7661 116.403C82.7661 116.391 82.7661 116.391 82.7661 116.391V116.378L76.6801 101.608C76.6673 101.595 76.6801 101.595 76.6673 101.583C76.6673 101.57 76.6545 101.57 76.6545 101.557L76.4879 101.165L88.6726 96.4063L95.4248 112.176L83.2786 117.644Z" fill="#4E5292"/>
<path d="M95.4376 112.176L83.2914 117.643L82.7789 116.403C82.7789 116.391 82.7789 116.391 82.7789 116.391V116.378L76.6929 101.608C76.6801 101.595 76.6929 101.595 76.6801 101.583C76.6801 101.57 76.6673 101.57 76.6673 101.557L76.5007 101.165L88.6854 96.4063L95.4376 112.176Z" fill="#98D3BA"/>
<path d="M78.8839 116.327C77.1542 116.922 75.9114 117.631 75.1811 118.441L63.9573 110.429C63.8805 110.379 63.7908 110.341 63.7011 110.328C61.1001 109.809 59.1142 108.379 57.6023 105.987C57.4742 105.772 57.2564 105.671 57.013 105.683L52.093 106.114C51.9905 106.126 51.8751 106.164 51.7855 106.215L49.1333 108.012C47.6214 109.075 45.4817 109.151 43.8417 108.164C43.7136 108.088 43.6239 107.949 43.6111 107.797C43.5855 107.632 43.6367 107.468 43.7392 107.367L47.3651 103.595C47.378 103.582 47.3908 103.57 47.3908 103.557L48.0058 102.924C48.3389 102.583 48.7233 102.38 49.1461 102.254C51.1448 103.38 53.4383 104.025 55.8855 104.025C58.7042 104.025 61.3051 103.177 63.4961 101.747C65.2898 102.317 66.648 102.861 67.6217 103.38C68.7492 103.962 69.8639 104.279 70.953 104.291H71.158C72.0933 104.291 72.9133 104.177 73.6692 104L78.8839 116.327Z" fill="#F0D299"/>
<path d="M78.8839 116.327C77.1542 116.922 75.9114 117.631 75.1811 118.441L74.1432 117.707C74.912 116.935 76.8211 115.846 78.4354 115.251L78.8839 116.327Z" fill="#DFC189"/>
<path d="M75.5142 121.289C75.5142 121.769 75.3348 122.263 75.0145 122.643C74.3098 123.465 73.0542 123.617 72.1573 122.984L65.0464 117.909C64.7517 117.707 64.3673 117.77 64.1623 118.049C64.0598 118.2 64.0214 118.365 64.047 118.517C64.0727 118.669 64.1623 118.821 64.3033 118.922L70.5558 123.377C71.0683 123.744 71.3886 124.288 71.4783 124.908C71.5552 125.528 71.363 126.136 70.9658 126.617C70.2098 127.503 68.8773 127.667 67.9292 126.996L60.9208 121.997C60.6261 121.795 60.2417 121.858 60.0367 122.149C59.8317 122.428 59.8958 122.807 60.1777 123.01L66.8017 127.731C67.5961 128.553 67.6345 129.806 66.8786 130.692C66.1611 131.54 64.7773 131.717 63.8548 131.072L56.8336 126.06C56.5517 125.857 56.1673 125.921 55.9495 126.212C55.7445 126.49 55.8086 126.87 56.1033 127.072L61.2411 130.743C61.2411 130.743 61.2411 130.743 61.2539 130.743C61.2923 130.781 61.3436 130.819 61.3948 130.857C62.0227 131.477 62.0611 132.477 61.4845 133.147C60.9208 133.793 59.9214 133.957 59.1527 133.439L55.7702 131.034C55.8214 130.047 55.4114 129.059 54.5914 128.414C53.8867 127.87 53.0155 127.68 52.1827 127.832C52.2467 126.705 51.7727 125.579 50.8373 124.832C50.2992 124.427 49.6202 124.161 48.9411 124.098C48.4927 124.06 48.0314 124.124 47.6086 124.263C47.6342 123.149 47.173 122.073 46.2505 121.364C45.7123 120.947 45.0333 120.694 44.367 120.63C44.0083 120.605 43.6752 120.643 43.3292 120.706C43.4445 119.567 42.9961 118.403 42.048 117.644C41.3305 117.087 40.4336 116.834 39.5239 116.947C38.6142 117.061 37.7942 117.517 37.2433 118.238L36.3848 119.314C35.3727 118.352 33.9633 117.454 32.7461 116.796L38.1914 103.924C39.0498 104.165 39.9083 104.316 40.7923 104.316H40.882C41.0486 104.316 43.4958 104.165 45.3152 104L42.868 106.557C42.4964 106.949 42.3427 107.468 42.4067 107.999C42.4836 108.518 42.7911 108.987 43.2395 109.265C45.3152 110.505 47.993 110.404 49.902 109.063L52.4133 107.367L56.7952 106.974C58.4095 109.417 60.6261 110.948 63.368 111.531L74.7583 119.656C75.2067 120.036 75.5142 120.643 75.5142 121.289Z" fill="#F0D299"/>
<path d="M55.3473 102.772C48.7361 102.494 43.4445 97.0898 43.4445 90.4959C43.4445 83.8893 48.7489 78.4977 55.3473 78.2193C49.9661 78.561 45.6483 83.9273 45.6483 90.4959C45.6483 97.0518 49.9661 102.443 55.3473 102.772Z" fill="#D26767"/>
<path d="M89.1339 97.4568L88.7879 97.596L76.9235 102.228L76.6673 101.608C76.6545 101.595 76.6673 101.595 76.6545 101.583C76.6545 101.57 76.6417 101.57 76.6417 101.557L76.4751 101.165L88.6598 96.4063L89.1339 97.4568Z" fill="#B9E0CE"/>
<path d="M95.4376 112.176L83.2786 117.644L82.7789 116.429L94.9123 110.974L95.4376 112.176Z" fill="#89C3A8"/>
<path d="M81.3823 116.315L80.4342 116.745L74.6301 103.051L75.7448 102.608L81.3823 116.315Z" fill="#D8DFE6"/>
<path d="M35.2701 101.165L35.1164 101.557C35.1036 101.57 35.1036 101.57 35.0908 101.583C35.0908 101.595 35.0908 101.595 35.0908 101.608L29.0048 116.378V116.391C29.0048 116.391 29.0048 116.391 28.992 116.403L28.4923 117.643L16.3333 112.176L23.0983 96.4063L35.2701 101.165Z" fill="#39B4D5"/>
<path d="M37.1536 103.051L31.3495 116.745L30.4014 116.315L36.0389 102.608L37.1536 103.051Z" fill="#D8DFE6"/>
<path d="M54.1045 131.932L52.3748 134.198C52.0032 134.666 51.4011 134.932 50.7861 134.881C50.4145 134.856 50.0814 134.717 49.7995 134.489C49.287 134.071 49.0692 133.401 49.1973 132.666C49.2486 132.603 49.3126 132.553 49.3511 132.489L51.4267 129.768C51.5292 129.629 51.6189 129.464 51.7086 129.325C52.3492 128.908 53.1564 128.92 53.7714 129.389C54.5529 130.021 54.7067 131.148 54.1045 131.932ZM50.4145 129.021L48.3389 131.755C48.3261 131.781 48.3004 131.806 48.2876 131.819C48.1723 131.882 48.0826 131.97 48.0314 132.097C47.6726 132.413 47.2498 132.591 46.7886 132.654C46.212 132.717 45.6354 132.565 45.1742 132.224C45.1486 132.186 45.1101 132.16 45.0717 132.135C44.2517 131.464 43.9954 130.3 44.4567 129.338C44.5592 129.237 44.6489 129.148 44.7514 129.021L46.827 126.338C46.9295 126.212 47.032 126.06 47.1345 125.895C47.5829 125.49 48.1979 125.301 48.8129 125.351C49.2357 125.389 49.6842 125.554 50.0301 125.807C51.0167 126.591 51.1832 128.022 50.4145 129.021ZM46.0967 125.199C46.0839 125.212 46.0711 125.225 46.0582 125.25C45.9942 125.351 45.9301 125.465 45.8404 125.579L43.7648 128.262C43.6751 128.363 43.5854 128.477 43.4573 128.579C43.0217 129.009 42.3811 129.237 41.7276 129.173C41.2664 129.135 40.8179 128.958 40.4848 128.68C39.6007 127.958 39.3829 126.693 39.9595 125.731C40.2029 125.541 40.4207 125.326 40.6129 125.085L42.6245 122.466C42.6757 122.415 42.6886 122.352 42.727 122.301C43.1626 121.985 43.6879 121.845 44.2261 121.883C44.6617 121.921 45.0973 122.086 45.4561 122.352C46.3017 123.01 46.5707 124.225 46.0967 125.199ZM41.6123 121.694L39.6007 124.313C39.447 124.503 39.2676 124.655 39.1011 124.769C39.0882 124.782 39.0882 124.782 39.0754 124.782C38.7936 124.984 38.4732 125.111 38.1145 125.149C37.5251 125.225 36.9357 125.047 36.4873 124.668C35.5648 123.908 35.4111 122.541 36.1414 121.592L38.1914 118.998C38.5501 118.542 39.0626 118.251 39.6264 118.175C40.1901 118.112 40.7667 118.264 41.2151 118.618C42.1632 119.352 42.3426 120.732 41.6123 121.694Z" fill="#F0D299"/>
<path d="M74.0408 104.899C73.2976 105.076 72.247 105.329 71.4014 105.329H71.1964C70.1073 105.316 68.9926 105 67.8651 104.418C66.9298 103.924 64.4058 102.874 62.612 102.279C62.9067 102.114 63.1886 101.937 63.4833 101.76C65.277 102.329 66.6351 102.874 67.6089 103.393C68.7364 103.975 69.8511 104.291 70.9401 104.304H71.1451C72.0805 104.304 72.9005 104.19 73.6564 104.013L74.0408 104.899ZM50.0173 102.709C49.2358 103 48.5055 103.722 48.262 103.962L47.647 104.595C47.647 104.608 47.6342 104.62 47.6214 104.633L44.098 108.291C44.0083 108.265 43.9186 108.215 43.8417 108.164C43.7136 108.088 43.6239 107.949 43.6111 107.797C43.5855 107.632 43.6367 107.468 43.7392 107.367L47.3651 103.595C47.378 103.582 47.3908 103.57 47.3908 103.557L48.0058 102.924C48.3389 102.583 48.7233 102.38 49.1461 102.253C49.4408 102.431 49.7226 102.57 50.0173 102.709Z" fill="#FFE4AA"/>
<path d="M61.4461 133.16C60.8823 133.806 59.883 133.97 59.1142 133.451L55.7317 131.047C55.7573 130.642 55.6933 130.237 55.5651 129.857L59.1142 132.249C59.883 132.768 60.8823 132.616 61.4461 131.958C61.5742 131.806 61.6767 131.629 61.7536 131.464C61.9586 132.021 61.8561 132.667 61.4461 133.16ZM36.9742 118.504L36.3464 119.302C35.3342 118.34 33.9248 117.441 32.7076 116.783L33.1176 115.821C34.2836 116.492 36.0133 117.656 36.9742 118.504Z" fill="#DFC189"/>
<path d="M45.2767 103.987L44.0851 105.215C42.5348 105.329 40.9717 105.43 40.8435 105.43H40.7538C39.921 105.43 38.5757 105.215 37.7045 105L38.1529 103.911C39.0113 104.152 39.8698 104.304 40.7538 104.304H40.8435C40.9717 104.304 42.5092 104.215 44.0338 104.089C44.4695 104.051 44.8795 104.025 45.2767 103.987Z" fill="#FFE4AA"/>
<path d="M22.6242 97.4568L22.9701 97.596L34.8345 102.228L35.0908 101.608C35.1036 101.595 35.0908 101.595 35.1036 101.583C35.1036 101.57 35.1164 101.57 35.1164 101.557L35.283 101.165L23.0855 96.4063L22.6242 97.4568Z" fill="#4EBCE5"/>
<path d="M16.3333 112.176L28.4795 117.644L28.9792 116.429L16.8458 110.974L16.3333 112.176Z" fill="#24A7C5"/>
<circle cx="55.8901" cy="90.4959" r="12.2766" fill="#0FF942"/>
<path fill-rule="evenodd" clip-rule="evenodd" d="M64.3204 84.2983C64.9061 84.8841 64.9061 85.8338 64.3204 86.4196L54.0465 96.6935C53.7122 97.0278 53.2399 97.1849 52.772 97.1175C52.3041 97.0501 51.8953 96.7661 51.669 96.3511L48.5478 90.6289C48.1511 89.9017 48.4191 88.9905 49.1464 88.5938C49.8737 88.1971 50.7848 88.4651 51.1815 89.1924L53.3427 93.1546L62.199 84.2983C62.7848 83.7125 63.7346 83.7125 64.3204 84.2983Z" fill="#4E5292"/>
</g>
<defs>
<clipPath id="clip0">
<rect width="82" height="81" fill="white" transform="translate(14.8854 66.0566)"/>
</clipPath>
</defs>
</svg>
