<svg width="291" height="164" viewBox="0 0 291 164" fill="none" xmlns="http://www.w3.org/2000/svg">
<rect x="5.42529" y="5.72778" width="280.473" height="152.356" rx="8" fill="#FEC705"/>
<path fill-rule="evenodd" clip-rule="evenodd" d="M282.897 1.72583H8.42676C4.56077 1.72583 1.42676 4.85984 1.42676 8.72584V155.086C1.42676 158.952 4.56077 162.086 8.42676 162.086H282.897C286.763 162.086 289.897 158.952 289.897 155.086V8.72583C289.897 4.85984 286.763 1.72583 282.897 1.72583ZM8.42676 0.72583C4.00848 0.72583 0.426758 4.30756 0.426758 8.72584V155.086C0.426758 159.504 4.00848 163.086 8.42676 163.086H282.897C287.315 163.086 290.897 159.504 290.897 155.086V8.72583C290.897 4.30755 287.315 0.72583 282.897 0.72583H8.42676Z" fill="#FEC705"/>
<path d="M189.867 123.688C183.467 124.162 183.052 110.65 183.645 103.835C179.003 100.971 170.074 98.6794 171.496 112.428C172.919 126.176 184.336 125.663 189.867 123.688Z" fill="white"/>
<rect width="169.042" height="82.7508" rx="8" transform="matrix(-0.99971 -0.0240972 -0.0240972 0.99971 185.685 30.4672)" fill="white"/>
<path d="M32.0578 46.0107L32.6553 46.0243C33.2138 46.037 33.6341 45.9371 33.9163 45.7247C34.1987 45.5084 34.3446 45.1894 34.3542 44.7676C34.3638 44.3419 34.2538 44.0249 34.0241 43.8165C33.7983 43.6082 33.4374 43.4984 32.9415 43.4872L32.1155 43.4684L32.0578 46.0107ZM36.1892 44.7448C36.1682 45.6664 35.8633 46.3647 35.2742 46.8398C34.6891 47.3149 33.8654 47.5404 32.8031 47.5163L32.0241 47.4986L31.9549 50.5447L30.139 50.5035L30.3333 41.9393L33.0689 42.0014C34.1077 42.025 34.8915 42.2674 35.4202 42.7288C35.953 43.1863 36.2093 43.8583 36.1892 44.7448Z" fill="#034861"/>
<path d="M41.6907 50.7656L41.3653 49.8674L41.3184 49.8663C41.0091 50.2383 40.6927 50.4949 40.3691 50.636C40.0495 50.7733 39.6339 50.8362 39.1223 50.8246C38.4936 50.8103 38.0017 50.6194 37.6466 50.2519C37.2955 49.8845 37.1275 49.3688 37.1425 48.7049C37.1583 48.0098 37.412 47.5037 37.9037 47.1866C38.3994 46.8658 39.1378 46.6989 40.1188 46.686L41.256 46.6766L41.2625 46.3896C41.2776 45.7257 40.9454 45.386 40.2659 45.3706C39.7426 45.3587 39.1239 45.5029 38.4099 45.8032L37.8456 44.5831C38.6083 44.2058 39.4485 44.0275 40.3662 44.0483C41.2449 44.0683 41.9142 44.2749 42.3741 44.6683C42.8341 45.0616 43.0552 45.6488 43.0375 46.4298L42.9384 50.794L41.6907 50.7656ZM41.2324 47.7193L40.5406 47.7271C40.0208 47.7309 39.6321 47.8158 39.3744 47.9819C39.1166 48.148 38.9838 48.4068 38.9758 48.7582C38.9644 49.262 39.2476 49.5205 39.8256 49.5336C40.2396 49.543 40.5723 49.4313 40.8237 49.1987C41.079 48.9662 41.2112 48.6527 41.2201 48.2582L41.2324 47.7193Z" fill="#034861"/>
<path d="M49.3969 48.9947C49.3817 49.6664 49.1358 50.1727 48.6592 50.5135C48.1865 50.8544 47.4854 51.0143 46.5559 50.9933C46.0795 50.9824 45.6741 50.94 45.3398 50.866C45.0053 50.7959 44.6931 50.6951 44.403 50.5635L44.4365 49.0873C44.7649 49.251 45.1349 49.3903 45.5465 49.5051C45.9619 49.6201 46.3278 49.6811 46.6442 49.6883C47.2924 49.703 47.6208 49.5229 47.6293 49.148C47.6325 49.0074 47.5921 48.8932 47.5082 48.8053C47.4243 48.7135 47.2781 48.6106 47.0697 48.4965C46.8614 48.3784 46.5832 48.2412 46.2351 48.0848C45.7361 47.8625 45.3696 47.6588 45.1354 47.4738C44.9052 47.2888 44.738 47.0799 44.6339 46.847C44.5338 46.6103 44.4875 46.3221 44.4953 45.9823C44.5085 45.4005 44.7432 44.9564 45.1995 44.6503C45.6598 44.3404 46.3038 44.1948 47.1318 44.2136C47.9206 44.2315 48.6841 44.4207 49.4222 44.7813L48.854 46.0578C48.5292 45.9098 48.2252 45.7876 47.9422 45.6913C47.6592 45.595 47.3692 45.5435 47.0724 45.5368C46.5452 45.5248 46.2784 45.6614 46.2719 45.9465C46.2683 46.1066 46.3491 46.2471 46.5144 46.3681C46.6835 46.4891 47.0525 46.6714 47.6214 46.9148C48.1283 47.1334 48.4988 47.3352 48.7329 47.5203C48.9671 47.7053 49.1381 47.9163 49.2461 48.1532C49.354 48.39 49.4043 48.6706 49.3969 48.9947Z" fill="#034861"/>
<path d="M54.9061 51.0655L54.5806 50.1673L54.5338 50.1662C54.2245 50.5382 53.908 50.7948 53.5844 50.9359C53.2648 51.0732 52.8492 51.1361 52.3377 51.1244C51.7089 51.1102 51.217 50.9193 50.862 50.5518C50.5109 50.1843 50.3428 49.6687 50.3579 49.0048C50.3737 48.3096 50.6274 47.8035 51.1191 47.4865C51.6148 47.1656 52.3531 46.9987 53.3341 46.9858L54.4714 46.9765L54.4779 46.6894C54.4929 46.0255 54.1607 45.6859 53.4812 45.6705C52.9579 45.6586 52.3392 45.8028 51.6252 46.1031L51.0609 44.8829C51.8236 44.5056 52.6638 44.3274 53.5815 44.3482C54.4602 44.3681 55.1295 44.5748 55.5895 44.9681C56.0494 45.3615 56.2705 45.9487 56.2528 46.7297L56.1538 51.0938L54.9061 51.0655ZM54.4477 48.0192L53.7559 48.0269C53.2362 48.0308 52.8474 48.1157 52.5897 48.2818C52.332 48.4478 52.1991 48.7066 52.1911 49.0581C52.1797 49.5619 52.463 49.8203 53.041 49.8334C53.4549 49.8428 53.7876 49.7312 54.039 49.4986C54.2944 49.266 54.4265 48.9525 54.4355 48.5581L54.4477 48.0192Z" fill="#034861"/>
<path d="M65.7548 51.3117L65.5337 50.4685L65.4399 50.4664C65.2417 50.7667 64.9649 50.9968 64.6096 51.1567C64.2544 51.3128 63.8523 51.3857 63.4032 51.3755C62.6338 51.3581 62.0586 51.1399 61.6773 50.721C61.2962 50.2982 61.1144 49.7001 61.132 48.9269L61.2289 44.6565L63.0155 44.697L62.9287 48.5222C62.918 48.9948 62.9939 49.3521 63.1564 49.5941C63.319 49.8322 63.5839 49.9554 63.951 49.9638C64.4508 49.9751 64.8158 49.8173 65.046 49.4904C65.2762 49.1596 65.4001 48.6076 65.4176 47.8344L65.4875 44.7531L67.2742 44.7937L67.1256 51.3428L65.7548 51.3117Z" fill="#034861"/>
<path d="M75.0454 51.5225L73.2588 51.4819L73.3456 47.6568C73.3563 47.1842 73.2803 46.8289 73.1177 46.5908C72.9552 46.3487 72.6904 46.2236 72.3233 46.2152C71.8234 46.2039 71.4584 46.3636 71.2282 46.6944C70.998 47.0213 70.8742 47.5714 70.8567 48.3446L70.7867 51.4258L69.0001 51.3853L69.1487 44.8362L70.5136 44.8672L70.7347 45.7103L70.8343 45.7126C71.0407 45.4008 71.3194 45.1687 71.6706 45.0165C72.0258 44.8605 72.426 44.7875 72.8712 44.7976C73.6328 44.8149 74.206 45.035 74.5911 45.4579C74.9762 45.8769 75.1599 46.475 75.1423 47.2521L75.0454 51.5225Z" fill="#034861"/>
<path d="M85.8649 51.768L84.0782 51.7274L84.165 47.9023C84.1758 47.4297 84.1037 47.0745 83.9489 46.8365C83.7981 46.5948 83.5528 46.47 83.2131 46.4623C82.7562 46.452 82.4204 46.6123 82.2058 46.9435C81.9912 47.2747 81.8752 47.8249 81.8577 48.5942L81.7878 51.6755L80.0012 51.6349L80.1498 45.0858L81.5146 45.1168L81.7358 45.9599L81.8354 45.9622C82.018 45.6655 82.2771 45.4369 82.6129 45.2765C82.9487 45.1122 83.3314 45.0349 83.761 45.0447C84.7412 45.0669 85.3978 45.4022 85.7309 46.0506L85.889 46.0542C86.0717 45.7535 86.3348 45.5231 86.6784 45.3629C87.0258 45.2028 87.4144 45.1276 87.8439 45.1373C88.5859 45.1542 89.142 45.3582 89.5121 45.7496C89.8862 46.1371 90.0638 46.7506 90.0447 47.5902L89.9478 51.8606L88.1553 51.82L88.2421 47.9948C88.2528 47.5222 88.1808 47.167 88.026 46.929C87.8752 46.6873 87.6299 46.5625 87.2902 46.5548C86.8528 46.5449 86.5212 46.6937 86.2954 47.0011C86.0735 47.3087 85.9549 47.8022 85.9395 48.4817L85.8649 51.768Z" fill="#034861"/>
<path d="M94.6219 46.5629C94.2431 46.5544 93.9436 46.6687 93.7233 46.9059C93.5031 47.1393 93.3724 47.4762 93.3311 47.9168L95.8383 47.9737C95.8405 47.5322 95.733 47.1899 95.5158 46.9466C95.2987 46.6994 95.0007 46.5715 94.6219 46.5629ZM94.7486 52.0868C93.6942 52.0628 92.8768 51.7532 92.2964 51.1579C91.716 50.5625 91.4379 49.7318 91.4621 48.6656C91.487 47.5683 91.7796 46.727 92.3399 46.1419C92.9042 45.553 93.6706 45.2695 94.6391 45.2915C95.5646 45.3125 96.2791 45.5925 96.7827 46.1314C97.2862 46.6703 97.5274 47.4045 97.5063 48.3339L97.4867 49.2009L93.2631 49.105C93.2711 49.6132 93.4125 50.013 93.6872 50.3044C93.9619 50.5959 94.3531 50.7474 94.8608 50.7589C95.2552 50.7678 95.6291 50.7353 95.9824 50.6613C96.3358 50.5872 96.7058 50.4647 97.0926 50.2938L97.0613 51.6762C96.7453 51.8254 96.4088 51.933 96.0517 51.9991C95.6946 52.0692 95.2602 52.0984 94.7486 52.0868Z" fill="#034861"/>
<path d="M103.488 50.2221C103.473 50.8938 103.227 51.4 102.751 51.7409C102.278 52.0818 101.577 52.2417 100.647 52.2206C100.171 52.2098 99.7657 52.1674 99.4313 52.0934C99.0969 52.0233 98.7846 51.9224 98.4946 51.7908L98.5281 50.3146C98.8565 50.4784 99.2265 50.6177 99.638 50.7325C100.053 50.8474 100.419 50.9085 100.736 50.9156C101.384 50.9304 101.712 50.7503 101.721 50.3754C101.724 50.2348 101.684 50.1205 101.6 50.0327C101.516 49.9409 101.37 49.838 101.161 49.7238C100.953 49.6058 100.675 49.4686 100.327 49.3122C99.8277 49.0899 99.4611 48.8862 99.227 48.7012C98.9967 48.5162 98.8295 48.3073 98.7254 48.0744C98.6253 47.8377 98.5791 47.5495 98.5868 47.2097C98.6 46.6278 98.8347 46.1838 99.291 45.8777C99.7513 45.5677 100.395 45.4221 101.223 45.4409C102.012 45.4588 102.776 45.6481 103.514 46.0087L102.946 47.2852C102.621 47.1371 102.317 47.015 102.034 46.9187C101.751 46.8224 101.461 46.7709 101.164 46.7641C100.637 46.7522 100.37 46.8887 100.363 47.1738C100.36 47.3339 100.441 47.4745 100.606 47.5954C100.775 47.7165 101.144 47.8987 101.713 48.1422C102.22 48.3608 102.59 48.5626 102.824 48.7476C103.059 48.9327 103.23 49.1436 103.338 49.3805C103.446 49.6174 103.496 49.8979 103.488 50.2221Z" fill="#034861"/>
<path d="M106.619 50.9788C106.398 51.7631 106.033 52.6906 105.524 53.7613L104.235 53.7321C104.513 52.699 104.732 51.7233 104.894 50.8049L106.534 50.8421L106.619 50.9788Z" fill="#034861"/>
<path d="M110.646 45.7778L112.602 45.8222L113.755 49.5348C113.853 49.8575 113.917 50.2379 113.946 50.6762L113.981 50.677C114.033 50.2757 114.125 49.8988 114.259 49.5463L115.555 45.8892L117.47 45.9327L114.532 53.2566C114.263 53.9342 113.888 54.4376 113.407 54.7666C112.931 55.0957 112.379 55.2531 111.75 55.2389C111.441 55.2319 111.139 55.1918 110.844 55.1187L110.876 53.7011C111.09 53.7567 111.324 53.7874 111.578 53.7932C111.894 53.8004 112.171 53.709 112.41 53.519C112.653 53.3331 112.845 53.0464 112.986 52.6588L113.099 52.3391L110.646 45.7778Z" fill="#034861"/>
<path d="M125.54 52.6682L125.215 51.77L125.168 51.7689C124.859 52.1409 124.542 52.3975 124.219 52.5386C123.899 52.6759 123.483 52.7388 122.972 52.7272C122.343 52.7129 121.851 52.522 121.496 52.1545C121.145 51.7871 120.977 51.2714 120.992 50.6075C121.008 49.9124 121.262 49.4063 121.753 49.0892C122.249 48.7683 122.987 48.6015 123.968 48.5886L125.106 48.5792L125.112 48.2922C125.127 47.6283 124.795 47.2886 124.115 47.2732C123.592 47.2613 122.973 47.4055 122.259 47.7058L121.695 46.4857C122.458 46.1083 123.298 45.9301 124.216 45.9509C125.094 45.9708 125.764 46.1775 126.224 46.5708C126.684 46.9642 126.905 47.5514 126.887 48.3324L126.788 52.6965L125.54 52.6682ZM125.082 49.6219L124.39 49.6296C123.87 49.6335 123.482 49.7184 123.224 49.8845C122.966 50.0506 122.833 50.3093 122.825 50.6608C122.814 51.1646 123.097 51.423 123.675 51.4362C124.089 51.4455 124.422 51.3339 124.673 51.1013C124.929 50.8687 125.061 50.5552 125.07 50.1608L125.082 49.6219Z" fill="#034861"/>
<path d="M133.273 52.8437L133.051 52.0006L132.958 51.9984C132.759 52.2987 132.483 52.5288 132.127 52.6888C131.772 52.8448 131.37 52.9177 130.921 52.9075C130.152 52.8901 129.576 52.6719 129.195 52.253C128.814 51.8302 128.632 51.2321 128.65 50.4589L128.747 46.1885L130.533 46.2291L130.446 50.0542C130.436 50.5268 130.512 50.8841 130.674 51.1261C130.837 51.3642 131.102 51.4874 131.469 51.4958C131.969 51.5071 132.334 51.3493 132.564 51.0224C132.794 50.6916 132.918 50.1396 132.935 49.3664L133.005 46.2852L134.792 46.3257L134.643 52.8748L133.273 52.8437Z" fill="#034861"/>
<path d="M142.563 53.0545L140.777 53.014L140.863 49.1888C140.874 48.7162 140.798 48.3609 140.635 48.1228C140.473 47.8807 140.208 47.7556 139.841 47.7472C139.341 47.7359 138.976 47.8956 138.746 48.2264C138.516 48.5533 138.392 49.1034 138.374 49.8766L138.305 52.9579L136.518 52.9173L136.666 46.3682L138.031 46.3992L138.253 47.2423L138.352 47.2446C138.558 46.9328 138.837 46.7008 139.188 46.5485C139.544 46.3925 139.944 46.3195 140.389 46.3296C141.151 46.3469 141.724 46.567 142.109 46.9899C142.494 47.4089 142.678 48.007 142.66 48.7841L142.563 53.0545Z" fill="#034861"/>
<path d="M153.564 53.3041L151.778 53.2636L151.864 49.4384C151.875 48.9658 151.799 48.6105 151.637 48.3724C151.474 48.1304 151.209 48.0052 150.842 47.9969C150.342 47.9855 149.977 48.1452 149.747 48.476C149.517 48.8029 149.393 49.353 149.376 50.1262L149.306 53.2075L147.519 53.1669L147.668 46.6178L149.032 46.6488L149.254 47.4919L149.353 47.4942C149.56 47.1824 149.838 46.9504 150.189 46.7981C150.545 46.6421 150.945 46.5691 151.39 46.5792C152.152 46.5965 152.725 46.8166 153.11 47.2395C153.495 47.6585 153.679 48.2566 153.661 49.0337L153.564 53.3041Z" fill="#034861"/>
<path d="M156.902 50.0919C156.887 50.7402 156.981 51.2327 157.185 51.5694C157.392 51.9062 157.736 52.0801 158.216 52.091C158.692 52.1018 159.038 51.9455 159.252 51.6222C159.471 51.295 159.587 50.8053 159.602 50.1532C159.617 49.5049 159.522 49.0163 159.319 48.6874C159.115 48.3584 158.773 48.1885 158.293 48.1776C157.817 48.1668 157.469 48.3211 157.251 48.6405C157.033 48.9559 156.916 49.4397 156.902 50.0919ZM161.43 50.1946C161.406 51.2608 161.105 52.0881 160.529 52.6768C159.953 53.2654 159.164 53.5484 158.16 53.5256C157.531 53.5113 156.98 53.3621 156.506 53.0778C156.032 52.7896 155.672 52.3849 155.426 51.8635C155.179 51.3422 155.064 50.7379 155.08 50.0505C155.104 48.9805 155.402 48.155 155.974 47.5741C156.546 46.9932 157.338 46.7142 158.349 46.7371C158.978 46.7514 159.529 46.9007 160.004 47.1849C160.478 47.4692 160.838 47.8701 161.084 48.3875C161.33 48.9049 161.445 49.5073 161.43 50.1946Z" fill="#034861"/>
<path d="M32.4702 61.1568C32.0914 61.1482 31.7918 61.2625 31.5716 61.4998C31.3514 61.7331 31.2206 62.0701 31.1794 62.5107L33.6866 62.5676C33.6888 62.1261 33.5813 61.7837 33.3641 61.5405C33.147 61.2933 32.849 61.1654 32.4702 61.1568ZM32.5969 66.6806C31.5425 66.6567 30.7251 66.3471 30.1447 65.7517C29.5643 65.1564 29.2862 64.3256 29.3104 63.2595C29.3353 62.1621 29.6279 61.3209 30.1881 60.7358C30.7524 60.1469 31.5188 59.8634 32.4873 59.8854C33.4129 59.9064 34.1274 60.1863 34.6309 60.7252C35.1345 61.2642 35.3757 61.9983 35.3546 62.9278L35.3349 63.7947L31.1114 63.6989C31.1194 64.207 31.2608 64.6068 31.5355 64.8983C31.8102 65.1898 32.2014 65.3412 32.7091 65.3528C33.1035 65.3617 33.4774 65.3292 33.8307 65.2551C34.184 65.1811 34.5541 65.0586 34.9409 64.8876L34.9095 66.2701C34.5936 66.4192 34.257 66.5269 33.9 66.593C33.5428 66.663 33.1085 66.6922 32.5969 66.6806Z" fill="#034861"/>
<path d="M42.7688 66.7942L40.9821 66.7537L41.0689 62.9285C41.0797 62.456 41.0037 62.1006 40.8411 61.8625C40.6786 61.6205 40.4138 61.4953 40.0467 61.487C39.5468 61.4756 39.1818 61.6354 38.9516 61.9662C38.7214 62.2931 38.5976 62.8431 38.58 63.6164L38.5101 66.6976L36.7235 66.6571L36.8721 60.108L38.237 60.1389L38.4581 60.9821L38.5577 60.9843C38.7641 60.6725 39.0428 60.4405 39.394 60.2883C39.7492 60.1322 40.1494 60.0592 40.5946 60.0693C41.3561 60.0866 41.9294 60.3067 42.3145 60.7296C42.6996 61.1486 42.8833 61.7467 42.8657 62.5238L42.7688 66.7942Z" fill="#034861"/>
<path d="M47.265 67.0135C45.2264 66.9672 44.2326 65.8252 44.2833 63.5875C44.3086 62.4745 44.6051 61.6314 45.173 61.0582C45.7409 60.4811 46.5423 60.2043 47.5772 60.2278C48.3348 60.245 49.011 60.4088 49.6056 60.7192L49.0471 62.0897C48.7684 61.9701 48.5089 61.8724 48.2683 61.7966C48.0279 61.7169 47.7866 61.6743 47.5445 61.6688C46.615 61.6477 46.1353 62.2972 46.1054 63.6171C46.0763 64.8981 46.5265 65.5491 47.456 65.5702C47.7996 65.578 48.1189 65.5403 48.4139 65.4571C48.7089 65.37 49.0051 65.2322 49.3024 65.0436L49.2677 66.5725C48.9745 66.7494 48.6788 66.8697 48.3804 66.9333C48.0859 66.9969 47.7141 67.0237 47.265 67.0135Z" fill="#034861"/>
<path d="M55.4218 67.0813L55.2006 66.2382L55.1069 66.2361C54.9086 66.5363 54.6318 66.7665 54.2766 66.9264C53.9214 67.0825 53.5192 67.1554 53.0701 67.1452C52.3008 67.1277 51.7255 66.9095 51.3443 66.4906C50.9632 66.0678 50.7814 65.4698 50.7989 64.6966L50.8958 60.4262L52.6825 60.4667L52.5957 64.2919C52.5849 64.7644 52.6608 65.1217 52.8234 65.3637C52.986 65.6019 53.2508 65.7251 53.6179 65.7334C54.1178 65.7448 54.4828 65.587 54.7129 65.2601C54.9431 64.9293 55.067 64.3773 55.0846 63.604L55.1545 60.5228L56.9411 60.5633L56.7925 67.1124L55.4218 67.0813Z" fill="#034861"/>
<path d="M61.5018 61.8156C61.123 61.807 60.8234 61.9213 60.6031 62.1585C60.383 62.3919 60.2522 62.7288 60.211 63.1694L62.7181 63.2263C62.7203 62.7849 62.6129 62.4425 62.3957 62.1992C62.1786 61.952 61.8806 61.8241 61.5018 61.8156ZM61.6285 67.3394C60.5741 67.3155 59.7566 67.0058 59.1763 66.4105C58.5959 65.8151 58.3178 64.9844 58.3419 63.9182C58.3668 62.8209 58.6594 61.9796 59.2197 61.3945C59.784 60.8056 60.5504 60.5222 61.5189 60.5441C62.4445 60.5651 63.159 60.8451 63.6625 61.384C64.1661 61.9229 64.4073 62.6571 64.3862 63.5865L64.3665 64.4535L60.143 64.3576C60.151 64.8658 60.2924 65.2656 60.5671 65.557C60.8418 65.8485 61.233 66 61.7407 66.0115C62.1351 66.0205 62.509 65.9879 62.8623 65.9139C63.2156 65.8398 63.5857 65.7173 63.9725 65.5464L63.9411 66.9288C63.6251 67.078 63.2886 67.1856 62.9316 67.2517C62.5744 67.3218 62.1401 67.351 61.6285 67.3394Z" fill="#034861"/>
<path d="M71.8004 67.453L70.0137 67.4124L70.1005 63.5872C70.1113 63.1147 70.0353 62.7594 69.8727 62.5213C69.7102 62.2792 69.4454 62.154 69.0783 62.1457C68.5784 62.1344 68.2134 62.2941 67.9831 62.6249C67.753 62.9518 67.6292 63.5019 67.6116 64.2751L67.5417 67.3563L65.7551 67.3158L65.9037 60.7667L67.2685 60.7977L67.4897 61.6408L67.5893 61.6431C67.7956 61.3312 68.0744 61.0992 68.4256 60.947C68.7808 60.791 69.181 60.718 69.6262 60.7281C70.3877 60.7454 70.961 60.9655 71.346 61.3884C71.7312 61.8074 71.9149 62.4054 71.8973 63.1826L71.8004 67.453Z" fill="#034861"/>
<path d="M76.4284 66.251C76.7409 66.2581 77.1173 66.1983 77.5578 66.0715L77.5276 67.4012C77.0779 67.5903 76.5289 67.6775 75.8807 67.6628C75.166 67.6466 74.6487 67.4551 74.3288 67.0884C74.0129 66.7178 73.8632 66.1713 73.8796 65.4488L73.9512 62.2914L73.096 62.272L73.1131 61.5164L74.1108 60.9412L74.6577 59.5704L75.7999 59.5964L75.7683 60.9905L77.6018 61.0321L77.5714 62.3736L75.7379 62.332L75.6662 65.4894C75.6605 65.7432 75.7265 65.9323 75.8644 66.0565C76.0061 66.1809 76.1941 66.2457 76.4284 66.251Z" fill="#034861"/>
<path d="M82.66 61.0238C82.9021 61.0293 83.1028 61.0515 83.2621 61.0902L83.0894 62.7625C82.9458 62.7202 82.7705 62.6967 82.5635 62.692C81.9933 62.6791 81.5448 62.8154 81.2179 63.101C80.895 63.3867 80.7275 63.7932 80.7155 64.3204L80.6399 67.6535L78.8533 67.613L79.0019 61.0639L80.355 61.0946L80.5936 62.2019L80.6815 62.2039C80.8929 61.8414 81.173 61.5527 81.5217 61.3379C81.8744 61.1193 82.2538 61.0146 82.66 61.0238Z" fill="#034861"/>
<path d="M88.4602 67.831L88.1347 66.9327L88.0879 66.9317C87.7786 67.3037 87.4621 67.5602 87.1385 67.7014C86.8189 67.8387 86.4033 67.9015 85.8918 67.8899C85.263 67.8757 84.7711 67.6848 84.4161 67.3172C84.065 66.9498 83.8969 66.4341 83.912 65.7703C83.9278 65.0751 84.1815 64.569 84.6732 64.252C85.1689 63.9311 85.9072 63.7642 86.8882 63.7513L88.0255 63.7419L88.032 63.4549C88.047 62.791 87.7148 62.4514 87.0353 62.4359C86.512 62.4241 85.8933 62.5683 85.1793 62.8686L84.615 61.6484C85.3777 61.2711 86.2179 61.0928 87.1356 61.1137C88.0143 61.1336 88.6836 61.3402 89.1436 61.7336C89.6035 62.1269 89.8246 62.7141 89.8069 63.4952L89.7079 67.8593L88.4602 67.831ZM88.0018 64.7846L87.31 64.7924C86.7903 64.7962 86.4015 64.8812 86.1438 65.0473C85.8861 65.2133 85.7532 65.4721 85.7452 65.8236C85.7338 66.3273 86.0171 66.5858 86.595 66.5989C87.009 66.6083 87.3417 66.4967 87.5931 66.264C87.8485 66.0315 87.9806 65.718 87.9896 65.3236L88.0018 64.7846Z" fill="#034861"/>
<path d="M98.8286 68.0662L98.5032 67.168L98.4563 67.1669C98.147 67.5389 97.8306 67.7955 97.507 67.9366C97.1874 68.0739 96.7718 68.1368 96.2602 68.1252C95.6314 68.1109 95.1395 67.92 94.7845 67.5525C94.4334 67.1851 94.2654 66.6694 94.2804 66.0055C94.2962 65.3104 94.5499 64.8043 95.0416 64.4872C95.5373 64.1664 96.2757 63.9995 97.2567 63.9866L98.3939 63.9772L98.4004 63.6902C98.4155 63.0263 98.0832 62.6866 97.4037 62.6712C96.8804 62.6593 96.2618 62.8035 95.5477 63.1038L94.9835 61.8837C95.7461 61.5064 96.5863 61.3281 97.5041 61.3489C98.3827 61.3689 99.0521 61.5755 99.512 61.9689C99.9719 62.3622 100.193 62.9494 100.175 63.7305L100.076 68.0946L98.8286 68.0662ZM98.3702 65.0199L97.6785 65.0277C97.1587 65.0315 96.77 65.1164 96.5122 65.2825C96.2545 65.4486 96.1216 65.7074 96.1137 66.0588C96.1022 66.5626 96.3855 66.8211 96.9635 66.8342C97.3774 66.8436 97.7101 66.7319 97.9616 66.4993C98.2169 66.2668 98.349 65.9533 98.358 65.5588L98.3702 65.0199Z" fill="#034861"/>
<path d="M103.708 68.177L101.922 68.1364L102.128 59.0216L103.915 59.0621L103.708 68.177Z" fill="#034861"/>
<path d="M32.8666 82.6909C32.0972 82.6734 31.5002 82.3805 31.0755 81.8121L30.9818 81.81C31.0319 82.3582 31.0559 82.6752 31.054 82.7611L30.9938 85.4147L29.2071 85.3742L29.4211 75.943L30.8739 75.976L31.1065 76.8311L31.1885 76.8329C31.621 76.1942 32.2474 75.8841 33.0675 75.9027C33.8407 75.9202 34.4393 76.2327 34.8631 76.8401C35.2869 77.4476 35.4868 78.2824 35.4627 79.3446C35.4468 80.0437 35.3296 80.6486 35.1109 81.1594C34.8961 81.6702 34.5963 82.0561 34.2113 82.317C33.8264 82.5779 33.3782 82.7025 32.8666 82.6909ZM32.461 77.319C32.0197 77.309 31.6944 77.4383 31.4851 77.7071C31.2759 77.9719 31.1604 78.4167 31.1384 79.0414L31.134 79.2347C31.118 79.9376 31.2101 80.4437 31.4102 80.753C31.6141 81.0624 31.9426 81.2223 32.3956 81.2326C33.1962 81.2507 33.6115 80.5998 33.6414 79.2798C33.656 78.6355 33.5674 78.1509 33.3755 77.8262C33.1876 77.4976 32.8828 77.3285 32.461 77.319Z" fill="#034861"/>
<path d="M40.671 76.0752C40.9131 76.0807 41.1138 76.1028 41.2732 76.1416L41.1004 77.8139C40.9568 77.7716 40.7815 77.7481 40.5745 77.7434C40.0044 77.7304 39.5559 77.8668 39.229 78.1524C38.906 78.4381 38.7385 78.8446 38.7266 79.3718L38.6509 82.7049L36.8643 82.6644L37.0129 76.1153L38.3661 76.146L38.6047 77.2532L38.6925 77.2552C38.904 76.8927 39.184 76.6041 39.5327 76.3893C39.8854 76.1707 40.2649 76.066 40.671 76.0752Z" fill="#034861"/>
<path d="M43.8101 79.534C43.7954 80.1823 43.8898 80.6748 44.0931 81.0115C44.3004 81.3483 44.6442 81.5222 45.1245 81.5331C45.6009 81.5439 45.9464 81.3876 46.1608 81.0643C46.3792 80.7371 46.4958 80.2475 46.5106 79.5953C46.5253 78.947 46.4309 78.4584 46.2274 78.1295C46.0239 77.8006 45.6819 77.6307 45.2016 77.6198C44.7251 77.609 44.3778 77.7632 44.1596 78.0826C43.9414 78.398 43.8249 78.8818 43.8101 79.534ZM48.3383 79.6368C48.3141 80.7029 48.014 81.5303 47.438 82.1189C46.862 82.7076 46.0722 82.9905 45.0685 82.9677C44.4398 82.9535 43.8883 82.8042 43.4142 82.5199C42.9401 82.2318 42.5801 81.827 42.334 81.3057C42.088 80.7843 41.9727 80.18 41.9883 79.4927C42.0126 78.4226 42.3107 77.5972 42.8826 77.0162C43.4546 76.4353 44.2463 76.1563 45.2577 76.1793C45.8865 76.1935 46.4379 76.3428 46.912 76.6271C47.3862 76.9113 47.7463 77.3122 47.9925 77.8296C48.2386 78.3471 48.3539 78.9494 48.3383 79.6368Z" fill="#034861"/>
<path d="M53.4782 77.831L51.9317 77.7959L51.8136 83.0036L50.0269 82.963L50.1451 77.7554L49.161 77.7331L49.1805 76.872L50.1755 76.4139L50.1864 75.9336C50.2034 75.1877 50.3993 74.6471 50.7741 74.3117C51.149 73.9764 51.7407 73.8179 52.5491 73.8363C53.1661 73.8503 53.7127 73.9545 54.1889 74.1489L53.7022 75.4507C53.3455 75.3293 53.0148 75.2652 52.7102 75.2583C52.4564 75.2525 52.2711 75.3245 52.1544 75.4742C52.0378 75.62 51.9768 75.8101 51.9715 76.0444L51.9622 76.4545L53.5087 76.4896L53.4782 77.831Z" fill="#034861"/>
<path d="M57.2258 77.7226C56.847 77.7141 56.5474 77.8284 56.3271 78.0656C56.1069 78.299 55.9762 78.6359 55.935 79.0765L58.4421 79.1334C58.4443 78.6919 58.3368 78.3496 58.1196 78.1063C57.9025 77.8591 57.6046 77.7312 57.2258 77.7226ZM57.3525 83.2465C56.298 83.2225 55.4806 82.9129 54.9002 82.3176C54.3198 81.7222 54.0417 80.8915 54.0659 79.8253C54.0908 78.728 54.3834 77.8867 54.9437 77.3016C55.508 76.7127 56.2744 76.4292 57.2429 76.4512C58.1684 76.4722 58.883 76.7522 59.3865 77.2911C59.89 77.83 60.1313 78.5642 60.1102 79.4936L60.0905 80.3606L55.867 80.2647C55.875 80.7729 56.0163 81.1727 56.2911 81.4641C56.5658 81.7556 56.957 81.9071 57.4646 81.9186C57.8591 81.9275 58.233 81.895 58.5863 81.821C58.9396 81.7469 59.3097 81.6244 59.6965 81.4535L59.6651 82.8359C59.3491 82.9851 59.0126 83.0927 58.6556 83.1588C58.2984 83.2289 57.864 83.2581 57.3525 83.2465Z" fill="#034861"/>
<path d="M66.0923 81.3818C66.0771 82.0535 65.8312 82.5597 65.3545 82.9006C64.8819 83.2415 64.1808 83.4014 63.2513 83.3803C62.7749 83.3695 62.3695 83.3271 62.0352 83.2531C61.7007 83.183 61.3885 83.0821 61.0984 82.9505L61.1319 81.4743C61.4603 81.6381 61.8303 81.7774 62.2419 81.8922C62.6573 82.0071 63.0232 82.0682 63.3396 82.0753C63.9878 82.0901 64.3162 81.91 64.3247 81.5351C64.3279 81.3945 64.2875 81.2802 64.2036 81.1924C64.1197 81.1006 63.9735 80.9977 63.7651 80.8835C63.5568 80.7655 63.2786 80.6283 62.9305 80.4719C62.4315 80.2496 62.0649 80.0459 61.8308 79.8609C61.6006 79.6759 61.4334 79.467 61.3293 79.2341C61.2291 78.9974 61.1829 78.7092 61.1906 78.3694C61.2038 77.7875 61.4386 77.3435 61.8949 77.0374C62.3551 76.7274 62.9992 76.5818 63.8271 76.6006C64.616 76.6185 65.3795 76.8078 66.1176 77.1684L65.5494 78.4449C65.2246 78.2968 64.9206 78.1747 64.6376 78.0784C64.3545 77.9821 64.0646 77.9306 63.7678 77.9238C63.2406 77.9119 62.9738 78.0484 62.9673 78.3335C62.9637 78.4936 63.0445 78.6342 63.2098 78.7551C63.3789 78.8762 63.7479 79.0584 64.3168 79.3019C64.8237 79.5205 65.1942 79.7223 65.4283 79.9073C65.6625 80.0924 65.8335 80.3033 65.9414 80.5402C66.0494 80.7771 66.0997 81.0576 66.0923 81.3818Z" fill="#034861"/>
<path d="M67.5532 75.1145C67.5664 74.5326 67.8972 74.249 68.5454 74.2637C69.1937 74.2784 69.5112 74.5767 69.498 75.1586C69.4917 75.4359 69.4048 75.6507 69.2373 75.8032C69.0737 75.9519 68.8298 76.0226 68.5057 76.0152C67.8574 76.0005 67.5399 75.7002 67.5532 75.1145ZM69.229 83.3987L67.4424 83.3582L67.591 76.8091L69.3776 76.8496L69.229 83.3987Z" fill="#034861"/>
<path d="M72.6074 80.1874C72.5927 80.8357 72.687 81.3282 72.8904 81.6649C73.0976 82.0018 73.4414 82.1756 73.9218 82.1865C74.3982 82.1973 74.7437 82.0411 74.9581 81.7177C75.1765 81.3906 75.2931 80.9009 75.3079 80.2487C75.3226 79.6004 75.2282 79.1119 75.0247 78.7829C74.8211 78.454 74.4792 78.2841 73.9989 78.2732C73.5224 78.2624 73.1751 78.4167 72.9568 78.736C72.7387 79.0515 72.6222 79.5353 72.6074 80.1874ZM77.1355 80.2902C77.1114 81.3563 76.8113 82.1837 76.2353 82.7724C75.6593 83.361 74.8694 83.6439 73.8658 83.6212C73.237 83.6069 72.6856 83.4576 72.2115 83.1734C71.7374 82.8852 71.3773 82.4804 71.1313 81.9591C70.8853 81.4378 70.77 80.8334 70.7856 80.1461C70.8099 79.0761 71.108 78.2506 71.6799 77.6697C72.2518 77.0887 73.0435 76.8097 74.055 76.8327C74.6837 76.847 75.2352 76.9962 75.7093 77.2805C76.1835 77.5648 76.5436 77.9656 76.7897 78.4831C77.0359 79.0005 77.1511 79.6029 77.1355 80.2902Z" fill="#034861"/>
<path d="M84.5825 83.7471L82.7958 83.7066L82.8826 79.8814C82.8934 79.4089 82.8174 79.0535 82.6548 78.8154C82.4923 78.5734 82.2275 78.4482 81.8604 78.4399C81.3605 78.4285 80.9955 78.5882 80.7652 78.919C80.5351 79.2459 80.4113 79.796 80.3937 80.5692L80.3238 83.6505L78.5372 83.6099L78.6858 77.0609L80.0506 77.0918L80.2718 77.9349L80.3714 77.9372C80.5777 77.6254 80.8565 77.3934 81.2077 77.2412C81.5629 77.0851 81.9631 77.0121 82.4083 77.0222C83.1698 77.0395 83.7431 77.2596 84.1281 77.6825C84.5133 78.1015 84.697 78.6996 84.6794 79.4767L84.5825 83.7471Z" fill="#034861"/>
<path d="M90.5809 83.8832L90.2555 82.985L90.2087 82.9839C89.8994 83.3559 89.5829 83.6125 89.2593 83.7536C88.9397 83.8909 88.5241 83.9538 88.0125 83.9422C87.3838 83.9279 86.8919 83.737 86.5369 83.3695C86.1857 83.002 86.0177 82.4864 86.0328 81.8225C86.0485 81.1274 86.3023 80.6213 86.794 80.3042C87.2897 79.9833 88.028 79.8165 89.009 79.8036L90.1462 79.7942L90.1528 79.5072C90.1678 78.8433 89.8356 78.5036 89.1561 78.4882C88.6328 78.4763 88.0141 78.6205 87.3001 78.9208L86.7358 77.7007C87.4985 77.3233 88.3387 77.1451 89.2564 77.1659C90.1351 77.1858 90.8044 77.3925 91.2644 77.7858C91.7243 78.1792 91.9454 78.7664 91.9277 79.5474L91.8287 83.9115L90.5809 83.8832ZM90.1226 80.8369L89.4308 80.8446C88.9111 80.8485 88.5223 80.9334 88.2646 81.0995C88.0068 81.2656 87.874 81.5243 87.866 81.8758C87.8546 82.3796 88.1379 82.638 88.7158 82.6511C89.1298 82.6605 89.4625 82.5489 89.7139 82.3163C89.9693 82.0837 90.1014 81.7702 90.1104 81.3758L90.1226 80.8369Z" fill="#034861"/>
<path d="M95.4605 83.9939L93.6739 83.9534L93.8807 74.8386L95.6674 74.8791L95.4605 83.9939Z" fill="#034861"/>
<path d="M103.199 82.886C103.652 82.8963 103.986 82.7749 104.203 82.522C104.42 82.2651 104.546 81.8128 104.58 81.1649L104.585 80.9482C104.601 80.2452 104.503 79.739 104.291 79.4294C104.083 79.1199 103.739 78.9597 103.259 78.9488C102.419 78.9298 101.984 79.5802 101.954 80.9002C101.939 81.5563 102.032 82.0488 102.231 82.3776C102.435 82.7065 102.757 82.876 103.199 82.886ZM102.528 84.2715C101.755 84.254 101.157 83.9435 100.733 83.3399C100.309 82.7325 100.109 81.8977 100.133 80.8355C100.157 79.7654 100.399 78.9347 100.858 78.3434C101.32 77.7522 101.94 77.4654 102.718 77.4831C103.131 77.4925 103.491 77.5788 103.796 77.742C104.101 77.9052 104.367 78.1535 104.594 78.4868L104.641 78.4879L104.818 77.6538L106.329 77.6881L106.115 87.1193L104.323 87.0786L104.385 84.3312C104.39 84.093 104.423 83.7656 104.483 83.3489L104.407 83.3471C104.209 83.6591 103.949 83.8935 103.629 84.0504C103.309 84.2072 102.942 84.2809 102.528 84.2715Z" fill="#034861"/>
<path d="M112.689 84.3849L112.467 83.5417L112.374 83.5396C112.175 83.8399 111.899 84.07 111.543 84.2299C111.188 84.386 110.786 84.4589 110.337 84.4487C109.568 84.4313 108.992 84.2131 108.611 83.7942C108.23 83.3713 108.048 82.7733 108.066 82.0001L108.163 77.7297L109.949 77.7702L109.862 81.5954C109.852 82.068 109.928 82.4252 110.09 82.6673C110.253 82.9054 110.518 83.0286 110.885 83.0369C111.385 83.0483 111.75 82.8905 111.98 82.5636C112.21 82.2328 112.334 81.6808 112.351 80.9076L112.421 77.8263L114.208 77.8669L114.059 84.416L112.689 84.3849Z" fill="#034861"/>
<path d="M118.769 79.1191C118.39 79.1105 118.09 79.2248 117.87 79.4621C117.65 79.6954 117.519 80.0324 117.478 80.473L119.985 80.5299C119.987 80.0884 119.88 79.746 119.662 79.5027C119.445 79.2556 119.147 79.1277 118.769 79.1191ZM118.895 84.6429C117.841 84.619 117.023 84.3093 116.443 83.714C115.863 83.1186 115.584 82.2879 115.609 81.2218C115.634 80.1244 115.926 79.2832 116.486 78.6981C117.051 78.1092 117.817 77.8257 118.786 77.8477C119.711 77.8687 120.426 78.1486 120.929 78.6875C121.433 79.2264 121.674 79.9606 121.653 80.89L121.633 81.757L117.41 81.6612C117.418 82.1693 117.559 82.5691 117.834 82.8606C118.109 83.152 118.5 83.3035 119.007 83.315C119.402 83.324 119.776 83.2914 120.129 83.2174C120.482 83.1434 120.852 83.0209 121.239 82.8499L121.208 84.2324C120.892 84.3815 120.555 84.4891 120.198 84.5553C119.841 84.6253 119.407 84.6545 118.895 84.6429Z" fill="#034861"/>
<path d="M128.973 79.3506C128.594 79.342 128.295 79.4564 128.074 79.6936C127.854 79.927 127.723 80.2639 127.682 80.7045L130.189 80.7614C130.191 80.3199 130.084 79.9776 129.867 79.7343C129.65 79.4871 129.352 79.3592 128.973 79.3506ZM129.1 84.8745C128.045 84.8505 127.228 84.5409 126.647 83.9455C126.067 83.3502 125.789 82.5194 125.813 81.4533C125.838 80.3559 126.131 79.5147 126.691 78.9296C127.255 78.3407 128.022 78.0572 128.99 78.0792C129.916 78.1002 130.63 78.3802 131.134 78.9191C131.637 79.458 131.878 80.1921 131.857 81.1216L131.838 81.9886L127.614 81.8927C127.622 82.4008 127.764 82.8006 128.038 83.0921C128.313 83.3836 128.704 83.5351 129.212 83.5466C129.606 83.5555 129.98 83.523 130.333 83.4489C130.687 83.3749 131.057 83.2524 131.444 83.0815L131.412 84.4639C131.096 84.613 130.76 84.7207 130.403 84.7868C130.046 84.8568 129.611 84.8861 129.1 84.8745Z" fill="#034861"/>
<path d="M137.839 83.0097C137.824 83.6814 137.578 84.1877 137.102 84.5285C136.629 84.8695 135.928 85.0294 134.998 85.0083C134.522 84.9975 134.117 84.9551 133.782 84.8811C133.448 84.811 133.136 84.7101 132.846 84.5785L132.879 83.1023C133.207 83.266 133.577 83.4053 133.989 83.5202C134.404 83.6351 134.77 83.6961 135.087 83.7033C135.735 83.718 136.063 83.5379 136.072 83.163C136.075 83.0224 136.035 82.9082 135.951 82.8204C135.867 82.7286 135.721 82.6256 135.512 82.5115C135.304 82.3935 135.026 82.2563 134.678 82.0999C134.179 81.8776 133.812 81.6739 133.578 81.4888C133.348 81.3039 133.181 81.095 133.076 80.8621C132.976 80.6254 132.93 80.3371 132.938 79.9974C132.951 79.4155 133.186 78.9715 133.642 78.6653C134.102 78.3554 134.746 78.2098 135.574 78.2286C136.363 78.2465 137.127 78.4357 137.865 78.7963L137.297 80.0728C136.972 79.9248 136.668 79.8026 136.385 79.7063C136.102 79.6101 135.812 79.5585 135.515 79.5518C134.988 79.5399 134.721 79.6764 134.714 79.9615C134.711 80.1216 134.792 80.2621 134.957 80.3831C135.126 80.5042 135.495 80.6864 136.064 80.9299C136.571 81.1484 136.941 81.3503 137.175 81.5353C137.41 81.7204 137.581 81.9313 137.689 82.1682C137.797 82.4051 137.847 82.6856 137.839 83.0097Z" fill="#034861"/>
<path d="M141.978 83.7425C142.291 83.7496 142.667 83.6897 143.108 83.563L143.077 84.8927C142.628 85.0818 142.079 85.169 141.43 85.1542C140.716 85.138 140.198 84.9466 139.879 84.5798C139.563 84.2093 139.413 83.6628 139.429 82.9403L139.501 79.7829L138.646 79.7635L138.663 79.0079L139.661 78.4327L140.207 77.0619L141.35 77.0878L141.318 78.482L143.152 78.5236L143.121 79.8651L141.288 79.8235L141.216 82.9809C141.21 83.2347 141.276 83.4237 141.414 83.548C141.556 83.6723 141.744 83.7372 141.978 83.7425Z" fill="#034861"/>
<path d="M148.562 85.1988L148.237 84.3006L148.19 84.2995C147.881 84.6715 147.564 84.9281 147.24 85.0692C146.921 85.2065 146.505 85.2694 145.994 85.2578C145.365 85.2435 144.873 85.0526 144.518 84.6851C144.167 84.3177 143.999 83.802 144.014 83.1381C144.03 82.443 144.283 81.9369 144.775 81.6198C145.271 81.299 146.009 81.1321 146.99 81.1192L148.127 81.1098L148.134 80.8228C148.149 80.1589 147.817 79.8192 147.137 79.8038C146.614 79.7919 145.995 79.9361 145.281 80.2364L144.717 79.0163C145.48 78.639 146.32 78.4607 147.238 78.4815C148.116 78.5015 148.786 78.7081 149.246 79.1015C149.705 79.4948 149.927 80.082 149.909 80.863L149.81 85.2272L148.562 85.1988ZM148.104 82.1525L147.412 82.1603C146.892 82.1641 146.503 82.249 146.246 82.4151C145.988 82.5812 145.855 82.84 145.847 83.1914C145.836 83.6952 146.119 83.9537 146.697 83.9668C147.111 83.9762 147.444 83.8645 147.695 83.6319C147.95 83.3994 148.083 83.0859 148.092 82.6914L148.104 82.1525ZM146.214 77.8722L146.218 77.7141C146.907 76.9482 147.379 76.3709 147.634 75.9821L149.638 76.0275L149.635 76.1505C149.427 76.349 149.073 76.6438 148.572 77.0349C148.074 77.4221 147.685 77.7102 147.403 77.8992L146.214 77.8722Z" fill="#034861"/>
<path d="M32.7045 91.8986C33.4778 91.9161 34.0762 92.2325 34.4999 92.8477C34.9236 93.4591 35.1236 94.29 35.0997 95.3405C35.0752 96.4222 34.8297 97.2548 34.3632 97.8381C33.9006 98.4215 33.2808 98.7044 32.5036 98.6868C31.7343 98.6693 31.1373 98.3764 30.7125 97.808L30.5895 97.8052L30.2744 98.519L28.9095 98.488L29.1164 89.3731L30.903 89.4137L30.8549 91.5342C30.8488 91.8037 30.8156 92.2347 30.7552 92.8272L30.8255 92.8288C31.2581 92.19 31.8844 91.8799 32.7045 91.8986ZM32.098 93.3148C31.6567 93.3048 31.3315 93.4342 31.1222 93.703C30.913 93.9678 30.7974 94.4126 30.7754 95.0372L30.771 95.2306C30.7551 95.9335 30.8471 96.4396 31.0472 96.7489C31.2512 97.0583 31.5797 97.2182 32.0327 97.2284C32.3998 97.2368 32.6945 97.0754 32.9169 96.7445C33.1433 96.4097 33.2638 95.9201 33.2785 95.2757C33.2931 94.6314 33.1947 94.1466 32.9833 93.8214C32.7719 93.4923 32.4768 93.3234 32.098 93.3148Z" fill="#034861"/>
<path d="M41.1408 98.7655L40.9196 97.9224L40.8259 97.9203C40.6276 98.2205 40.3508 98.4506 39.9956 98.6106C39.6404 98.7666 39.2382 98.8396 38.7891 98.8294C38.0198 98.8119 37.4445 98.5937 37.0633 98.1748C36.6821 97.752 36.5004 97.154 36.5179 96.3807L36.6148 92.1104L38.4014 92.1509L38.3147 95.9761C38.3039 96.4486 38.3798 96.8059 38.5423 97.0479C38.705 97.2861 38.9698 97.4093 39.3369 97.4176C39.8368 97.429 40.2018 97.2712 40.4319 96.9443C40.6621 96.6135 40.786 96.0615 40.8036 95.2882L40.8735 92.207L42.6601 92.2475L42.5115 98.7966L41.1408 98.7655Z" fill="#034861"/>
<path d="M48.9993 96.998C48.9841 97.6697 48.7381 98.176 48.2615 98.5168C47.7888 98.8578 47.0878 99.0177 46.1583 98.9966C45.6819 98.9858 45.2765 98.9434 44.9421 98.8694C44.6077 98.7993 44.2955 98.6984 44.0054 98.5668L44.0389 97.0906C44.3673 97.2543 44.7373 97.3936 45.1488 97.5085C45.5643 97.6234 45.9302 97.6844 46.2465 97.6916C46.8948 97.7063 47.2232 97.5262 47.2317 97.1513C47.2349 97.0107 47.1945 96.8965 47.1105 96.8086C47.0267 96.7169 46.8805 96.6139 46.6721 96.4998C46.4638 96.3818 46.1856 96.2446 45.8375 96.0882C45.3385 95.8659 44.9719 95.6622 44.7378 95.4771C44.5075 95.2922 44.3404 95.0833 44.2362 94.8504C44.1361 94.6137 44.0899 94.3254 44.0976 93.9857C44.1108 93.4038 44.3456 92.9598 44.8018 92.6536C45.2621 92.3437 45.9062 92.1981 46.7341 92.2169C47.523 92.2348 48.2865 92.424 49.0246 92.7846L48.4564 94.0611C48.1316 93.9131 47.8276 93.7909 47.5446 93.6946C47.2615 93.5984 46.9716 93.5468 46.6748 93.5401C46.1476 93.5281 45.8807 93.6647 45.8743 93.9498C45.8706 94.1099 45.9515 94.2504 46.1167 94.3714C46.2859 94.4925 46.6549 94.6747 47.2238 94.9181C47.7306 95.1367 48.1012 95.3386 48.3353 95.5236C48.5695 95.7086 48.7405 95.9196 48.8484 96.1565C48.9564 96.3934 49.0067 96.6739 48.9993 96.998Z" fill="#034861"/>
<path d="M53.0062 99.152C50.9676 99.1057 49.9737 97.9637 50.0245 95.726C50.0498 94.613 50.3463 93.7699 50.9141 93.1967C51.4821 92.6196 52.2835 92.3428 53.3184 92.3663C54.076 92.3835 54.7521 92.5473 55.3468 92.8577L54.7882 94.2282C54.5096 94.1086 54.25 94.0109 54.0095 93.9351C53.7691 93.8554 53.5278 93.8128 53.2857 93.8073C52.3562 93.7862 51.8765 94.4357 51.8466 95.7557C51.8175 97.0366 52.2677 97.6876 53.1971 97.7087C53.5408 97.7165 53.8601 97.6788 54.155 97.5956C54.4501 97.5085 54.7462 97.3707 55.0436 97.1821L55.0089 98.711C54.7157 98.888 54.4199 99.0082 54.1215 99.0718C53.8271 99.1354 53.4553 99.1622 53.0062 99.152Z" fill="#034861"/>
<path d="M60.6826 99.2089L60.3572 98.3107L60.3103 98.3096C60.001 98.6816 59.6846 98.9382 59.361 99.0793C59.0414 99.2166 58.6258 99.2795 58.1142 99.2679C57.4855 99.2536 56.9936 99.0627 56.6385 98.6952C56.2874 98.3278 56.1194 97.8121 56.1344 97.1482C56.1502 96.4531 56.404 95.947 56.8956 95.6299C57.3913 95.3091 58.1297 95.1422 59.1107 95.1293L60.2479 95.1199L60.2544 94.8329C60.2695 94.169 59.9373 93.8293 59.2578 93.8139C58.7345 93.802 58.1158 93.9462 57.4018 94.2465L56.8375 93.0264C57.6002 92.649 58.4404 92.4708 59.3581 92.4916C60.2368 92.5116 60.9061 92.7182 61.366 93.1115C61.826 93.5049 62.0471 94.0921 62.0294 94.8731L61.9303 99.2372L60.6826 99.2089ZM60.2243 96.1626L59.5325 96.1703C59.0127 96.1742 58.624 96.2591 58.3663 96.4252C58.1085 96.5913 57.9757 96.8501 57.9677 97.2015C57.9563 97.7053 58.2395 97.9637 58.8175 97.9769C59.2315 97.9863 59.5642 97.8746 59.8156 97.642C60.0709 97.4094 60.2031 97.096 60.212 96.7015L60.2243 96.1626Z" fill="#034861"/>
<path d="M69.8209 99.4163L68.0342 99.3758L68.121 95.5506C68.1318 95.078 68.0558 94.7227 67.8932 94.4846C67.7307 94.2425 67.4659 94.1174 67.0988 94.109C66.5989 94.0977 66.2339 94.2574 66.0037 94.5882C65.7735 94.9151 65.6497 95.4652 65.6321 96.2384L65.5622 99.3197L63.7756 99.2791L63.9242 92.73L65.2891 92.761L65.5102 93.6041L65.6098 93.6064C65.8162 93.2946 66.0949 93.0626 66.4461 92.9103C66.8013 92.7543 67.2015 92.6813 67.6467 92.6914C68.4082 92.7087 68.9815 92.9288 69.3666 93.3517C69.7517 93.7707 69.9354 94.3688 69.9178 95.1459L69.8209 99.4163Z" fill="#034861"/>
<path d="M73.7313 99.6222C72.962 99.6048 72.3634 99.2923 71.9357 98.6848C71.5119 98.0774 71.3119 97.2445 71.336 96.1862C71.3603 95.1122 71.6019 94.2815 72.0606 93.6941C72.5234 93.1029 73.1472 92.8162 73.9322 92.834C74.7562 92.8527 75.3777 93.1872 75.7966 93.8375L75.8552 93.8388C75.7765 93.3487 75.7414 92.9122 75.7501 92.5295L75.7977 90.4324L77.5902 90.473L77.3834 99.5879L76.0127 99.5568L75.6863 98.6996L75.6102 98.6978C75.1894 99.333 74.5631 99.6411 73.7313 99.6222ZM74.3904 98.213C74.8473 98.2234 75.1842 98.0982 75.4011 97.8374C75.6219 97.5767 75.7493 97.1283 75.7833 96.4922L75.7877 96.2989C75.8036 95.5959 75.7057 95.0897 75.4939 94.7801C75.286 94.4706 74.938 94.3104 74.4499 94.2993C74.0515 94.2902 73.7372 94.4531 73.5069 94.7878C73.2806 95.1187 73.1601 95.6063 73.1455 96.2507C73.1309 96.895 73.2312 97.3818 73.4464 97.711C73.6618 98.0363 73.9764 98.2036 74.3904 98.213Z" fill="#034861"/>
<path d="M80.7501 96.3763C80.7354 97.0246 80.8297 97.5171 81.033 97.8538C81.2403 98.1906 81.5841 98.3645 82.0644 98.3754C82.5409 98.3862 82.8863 98.2299 83.1007 97.9066C83.3192 97.5794 83.4358 97.0898 83.4506 96.4376C83.4653 95.7893 83.3709 95.3007 83.1673 94.9718C82.9638 94.6429 82.6219 94.473 82.1415 94.4621C81.6651 94.4513 81.3177 94.6055 81.0995 94.9249C80.8814 95.2403 80.7649 95.7241 80.7501 96.3763ZM85.2782 96.4791C85.254 97.5452 84.9539 98.3726 84.3779 98.9612C83.8019 99.5499 83.0121 99.8328 82.0085 99.81C81.3797 99.7958 80.8283 99.6465 80.3541 99.3622C79.8801 99.0741 79.52 98.6693 79.274 98.148C79.0279 97.6266 78.9127 97.0223 78.9283 96.335C78.9526 95.2649 79.2507 94.4395 79.8226 93.8585C80.3945 93.2776 81.1862 92.9986 82.1977 93.0216C82.8264 93.0358 83.3778 93.1851 83.852 93.4694C84.3261 93.7536 84.6863 94.1545 84.9324 94.6719C85.1785 95.1894 85.2938 95.7917 85.2782 96.4791Z" fill="#034861"/>
<path d="M86.447 98.9554C86.4544 98.6274 86.5479 98.3814 86.7274 98.2175C86.907 98.0535 87.1647 97.9754 87.5005 97.983C87.8247 97.9903 88.0727 98.0819 88.2445 98.2578C88.4202 98.4337 88.5045 98.6817 88.4972 99.002C88.4902 99.3105 88.3948 99.5525 88.2111 99.7281C88.0275 99.8997 87.7756 99.9819 87.4553 99.9747C87.1273 99.9672 86.8754 99.8755 86.6997 99.6996C86.524 99.5198 86.4398 99.2718 86.447 98.9554Z" fill="#034861"/>
<path d="M236.897 95.2319C224.209 95.2319 212.775 100.575 204.7 109.123C212.775 117.672 224.209 123.014 236.897 123.014C249.585 123.014 261.018 117.672 269.094 109.123C261.018 100.575 249.585 95.2319 236.897 95.2319Z" fill="#EA5F6E"/>
<path d="M232.26 122.56L234.281 106.974H239.463L241.66 122.56" fill="#1B9ED6"/>
<path d="M210.213 114.05C208.243 112.558 206.394 110.916 204.7 109.123C212.775 100.575 224.209 95.2319 236.897 95.2319C237.849 95.2319 238.792 95.2717 239.73 95.331C227.31 96.8678 216.618 103.96 210.213 114.05Z" fill="#FF667C"/>
<path d="M263.58 114.05C265.55 112.558 267.4 110.916 269.094 109.123C261.018 100.575 249.585 95.2319 236.897 95.2319C235.944 95.2319 235.001 95.2717 234.064 95.331C246.484 96.8678 257.175 103.96 263.58 114.05Z" fill="#D34A5E"/>
<path d="M236.897 94.5287C224.209 94.5287 212.775 99.8716 204.7 108.42C212.775 116.968 224.209 122.311 236.897 122.311C249.585 122.311 261.018 116.968 269.094 108.42C261.018 99.8716 249.585 94.5287 236.897 94.5287Z" stroke="#234957" stroke-width="2" stroke-miterlimit="10"/>
<path d="M243.825 87.1954L243.814 94.8309C243.814 98.7141 240.666 101.862 236.783 101.862H236.783C232.9 101.862 229.752 98.7141 229.752 94.8309L229.763 87.1954" fill="#F4CEAE"/>
<path d="M243.825 87.1954L243.814 94.8309C243.814 98.7141 240.666 101.862 236.783 101.862H236.783C232.9 101.862 229.752 98.7141 229.752 94.8309L229.763 87.1954" fill="#F4CEAE"/>
<path d="M239.719 86.8276L239.709 93.9439C239.709 97.4854 237.088 100.499 233.682 100.987C234.646 101.484 235.737 101.816 236.897 101.816C240.78 101.816 243.928 98.5073 243.928 94.624L243.939 86.8276H239.719Z" fill="#EEB490"/>
<path d="M243.825 90.711L243.814 94.8309C243.814 98.7141 240.666 101.862 236.783 101.862H236.783C232.9 101.862 229.752 98.7141 229.752 94.8309L229.763 90.711" stroke="#234957" stroke-width="2" stroke-miterlimit="10"/>
<path d="M220.611 71.3387C220.611 72.892 219.352 74.1512 217.799 74.1512H217.799C216.245 74.1512 214.986 72.892 214.986 71.3387V66.4169C214.986 64.8636 216.245 63.6044 217.799 63.6044H217.799C219.352 63.6044 220.611 64.8636 220.611 66.4169V71.3387Z" fill="#F4CEAE"/>
<path d="M258.58 71.2518C258.58 72.8051 257.321 74.0643 255.768 74.0643H255.768C254.214 74.0643 252.955 72.8051 252.955 71.2518V66.33C252.955 64.7767 254.214 63.5175 255.768 63.5175H255.768C257.321 63.5175 258.58 64.7767 258.58 66.33V71.2518Z" fill="#EEB490"/>
<path d="M220.611 71.3387C220.611 72.892 219.352 74.1512 217.799 74.1512H217.799C216.245 74.1512 214.986 72.892 214.986 71.3387V66.4169C214.986 64.8636 216.245 63.6044 217.799 63.6044H217.799C219.352 63.6044 220.611 64.8636 220.611 66.4169V71.3387Z" stroke="#234957" stroke-width="2" stroke-miterlimit="10"/>
<path d="M258.58 71.2518C258.58 72.8051 257.321 74.0643 255.768 74.0643H255.768C254.214 74.0643 252.955 72.8051 252.955 71.2518V66.33C252.955 64.7767 254.214 63.5175 255.768 63.5175H255.768C257.321 63.5175 258.58 64.7767 258.58 66.33V71.2518V71.2518Z" stroke="#234957" stroke-width="2" stroke-miterlimit="10"/>
<path d="M229.865 45.3433H224.944C222.242 45.3433 220.05 43.3292 220.024 40.6334C217.249 40.979 215.1 43.5051 215.1 46.3738V54.1082C215.1 57.2148 217.618 59.4058 220.725 59.4058H230.569H236.897H255.178C256.343 59.4058 257.287 58.7701 257.287 57.6092V48.4515C257.287 46.9036 256.028 45.3433 254.475 45.3433H239.709H229.865Z" fill="#608287"/>
<path d="M226.35 54.1082V46.3738C226.35 46.1351 226.37 46.0464 226.399 45.3433H224.944C224.233 45.3433 223.56 45.3532 222.951 45.0824C222.876 45.447 222.834 45.9871 222.834 46.3738V54.1082C222.834 57.2148 225.353 59.4058 228.459 59.4058H230.569H231.975C228.868 59.4058 226.35 57.2148 226.35 54.1082Z" fill="#90AAAF"/>
<path d="M217.912 45.3433H222.834H224.944C222.242 45.3433 220.05 43.3292 220.024 40.6334C217.739 40.918 215.881 42.4898 215.295 44.6664C216.054 45.1446 216.949 45.3433 217.912 45.3433Z" fill="#4E676D"/>
<path d="M254.475 45.3433H247.444C248.997 45.3433 250.256 46.9036 250.256 48.4515V57.6092C250.256 58.7701 249.312 59.4058 248.147 59.4058H255.178C256.343 59.4058 257.287 58.7701 257.287 57.6092V48.4515C257.287 46.9036 256.028 45.3433 254.475 45.3433Z" fill="#4E676D"/>
<path d="M218.615 54.1082V46.3738C218.615 44.8031 219.263 43.387 220.301 42.3678C220.129 41.8746 220.029 41.3476 220.024 40.7971C217.249 41.1427 215.1 43.5051 215.1 46.3738V54.1082C215.1 57.2148 217.618 59.4058 220.725 59.4058H224.24C221.134 59.4058 218.615 57.2148 218.615 54.1082Z" fill="#90AAAF"/>
<path d="M255.064 59.7332V74.2809C255.064 83.989 247.194 91.859 237.486 91.859H236.08C226.372 91.859 218.502 83.989 218.502 74.2809V59.7332" fill="#F4CEAE"/>
<path d="M255.064 59.7332V74.2809C255.064 83.989 247.194 91.859 237.486 91.859H236.08C226.372 91.859 218.502 83.989 218.502 74.2809V59.7332" stroke="black" stroke-width="2" stroke-miterlimit="10"/>
<path d="M255.064 59.5135V74.0612C255.064 83.7693 247.194 91.6393 237.486 91.6393H236.08C226.372 91.6393 218.502 83.7693 218.502 74.0612V59.5135" fill="#F4CEAE"/>
<path d="M250.256 59.4058V74.2809C250.256 83.3957 243.318 90.8344 234.436 91.7165C235.014 91.7739 235.6 91.7495 236.194 91.7495H237.6C247.308 91.7495 255.178 83.989 255.178 74.2809V59.4058H250.256Z" fill="#EEB490"/>
<path opacity="0.16" d="M223.424 59.7332V74.2809C223.424 83.3957 230.537 90.9982 239.42 91.8802C238.842 91.9376 238.431 92.077 237.838 92.077H236.432C226.723 92.077 218.502 83.989 218.502 74.2809V59.7332H223.424Z" fill="white"/>
<path d="M255.178 59.4058H218.615V63.6245H255.178V59.4058Z" fill="#EEB490"/>
<path d="M228.7 69.5723C229.671 69.5723 230.458 68.7853 230.458 67.8145C230.458 66.8436 229.671 66.0566 228.7 66.0566C227.73 66.0566 226.943 66.8436 226.943 67.8145C226.943 68.7853 227.73 69.5723 228.7 69.5723Z" fill="#234957"/>
<path d="M255.064 59.7332V74.2809C255.064 83.989 247.194 91.859 237.486 91.859H236.08C226.372 91.859 218.502 83.989 218.502 74.2809V59.7332" stroke="#234957" stroke-width="2" stroke-miterlimit="10" stroke-linecap="round" stroke-linejoin="round"/>
<path d="M236.194 45.6488H224.944C222.242 45.6488 220.05 43.6347 220.024 40.9388C217.249 41.2844 215.1 43.8106 215.1 46.6793V54.4137C215.1 57.5203 217.618 59.7113 220.725 59.7113H230.569H232.564H255.072C256.233 59.7113 257.174 58.7701 257.174 57.6092V49.8675C257.174 47.5376 255.285 45.6488 252.955 45.6488H239.596H236.194Z" stroke="#234957" stroke-width="2" stroke-miterlimit="10" stroke-linecap="round" stroke-linejoin="round"/>
<path d="M244.866 69.5849C245.837 69.5849 246.624 68.7979 246.624 67.8271C246.624 66.8563 245.837 66.0693 244.866 66.0693C243.895 66.0693 243.108 66.8563 243.108 67.8271C243.108 68.7979 243.895 69.5849 244.866 69.5849Z" fill="#234957"/>
<path d="M229.865 84.3426C231.542 82.3111 234.079 81.0162 236.919 81.0162C239.746 81.0162 242.273 82.2999 243.95 84.3162" stroke="#234957" stroke-width="2" stroke-miterlimit="10" stroke-linecap="round" stroke-linejoin="round"/>
<path d="M236.194 75.5776H236.897" stroke="#234957" stroke-width="2" stroke-miterlimit="10" stroke-linecap="round" stroke-linejoin="round"/>
<path d="M231.188 102.294L234.369 106.974H239.214L241.914 102.723L239.349 101.575L238.969 101.667C237.486 102.03 235.938 102.03 234.455 101.667L234.075 101.575L231.188 102.294Z" fill="#1B9ED6"/>
<path d="M232.26 122.56L234.369 106.974H239.463L241.66 122.56" stroke="#234957" stroke-width="2" stroke-miterlimit="10"/>
<path d="M231.348 102.316L234.369 106.974H239.214L242.379 102.462" stroke="#234957" stroke-width="2" stroke-miterlimit="10"/>
<path d="M236.783 101.862H236.783C232.9 101.862 229.752 98.7141 229.752 94.8309L229.763 92.8204L229.752 92.4578L225.114 95.9904L227.789 105.261L231.187 102.331L234.146 101.35" fill="#F9F9F9"/>
<path d="M236.783 101.862H236.783C232.9 101.862 229.752 98.7141 229.752 94.8309L229.763 92.8204L229.752 92.4578L225.114 95.9904L227.789 105.261L231.187 102.331L234.146 101.35" stroke="#234957" stroke-width="2" stroke-miterlimit="10" stroke-linecap="round" stroke-linejoin="round"/>
<path d="M236.783 101.862H236.783C240.666 101.862 243.814 98.7141 243.814 94.8309L243.825 92.8204L243.815 92.4578L248.453 95.9904L245.777 105.261L242.379 102.331L239.42 101.35" fill="#F9F9F9"/>
<path d="M236.783 101.862H236.783C240.666 101.862 243.814 98.7141 243.814 94.8309L243.825 92.8204L243.815 92.4578L248.453 95.9904L245.777 105.261L242.379 102.331L239.42 101.35" stroke="#234957" stroke-width="2" stroke-miterlimit="10" stroke-linecap="round" stroke-linejoin="round"/>
</svg>
