<svg width="292" height="164" viewBox="0 0 292 164" fill="none" xmlns="http://www.w3.org/2000/svg">
<path d="M5.89673 13.8511C5.89673 9.4328 9.47845 5.85107 13.8967 5.85107H278.37C282.788 5.85107 286.37 9.4328 286.37 13.8511V150.207C286.37 154.625 282.788 158.207 278.37 158.207H13.8967C9.47845 158.207 5.89673 154.625 5.89673 150.207V13.8511Z" fill="#C7235E"/>
<path fill-rule="evenodd" clip-rule="evenodd" d="M283.368 1.84912H8.89819C5.0322 1.84912 1.89819 4.98313 1.89819 8.84913V155.209C1.89819 159.075 5.0322 162.209 8.8982 162.209H283.368C287.234 162.209 290.368 159.075 290.368 155.209V8.84912C290.368 4.98313 287.234 1.84912 283.368 1.84912ZM8.89819 0.849121C4.47992 0.849121 0.898193 4.43085 0.898193 8.84913V155.209C0.898193 159.627 4.47992 163.209 8.8982 163.209H283.368C287.786 163.209 291.368 159.627 291.368 155.209V8.84912C291.368 4.43084 287.786 0.849121 283.368 0.849121H8.89819Z" fill="#C7235E"/>
<path d="M104.031 123.811C110.431 124.285 110.846 110.773 110.253 103.958C114.895 101.094 123.824 98.8027 122.402 112.551C120.979 126.3 109.562 125.786 104.031 123.811Z" fill="white"/>
<path d="M107.654 38.5881C107.547 34.1711 111.042 30.5041 115.459 30.3977L268.456 26.7098C272.873 26.6033 276.54 30.0977 276.647 34.5147L278.255 101.246C278.362 105.663 274.867 109.33 270.45 109.437L117.453 113.124C113.036 113.231 109.369 109.737 109.262 105.32L107.654 38.5881Z" fill="white"/>
<path d="M128.8 44.3859C129.573 44.3659 130.186 44.6528 130.639 45.2468C131.092 45.8368 131.332 46.657 131.359 47.7075C131.387 48.7891 131.183 49.6326 130.745 50.2379C130.311 50.8431 129.706 51.1557 128.929 51.1759C128.16 51.1958 127.549 50.9322 127.097 50.3852L126.974 50.3884L126.694 51.1166L125.329 51.1519L125.093 42.0378L126.88 41.9915L126.935 44.1119C126.942 44.3813 126.929 44.8134 126.898 45.4082L126.968 45.4064C127.369 44.7473 127.98 44.4072 128.8 44.3859ZM128.263 45.83C127.821 45.8414 127.503 45.9865 127.307 46.2651C127.111 46.5398 127.017 46.9896 127.025 47.6146L127.03 47.8079C127.049 48.5108 127.165 49.0119 127.38 49.3111C127.599 49.6102 127.935 49.7539 128.388 49.7422C128.755 49.7326 129.041 49.5572 129.247 49.2158C129.457 48.8704 129.554 48.3756 129.537 47.7312C129.52 47.0869 129.399 46.6075 129.172 46.293C128.944 45.9745 128.642 45.8202 128.263 45.83Z" fill="#034861"/>
<path d="M137.56 50.835L137.298 50.0036L137.204 50.0061C137.021 50.3156 136.755 50.5589 136.408 50.7359C136.061 50.909 135.663 51.0014 135.214 51.013C134.445 51.033 133.859 50.843 133.458 50.4431C133.057 50.0393 132.846 49.4508 132.826 48.6776L132.716 44.4075L134.502 44.3613L134.601 48.1861C134.614 48.6586 134.707 49.0118 134.881 49.2457C135.055 49.4756 135.325 49.5858 135.692 49.5763C136.192 49.5634 136.549 49.388 136.763 49.0504C136.977 48.7088 137.074 48.1514 137.054 47.3782L136.974 44.2972L138.761 44.2509L138.93 50.7995L137.56 50.835Z" fill="#034861"/>
<path d="M145.323 48.6879C145.34 49.3595 145.119 49.8771 144.66 50.2407C144.204 50.6042 143.512 50.798 142.582 50.8221C142.106 50.8344 141.699 50.8118 141.361 50.7541C141.024 50.7003 140.707 50.6147 140.411 50.4974L140.373 49.0213C140.709 49.1689 141.085 49.29 141.502 49.3847C141.922 49.4794 142.291 49.5226 142.607 49.5144C143.255 49.4976 143.575 49.3017 143.565 48.9269C143.561 48.7863 143.515 48.6741 143.427 48.5905C143.339 48.5029 143.188 48.4071 142.974 48.3033C142.761 48.1955 142.476 48.072 142.121 47.9327C141.611 47.7349 141.235 47.5492 140.993 47.3758C140.754 47.2022 140.577 47.0017 140.461 46.7741C140.35 46.5425 140.29 46.2569 140.281 45.9172C140.266 45.3353 140.479 44.8804 140.919 44.5525C141.364 44.2206 142 44.0439 142.828 44.0224C143.617 44.002 144.389 44.1539 145.144 44.4782L144.638 45.7808C144.306 45.6487 143.997 45.5415 143.709 45.4591C143.422 45.3766 143.13 45.3393 142.833 45.347C142.306 45.3606 142.046 45.51 142.054 45.795C142.058 45.9551 142.145 46.0916 142.316 46.2044C142.491 46.3171 142.869 46.4812 143.448 46.6967C143.965 46.8904 144.345 47.074 144.588 47.2474C144.831 47.4209 145.012 47.6233 145.131 47.8547C145.251 48.086 145.315 48.3638 145.323 48.6879Z" fill="#034861"/>
<path d="M149.43 50.6447C147.391 50.6975 146.343 49.6051 146.285 47.3676C146.256 46.2547 146.512 45.3982 147.051 44.7981C147.59 44.194 148.377 43.8786 149.412 43.8518C150.17 43.8322 150.853 43.963 151.462 44.2442L150.971 45.6402C150.686 45.5342 150.422 45.4492 150.179 45.3852C149.934 45.3173 149.691 45.2865 149.449 45.2927C148.52 45.3168 148.072 45.9888 148.107 47.3087C148.14 48.5895 148.621 49.2179 149.55 49.1938C149.894 49.1849 150.211 49.1317 150.502 49.0343C150.792 48.933 151.081 48.7809 151.369 48.5781L151.409 50.1069C151.124 50.2979 150.835 50.4324 150.54 50.5104C150.249 50.5883 149.879 50.633 149.43 50.6447Z" fill="#034861"/>
<path d="M157.1 50.3287L156.731 49.4473L156.684 49.4485C156.394 49.8351 156.09 50.1067 155.774 50.2634C155.461 50.4161 155.049 50.499 154.537 50.5123C153.909 50.5286 153.408 50.3618 153.036 50.012C152.667 49.662 152.474 49.1551 152.457 48.4913C152.439 47.7962 152.668 47.2784 153.144 46.9378C153.623 46.5933 154.352 46.3907 155.332 46.3302L156.467 46.2656L156.46 45.9786C156.442 45.3147 156.094 44.9916 155.415 45.0092C154.891 45.0228 154.28 45.1969 153.582 45.5315L152.959 44.3402C153.702 43.9262 154.533 43.7074 155.451 43.6836C156.329 43.6609 157.008 43.8347 157.486 44.2053C157.965 44.5758 158.214 45.1516 158.234 45.9326L158.348 50.2963L157.1 50.3287ZM156.494 47.3082L155.804 47.3495C155.285 47.3786 154.9 47.4823 154.651 47.6607C154.402 47.8391 154.282 48.1041 154.291 48.4555C154.304 48.9592 154.599 49.2036 155.177 49.1886C155.591 49.1779 155.918 49.0503 156.158 48.8057C156.402 48.561 156.518 48.2415 156.508 47.8471L156.494 47.3082Z" fill="#034861"/>
<path d="M165.881 44.697C165.502 44.7068 165.208 44.8355 165 45.0832C164.791 45.327 164.677 45.6699 164.657 46.112L167.164 46.047C167.145 45.6059 167.021 45.2692 166.792 45.0368C166.563 44.8004 166.26 44.6872 165.881 44.697ZM166.276 50.2081C165.221 50.2355 164.39 49.9659 163.781 49.3994C163.173 48.833 162.854 48.0167 162.827 46.9507C162.798 45.8534 163.05 44.9989 163.581 44.3873C164.116 43.7717 164.868 43.4513 165.836 43.4262C166.762 43.4022 167.489 43.6472 168.018 44.161C168.547 44.6748 168.824 45.3964 168.848 46.3257L168.87 47.1926L164.647 47.3021C164.68 47.8092 164.84 48.2017 165.129 48.4794C165.417 48.7572 165.816 48.8895 166.323 48.8764C166.718 48.8662 167.089 48.8155 167.439 48.7244C167.788 48.6333 168.152 48.4929 168.53 48.3034L168.566 49.6857C168.257 49.85 167.926 49.9739 167.573 50.0573C167.22 50.1446 166.787 50.1949 166.276 50.2081Z" fill="#034861"/>
<path d="M176.441 49.8275L174.655 49.8738L174.555 46.0489C174.543 45.5764 174.45 45.2252 174.276 44.9952C174.102 44.7614 173.831 44.6492 173.464 44.6587C172.965 44.6717 172.608 44.849 172.394 45.1905C172.18 45.5282 172.083 46.0837 172.103 46.8568L172.183 49.9378L170.396 49.9841L170.227 43.4355L171.591 43.4002L171.853 44.2316L171.953 44.229C172.144 43.9075 172.411 43.6622 172.754 43.4931C173.101 43.32 173.498 43.2277 173.943 43.2162C174.704 43.1964 175.288 43.3884 175.693 43.7921C176.098 44.1919 176.31 44.7804 176.33 45.5574L176.441 49.8275Z" fill="#034861"/>
<path d="M186.926 43.0028L186.95 43.9107L185.931 44.2009C186.126 44.4889 186.229 44.8145 186.238 45.1776C186.256 45.8805 186.024 46.4355 185.543 46.8427C185.065 47.2458 184.39 47.4587 183.519 47.4812L183.197 47.472L182.932 47.4496C182.753 47.5949 182.665 47.7535 182.669 47.9253C182.676 48.183 183.007 48.3034 183.663 48.2864L184.776 48.2575C185.495 48.2389 186.045 48.379 186.428 48.6778C186.815 48.9765 187.016 49.4245 187.032 50.022C187.052 50.7873 186.747 51.3892 186.117 51.8275C185.492 52.2657 184.581 52.5003 183.386 52.5313C182.473 52.555 181.77 52.413 181.277 52.1053C180.789 51.8015 180.537 51.3625 180.522 50.7885C180.512 50.3941 180.626 50.061 180.865 49.789C181.105 49.5171 181.461 49.3184 181.934 49.1928C181.749 49.1195 181.585 48.9967 181.444 48.8245C181.303 48.6484 181.23 48.4608 181.224 48.2617C181.218 48.0117 181.285 47.8029 181.425 47.6352C181.565 47.4635 181.77 47.2941 182.039 47.1269C181.692 46.9874 181.412 46.7563 181.2 46.4335C180.993 46.1107 180.883 45.7267 180.872 45.2815C180.853 44.5669 181.071 44.0083 181.526 43.6058C181.98 43.2033 182.639 42.9908 183.502 42.9685C183.686 42.9637 183.903 42.9757 184.154 43.0043C184.408 43.029 184.571 43.0482 184.642 43.062L186.926 43.0028ZM182.065 50.6079C182.071 50.8539 182.193 51.0441 182.431 51.1786C182.673 51.313 183.007 51.3747 183.432 51.3637C184.073 51.3471 184.572 51.2462 184.931 51.0611C185.29 50.876 185.465 50.6311 185.457 50.3265C185.451 50.0805 185.339 49.9134 185.122 49.8253C184.904 49.7371 184.571 49.6989 184.122 49.7105L183.197 49.7345C182.869 49.743 182.595 49.8263 182.377 49.9843C182.162 50.1462 182.058 50.354 182.065 50.6079ZM182.577 45.2608C182.586 45.6161 182.673 45.8952 182.839 46.098C183.008 46.3007 183.259 46.3978 183.591 46.3892C183.927 46.3805 184.17 46.2706 184.321 46.0596C184.472 45.8486 184.542 45.5654 184.533 45.2101C184.513 44.4213 184.178 44.0353 183.53 44.0521C182.874 44.0691 182.556 44.472 182.577 45.2608Z" fill="#034861"/>
<path d="M189.518 46.2004C189.534 46.8487 189.652 47.336 189.872 47.6625C190.095 47.9888 190.447 48.1458 190.927 48.1333C191.404 48.121 191.741 47.9481 191.94 47.6147C192.142 47.2773 192.235 46.7826 192.218 46.1305C192.201 45.4822 192.083 44.9988 191.864 44.6802C191.644 44.3615 191.295 44.2084 190.814 44.2209C190.338 44.2332 189.998 44.4042 189.796 44.7337C189.593 45.0594 189.501 45.5483 189.518 46.2004ZM194.045 46.0831C194.073 47.1492 193.813 47.9902 193.267 48.6061C192.72 49.222 191.945 49.543 190.941 49.569C190.312 49.5853 189.754 49.463 189.267 49.2021C188.78 48.9373 188.4 48.5505 188.129 48.0417C187.858 47.5329 187.714 46.9349 187.696 46.2476C187.668 45.1777 187.926 44.3387 188.469 43.7307C189.012 43.1227 189.789 42.8055 190.8 42.7793C191.429 42.7631 191.987 42.8854 192.475 43.1463C192.962 43.4072 193.341 43.79 193.612 44.2949C193.883 44.7998 194.027 45.3958 194.045 46.0831Z" fill="#034861"/>
<path d="M196.945 46.008C196.962 46.6562 197.08 47.1435 197.299 47.47C197.522 47.7964 197.874 47.9533 198.355 47.9409C198.831 47.9285 199.168 47.7557 199.367 47.4223C199.569 47.0849 199.662 46.5901 199.645 45.938C199.628 45.2898 199.51 44.8064 199.291 44.4877C199.072 44.1691 198.722 44.016 198.242 44.0284C197.765 44.0408 197.426 44.2117 197.223 44.5413C197.021 44.867 196.928 45.3559 196.945 46.008ZM201.472 45.8907C201.5 46.9567 201.241 47.7977 200.694 48.4136C200.147 49.0296 199.372 49.3505 198.368 49.3765C197.74 49.3928 197.182 49.2705 196.694 49.0096C196.207 48.7448 195.827 48.358 195.556 47.8493C195.285 47.3405 195.141 46.7425 195.123 46.0552C195.095 44.9852 195.353 44.1462 195.896 43.5382C196.439 42.9302 197.216 42.6131 198.228 42.5869C198.856 42.5706 199.414 42.6929 199.902 42.9538C200.389 43.2147 200.768 43.5976 201.039 44.1025C201.31 44.6073 201.455 45.2034 201.472 45.8907Z" fill="#034861"/>
<path d="M208.563 42.4422L208.587 43.35L207.569 43.6402C207.764 43.9282 207.866 44.2538 207.875 44.617C207.893 45.3198 207.662 45.8749 207.18 46.282C206.702 46.6852 206.027 46.898 205.157 46.9206L204.834 46.9113L204.57 46.8889C204.39 47.0342 204.302 47.1928 204.307 47.3646C204.313 47.6223 204.645 47.7427 205.301 47.7257L206.414 47.6969C207.132 47.6782 207.683 47.8183 208.066 48.1171C208.452 48.4158 208.653 48.8638 208.669 49.4613C208.689 50.2267 208.384 50.8285 207.754 51.2668C207.129 51.7051 206.219 51.9397 205.024 51.9706C204.11 51.9943 203.407 51.8523 202.914 51.5447C202.426 51.2408 202.174 50.8019 202.159 50.2278C202.149 49.8334 202.264 49.5003 202.503 49.2284C202.742 48.9565 203.098 48.7577 203.572 48.6321C203.386 48.5588 203.223 48.436 203.081 48.2638C202.94 48.0878 202.867 47.9001 202.862 47.701C202.855 47.4511 202.922 47.2422 203.062 47.0745C203.202 46.9028 203.407 46.7334 203.676 46.5662C203.329 46.4267 203.049 46.1956 202.838 45.8729C202.63 45.55 202.52 45.166 202.509 44.7208C202.49 44.0062 202.708 43.4477 203.163 43.0451C203.618 42.6426 204.276 42.4301 205.139 42.4078C205.323 42.403 205.54 42.415 205.791 42.4437C206.046 42.4683 206.208 42.4875 206.279 42.5013L208.563 42.4422ZM203.702 50.0472C203.708 50.2932 203.831 50.4835 204.068 50.618C204.31 50.7524 204.644 50.8141 205.07 50.803C205.71 50.7864 206.21 50.6856 206.568 50.5004C206.927 50.3153 207.102 50.0704 207.094 49.7659C207.088 49.5199 206.976 49.3528 206.759 49.2646C206.542 49.1765 206.209 49.1382 205.76 49.1498L204.834 49.1738C204.506 49.1823 204.233 49.2656 204.014 49.4237C203.799 49.5855 203.695 49.7934 203.702 50.0472ZM204.214 44.7001C204.223 45.0554 204.311 45.3345 204.476 45.5373C204.645 45.7401 204.896 45.8371 205.228 45.8285C205.564 45.8198 205.807 45.71 205.958 45.4989C206.109 45.2879 206.18 45.0048 206.17 44.6494C206.15 43.8606 205.816 43.4746 205.167 43.4914C204.511 43.5084 204.194 43.9113 204.214 44.7001Z" fill="#034861"/>
<path d="M211.603 48.9164L209.817 48.9627L209.58 39.8485L211.367 39.8022L211.603 48.9164Z" fill="#034861"/>
<path d="M216.055 43.3968C215.677 43.4067 215.383 43.5354 215.174 43.7831C214.966 44.0268 214.852 44.3697 214.832 44.8118L217.339 44.7469C217.32 44.3058 217.196 43.9691 216.967 43.7366C216.738 43.5003 216.434 43.387 216.055 43.3968ZM216.45 48.908C215.396 48.9353 214.564 48.6657 213.956 48.0993C213.347 47.5328 213.029 46.7166 213.001 45.6505C212.973 44.5532 213.224 43.6988 213.756 43.0872C214.291 42.4715 215.042 42.1512 216.011 42.1261C216.936 42.1021 217.663 42.347 218.193 42.8608C218.722 43.3746 218.998 44.0962 219.022 45.0256L219.045 45.8925L214.822 46.0019C214.854 46.5091 215.015 46.9015 215.303 47.1793C215.592 47.4571 215.99 47.5894 216.498 47.5762C216.892 47.566 217.264 47.5153 217.613 47.4242C217.963 47.3331 218.326 47.1928 218.704 47.0033L218.74 48.3856C218.432 48.5499 218.101 48.6737 217.748 48.7571C217.394 48.8445 216.962 48.8947 216.45 48.908Z" fill="#034861"/>
<path d="M222.29 47.3793C222.107 48.1733 221.787 49.1175 221.331 50.2117L220.043 50.2451C220.27 49.1998 220.441 48.2145 220.558 47.2893L222.198 47.2468L222.29 47.3793Z" fill="#034861"/>
<path d="M228.953 48.4668L227.166 48.5131L226.93 39.399L228.717 39.3527L228.953 48.4668Z" fill="#034861"/>
<path d="M232.171 45.0952C232.188 45.7434 232.306 46.2307 232.526 46.5572C232.749 46.8835 233.101 47.0405 233.581 47.0281C234.057 47.0157 234.395 46.8428 234.593 46.5095C234.796 46.1721 234.888 45.6773 234.871 45.0252C234.855 44.377 234.737 43.8936 234.517 43.5749C234.298 43.2563 233.948 43.1032 233.468 43.1156C232.992 43.128 232.652 43.2989 232.45 43.6285C232.247 43.9542 232.154 44.4431 232.171 45.0952ZM236.699 44.9779C236.727 46.0439 236.467 46.8849 235.92 47.5008C235.374 48.1168 234.598 48.4377 233.595 48.4637C232.966 48.48 232.408 48.3577 231.921 48.0968C231.433 47.832 231.054 47.4452 230.783 46.9364C230.512 46.4277 230.367 45.8297 230.35 45.1424C230.322 44.0724 230.579 43.2334 231.122 42.6254C231.665 42.0174 232.443 41.7003 233.454 41.6741C234.083 41.6578 234.641 41.7801 235.128 42.041C235.616 42.3019 235.995 42.6848 236.266 43.1896C236.537 43.6945 236.681 44.2906 236.699 44.9779Z" fill="#034861"/>
<path d="M128.423 65.7935C128.875 65.7818 129.204 65.6443 129.408 65.3811C129.612 65.114 129.716 64.6561 129.718 64.0074L129.713 63.7907C129.695 63.0878 129.572 62.5869 129.346 62.288C129.123 61.9889 128.772 61.8456 128.291 61.8581C127.452 61.8798 127.049 62.5507 127.083 63.8705C127.1 64.5266 127.216 65.0139 127.432 65.3327C127.651 65.6513 127.981 65.8049 128.423 65.7935ZM127.82 67.21C127.047 67.23 126.434 66.9489 125.981 66.3667C125.529 65.7806 125.288 64.9564 125.261 63.8943C125.233 62.8244 125.434 61.9829 125.864 61.37C126.297 60.757 126.902 60.4405 127.68 60.4203C128.093 60.4096 128.457 60.4783 128.769 60.6265C129.082 60.7747 129.359 61.0098 129.602 61.3318L129.649 61.3306L129.786 60.4888L131.297 60.4497L131.541 69.8801L129.749 69.9266L129.678 67.1794C129.671 66.9412 129.688 66.6126 129.728 66.1934L129.652 66.1954C129.469 66.5166 129.221 66.7634 128.909 66.9356C128.597 67.1078 128.234 67.1993 127.82 67.21Z" fill="#034861"/>
<path d="M137.974 66.8296L137.712 65.9983L137.618 66.0007C137.435 66.3102 137.17 66.5535 136.823 66.7305C136.475 66.9036 136.077 66.996 135.628 67.0077C134.859 67.0276 134.274 66.8376 133.873 66.4377C133.471 66.0339 133.261 65.4454 133.241 64.6722L133.13 60.4022L134.917 60.3559L135.016 64.1808C135.028 64.6533 135.121 65.0064 135.295 65.2403C135.469 65.4702 135.74 65.5805 136.107 65.5709C136.607 65.558 136.964 65.3827 137.178 65.045C137.391 64.7034 137.488 64.146 137.468 63.3728L137.388 60.2918L139.175 60.2455L139.345 66.7941L137.974 66.8296Z" fill="#034861"/>
<path d="M143.791 61.2748C143.412 61.2846 143.119 61.4133 142.91 61.661C142.702 61.9047 142.587 62.2477 142.568 62.6897L145.075 62.6248C145.055 62.1837 144.931 61.847 144.703 61.6145C144.474 61.3782 144.17 61.2649 143.791 61.2748ZM144.186 66.7859C143.132 66.8132 142.3 66.5437 141.691 65.9772C141.083 65.4107 140.765 64.5945 140.737 63.5284C140.709 62.4312 140.96 61.5767 141.491 60.9651C142.026 60.3495 142.778 60.0291 143.746 60.004C144.672 59.98 145.399 60.2249 145.928 60.7387C146.457 61.2526 146.734 61.9741 146.758 62.9035L146.781 63.7704L142.557 63.8798C142.59 64.387 142.751 64.7794 143.039 65.0572C143.328 65.335 143.726 65.4673 144.233 65.4541C144.628 65.4439 145 65.3933 145.349 65.3022C145.698 65.211 146.062 65.0707 146.44 64.8812L146.476 66.2635C146.168 66.4278 145.837 66.5517 145.483 66.6351C145.13 66.7224 144.697 66.7726 144.186 66.7859Z" fill="#034861"/>
<path d="M153.499 66.5446C152.73 66.5645 152.117 66.2815 151.66 65.6954C151.207 65.1093 150.967 64.2871 150.94 63.2289C150.912 62.155 151.113 61.3136 151.543 60.7046C151.976 60.0916 152.585 59.775 153.37 59.7546C154.194 59.7333 154.831 60.0372 155.281 60.6664L155.34 60.6648C155.237 60.1791 155.181 59.7448 155.171 59.3621L155.117 57.2652L156.909 57.2187L157.145 66.3329L155.775 66.3684L155.407 65.528L155.331 65.53C154.942 66.1848 154.331 66.523 153.499 66.5446ZM154.089 65.105C154.546 65.0931 154.876 64.9517 155.08 64.6807C155.288 64.4096 155.394 63.9556 155.397 63.3186L155.392 63.1253C155.374 62.4224 155.251 61.9215 155.025 61.6226C154.802 61.3235 154.447 61.1803 153.958 61.193C153.56 61.2033 153.254 61.3812 153.04 61.7267C152.83 62.0682 152.734 62.5611 152.75 63.2054C152.767 63.8497 152.891 64.3311 153.122 64.6494C153.353 64.9639 153.675 65.1157 154.089 65.105Z" fill="#034861"/>
<path d="M161.586 60.8136C161.207 60.8235 160.913 60.9522 160.705 61.1999C160.496 61.4436 160.382 61.7866 160.362 62.2286L162.869 62.1637C162.85 61.7226 162.726 61.3859 162.497 61.1534C162.268 60.9171 161.965 60.8038 161.586 60.8136ZM161.981 66.3248C160.926 66.3521 160.095 66.0826 159.486 65.5161C158.878 64.9496 158.56 64.1334 158.532 63.0673C158.503 61.9701 158.755 61.1156 159.286 60.504C159.821 59.8883 160.573 59.568 161.541 59.5429C162.467 59.5189 163.194 59.7638 163.723 60.2776C164.252 60.7914 164.529 61.513 164.553 62.4424L164.575 63.3093L160.352 63.4187C160.385 63.9259 160.545 64.3183 160.834 64.5961C161.123 64.8739 161.521 65.0062 162.028 64.993C162.423 64.9828 162.795 64.9322 163.144 64.841C163.493 64.7499 163.857 64.6096 164.235 64.4201L164.271 65.8024C163.962 65.9667 163.631 66.0906 163.278 66.174C162.925 66.2613 162.492 66.3115 161.981 66.3248Z" fill="#034861"/>
<path d="M169.572 59.3348C170.345 59.3148 170.958 59.6017 171.411 60.1956C171.864 60.7857 172.104 61.6059 172.131 62.6563C172.159 63.738 171.955 64.5815 171.517 65.1868C171.083 65.792 170.478 66.1046 169.701 66.1248C168.932 66.1447 168.321 65.8811 167.869 65.334L167.746 65.3372L167.466 66.0654L166.101 66.1008L165.865 56.9867L167.652 56.9404L167.707 59.0608C167.714 59.3302 167.701 59.7623 167.67 60.3571L167.74 60.3552C168.141 59.6962 168.752 59.3561 169.572 59.3348ZM169.035 60.7789C168.593 60.7903 168.275 60.9353 168.079 61.2139C167.883 61.4886 167.789 61.9385 167.797 62.5635L167.802 62.7568C167.821 63.4597 167.937 63.9607 168.152 64.2599C168.371 64.5591 168.707 64.7028 169.16 64.691C169.527 64.6815 169.813 64.5061 170.019 64.1647C170.229 63.8193 170.326 63.3244 170.309 62.6801C170.292 62.0358 170.171 61.5564 169.944 61.2418C169.716 60.9234 169.414 60.7691 169.035 60.7789Z" fill="#034861"/>
<path d="M176.265 60.4333C175.886 60.4431 175.592 60.5718 175.384 60.8195C175.175 61.0633 175.061 61.4062 175.041 61.8483L177.548 61.7833C177.529 61.3422 177.405 61.0055 177.176 60.7731C176.947 60.5367 176.643 60.4235 176.265 60.4333ZM176.659 65.9444C175.605 65.9718 174.774 65.7022 174.165 65.1357C173.556 64.5693 173.238 63.753 173.211 62.687C173.182 61.5897 173.434 60.7352 173.965 60.1236C174.5 59.508 175.251 59.1876 176.22 59.1625C177.145 59.1385 177.873 59.3835 178.402 59.8973C178.931 60.4111 179.207 61.1327 179.232 62.0621L179.254 62.9289L175.031 63.0384C175.064 63.5455 175.224 63.938 175.513 64.2157C175.801 64.4935 176.199 64.6258 176.707 64.6127C177.101 64.6025 177.473 64.5518 177.823 64.4607C178.172 64.3696 178.536 64.2292 178.914 64.0397L178.949 65.4221C178.641 65.5863 178.31 65.7102 177.957 65.7936C177.603 65.8809 177.171 65.9312 176.659 65.9444Z" fill="#034861"/>
<path d="M184.262 58.9541C184.504 58.9479 184.706 58.9602 184.867 58.9912L184.775 60.6699C184.63 60.6346 184.454 60.6197 184.247 60.625C183.677 60.6398 183.235 60.7978 182.923 61.0989C182.614 61.4 182.466 61.8141 182.48 62.3413L182.566 65.6741L180.78 65.7204L180.61 59.1719L181.963 59.1368L182.255 60.2312L182.343 60.2289C182.537 59.8566 182.803 59.5546 183.14 59.3232C183.482 59.0877 183.856 58.9647 184.262 58.9541Z" fill="#034861"/>
<path d="M188.014 65.533L186.227 65.5793L186.058 59.0307L187.844 58.9844L188.014 65.533ZM185.951 58.3125L185.947 58.1544C186.598 57.356 187.042 56.7564 187.278 56.3556L189.281 56.3037L189.284 56.4267C189.086 56.635 188.747 56.9467 188.265 57.3616C187.787 57.7726 187.412 58.0793 187.14 58.2817L185.951 58.3125Z" fill="#034861"/>
<path d="M194.053 65.3765L193.684 64.4951L193.637 64.4963C193.346 64.8829 193.043 65.1545 192.727 65.3112C192.414 65.4639 192.002 65.5469 191.49 65.5601C190.862 65.5764 190.361 65.4096 189.989 65.0598C189.62 64.7099 189.427 64.203 189.41 63.5391C189.392 62.844 189.621 62.3262 190.097 61.9857C190.576 61.6411 191.305 61.4385 192.285 61.378L193.42 61.3134L193.413 61.0264C193.395 60.3626 193.047 60.0394 192.368 60.057C191.844 60.0706 191.233 60.2447 190.535 60.5793L189.912 59.388C190.655 58.9741 191.486 58.7552 192.404 58.7314C193.282 58.7087 193.961 58.8826 194.439 59.2531C194.918 59.6237 195.167 60.1994 195.187 60.9804L195.3 65.3442L194.053 65.3765ZM193.447 62.356L192.757 62.3974C192.238 62.4264 191.853 62.5302 191.604 62.7086C191.355 62.887 191.235 63.1519 191.244 63.5033C191.257 64.0071 191.552 64.2514 192.13 64.2365C192.544 64.2257 192.871 64.0981 193.111 63.8535C193.355 63.6088 193.471 63.2893 193.461 62.8949L193.447 62.356Z" fill="#034861"/>
<path d="M204.78 63.1526C204.798 63.8242 204.576 64.3418 204.117 64.7054C203.661 65.0689 202.969 65.2627 202.04 65.2868C201.563 65.2991 201.156 65.2765 200.819 65.2188C200.481 65.165 200.164 65.0794 199.868 64.962L199.83 63.486C200.166 63.6336 200.542 63.7547 200.959 63.8494C201.38 63.944 201.748 63.9873 202.064 63.9791C202.713 63.9623 203.032 63.7664 203.022 63.3915C203.018 63.251 202.973 63.1388 202.884 63.0552C202.796 62.9676 202.645 62.8718 202.431 62.768C202.218 62.6602 201.933 62.5367 201.578 62.3974C201.069 62.1996 200.693 62.0139 200.45 61.8405C200.211 61.6669 200.034 61.4664 199.918 61.2388C199.807 61.0072 199.747 60.7216 199.738 60.3819C199.723 59.8 199.936 59.3451 200.377 59.0172C200.821 58.6853 201.458 58.5086 202.285 58.4871C203.074 58.4667 203.846 58.6186 204.601 58.9429L204.095 60.2455C203.764 60.1134 203.454 60.0062 203.167 59.9237C202.879 59.8413 202.587 59.804 202.29 59.8116C201.763 59.8253 201.503 59.9747 201.511 60.2597C201.515 60.4198 201.602 60.5563 201.773 60.6691C201.948 60.7818 202.326 60.9459 202.906 61.1614C203.423 61.3551 203.802 61.5387 204.045 61.7121C204.288 61.8856 204.469 62.088 204.589 62.3194C204.708 62.5507 204.772 62.8285 204.78 63.1526Z" fill="#034861"/>
<path d="M210.383 64.9533L210.015 64.072L209.968 64.0732C209.677 64.4598 209.373 64.7314 209.057 64.8881C208.744 65.0407 208.332 65.1237 207.821 65.137C207.192 65.1533 206.692 64.9865 206.319 64.6366C205.951 64.2867 205.758 63.7798 205.74 63.116C205.722 62.4209 205.951 61.9031 206.427 61.5625C206.906 61.2179 207.636 61.0154 208.615 60.9548L209.751 60.8902L209.743 60.6032C209.726 59.9394 209.378 59.6163 208.698 59.6339C208.175 59.6474 207.564 59.8215 206.865 60.1561L206.242 58.9648C206.986 58.5509 207.816 58.3321 208.734 58.3083C209.613 58.2855 210.291 58.4594 210.77 58.8299C211.248 59.2005 211.498 59.7763 211.518 60.5572L211.631 64.921L210.383 64.9533ZM209.778 61.9329L209.087 61.9742C208.568 62.0033 208.184 62.107 207.934 62.2854C207.685 62.4638 207.565 62.7287 207.574 63.0802C207.587 63.5839 207.883 63.8283 208.461 63.8133C208.875 63.8026 209.201 63.6749 209.441 63.4304C209.685 63.1857 209.802 62.8661 209.792 62.4717L209.778 61.9329Z" fill="#034861"/>
<path d="M216.946 58.1072C217.72 58.0872 218.333 58.3741 218.786 58.9681C219.239 59.5581 219.479 60.3783 219.506 61.4287C219.534 62.5104 219.329 63.3539 218.892 63.9592C218.458 64.5644 217.853 64.877 217.076 64.8972C216.306 64.9171 215.696 64.6535 215.244 64.1064L215.121 64.1096L214.841 64.8378L213.476 64.8732L213.24 55.7591L215.026 55.7128L215.081 57.8332C215.088 58.1026 215.076 58.5347 215.045 59.1295L215.115 59.1276C215.516 58.4686 216.126 58.1285 216.946 58.1072ZM216.409 59.5513C215.968 59.5627 215.65 59.7077 215.454 59.9863C215.258 60.2611 215.164 60.7109 215.172 61.3359L215.177 61.5292C215.195 62.2321 215.312 62.7331 215.527 63.0324C215.745 63.3315 216.081 63.4752 216.534 63.4634C216.901 63.4539 217.188 63.2785 217.394 62.9371C217.604 62.5917 217.7 62.0968 217.684 61.4525C217.667 60.8082 217.545 60.3288 217.318 60.0142C217.091 59.6958 216.788 59.5415 216.409 59.5513Z" fill="#034861"/>
<path d="M223.639 59.2057C223.261 59.2155 222.967 59.3442 222.758 59.5919C222.55 59.8357 222.436 60.1786 222.416 60.6207L224.923 60.5557C224.903 60.1147 224.779 59.7779 224.551 59.5455C224.322 59.3091 224.018 59.1959 223.639 59.2057ZM224.034 64.7168C222.98 64.7442 222.148 64.4746 221.54 63.9081C220.931 63.3417 220.613 62.5254 220.585 61.4594C220.557 60.3621 220.808 59.5076 221.339 58.896C221.874 58.2804 222.626 57.96 223.595 57.9349C224.52 57.911 225.247 58.1559 225.777 58.6697C226.306 59.1835 226.582 59.9051 226.606 60.8345L226.629 61.7014L222.406 61.8108C222.438 62.3179 222.599 62.7104 222.887 62.9882C223.176 63.2659 223.574 63.3982 224.082 63.3851C224.476 63.3749 224.848 63.3242 225.197 63.2331C225.547 63.142 225.91 63.0016 226.288 62.8121L226.324 64.1945C226.016 64.3587 225.685 64.4826 225.331 64.566C224.978 64.6533 224.546 64.7036 224.034 64.7168Z" fill="#034861"/>
<path d="M231.637 57.7265C231.879 57.7203 232.081 57.7326 232.242 57.7636L232.15 59.4423C232.005 59.407 231.828 59.3921 231.622 59.3974C231.051 59.4122 230.61 59.5702 230.297 59.8713C229.989 60.1724 229.841 60.5865 229.855 61.1137L229.941 64.4465L228.155 64.4928L227.985 57.9443L229.338 57.9092L229.63 59.0036L229.718 59.0013C229.912 58.629 230.177 58.327 230.515 58.0956C230.857 57.8601 231.231 57.7371 231.637 57.7265Z" fill="#034861"/>
<path d="M241.357 64.1507L241.095 63.3193L241.002 63.3218C240.818 63.6313 240.553 63.8746 240.206 64.0516C239.859 64.2247 239.461 64.3171 239.012 64.3287C238.242 64.3487 237.657 64.1587 237.256 63.7588C236.855 63.355 236.644 62.7665 236.624 61.9933L236.513 57.7233L238.3 57.677L238.399 61.5019C238.411 61.9744 238.504 62.3275 238.679 62.5614C238.853 62.7913 239.123 62.9015 239.49 62.892C239.99 62.8791 240.347 62.7038 240.561 62.3661C240.775 62.0245 240.872 61.4671 240.852 60.6939L240.772 57.6129L242.558 57.5666L242.728 64.1152L241.357 64.1507Z" fill="#034861"/>
<path d="M250.647 63.91L248.861 63.9563L248.762 60.1314C248.749 59.6589 248.656 59.3077 248.482 59.0777C248.308 58.8439 248.038 58.7317 247.67 58.7412C247.171 58.7542 246.814 58.9315 246.6 59.2731C246.386 59.6107 246.289 60.1662 246.309 60.9394L246.389 64.0203L244.602 64.0666L244.433 57.5181L245.797 57.4827L246.059 58.3141L246.159 58.3115C246.35 57.99 246.617 57.7448 246.96 57.5756C247.308 57.4025 247.704 57.3102 248.149 57.2987C248.91 57.2789 249.494 57.4709 249.899 57.8746C250.304 58.2744 250.516 58.8629 250.537 59.64L250.647 63.91Z" fill="#034861"/>
<path d="M129.629 76.3752C130.402 76.3552 131.015 76.6421 131.468 77.236C131.921 77.8261 132.161 78.6463 132.188 79.6967C132.216 80.7784 132.011 81.6219 131.574 82.2272C131.14 82.8323 130.535 83.145 129.758 83.1651C128.988 83.1851 128.378 82.9215 127.926 82.3744L127.803 82.3776L127.523 83.1058L126.158 83.1412L125.922 74.0271L127.709 73.9808L127.764 76.1012C127.77 76.3706 127.758 76.8027 127.727 77.3975L127.797 77.3956C128.198 76.7366 128.809 76.3964 129.629 76.3752ZM129.092 77.8193C128.65 77.8307 128.332 77.9757 128.136 78.2543C127.94 78.529 127.846 78.9789 127.854 79.6039L127.859 79.7972C127.878 80.5001 127.994 81.0011 128.209 81.3003C128.428 81.5995 128.764 81.7432 129.216 81.7314C129.584 81.7219 129.87 81.5465 130.076 81.2051C130.286 80.8597 130.383 80.3648 130.366 79.7205C130.349 79.0762 130.227 78.5968 130 78.2822C129.773 77.9638 129.47 77.8095 129.092 77.8193Z" fill="#034861"/>
<path d="M137.908 82.8367L137.54 81.9553L137.493 81.9566C137.202 82.3431 136.898 82.6148 136.582 82.7714C136.269 82.9241 135.857 83.0071 135.346 83.0203C134.717 83.0366 134.216 82.8699 133.844 82.52C133.475 82.1701 133.282 81.6632 133.265 80.9993C133.247 80.3043 133.476 79.7864 133.952 79.4459C134.431 79.1013 135.161 78.8988 136.14 78.8382L137.275 78.7736L137.268 78.4866C137.251 77.8228 136.902 77.4997 136.223 77.5173C135.7 77.5308 135.089 77.7049 134.39 78.0395L133.767 76.8482C134.511 76.4343 135.341 76.2154 136.259 76.1917C137.138 76.1689 137.816 76.3428 138.295 76.7133C138.773 77.0839 139.023 77.6596 139.043 78.4406L139.156 82.8044L137.908 82.8367ZM137.302 79.8162L136.612 79.8576C136.093 79.8867 135.709 79.9904 135.459 80.1688C135.21 80.3472 135.09 80.6121 135.099 80.9636C135.112 81.4673 135.408 81.7117 135.985 81.6967C136.399 81.686 136.726 81.5583 136.966 81.3137C137.21 81.0691 137.327 80.7495 137.316 80.3551L137.302 79.8162Z" fill="#034861"/>
<path d="M143.663 82.8048C141.625 82.8576 140.577 81.7653 140.519 79.5278C140.49 78.4148 140.745 77.5583 141.284 76.9582C141.824 76.3542 142.611 76.0388 143.645 76.012C144.403 75.9924 145.086 76.1231 145.695 76.4043L145.204 77.8003C144.92 77.6944 144.656 77.6094 144.412 77.5454C144.168 77.4775 143.925 77.4466 143.683 77.4529C142.753 77.477 142.306 78.149 142.34 79.4688C142.373 80.7497 142.854 81.378 143.784 81.3539C144.127 81.345 144.445 81.2919 144.735 81.1945C145.026 81.0932 145.315 80.9411 145.603 80.7383L145.642 82.2671C145.358 82.4581 145.068 82.5926 144.773 82.6705C144.482 82.7484 144.112 82.7932 143.663 82.8048Z" fill="#034861"/>
<path d="M148.799 78.9908L149.552 77.9749L151.334 75.9359L153.348 75.8836L150.821 78.7919L153.676 82.4281L151.615 82.4816L149.66 79.877L148.908 80.5119L148.961 82.5503L147.175 82.5966L146.938 73.4825L148.725 73.4362L148.83 77.5012L148.775 78.9914L148.799 78.9908Z" fill="#034861"/>
<path d="M153.969 79.9353L153.931 78.471L157.077 78.3895L157.115 79.8538L153.969 79.9353Z" fill="#034861"/>
<path d="M161.051 76.8329C160.673 76.8427 160.379 76.9714 160.171 77.2191C159.962 77.4629 159.848 77.8058 159.828 78.2478L162.335 78.1829C162.316 77.7418 162.192 77.4051 161.963 77.1726C161.734 76.9363 161.43 76.823 161.051 76.8329ZM161.446 82.344C160.392 82.3713 159.56 82.1018 158.952 81.5353C158.343 80.9689 158.025 80.1526 157.997 79.0866C157.969 77.9893 158.22 77.1348 158.752 76.5232C159.287 75.9076 160.038 75.5872 161.007 75.5621C161.932 75.5381 162.66 75.783 163.189 76.2969C163.718 76.8107 163.994 77.5323 164.018 78.4616L164.041 79.3285L159.818 79.438C159.85 79.9451 160.011 80.3376 160.3 80.6153C160.588 80.8931 160.986 81.0254 161.494 81.0123C161.888 81.002 162.26 80.9514 162.609 80.8603C162.959 80.7692 163.322 80.6288 163.7 80.4393L163.736 81.8216C163.428 81.9859 163.097 82.1098 162.744 82.1932C162.39 82.2805 161.958 82.3308 161.446 82.344Z" fill="#034861"/>
<path d="M171.612 81.9634L169.825 82.0097L169.726 78.1848C169.714 77.7123 169.621 77.3611 169.447 77.1311C169.273 76.8973 169.002 76.7851 168.635 76.7946C168.135 76.8076 167.778 76.9848 167.564 77.3264C167.35 77.6641 167.254 78.2195 167.274 78.9927L167.353 82.0737L165.567 82.12L165.397 75.5714L166.762 75.5361L167.024 76.3675L167.123 76.3649C167.314 76.0434 167.582 75.7981 167.925 75.629C168.272 75.4559 168.668 75.3636 169.113 75.352C169.875 75.3323 170.458 75.5243 170.863 75.928C171.268 76.3278 171.481 76.9162 171.501 77.6933L171.612 81.9634Z" fill="#034861"/>
<path d="M175.528 81.9791C174.758 81.9991 174.145 81.716 173.688 81.13C173.236 80.5439 172.996 79.7217 172.968 78.6635C172.94 77.5896 173.141 76.7482 173.571 76.1392C174.004 75.5262 174.614 75.2095 175.398 75.1892C176.222 75.1678 176.859 75.4718 177.309 76.1009L177.368 76.0994C177.266 75.6136 177.209 75.1794 177.199 74.7967L177.145 72.6997L178.937 72.6533L179.174 81.7674L177.803 81.8029L177.435 80.9626L177.359 80.9646C176.97 81.6194 176.359 81.9576 175.528 81.9791ZM176.117 80.5395C176.574 80.5277 176.905 80.3863 177.109 80.1153C177.317 79.8442 177.422 79.3901 177.425 78.7531L177.42 78.5598C177.402 77.8569 177.279 77.356 177.053 77.0571C176.83 76.7581 176.475 76.6149 175.987 76.6276C175.588 76.6379 175.282 76.8158 175.069 77.1613C174.859 77.5028 174.762 77.9957 174.779 78.64C174.795 79.2843 174.919 79.7656 175.15 80.084C175.381 80.3984 175.703 80.5503 176.117 80.5395Z" fill="#034861"/>
<path d="M182.761 80.4143C182.578 81.2083 182.259 82.1525 181.803 83.2467L180.514 83.2801C180.741 82.2348 180.913 81.2496 181.029 80.3243L182.67 80.2818L182.761 80.4143Z" fill="#034861"/>
<path d="M190.3 81.5963C188.262 81.6492 187.213 80.5568 187.155 78.3193C187.127 77.2064 187.382 76.3499 187.921 75.7498C188.46 75.1457 189.247 74.8303 190.282 74.8035C191.04 74.7839 191.723 74.9147 192.332 75.1959L191.841 76.5919C191.557 76.4859 191.293 76.4009 191.049 76.3369C190.805 76.269 190.562 76.2382 190.319 76.2444C189.39 76.2685 188.943 76.9405 188.977 78.2604C189.01 79.5412 189.491 80.1696 190.421 80.1455C190.764 80.1366 191.081 80.0834 191.372 79.986C191.662 79.8847 191.951 79.7326 192.239 79.5298L192.279 81.0586C191.995 81.2496 191.705 81.3841 191.41 81.4621C191.119 81.54 190.749 81.5847 190.3 81.5963Z" fill="#034861"/>
<path d="M195.15 78.0652C195.166 78.7135 195.284 79.2008 195.504 79.5273C195.727 79.8536 196.079 80.0106 196.559 79.9981C197.036 79.9858 197.373 79.8129 197.572 79.4795C197.774 79.1422 197.867 78.6474 197.85 77.9953C197.833 77.3471 197.715 76.8636 197.496 76.545C197.276 76.2263 196.927 76.0732 196.446 76.0857C195.97 76.098 195.63 76.269 195.428 76.5986C195.225 76.9242 195.133 77.4131 195.15 78.0652ZM199.677 77.9479C199.705 79.014 199.445 79.855 198.899 80.4709C198.352 81.0868 197.577 81.4078 196.573 81.4338C195.944 81.4501 195.386 81.3278 194.899 81.0669C194.412 80.8021 194.032 80.4153 193.761 79.9065C193.49 79.3977 193.346 78.7997 193.328 78.1124C193.3 77.0425 193.558 76.2035 194.101 75.5955C194.644 74.9875 195.421 74.6704 196.432 74.6441C197.061 74.6279 197.619 74.7502 198.107 75.0111C198.594 75.272 198.973 75.6548 199.244 76.1597C199.515 76.6646 199.659 77.2606 199.677 77.9479Z" fill="#034861"/>
<path d="M204.838 81.2196C204.069 81.2396 203.458 80.976 203.006 80.4289L202.913 80.4314C202.989 80.9764 203.029 81.2919 203.031 81.3778L203.1 84.0312L201.313 84.0775L201.069 74.6471L202.521 74.6095L202.795 75.4523L202.877 75.4501C203.278 74.7911 203.889 74.4509 204.709 74.4297C205.482 74.4096 206.095 74.6927 206.548 75.2788C207.001 75.8649 207.241 76.6891 207.268 77.7512C207.287 78.4502 207.199 79.0601 207.005 79.5809C206.816 80.1016 206.535 80.5016 206.163 80.7809C205.791 81.0601 205.35 81.2064 204.838 81.2196ZM204.172 75.8738C203.731 75.8852 203.412 76.0302 203.216 76.3088C203.02 76.5835 202.926 77.0334 202.935 77.6584L202.94 77.8517C202.958 78.5546 203.074 79.0556 203.289 79.3548C203.508 79.6539 203.844 79.7976 204.297 79.7859C205.097 79.7652 205.48 79.0949 205.446 77.775C205.43 77.1307 205.317 76.651 205.11 76.3359C204.906 76.0169 204.594 75.8628 204.172 75.8738Z" fill="#034861"/>
<path d="M208.54 72.7596C208.525 72.1777 208.841 71.8784 209.49 71.8616C210.138 71.8448 210.47 72.1273 210.485 72.7092C210.492 72.9864 210.415 73.2053 210.256 73.3657C210.099 73.5222 209.859 73.6046 209.535 73.613C208.887 73.6298 208.555 73.3453 208.54 72.7596ZM210.616 80.9527L208.83 80.999L208.66 74.4504L210.447 74.4041L210.616 80.9527Z" fill="#034861"/>
<path d="M216.655 80.7962L216.287 79.9148L216.24 79.916C215.949 80.3026 215.645 80.5742 215.329 80.7309C215.016 80.8836 214.604 80.9666 214.093 80.9798C213.464 80.9961 212.963 80.8293 212.591 80.4795C212.222 80.1295 212.03 79.6227 212.012 78.9588C211.994 78.2637 212.223 77.7459 212.699 77.4053C213.178 77.0608 213.908 76.8582 214.887 76.7977L216.022 76.7331L216.015 76.4461C215.998 75.7822 215.649 75.4591 214.97 75.4767C214.447 75.4903 213.836 75.6644 213.137 75.999L212.514 74.8077C213.258 74.3938 214.088 74.1749 215.006 74.1511C215.885 74.1284 216.563 74.3023 217.042 74.6728C217.52 75.0433 217.77 75.6191 217.79 76.4001L217.903 80.7639L216.655 80.7962ZM216.049 77.7757L215.359 77.8171C214.84 77.8461 214.456 77.9499 214.206 78.1283C213.957 78.3067 213.837 78.5716 213.846 78.923C213.859 79.4268 214.155 79.6711 214.732 79.6562C215.146 79.6454 215.473 79.5178 215.713 79.2732C215.957 79.0285 216.074 78.709 216.063 78.3146L216.049 77.7757Z" fill="#034861"/>
<path d="M221.757 74.111L223.714 74.0603L225.045 77.7126C225.159 78.0301 225.241 78.407 225.291 78.8433L225.326 78.8424C225.359 78.4391 225.433 78.0581 225.549 77.6995L226.666 73.9838L228.581 73.9342L226.002 81.3922C225.766 82.0821 225.416 82.6031 224.952 82.955C224.492 83.3069 223.948 83.491 223.319 83.5073C223.011 83.5153 222.707 83.4899 222.409 83.4312L222.372 82.0137C222.588 82.0589 222.823 82.0783 223.077 82.0717C223.393 82.0635 223.666 81.9587 223.895 81.7574C224.129 81.5599 224.307 81.2642 224.429 80.8702L224.526 80.5453L221.757 74.111Z" fill="#034861"/>
<path d="M236.409 80.4015C235.64 80.4215 235.03 80.1579 234.578 79.6108L234.484 79.6133C234.561 80.1583 234.6 80.4738 234.602 80.5597L234.671 83.2131L232.885 83.2594L232.64 73.829L234.093 73.7914L234.367 74.6342L234.449 74.632C234.85 73.973 235.46 73.6328 236.28 73.6116C237.054 73.5916 237.667 73.8746 238.119 74.4607C238.572 75.0468 238.812 75.871 238.84 76.9331C238.858 77.6321 238.77 78.242 238.577 78.7628C238.387 79.2835 238.106 79.6835 237.734 79.9628C237.363 80.242 236.921 80.3883 236.409 80.4015ZM235.743 75.0557C235.302 75.0671 234.984 75.2121 234.788 75.4907C234.591 75.7654 234.498 76.2153 234.506 76.8403L234.511 77.0336C234.529 77.7365 234.646 78.2375 234.861 78.5367C235.079 78.8359 235.415 78.9795 235.868 78.9678C236.669 78.9471 237.052 78.2768 237.018 76.9569C237.001 76.3126 236.889 75.8329 236.681 75.5179C236.478 75.1988 236.165 75.0447 235.743 75.0557Z" fill="#034861"/>
<path d="M242.973 74.7101C242.594 74.7199 242.301 74.8486 242.092 75.0963C241.884 75.3401 241.769 75.683 241.75 76.1251L244.257 76.0601C244.237 75.619 244.113 75.2823 243.885 75.0499C243.656 74.8135 243.352 74.7003 242.973 74.7101ZM243.368 80.2212C242.314 80.2485 241.482 79.979 240.874 79.4125C240.265 78.8461 239.947 78.0298 239.919 76.9638C239.891 75.8665 240.142 75.012 240.673 74.4004C241.208 73.7848 241.96 73.4644 242.929 73.4393C243.854 73.4153 244.581 73.6603 245.11 74.1741C245.64 74.6879 245.916 75.4095 245.94 76.3388L245.963 77.2057L241.739 77.3152C241.772 77.8223 241.933 78.2148 242.221 78.4925C242.51 78.7703 242.908 78.9026 243.416 78.8895C243.81 78.8792 244.182 78.8286 244.531 78.7375C244.88 78.6464 245.244 78.506 245.622 78.3165L245.658 79.6988C245.35 79.8631 245.019 79.987 244.665 80.0704C244.312 80.1577 243.88 80.208 243.368 80.2212Z" fill="#034861"/>
<path d="M253.018 73.301L253.042 74.2089L252.023 74.499C252.219 74.787 252.321 75.1126 252.33 75.4758C252.348 76.1786 252.117 76.7337 251.635 77.1408C251.157 77.544 250.482 77.7568 249.612 77.7794L249.289 77.7702L249.025 77.7477C248.845 77.893 248.757 78.0516 248.761 78.2234C248.768 78.4811 249.099 78.6015 249.756 78.5845L250.868 78.5557C251.587 78.5371 252.138 78.6771 252.52 78.9759C252.907 79.2746 253.108 79.7227 253.124 80.3201C253.144 81.0855 252.839 81.6873 252.209 82.1257C251.584 82.5639 250.674 82.7985 249.479 82.8294C248.565 82.8531 247.862 82.7111 247.369 82.4035C246.881 82.0996 246.629 81.6607 246.614 81.0866C246.604 80.6922 246.718 80.3591 246.958 80.0872C247.197 79.8153 247.553 79.6165 248.026 79.4909C247.841 79.4176 247.678 79.2948 247.536 79.1226C247.395 78.9466 247.322 78.7589 247.317 78.5598C247.31 78.3099 247.377 78.101 247.517 77.9333C247.657 77.7616 247.862 77.5922 248.131 77.425C247.784 77.2855 247.504 77.0544 247.293 76.7317C247.085 76.4088 246.975 76.0248 246.964 75.5796C246.945 74.865 247.163 74.3065 247.618 73.9039C248.072 73.5014 248.731 73.289 249.594 73.2666C249.778 73.2618 249.995 73.2738 250.246 73.3025C250.5 73.3271 250.663 73.3464 250.734 73.3602L253.018 73.301ZM248.157 80.906C248.163 81.152 248.285 81.3423 248.523 81.4768C248.765 81.6112 249.099 81.6729 249.525 81.6618C250.165 81.6452 250.665 81.5444 251.023 81.3592C251.382 81.1741 251.557 80.9293 251.549 80.6247C251.543 80.3787 251.431 80.2116 251.214 80.1234C250.997 80.0353 250.663 79.997 250.214 80.0086L249.289 80.0326C248.961 80.0411 248.688 80.1244 248.469 80.2825C248.254 80.4443 248.15 80.6522 248.157 80.906ZM248.669 75.5589C248.678 75.9143 248.765 76.1933 248.931 76.3962C249.1 76.5989 249.351 76.6959 249.683 76.6873C250.019 76.6786 250.262 76.5688 250.413 76.3577C250.564 76.1467 250.635 75.8636 250.625 75.5082C250.605 74.7194 250.271 74.3334 249.622 74.3502C248.966 74.3672 248.649 74.7701 248.669 75.5589Z" fill="#034861"/>
<path d="M258.43 79.7137L258.062 78.8323L258.015 78.8335C257.724 79.2201 257.42 79.4917 257.104 79.6484C256.791 79.8011 256.379 79.8841 255.868 79.8973C255.239 79.9136 254.738 79.7468 254.366 79.397C253.997 79.0471 253.805 78.5402 253.787 77.8763C253.769 77.1812 253.998 76.6634 254.474 76.3229C254.953 75.9783 255.683 75.7757 256.662 75.7152L257.797 75.6506L257.79 75.3636C257.773 74.6997 257.424 74.3766 256.745 74.3942C256.222 74.4078 255.611 74.5819 254.912 74.9165L254.289 73.7252C255.033 73.3113 255.863 73.0924 256.781 73.0686C257.66 73.0459 258.338 73.2198 258.817 73.5903C259.295 73.9608 259.545 74.5366 259.565 75.3176L259.678 79.6814L258.43 79.7137ZM257.824 76.6932L257.134 76.7346C256.615 76.7636 256.231 76.8674 255.981 77.0458C255.732 77.2242 255.612 77.4891 255.621 77.8405C255.634 78.3443 255.93 78.5886 256.507 78.5737C256.921 78.5629 257.248 78.4353 257.488 78.1907C257.732 77.946 257.849 77.6265 257.838 77.2321L257.824 76.6932Z" fill="#034861"/>
<path d="M128.359 99.0895L126.573 99.1358L126.337 90.0217L128.123 89.9754L128.359 99.0895Z" fill="#034861"/>
<path d="M131.578 95.7179C131.594 96.3661 131.713 96.8535 131.932 97.1799C132.155 97.5063 132.507 97.6632 132.988 97.6508C133.464 97.6385 133.801 97.4656 134 97.1322C134.202 96.7948 134.295 96.3001 134.278 95.6479C134.261 94.9997 134.143 94.5163 133.924 94.1977C133.705 93.879 133.355 93.7259 132.874 93.7383C132.398 93.7507 132.059 93.9217 131.856 94.2512C131.654 94.5769 131.561 95.0658 131.578 95.7179ZM136.105 95.6006C136.133 96.6666 135.873 97.5076 135.327 98.1236C134.78 98.7395 134.005 99.0605 133.001 99.0865C132.373 99.1028 131.815 98.9805 131.327 98.7196C130.84 98.4548 130.46 98.068 130.189 97.5592C129.918 97.0504 129.774 96.4524 129.756 95.7651C129.728 94.6952 129.986 93.8562 130.529 93.2482C131.072 92.6401 131.849 92.323 132.861 92.2968C133.489 92.2805 134.047 92.4028 134.535 92.6637C135.022 92.9246 135.401 93.3075 135.672 93.8124C135.943 94.3173 136.088 94.9133 136.105 95.6006Z" fill="#034861"/>
<path d="M143.462 97.4146C143.914 97.4028 144.243 97.2654 144.447 97.0022C144.651 96.7351 144.755 96.2772 144.757 95.6284L144.752 95.4117C144.734 94.7088 144.611 94.2079 144.385 93.909C144.162 93.61 143.811 93.4667 143.33 93.4791C142.491 93.5009 142.088 94.1717 142.122 95.4916C142.139 96.1476 142.255 96.635 142.471 96.9537C142.69 97.2724 143.02 97.426 143.462 97.4146ZM142.859 98.831C142.086 98.8511 141.473 98.57 141.02 97.9877C140.568 97.4016 140.327 96.5775 140.3 95.5154C140.272 94.4454 140.473 93.604 140.903 92.9911C141.336 92.3781 141.941 92.0615 142.719 92.0414C143.132 92.0306 143.496 92.0994 143.808 92.2476C144.121 92.3958 144.398 92.6309 144.641 92.9528L144.688 92.9516L144.825 92.1099L146.336 92.0707L146.58 101.501L144.788 101.548L144.717 98.8005C144.71 98.5623 144.727 98.2336 144.767 97.8145L144.691 97.8164C144.508 98.1377 144.26 98.3844 143.948 98.5566C143.636 98.7288 143.273 98.8203 142.859 98.831Z" fill="#034861"/>
<path d="M153.013 98.4507L152.751 97.6193L152.657 97.6217C152.474 97.9313 152.209 98.1746 151.862 98.3516C151.514 98.5247 151.116 98.6171 150.667 98.6287C149.898 98.6486 149.313 98.4586 148.912 98.0588C148.51 97.6549 148.3 97.0665 148.28 96.2933L148.169 92.0232L149.956 91.9769L150.055 95.8018C150.067 96.2743 150.16 96.6275 150.334 96.8613C150.508 97.0913 150.779 97.2015 151.146 97.192C151.646 97.179 152.003 97.0037 152.217 96.666C152.43 96.3244 152.527 95.7671 152.507 94.9939L152.427 91.9129L154.214 91.8666L154.384 98.4152L153.013 98.4507Z" fill="#034861"/>
<path d="M158.83 92.8958C158.451 92.9056 158.158 93.0344 157.949 93.282C157.741 93.5258 157.626 93.8687 157.607 94.3108L160.114 94.2458C160.094 93.8048 159.97 93.468 159.742 93.2356C159.513 92.9992 159.209 92.886 158.83 92.8958ZM159.225 98.4069C158.171 98.4343 157.339 98.1647 156.73 97.5982C156.122 97.0318 155.804 96.2155 155.776 95.1495C155.748 94.0522 155.999 93.1977 156.53 92.5861C157.065 91.9705 157.817 91.6501 158.785 91.625C159.711 91.6011 160.438 91.846 160.967 92.3598C161.496 92.8736 161.773 93.5952 161.797 94.5246L161.82 95.3915L157.596 95.5009C157.629 96.008 157.79 96.4005 158.078 96.6783C158.367 96.956 158.765 97.0883 159.272 97.0752C159.667 97.065 160.039 97.0143 160.388 96.9232C160.737 96.8321 161.101 96.6918 161.479 96.5022L161.515 97.8846C161.207 98.0489 160.876 98.1727 160.522 98.2561C160.169 98.3434 159.736 98.3937 159.225 98.4069Z" fill="#034861"/>
<path d="M172.506 97.9456L170.72 97.9919L170.621 94.167C170.609 93.6945 170.516 93.3433 170.342 93.1133C170.167 92.8795 169.897 92.7673 169.53 92.7768C169.03 92.7897 168.673 92.967 168.459 93.3086C168.245 93.6463 168.148 94.2017 168.168 94.9749L168.248 98.0559L166.462 98.1022L166.292 91.5536L167.657 91.5183L167.919 92.3496L168.018 92.3471C168.209 92.0256 168.476 91.7803 168.82 91.6112C169.167 91.4381 169.563 91.3458 170.008 91.3342C170.77 91.3145 171.353 91.5065 171.758 91.9102C172.163 92.31 172.376 92.8984 172.396 93.6755L172.506 97.9456Z" fill="#034861"/>
<path d="M176.918 92.4271C176.539 92.4369 176.245 92.5657 176.037 92.8133C175.828 93.0571 175.714 93.4 175.694 93.8421L178.201 93.7771C178.182 93.3361 178.058 92.9993 177.829 92.7669C177.6 92.5305 177.297 92.4173 176.918 92.4271ZM177.313 97.9383C176.258 97.9656 175.427 97.696 174.818 97.1296C174.21 96.5631 173.891 95.7468 173.864 94.6808C173.835 93.5835 174.087 92.7291 174.618 92.1174C175.153 91.5018 175.905 91.1814 176.873 91.1563C177.799 91.1324 178.526 91.3773 179.055 91.8911C179.584 92.4049 179.861 93.1265 179.885 94.0559L179.907 94.9228L175.684 95.0322C175.717 95.5393 175.877 95.9318 176.166 96.2096C176.454 96.4873 176.853 96.6197 177.36 96.6065C177.755 96.5963 178.126 96.5456 178.476 96.4545C178.825 96.3634 179.189 96.2231 179.567 96.0335L179.603 97.4159C179.294 97.5802 178.963 97.704 178.61 97.7874C178.257 97.8747 177.824 97.925 177.313 97.9383Z" fill="#034861"/>
<path d="M184.095 97.7625C182.057 97.8153 181.009 96.723 180.951 94.4854C180.922 93.3725 181.177 92.516 181.717 91.9159C182.256 91.3119 183.043 90.9965 184.078 90.9697C184.835 90.95 185.519 91.0808 186.128 91.362L185.636 92.758C185.352 92.6521 185.088 92.5671 184.844 92.5031C184.6 92.4351 184.357 92.4043 184.115 92.4106C183.186 92.4347 182.738 93.1066 182.772 94.4265C182.805 95.7073 183.287 96.3357 184.216 96.3116C184.56 96.3027 184.877 96.2496 185.167 96.1522C185.458 96.0508 185.747 95.8988 186.035 95.6959L186.074 97.2247C185.79 97.4157 185.501 97.5502 185.206 97.6282C184.915 97.7061 184.545 97.7509 184.095 97.7625Z" fill="#034861"/>
<path d="M190.179 92.0835C189.8 92.0933 189.507 92.222 189.298 92.4697C189.089 92.7135 188.975 93.0564 188.955 93.4985L191.462 93.4335C191.443 92.9924 191.319 92.6557 191.09 92.4233C190.862 92.1869 190.558 92.0737 190.179 92.0835ZM190.574 97.5946C189.519 97.6219 188.688 97.3524 188.079 96.7859C187.471 96.2195 187.153 95.4032 187.125 94.3372C187.097 93.2399 187.348 92.3854 187.879 91.7738C188.414 91.1582 189.166 90.8378 190.134 90.8127C191.06 90.7887 191.787 91.0336 192.316 91.5475C192.845 92.0613 193.122 92.7829 193.146 93.7122L193.168 94.5791L188.945 94.6886C188.978 95.1957 189.139 95.5882 189.427 95.8659C189.716 96.1437 190.114 96.276 190.621 96.2629C191.016 96.2526 191.388 96.202 191.737 96.1109C192.086 96.0198 192.45 95.8794 192.828 95.6899L192.864 97.0722C192.555 97.2365 192.225 97.3604 191.871 97.4438C191.518 97.5311 191.085 97.5814 190.574 97.5946Z" fill="#034861"/>
<path d="M199.213 95.3076C199.23 95.9792 199.009 96.4968 198.55 96.8604C198.094 97.2239 197.402 97.4177 196.472 97.4418C195.996 97.4541 195.589 97.4315 195.251 97.3738C194.914 97.32 194.597 97.2344 194.301 97.1171L194.263 95.641C194.599 95.7886 194.975 95.9097 195.392 96.0044C195.812 96.0991 196.181 96.1423 196.497 96.1341C197.145 96.1173 197.464 95.9214 197.455 95.5466C197.451 95.406 197.405 95.2938 197.317 95.2102C197.229 95.1226 197.078 95.0268 196.864 94.923C196.65 94.8152 196.366 94.6917 196.01 94.5524C195.501 94.3546 195.125 94.1689 194.882 93.9955C194.643 93.8219 194.466 93.6214 194.351 93.3938C194.239 93.1622 194.179 92.8766 194.171 92.5369C194.155 91.955 194.368 91.5001 194.809 91.1722C195.254 90.8403 195.89 90.6636 196.718 90.6421C197.507 90.6217 198.279 90.7736 199.033 91.0979L198.528 92.4005C198.196 92.2684 197.887 92.1612 197.599 92.0788C197.312 91.9963 197.02 91.959 196.723 91.9666C196.196 91.9803 195.936 92.1297 195.943 92.4147C195.948 92.5748 196.035 92.7113 196.206 92.8241C196.381 92.9368 196.758 93.1009 197.338 93.3164C197.855 93.5101 198.235 93.6937 198.478 93.8671C198.721 94.0406 198.902 94.243 199.021 94.4744C199.14 94.7057 199.204 94.9835 199.213 95.3076Z" fill="#034861"/>
<path d="M200.368 88.9767C200.352 88.3949 200.669 88.0956 201.317 88.0788C201.965 88.062 202.297 88.3445 202.312 88.9263C202.319 89.2036 202.243 89.4224 202.083 89.5829C201.927 89.7393 201.687 89.8217 201.363 89.8301C200.714 89.8469 200.383 89.5625 200.368 88.9767ZM202.444 97.1698L200.657 97.2161L200.488 90.6675L202.274 90.6212L202.444 97.1698Z" fill="#034861"/>
<path d="M207.049 95.7434C207.361 95.7353 207.734 95.6573 208.168 95.5093L208.203 96.8389C207.763 97.0496 207.219 97.1633 206.57 97.1801C205.856 97.1986 205.33 97.0325 204.992 96.6818C204.659 96.327 204.483 95.7884 204.464 95.066L204.382 91.9089L203.527 91.931L203.508 91.1754L204.476 90.5525L204.956 89.1567L206.098 89.1271L206.134 90.5212L207.967 90.4737L208.002 91.8151L206.169 91.8626L206.251 95.0197C206.257 95.2735 206.332 95.4591 206.476 95.5765C206.624 95.6939 206.815 95.7495 207.049 95.7434Z" fill="#034861"/>
<path d="M213.696 96.8783L213.327 95.9969L213.28 95.9981C212.989 96.3847 212.686 96.6563 212.369 96.813C212.057 96.9657 211.645 97.0486 211.133 97.0619C210.505 97.0782 210.004 96.9114 209.632 96.5615C209.263 96.2116 209.07 95.7047 209.053 95.0409C209.035 94.3458 209.264 93.828 209.739 93.4874C210.219 93.1428 210.948 92.9403 211.928 92.8797L213.063 92.8152L213.056 92.5281C213.038 91.8643 212.69 91.5412 212.011 91.5588C211.487 91.5723 210.876 91.7464 210.178 92.0811L209.555 90.8898C210.298 90.4758 211.129 90.257 212.047 90.2332C212.925 90.2104 213.604 90.3843 214.082 90.7549C214.561 91.1254 214.81 91.7012 214.83 92.4822L214.943 96.8459L213.696 96.8783ZM213.09 93.8578L212.399 93.8991C211.88 93.9282 211.496 94.0319 211.247 94.2103C210.998 94.3887 210.877 94.6536 210.887 95.0051C210.9 95.5088 211.195 95.7532 211.773 95.7382C212.187 95.7275 212.514 95.5998 212.754 95.3553C212.997 95.1106 213.114 94.791 213.104 94.3967L213.09 93.8578Z" fill="#034861"/>
<path d="M216.515 95.967C216.506 95.639 216.588 95.3888 216.759 95.2163C216.931 95.0438 217.184 94.9533 217.52 94.9446C217.844 94.9362 218.096 95.0156 218.276 95.1828C218.461 95.35 218.557 95.5937 218.565 95.9139C218.573 96.2224 218.49 96.4688 218.315 96.6531C218.139 96.8334 217.892 96.9278 217.572 96.9361C217.244 96.9446 216.988 96.8652 216.803 96.6981C216.619 96.527 216.523 96.2833 216.515 95.967Z" fill="#034861"/>
<path d="M83.6887 95.5443H90.1635V102.019H83.6887V95.5443Z" fill="#FCC37A"/>
<path d="M66.4225 109.573C66.4225 110.432 66.7636 111.255 67.3707 111.862C67.9779 112.469 68.8013 112.81 69.6599 112.81H71.8182V119.285H94.48V104.177C94.4766 103.034 94.0207 101.938 93.2119 101.129C92.4032 100.32 91.3072 99.8642 90.1634 99.8608H85.1994C84.218 99.8591 83.2656 100.194 82.5016 100.81L75.5951 106.336H69.6599C68.8013 106.336 67.9779 106.677 67.3707 107.284C66.7636 107.891 66.4225 108.714 66.4225 109.573Z" fill="#F23333"/>
<path d="M79.3722 90.1485C79.3674 91.8628 79.9472 93.5274 81.0159 94.8678C82.0845 96.2082 83.5782 97.1442 85.2505 97.5214C86.9227 97.8986 88.6736 97.6945 90.2142 96.9426C91.7548 96.1908 92.993 94.9362 93.7246 93.3859H93.7462C94.2344 92.3769 94.4855 91.2695 94.48 90.1485C94.4769 88.5942 93.9943 87.0787 93.0982 85.8087C92.202 84.5387 90.9359 83.5761 89.4726 83.0521C88.0092 82.5281 86.4198 82.4683 84.9213 82.8808C83.4227 83.2934 82.0878 84.1581 81.0988 85.3572L80.9693 85.5514C80.5945 85.9998 80.2889 86.5018 80.0628 87.0406L80.0412 87.0622C79.5989 88.0309 79.3707 89.0836 79.3722 90.1485Z" fill="#FFD9AA"/>
<path d="M80.0413 87.0623L89.3003 88.8968C89.544 88.9466 89.7631 89.079 89.9204 89.2717C90.0777 89.4644 90.1636 89.7056 90.1636 89.9544V92.3069C90.1636 92.5931 90.2773 92.8676 90.4796 93.0699C90.682 93.2723 90.9565 93.386 91.2427 93.386H93.7463C94.5204 91.7234 94.6632 89.836 94.148 88.0758C93.6329 86.3157 92.495 84.8031 90.9467 83.8202C89.3984 82.8373 87.5453 82.4512 85.7333 82.7341C83.9213 83.0169 82.274 83.9493 81.0989 85.3572L80.9694 85.5515C80.4945 86.35 80.1276 86.9328 80.0629 87.0407L80.0413 87.0623Z" fill="#57565D"/>
<path d="M27.0982 58.1165C27.0982 54.6283 28.4828 51.2828 30.9478 48.8149C33.4129 46.347 36.7568 44.9586 40.2449 44.9546C42.5109 44.9687 44.7339 45.5741 46.6942 46.7107C47.7073 45.0866 49.0654 43.7054 50.6721 42.6649C52.2788 41.6245 54.0947 40.9503 55.9912 40.6902C57.8876 40.4302 59.818 40.5906 61.6455 41.1601C63.473 41.7296 65.1527 42.6943 66.5657 43.9857C68.0075 42.6789 69.722 41.7093 71.5849 41.147C73.4478 40.5847 75.4125 40.4439 77.3365 40.7347C79.2606 41.0255 81.0959 41.7407 82.7094 42.8284C84.3229 43.9161 85.6742 45.3492 86.6655 47.0236C87.6568 48.6981 88.2631 50.5722 88.4406 52.51C88.6182 54.4478 88.3624 56.4008 87.6919 58.2275C87.0214 60.0543 85.9529 61.709 84.5639 63.0717C83.1749 64.4345 81.5001 65.4713 79.6609 66.1068C79.6761 66.3703 79.7397 66.6216 79.7397 66.888C79.7492 69.4326 79.0181 71.9249 77.6355 74.0611C76.2529 76.1972 74.2785 77.8848 71.9532 78.9181C69.6279 79.9514 67.0522 80.2857 64.5401 79.8802C62.0281 79.4747 59.6883 78.347 57.8062 76.6345C56.1711 78.1294 54.1822 79.1831 52.027 79.6962C49.8717 80.2093 47.6213 80.1649 45.4881 79.5671C43.3548 78.9693 41.409 77.8379 39.8342 76.2796C38.2594 74.7213 37.1076 72.7875 36.4874 70.6607C33.7809 69.8585 31.4054 68.2046 29.7138 65.9446C28.0223 63.6847 27.105 60.9393 27.0982 58.1165Z" fill="white"/>
<path d="M49.1536 80.0508L44.9057 80.8179C44.3424 80.9196 43.8426 81.241 43.5163 81.7112C43.1899 82.1815 43.0637 82.7621 43.1654 83.3254L46.6175 102.441C46.7192 103.004 47.0406 103.504 47.5108 103.83C47.9811 104.156 48.5617 104.283 49.125 104.181L53.3728 103.414L49.1536 80.0508Z" fill="#57565D"/>
<path d="M46.9981 108.494H34.0485V112.81H49.1564V110.652C49.1564 110.08 48.929 109.531 48.5242 109.126C48.1195 108.721 47.5705 108.494 46.9981 108.494Z" fill="#8C8890"/>
<path d="M43.8902 87.3428L34.0485 108.494H39.4442L45.3147 95.2205L43.8902 87.3428Z" fill="#D9D8DA"/>
<path d="M77.0137 86.4068C74.9167 86.4068 73.2168 84.7069 73.2168 82.6099C73.2168 80.513 74.9167 78.813 77.0137 78.813C79.1106 78.813 80.8105 80.513 80.8105 82.6099C80.8105 84.7069 79.1106 86.4068 77.0137 86.4068Z" fill="white"/>
<path d="M66.4225 109.573C66.4225 110.432 66.7636 111.255 67.3708 111.862C67.9779 112.469 68.8013 112.81 69.6599 112.81H72.8973V106.336H69.6599C68.8013 106.336 67.9779 106.677 67.3708 107.284C66.7636 107.891 66.4225 108.714 66.4225 109.573Z" fill="#FFD9AA"/>
<path d="M75.9188 114.923C76.1824 114.924 76.439 114.839 76.6505 114.682L86.4361 107.432C86.5644 107.338 86.6727 107.219 86.7546 107.083C86.8365 106.946 86.8903 106.795 86.913 106.637C86.9357 106.48 86.9268 106.319 86.8868 106.165C86.8468 106.011 86.7765 105.866 86.68 105.74C86.4831 105.484 86.1938 105.315 85.8739 105.269C85.554 105.224 85.2291 105.305 84.9685 105.496L75.185 112.748C75.0567 112.842 74.9484 112.961 74.8665 113.097C74.7846 113.234 74.7308 113.385 74.7081 113.543C74.6854 113.7 74.6943 113.861 74.7343 114.015C74.7743 114.169 74.8446 114.313 74.9411 114.44C75.0557 114.59 75.2036 114.712 75.3733 114.796C75.5429 114.88 75.7296 114.924 75.9188 114.923Z" fill="#DB0000"/>
<path d="M71.8182 106.336H73.9764V112.81H71.8182V106.336Z" fill="#DB0000"/>
<path d="M83.6887 112.81H27.5738V117.127C27.5738 117.699 27.8012 118.248 28.2059 118.653C28.6107 119.058 29.1596 119.285 29.7321 119.285H83.6887V112.81Z" fill="#57565D"/>
<g clip-path="url(#clip0)">
<path d="M41.4271 54.5995L41.8228 54.5403C43.2011 54.3634 44.6314 54.688 45.7416 55.4753C45.4353 55.8777 45.1194 56.2669 44.8205 56.6681C44.2052 56.2798 43.4938 56.0151 42.7578 55.9941C41.6655 55.9391 40.5517 56.3021 39.7493 57.0115C38.869 57.7616 38.3651 58.8848 38.3871 60.0021C38.392 61.1074 38.8833 62.1982 39.7482 62.9276C40.5799 63.64 41.7393 63.9906 42.8647 63.8588C43.9187 63.7594 44.9632 63.2904 45.6206 62.479C46.1445 61.8986 46.3091 61.1099 46.2902 60.3705C45.0506 60.5558 43.8121 60.7483 42.5714 60.9265L42.3522 59.4602L47.5719 58.6799C48.0759 60.2127 47.9525 62.043 46.8661 63.3552C46.149 64.2774 45.0618 64.9202 43.8958 65.1891C42.7692 65.4666 41.5585 65.4366 40.4642 65.0617C39.1545 64.6245 38.0273 63.7233 37.3653 62.5634C36.7481 61.4987 36.5491 60.2187 36.797 59.0173C37.0225 57.9212 37.617 56.8937 38.4621 56.1124C39.271 55.3439 40.3165 54.831 41.4271 54.5995Z" fill="#3780FF"/>
<path d="M71.4264 50.4919L73.0244 50.253L74.5439 60.4169C74.0137 60.4962 73.4771 60.5837 72.9448 60.6487C72.4469 57.2668 71.9329 53.8799 71.4264 50.4919Z" fill="#38B137"/>
<path d="M50.9773 57.151C51.9364 56.8257 53.034 56.8654 53.932 57.306C54.7458 57.6937 55.3781 58.3996 55.6626 59.2303C56.0121 60.1895 55.9199 61.3093 55.3649 62.1927C54.7715 63.1765 53.6544 63.8237 52.4863 63.9256C51.4174 64.0272 50.3114 63.6759 49.5607 62.944C48.7151 62.139 48.3561 60.912 48.5848 59.7863C48.8018 58.5823 49.7686 57.5428 50.9773 57.151ZM51.4035 58.4699C51.0152 58.6298 50.6748 58.9063 50.4528 59.2596C49.8519 60.1936 50.0978 61.5321 51.0117 62.1813C51.5332 62.5545 52.251 62.6582 52.8677 62.4423C53.4427 62.2545 53.9016 61.8002 54.1108 61.2596C54.4771 60.3389 54.1607 59.1928 53.3075 58.6437C52.7583 58.2892 52.0223 58.2173 51.4035 58.4699Z" fill="#FA3913"/>
<path d="M58.8928 55.9676C59.9895 55.5927 61.2663 55.7074 62.2229 56.3357C63.7725 57.3047 64.2506 59.4817 63.2804 61.0093C62.6987 61.9695 61.6189 62.6112 60.4765 62.731C59.3894 62.8644 58.245 62.5116 57.4762 61.7606C56.6124 60.9365 56.2641 59.6788 56.512 58.5284C56.7567 57.3567 57.7054 56.3489 58.8928 55.9676ZM59.319 57.2865C58.9306 57.4464 58.5902 57.7229 58.3672 58.0691C57.7716 58.9877 57.9994 60.3071 58.8845 60.9679C59.4092 61.3625 60.1526 61.4842 60.7906 61.2578C61.3571 61.064 61.8245 60.6157 62.0338 60.0751C62.3915 59.1484 62.0751 58.0023 61.2144 57.4543C60.6652 57.0998 59.9303 57.035 59.319 57.2865Z" fill="#FCBD06"/>
<path d="M65.6676 55.3768C66.4497 54.736 67.571 54.4228 68.5629 54.7257C68.8722 54.8032 69.142 54.9739 69.4044 55.1457C69.3831 54.9524 69.3458 54.7542 69.3235 54.5538C69.8249 54.4861 70.3241 54.4042 70.833 54.3354L71.7715 60.6131C71.9055 61.5608 71.8017 62.6024 71.188 63.4C70.5178 64.2788 69.3507 64.6934 68.2445 64.6987C67.0626 64.708 65.9343 64.0544 65.3341 63.1036C65.7512 62.8302 66.1972 62.5962 66.6315 62.3348C66.9801 62.8793 67.5847 63.2983 68.2664 63.3128C68.948 63.3273 69.6937 63.0558 70.0481 62.4643C70.4302 61.8542 70.3195 61.1139 70.1981 60.4554C69.9025 60.827 69.5493 61.1709 69.0874 61.3491C68.0909 61.7818 66.8973 61.611 65.9983 61.0614C65.0918 60.5129 64.4596 59.5523 64.3512 58.5207C64.2001 57.3572 64.7201 56.137 65.6676 55.3768ZM67.3495 56.0568C66.9047 56.1961 66.5152 56.5017 66.274 56.8798C65.6912 57.7819 65.8817 59.0559 66.7082 59.7328C67.1806 60.1352 67.8685 60.2943 68.4862 60.1364C69.0676 59.9913 69.5595 59.5539 69.7773 59.0193C70.1457 58.1128 69.8944 56.9934 69.1212 56.3668C68.6435 55.9798 67.9534 55.8574 67.3495 56.0568Z" fill="#3780FF"/>
<path d="M75.5863 54.2651C76.3632 53.334 77.7042 52.857 78.917 53.105C80.0657 53.3335 80.9081 54.219 81.4112 55.1844C79.8866 56.0672 78.3683 56.9418 76.8437 57.8246C77.1284 58.1969 77.5272 58.5156 78.0125 58.5959C78.6951 58.7194 79.4601 58.525 79.9435 58.0307C80.1366 57.8417 80.2775 57.6096 80.412 57.3858C80.862 57.5877 81.3111 57.7826 81.7611 57.9845C81.3032 58.9043 80.4122 59.6342 79.3731 59.8842C78.2285 60.1936 76.925 59.9518 76.041 59.1962C74.5971 58.015 74.374 55.7052 75.5863 54.2651ZM76.5821 55.4624C76.3804 55.8492 76.3397 56.2918 76.4099 56.7107C77.4289 56.1217 78.4478 55.5328 79.4656 54.9368C79.2268 54.565 78.7576 54.3877 78.3074 54.3895C77.5799 54.3746 76.8949 54.8481 76.5821 55.4624Z" fill="#FA3913"/>
</g>
<defs>
<clipPath id="clip0">
<rect width="45" height="14" fill="white" transform="translate(35.9458 55.4166) rotate(-8.50269)"/>
</clipPath>
</defs>
</svg>
